%TF.GenerationSoftware,KiCad,Pcbnew,(7.0.0)*%
%TF.CreationDate,2023-03-10T09:33:02-07:00*%
%TF.ProjectId,L0005-Valve-Controller,4c303030-352d-4566-916c-76652d436f6e,1.0*%
%TF.SameCoordinates,Original*%
%TF.FileFunction,Paste,Top*%
%TF.FilePolarity,Positive*%
%FSLAX46Y46*%
G04 Gerber Fmt 4.6, Leading zero omitted, Abs format (unit mm)*
G04 Created by KiCad (PCBNEW (7.0.0)) date 2023-03-10 09:33:02*
%MOMM*%
%LPD*%
G01*
G04 APERTURE LIST*
%ADD10C,0.010000*%
%ADD11R,0.685800X0.609600*%
%ADD12R,2.150000X0.950000*%
%ADD13R,2.150000X3.250000*%
%ADD14R,1.560000X0.280000*%
%ADD15R,0.280000X1.560000*%
%ADD16R,1.100000X1.000000*%
%ADD17R,1.020000X0.940000*%
%ADD18R,0.979300X0.558800*%
%ADD19R,0.900000X0.254000*%
%ADD20R,0.254000X0.900000*%
%ADD21R,0.940000X1.020000*%
%ADD22R,0.508000X0.254000*%
%ADD23R,1.000000X0.800000*%
%ADD24R,1.700000X0.990600*%
%ADD25R,1.600000X0.855600*%
%ADD26R,0.855600X1.600000*%
%ADD27R,1.900000X1.500000*%
%ADD28R,3.048000X1.854200*%
%ADD29R,1.854200X3.048000*%
%ADD30R,0.965200X1.295400*%
%ADD31R,1.778000X1.270000*%
%ADD32R,1.219200X0.457200*%
%ADD33R,1.000000X1.100000*%
%ADD34R,2.620000X3.200000*%
G04 APERTURE END LIST*
%TO.C,U3*%
G36*
X161726520Y-94889000D02*
G01*
X160474000Y-94889000D01*
X160474000Y-93636480D01*
X161726520Y-93636480D01*
X161726520Y-94889000D01*
G37*
D10*
X161726520Y-94889000D02*
X160474000Y-94889000D01*
X160474000Y-93636480D01*
X161726520Y-93636480D01*
X161726520Y-94889000D01*
G36*
X161726480Y-96639000D02*
G01*
X160474000Y-96639000D01*
X160474000Y-95389413D01*
X161726480Y-95389413D01*
X161726480Y-96639000D01*
G37*
X161726480Y-96639000D02*
X160474000Y-96639000D01*
X160474000Y-95389413D01*
X161726480Y-95389413D01*
X161726480Y-96639000D01*
G36*
X159973938Y-96639000D02*
G01*
X158724000Y-96639000D01*
X158724000Y-95389062D01*
X159973938Y-95389062D01*
X159973938Y-96639000D01*
G37*
X159973938Y-96639000D02*
X158724000Y-96639000D01*
X158724000Y-95389062D01*
X159973938Y-95389062D01*
X159973938Y-96639000D01*
G36*
X159973544Y-94889000D02*
G01*
X158724000Y-94889000D01*
X158724000Y-93636270D01*
X159973544Y-93636270D01*
X159973544Y-94889000D01*
G37*
X159973544Y-94889000D02*
X158724000Y-94889000D01*
X158724000Y-93636270D01*
X159973544Y-93636270D01*
X159973544Y-94889000D01*
%TD*%
D11*
%TO.C,J1*%
X126136399Y-78790799D03*
X125018799Y-78790799D03*
%TD*%
D12*
%TO.C,U2*%
X140630999Y-70216999D03*
X140630999Y-72516999D03*
D13*
X146430999Y-72516999D03*
D12*
X140630999Y-74816999D03*
%TD*%
D14*
%TO.C,U1*%
X127679699Y-85795599D03*
X127679699Y-86295599D03*
X127679699Y-86795599D03*
X127679699Y-87295599D03*
X127679699Y-87795599D03*
X127679699Y-88295599D03*
X127679699Y-88795599D03*
X127679699Y-89295599D03*
X127679699Y-89795599D03*
X127679699Y-90295599D03*
X127679699Y-90795599D03*
X127679699Y-91295599D03*
X127679699Y-91795599D03*
X127679699Y-92295599D03*
X127679699Y-92795599D03*
X127679699Y-93295599D03*
X127679699Y-93795599D03*
X127679699Y-94295599D03*
X127679699Y-94795599D03*
X127679699Y-95295599D03*
X127679699Y-95795599D03*
X127679699Y-96295599D03*
X127679699Y-96795599D03*
X127679699Y-97295599D03*
X127679699Y-97795599D03*
D15*
X129359699Y-99475599D03*
X129859699Y-99475599D03*
X130359699Y-99475599D03*
X130859699Y-99475599D03*
X131359699Y-99475599D03*
X131859699Y-99475599D03*
X132359699Y-99475599D03*
X132859699Y-99475599D03*
X133359699Y-99475599D03*
X133859699Y-99475599D03*
X134359699Y-99475599D03*
X134859699Y-99475599D03*
X135359699Y-99475599D03*
X135859699Y-99475599D03*
X136359699Y-99475599D03*
X136859699Y-99475599D03*
X137359699Y-99475599D03*
X137859699Y-99475599D03*
X138359699Y-99475599D03*
X138859699Y-99475599D03*
X139359699Y-99475599D03*
X139859699Y-99475599D03*
X140359699Y-99475599D03*
X140859699Y-99475599D03*
X141359699Y-99475599D03*
D14*
X143039699Y-97795599D03*
X143039699Y-97295599D03*
X143039699Y-96795599D03*
X143039699Y-96295599D03*
X143039699Y-95795599D03*
X143039699Y-95295599D03*
X143039699Y-94795599D03*
X143039699Y-94295599D03*
X143039699Y-93795599D03*
X143039699Y-93295599D03*
X143039699Y-92795599D03*
X143039699Y-92295599D03*
X143039699Y-91795599D03*
X143039699Y-91295599D03*
X143039699Y-90795599D03*
X143039699Y-90295599D03*
X143039699Y-89795599D03*
X143039699Y-89295599D03*
X143039699Y-88795599D03*
X143039699Y-88295599D03*
X143039699Y-87795599D03*
X143039699Y-87295599D03*
X143039699Y-86795599D03*
X143039699Y-86295599D03*
X143039699Y-85795599D03*
D15*
X141359699Y-84115599D03*
X140859699Y-84115599D03*
X140359699Y-84115599D03*
X139859699Y-84115599D03*
X139359699Y-84115599D03*
X138859699Y-84115599D03*
X138359699Y-84115599D03*
X137859699Y-84115599D03*
X137359699Y-84115599D03*
X136859699Y-84115599D03*
X136359699Y-84115599D03*
X135859699Y-84115599D03*
X135359699Y-84115599D03*
X134859699Y-84115599D03*
X134359699Y-84115599D03*
X133859699Y-84115599D03*
X133359699Y-84115599D03*
X132859699Y-84115599D03*
X132359699Y-84115599D03*
X131859699Y-84115599D03*
X131359699Y-84115599D03*
X130859699Y-84115599D03*
X130359699Y-84115599D03*
X129859699Y-84115599D03*
X129359699Y-84115599D03*
%TD*%
D16*
%TO.C,C3*%
X123355999Y-90423999D03*
X125055999Y-90423999D03*
%TD*%
D17*
%TO.C,R15*%
X177520599Y-105155999D03*
X177520599Y-103575999D03*
%TD*%
%TO.C,R17*%
X180466999Y-105183999D03*
X180466999Y-103603999D03*
%TD*%
%TO.C,R20*%
X175742599Y-105155999D03*
X175742599Y-103575999D03*
%TD*%
D18*
%TO.C,D4*%
X167925051Y-95696998D03*
X167925051Y-96646999D03*
X167925051Y-97597000D03*
X170656947Y-97597000D03*
X170656947Y-95696998D03*
%TD*%
D19*
%TO.C,U3*%
X162813999Y-96638999D03*
X162813999Y-96138999D03*
X162813999Y-95638999D03*
X162813999Y-95138999D03*
X162813999Y-94638999D03*
X162813999Y-94138999D03*
X162813999Y-93638999D03*
D20*
X161723999Y-92548999D03*
X161223999Y-92548999D03*
X160723999Y-92548999D03*
X160223999Y-92548999D03*
X159723999Y-92548999D03*
X159223999Y-92548999D03*
X158723999Y-92548999D03*
D19*
X157633999Y-93638999D03*
X157633999Y-94138999D03*
X157633999Y-94638999D03*
X157633999Y-95138999D03*
X157633999Y-95638999D03*
X157633999Y-96138999D03*
X157633999Y-96638999D03*
D20*
X158723999Y-97728999D03*
X159223999Y-97728999D03*
X159723999Y-97728999D03*
X160223999Y-97728999D03*
X160723999Y-97728999D03*
X161223999Y-97728999D03*
X161723999Y-97728999D03*
%TD*%
D21*
%TO.C,R32*%
X183923999Y-80644999D03*
X182343999Y-80644999D03*
%TD*%
%TO.C,R31*%
X157832999Y-90169999D03*
X159412999Y-90169999D03*
%TD*%
%TO.C,R30*%
X157832999Y-87502999D03*
X159412999Y-87502999D03*
%TD*%
%TO.C,R29*%
X182343999Y-82803999D03*
X183923999Y-82803999D03*
%TD*%
D17*
%TO.C,R28*%
X148716999Y-102643999D03*
X148716999Y-101063999D03*
%TD*%
D21*
%TO.C,R25*%
X150974999Y-104647999D03*
X152554999Y-104647999D03*
%TD*%
D17*
%TO.C,R24*%
X156336999Y-103024999D03*
X156336999Y-101444999D03*
%TD*%
D22*
%TO.C,Q3*%
X158088999Y-112521999D03*
X158088999Y-113029999D03*
X158088999Y-113537999D03*
X159892399Y-113537999D03*
X159892399Y-113029999D03*
X159892399Y-112521999D03*
%TD*%
D11*
%TO.C,J2*%
X114096799Y-103758999D03*
X112979199Y-103758999D03*
%TD*%
D23*
%TO.C,D3*%
X151522999Y-99779999D03*
X153022999Y-99779999D03*
X153022999Y-100879999D03*
X151522999Y-100879999D03*
%TD*%
D16*
%TO.C,C23*%
X164249999Y-90296999D03*
X165949999Y-90296999D03*
%TD*%
%TO.C,C22*%
X164376999Y-92201999D03*
X166076999Y-92201999D03*
%TD*%
D24*
%TO.C,B1*%
X116441199Y-99948798D03*
X111041199Y-99948798D03*
X116441199Y-96748800D03*
X111041199Y-96748800D03*
%TD*%
D25*
%TO.C,C16*%
X78079599Y-112068600D03*
X78079599Y-109012998D03*
%TD*%
%TO.C,C17*%
X104800399Y-89708998D03*
X104800399Y-92764600D03*
%TD*%
%TO.C,C18*%
X69494399Y-112119400D03*
X69494399Y-109063798D03*
%TD*%
D26*
%TO.C,C19*%
X84331800Y-98170999D03*
X81276198Y-98170999D03*
%TD*%
%TO.C,C20*%
X71631800Y-83311999D03*
X68576198Y-83311999D03*
%TD*%
%TO.C,C21*%
X82172800Y-70357999D03*
X79117198Y-70357999D03*
%TD*%
D27*
%TO.C,K1*%
X102955999Y-114807999D03*
X102955999Y-112267999D03*
X102955999Y-109727999D03*
X102955999Y-107187999D03*
X94655999Y-107187999D03*
X94655999Y-109727999D03*
X94655999Y-114807999D03*
%TD*%
%TO.C,K2*%
X101812999Y-101726999D03*
X101812999Y-99186999D03*
X101812999Y-96646999D03*
X101812999Y-94106999D03*
X93512999Y-94106999D03*
X93512999Y-96646999D03*
X93512999Y-101726999D03*
%TD*%
%TO.C,K3*%
X89620999Y-114680999D03*
X89620999Y-112140999D03*
X89620999Y-109600999D03*
X89620999Y-107060999D03*
X81320999Y-107060999D03*
X81320999Y-109600999D03*
X81320999Y-114680999D03*
%TD*%
%TO.C,K4*%
X88063499Y-94868999D03*
X88063499Y-92328999D03*
X88063499Y-89788999D03*
X88063499Y-87248999D03*
X79763499Y-87248999D03*
X79763499Y-89788999D03*
X79763499Y-94868999D03*
%TD*%
%TO.C,K5*%
X88096999Y-82803999D03*
X88096999Y-80263999D03*
X88096999Y-77723999D03*
X88096999Y-75183999D03*
X79796999Y-75183999D03*
X79796999Y-77723999D03*
X79796999Y-82803999D03*
%TD*%
%TO.C,K6*%
X118111699Y-92811599D03*
X118111699Y-90271599D03*
X118111699Y-87731599D03*
X118111699Y-85191599D03*
X109811699Y-85191599D03*
X109811699Y-87731599D03*
X109811699Y-92811599D03*
%TD*%
D21*
%TO.C,R2*%
X73123999Y-116331999D03*
X74703999Y-116331999D03*
%TD*%
%TO.C,R3*%
X73383199Y-114350799D03*
X71803199Y-114350799D03*
%TD*%
D17*
%TO.C,R4*%
X105308399Y-101627999D03*
X105308399Y-100047999D03*
%TD*%
%TO.C,R5*%
X75336399Y-109293599D03*
X75336399Y-110873599D03*
%TD*%
%TO.C,R6*%
X104800399Y-86387999D03*
X104800399Y-84807999D03*
%TD*%
%TO.C,R7*%
X72491599Y-110873599D03*
X72491599Y-109293599D03*
%TD*%
D21*
%TO.C,R8*%
X88521599Y-98348799D03*
X86941599Y-98348799D03*
%TD*%
%TO.C,R9*%
X75562399Y-85445599D03*
X77142399Y-85445599D03*
%TD*%
%TO.C,R10*%
X87911999Y-69976999D03*
X86331999Y-69976999D03*
%TD*%
%TO.C,R11*%
X83746399Y-101244399D03*
X82166399Y-101244399D03*
%TD*%
%TO.C,R12*%
X75536999Y-83438999D03*
X77116999Y-83438999D03*
%TD*%
%TO.C,R13*%
X86331999Y-71881999D03*
X87911999Y-71881999D03*
%TD*%
D28*
%TO.C,RV1*%
X110591599Y-106467899D03*
X110591599Y-115324899D03*
%TD*%
D29*
%TO.C,RV2*%
X92726499Y-87248999D03*
X101583499Y-87248999D03*
%TD*%
%TO.C,RV3*%
X69358499Y-103631999D03*
X78215499Y-103631999D03*
%TD*%
D28*
%TO.C,RV4*%
X72643999Y-97138499D03*
X72643999Y-88281499D03*
%TD*%
%TO.C,RV5*%
X73151999Y-80247499D03*
X73151999Y-71390499D03*
%TD*%
D29*
%TO.C,RV6*%
X101329499Y-75056999D03*
X92472499Y-75056999D03*
%TD*%
D30*
%TO.C,D1*%
X142620999Y-79120999D03*
X145668999Y-79120999D03*
%TD*%
D17*
%TO.C,R27*%
X114655599Y-79834799D03*
X114655599Y-78254799D03*
%TD*%
%TO.C,R21*%
X182397399Y-103553199D03*
X182397399Y-105133199D03*
%TD*%
D31*
%TO.C,C2*%
X149478999Y-73837799D03*
X149478999Y-71196199D03*
%TD*%
D16*
%TO.C,C8*%
X126353199Y-103530399D03*
X128053199Y-103530399D03*
%TD*%
%TO.C,C4*%
X126353199Y-101599999D03*
X128053199Y-101599999D03*
%TD*%
D22*
%TO.C,Q2*%
X171296999Y-112648999D03*
X171296999Y-113156999D03*
X171296999Y-113664999D03*
X173100399Y-113664999D03*
X173100399Y-113156999D03*
X173100399Y-112648999D03*
%TD*%
D32*
%TO.C,U5*%
X143649699Y-108508799D03*
X143649699Y-111048799D03*
X153631899Y-111048799D03*
X153631899Y-108508799D03*
%TD*%
D33*
%TO.C,C12*%
X137566399Y-103567599D03*
X137566399Y-101867599D03*
%TD*%
D22*
%TO.C,Q1*%
X153770999Y-116331999D03*
X153770999Y-116839999D03*
X153770999Y-117347999D03*
X155574399Y-117347999D03*
X155574399Y-116839999D03*
X155574399Y-116331999D03*
%TD*%
D31*
%TO.C,C1*%
X137540999Y-73202799D03*
X137540999Y-70561199D03*
%TD*%
D16*
%TO.C,C10*%
X122949599Y-95402399D03*
X124649599Y-95402399D03*
%TD*%
D21*
%TO.C,R22*%
X150215599Y-114045999D03*
X148635599Y-114045999D03*
%TD*%
%TO.C,R1*%
X138579799Y-79120999D03*
X140159799Y-79120999D03*
%TD*%
%TO.C,R26*%
X110721199Y-78181199D03*
X109141199Y-78181199D03*
%TD*%
D34*
%TO.C,F1*%
X121581399Y-107899199D03*
X129675399Y-107899199D03*
%TD*%
D16*
%TO.C,C9*%
X122898799Y-97281999D03*
X124598799Y-97281999D03*
%TD*%
D17*
%TO.C,R14*%
X167131999Y-115795999D03*
X167131999Y-117375999D03*
%TD*%
D33*
%TO.C,C15*%
X117754399Y-102629599D03*
X117754399Y-104329599D03*
%TD*%
%TO.C,C11*%
X139649199Y-103516799D03*
X139649199Y-101816799D03*
%TD*%
D16*
%TO.C,C7*%
X129424799Y-81533999D03*
X127724799Y-81533999D03*
%TD*%
%TO.C,C13*%
X147103199Y-87223599D03*
X145403199Y-87223599D03*
%TD*%
%TO.C,C6*%
X147103199Y-85394799D03*
X145403199Y-85394799D03*
%TD*%
D17*
%TO.C,R18*%
X169316399Y-115846799D03*
X169316399Y-117426799D03*
%TD*%
D30*
%TO.C,D2*%
X142493999Y-115620799D03*
X145541999Y-115620799D03*
%TD*%
D16*
%TO.C,C5*%
X141745599Y-101752399D03*
X143445599Y-101752399D03*
%TD*%
D17*
%TO.C,R19*%
X164566599Y-117325199D03*
X164566599Y-115745199D03*
%TD*%
D16*
%TO.C,C14*%
X147103199Y-88950799D03*
X145403199Y-88950799D03*
%TD*%
D21*
%TO.C,R23*%
X138356399Y-108305599D03*
X136776399Y-108305599D03*
%TD*%
D17*
%TO.C,R16*%
X162712399Y-115745199D03*
X162712399Y-117325199D03*
%TD*%
M02*
