M48
; DRILL file {KiCad (6.0.4)} date Tue Apr 12 20:51:21 2022
; FORMAT={-:-/ absolute / inch / decimal}
; #@! TF.CreationDate,2022-04-12T20:51:21-07:00
; #@! TF.GenerationSoftware,Kicad,Pcbnew,(6.0.4)
; #@! TF.FileFunction,Plated,1,4,PTH
FMAT,2
INCH
; #@! TA.AperFunction,Plated,PTH,ViaDrill
T1C0.0119
; #@! TA.AperFunction,Plated,PTH,ViaDrill
T2C0.0250
; #@! TA.AperFunction,Plated,PTH,ComponentDrill
T3C0.0290
; #@! TA.AperFunction,Plated,PTH,ComponentDrill
T4C0.0295
; #@! TA.AperFunction,Plated,PTH,ComponentDrill
T5C0.0315
; #@! TA.AperFunction,Plated,PTH,ComponentDrill
T6C0.0669
; #@! TA.AperFunction,Plated,PTH,ComponentDrill
T7C0.0709
%
G90
G05
T1
X2.746Y-4.534
X3.026Y-4.182
X3.032Y-2.744
X3.074Y-4.22
X3.095Y-4.583
X3.272Y-3.692
X3.324Y-3.654
X3.352Y-3.258
X3.354Y-2.96
X3.387Y-3.435
X3.455Y-4.215
X3.574Y-3.82
X3.638Y-4.528
X3.848Y-3.024
X3.915Y-3.705
X3.948Y-4.524
X3.956Y-4.22
X4.514Y-3.032
X4.544Y-3.354
X4.5835Y-4.1075
X4.768Y-3.214
X4.786Y-3.756
X4.812Y-3.66
X4.832Y-3.432
X4.864Y-3.314
X4.918Y-3.52
X4.946Y-3.242
X4.954Y-3.866
X4.958Y-3.756
X4.9631Y-3.8109
X4.968Y-3.306
X5.02Y-3.954
X5.042Y-3.296
X5.0914Y-3.5746
X5.092Y-3.786
X5.095Y-3.981
X5.106Y-3.444
X5.1126Y-3.2514
X5.158Y-3.41
X5.22Y-3.544
X5.308Y-3.38
X5.392Y-3.47
X5.412Y-3.198
X5.43Y-3.49
X5.486Y-3.476
X5.542Y-3.504
X5.568Y-3.558
X5.5705Y-3.3975
X5.5725Y-4.0755
X5.58Y-3.508
X5.622Y-3.938
X5.658Y-3.316
X5.724Y-3.8
X5.726Y-3.562
X5.766Y-3.592
X5.792Y-3.028
X5.846Y-3.362
X5.846Y-3.628
X5.897Y-4.539
X5.966Y-4.272
X6.0496Y-4.5024
X6.088Y-4.594
X6.102Y-3.682
X6.15Y-4.434
X6.188Y-4.092
X6.2Y-3.97
X6.234Y-4.31
X6.236Y-4.554
X6.238Y-4.67
X6.274Y-4.39
X6.286Y-4.356
X6.304Y-4.29
X6.5451Y-3.9789
X6.582Y-4.132
X6.59Y-4.422
X6.612Y-4.488
X6.63Y-4.366
X6.736Y-4.24
X6.81Y-4.26
T2
X2.862Y-3.6
X2.948Y-3.002
X3.314Y-4.274
X3.72Y-4.416
X3.74Y-4.662
X3.754Y-3.002
X3.806Y-2.744
X4.328Y-4.416
X5.62Y-2.848
X7.088Y-4.43
T3
X4.263Y-2.9184
X4.263Y-2.9684
X4.313Y-2.9184
X4.313Y-2.9684
X4.363Y-2.9184
X4.363Y-2.9684
X4.413Y-2.9184
X4.413Y-2.9684
X4.463Y-2.9184
X4.463Y-2.9684
X4.513Y-2.9184
X4.513Y-2.9684
X4.563Y-2.9184
X4.563Y-2.9684
X4.613Y-2.9184
X4.613Y-2.9684
X4.663Y-2.9184
X4.663Y-2.9684
X4.713Y-2.9184
X4.713Y-2.9684
T4
X5.0259Y-2.9245
X5.1046Y-2.9245
X5.1834Y-2.9245
X5.2621Y-2.9245
T5
X5.6331Y-4.8239
X5.7118Y-4.8239
X5.7906Y-4.8239
X5.8693Y-4.8239
X5.9481Y-4.8239
X6.0268Y-4.8239
X6.3031Y-4.8279
X6.3818Y-4.8279
X6.4606Y-4.8279
X6.5393Y-4.8279
X6.6181Y-4.8279
X6.6968Y-4.8279
X7.004Y-4.3471
X7.004Y-4.4259
X7.004Y-4.5046
X7.004Y-4.5834
X7.004Y-4.6621
X7.004Y-4.7409
X7.3639Y-4.1932
X7.3639Y-4.2719
X7.3639Y-4.3507
X7.3639Y-4.4294
X7.3639Y-4.5082
X7.3639Y-4.5869
T6
X4.8254Y-4.4321
X4.9813Y-4.4321
X5.2334Y-4.4301
X5.3893Y-4.4301
X6.9121Y-3.6488
X6.9121Y-3.8047
X6.9121Y-3.9606
X6.9161Y-3.0968
X6.9161Y-3.2527
X6.9161Y-3.4086
T7
X2.4399Y-4.2091
X2.4399Y-4.365
X2.4399Y-4.5209
X2.4449Y-2.8491
X2.4449Y-3.005
X2.4449Y-3.1609
X2.4449Y-3.5241
X2.4449Y-3.68
X2.4449Y-3.8359
X2.8341Y-4.825
X2.99Y-4.825
X3.1459Y-4.825
X3.5341Y-4.8251
X3.69Y-4.8251
X3.8459Y-4.8251
X4.2241Y-4.825
X4.38Y-4.825
X4.5359Y-4.825
T0
M30
