%TF.GenerationSoftware,KiCad,Pcbnew,(7.0.0)*%
%TF.CreationDate,2023-03-10T09:33:02-07:00*%
%TF.ProjectId,L0005-Valve-Controller,4c303030-352d-4566-916c-76652d436f6e,1.0*%
%TF.SameCoordinates,Original*%
%TF.FileFunction,Legend,Bot*%
%TF.FilePolarity,Positive*%
%FSLAX46Y46*%
G04 Gerber Fmt 4.6, Leading zero omitted, Abs format (unit mm)*
G04 Created by KiCad (PCBNEW (7.0.0)) date 2023-03-10 09:33:02*
%MOMM*%
%LPD*%
G01*
G04 APERTURE LIST*
%ADD10C,0.300000*%
%ADD11C,0.150000*%
G04 APERTURE END LIST*
D10*
X178760426Y-71798071D02*
X179474712Y-71798071D01*
X179474712Y-71798071D02*
X179474712Y-70298071D01*
X177974711Y-70298071D02*
X177831854Y-70298071D01*
X177831854Y-70298071D02*
X177688997Y-70369500D01*
X177688997Y-70369500D02*
X177617569Y-70440928D01*
X177617569Y-70440928D02*
X177546140Y-70583785D01*
X177546140Y-70583785D02*
X177474711Y-70869500D01*
X177474711Y-70869500D02*
X177474711Y-71226642D01*
X177474711Y-71226642D02*
X177546140Y-71512357D01*
X177546140Y-71512357D02*
X177617569Y-71655214D01*
X177617569Y-71655214D02*
X177688997Y-71726642D01*
X177688997Y-71726642D02*
X177831854Y-71798071D01*
X177831854Y-71798071D02*
X177974711Y-71798071D01*
X177974711Y-71798071D02*
X178117569Y-71726642D01*
X178117569Y-71726642D02*
X178188997Y-71655214D01*
X178188997Y-71655214D02*
X178260426Y-71512357D01*
X178260426Y-71512357D02*
X178331854Y-71226642D01*
X178331854Y-71226642D02*
X178331854Y-70869500D01*
X178331854Y-70869500D02*
X178260426Y-70583785D01*
X178260426Y-70583785D02*
X178188997Y-70440928D01*
X178188997Y-70440928D02*
X178117569Y-70369500D01*
X178117569Y-70369500D02*
X177974711Y-70298071D01*
X176546140Y-70298071D02*
X176403283Y-70298071D01*
X176403283Y-70298071D02*
X176260426Y-70369500D01*
X176260426Y-70369500D02*
X176188998Y-70440928D01*
X176188998Y-70440928D02*
X176117569Y-70583785D01*
X176117569Y-70583785D02*
X176046140Y-70869500D01*
X176046140Y-70869500D02*
X176046140Y-71226642D01*
X176046140Y-71226642D02*
X176117569Y-71512357D01*
X176117569Y-71512357D02*
X176188998Y-71655214D01*
X176188998Y-71655214D02*
X176260426Y-71726642D01*
X176260426Y-71726642D02*
X176403283Y-71798071D01*
X176403283Y-71798071D02*
X176546140Y-71798071D01*
X176546140Y-71798071D02*
X176688998Y-71726642D01*
X176688998Y-71726642D02*
X176760426Y-71655214D01*
X176760426Y-71655214D02*
X176831855Y-71512357D01*
X176831855Y-71512357D02*
X176903283Y-71226642D01*
X176903283Y-71226642D02*
X176903283Y-70869500D01*
X176903283Y-70869500D02*
X176831855Y-70583785D01*
X176831855Y-70583785D02*
X176760426Y-70440928D01*
X176760426Y-70440928D02*
X176688998Y-70369500D01*
X176688998Y-70369500D02*
X176546140Y-70298071D01*
X175117569Y-70298071D02*
X174974712Y-70298071D01*
X174974712Y-70298071D02*
X174831855Y-70369500D01*
X174831855Y-70369500D02*
X174760427Y-70440928D01*
X174760427Y-70440928D02*
X174688998Y-70583785D01*
X174688998Y-70583785D02*
X174617569Y-70869500D01*
X174617569Y-70869500D02*
X174617569Y-71226642D01*
X174617569Y-71226642D02*
X174688998Y-71512357D01*
X174688998Y-71512357D02*
X174760427Y-71655214D01*
X174760427Y-71655214D02*
X174831855Y-71726642D01*
X174831855Y-71726642D02*
X174974712Y-71798071D01*
X174974712Y-71798071D02*
X175117569Y-71798071D01*
X175117569Y-71798071D02*
X175260427Y-71726642D01*
X175260427Y-71726642D02*
X175331855Y-71655214D01*
X175331855Y-71655214D02*
X175403284Y-71512357D01*
X175403284Y-71512357D02*
X175474712Y-71226642D01*
X175474712Y-71226642D02*
X175474712Y-70869500D01*
X175474712Y-70869500D02*
X175403284Y-70583785D01*
X175403284Y-70583785D02*
X175331855Y-70440928D01*
X175331855Y-70440928D02*
X175260427Y-70369500D01*
X175260427Y-70369500D02*
X175117569Y-70298071D01*
X173260427Y-70298071D02*
X173974713Y-70298071D01*
X173974713Y-70298071D02*
X174046141Y-71012357D01*
X174046141Y-71012357D02*
X173974713Y-70940928D01*
X173974713Y-70940928D02*
X173831856Y-70869500D01*
X173831856Y-70869500D02*
X173474713Y-70869500D01*
X173474713Y-70869500D02*
X173331856Y-70940928D01*
X173331856Y-70940928D02*
X173260427Y-71012357D01*
X173260427Y-71012357D02*
X173188998Y-71155214D01*
X173188998Y-71155214D02*
X173188998Y-71512357D01*
X173188998Y-71512357D02*
X173260427Y-71655214D01*
X173260427Y-71655214D02*
X173331856Y-71726642D01*
X173331856Y-71726642D02*
X173474713Y-71798071D01*
X173474713Y-71798071D02*
X173831856Y-71798071D01*
X173831856Y-71798071D02*
X173974713Y-71726642D01*
X173974713Y-71726642D02*
X174046141Y-71655214D01*
X171860427Y-70298071D02*
X171360427Y-71798071D01*
X171360427Y-71798071D02*
X170860427Y-70298071D01*
X169717571Y-71798071D02*
X169717571Y-71012357D01*
X169717571Y-71012357D02*
X169788999Y-70869500D01*
X169788999Y-70869500D02*
X169931856Y-70798071D01*
X169931856Y-70798071D02*
X170217571Y-70798071D01*
X170217571Y-70798071D02*
X170360428Y-70869500D01*
X169717571Y-71726642D02*
X169860428Y-71798071D01*
X169860428Y-71798071D02*
X170217571Y-71798071D01*
X170217571Y-71798071D02*
X170360428Y-71726642D01*
X170360428Y-71726642D02*
X170431856Y-71583785D01*
X170431856Y-71583785D02*
X170431856Y-71440928D01*
X170431856Y-71440928D02*
X170360428Y-71298071D01*
X170360428Y-71298071D02*
X170217571Y-71226642D01*
X170217571Y-71226642D02*
X169860428Y-71226642D01*
X169860428Y-71226642D02*
X169717571Y-71155214D01*
X168788999Y-71798071D02*
X168931856Y-71726642D01*
X168931856Y-71726642D02*
X169003285Y-71583785D01*
X169003285Y-71583785D02*
X169003285Y-70298071D01*
X168360428Y-70798071D02*
X168003285Y-71798071D01*
X168003285Y-71798071D02*
X167646142Y-70798071D01*
X166503285Y-71726642D02*
X166646142Y-71798071D01*
X166646142Y-71798071D02*
X166931857Y-71798071D01*
X166931857Y-71798071D02*
X167074714Y-71726642D01*
X167074714Y-71726642D02*
X167146142Y-71583785D01*
X167146142Y-71583785D02*
X167146142Y-71012357D01*
X167146142Y-71012357D02*
X167074714Y-70869500D01*
X167074714Y-70869500D02*
X166931857Y-70798071D01*
X166931857Y-70798071D02*
X166646142Y-70798071D01*
X166646142Y-70798071D02*
X166503285Y-70869500D01*
X166503285Y-70869500D02*
X166431857Y-71012357D01*
X166431857Y-71012357D02*
X166431857Y-71155214D01*
X166431857Y-71155214D02*
X167146142Y-71298071D01*
X164031857Y-71655214D02*
X164103285Y-71726642D01*
X164103285Y-71726642D02*
X164317571Y-71798071D01*
X164317571Y-71798071D02*
X164460428Y-71798071D01*
X164460428Y-71798071D02*
X164674714Y-71726642D01*
X164674714Y-71726642D02*
X164817571Y-71583785D01*
X164817571Y-71583785D02*
X164889000Y-71440928D01*
X164889000Y-71440928D02*
X164960428Y-71155214D01*
X164960428Y-71155214D02*
X164960428Y-70940928D01*
X164960428Y-70940928D02*
X164889000Y-70655214D01*
X164889000Y-70655214D02*
X164817571Y-70512357D01*
X164817571Y-70512357D02*
X164674714Y-70369500D01*
X164674714Y-70369500D02*
X164460428Y-70298071D01*
X164460428Y-70298071D02*
X164317571Y-70298071D01*
X164317571Y-70298071D02*
X164103285Y-70369500D01*
X164103285Y-70369500D02*
X164031857Y-70440928D01*
X163174714Y-71798071D02*
X163317571Y-71726642D01*
X163317571Y-71726642D02*
X163389000Y-71655214D01*
X163389000Y-71655214D02*
X163460428Y-71512357D01*
X163460428Y-71512357D02*
X163460428Y-71083785D01*
X163460428Y-71083785D02*
X163389000Y-70940928D01*
X163389000Y-70940928D02*
X163317571Y-70869500D01*
X163317571Y-70869500D02*
X163174714Y-70798071D01*
X163174714Y-70798071D02*
X162960428Y-70798071D01*
X162960428Y-70798071D02*
X162817571Y-70869500D01*
X162817571Y-70869500D02*
X162746143Y-70940928D01*
X162746143Y-70940928D02*
X162674714Y-71083785D01*
X162674714Y-71083785D02*
X162674714Y-71512357D01*
X162674714Y-71512357D02*
X162746143Y-71655214D01*
X162746143Y-71655214D02*
X162817571Y-71726642D01*
X162817571Y-71726642D02*
X162960428Y-71798071D01*
X162960428Y-71798071D02*
X163174714Y-71798071D01*
X162031857Y-70798071D02*
X162031857Y-71798071D01*
X162031857Y-70940928D02*
X161960428Y-70869500D01*
X161960428Y-70869500D02*
X161817571Y-70798071D01*
X161817571Y-70798071D02*
X161603285Y-70798071D01*
X161603285Y-70798071D02*
X161460428Y-70869500D01*
X161460428Y-70869500D02*
X161389000Y-71012357D01*
X161389000Y-71012357D02*
X161389000Y-71798071D01*
X160888999Y-70798071D02*
X160317571Y-70798071D01*
X160674714Y-70298071D02*
X160674714Y-71583785D01*
X160674714Y-71583785D02*
X160603285Y-71726642D01*
X160603285Y-71726642D02*
X160460428Y-71798071D01*
X160460428Y-71798071D02*
X160317571Y-71798071D01*
X159817571Y-71798071D02*
X159817571Y-70798071D01*
X159817571Y-71083785D02*
X159746142Y-70940928D01*
X159746142Y-70940928D02*
X159674714Y-70869500D01*
X159674714Y-70869500D02*
X159531856Y-70798071D01*
X159531856Y-70798071D02*
X159388999Y-70798071D01*
X158674714Y-71798071D02*
X158817571Y-71726642D01*
X158817571Y-71726642D02*
X158889000Y-71655214D01*
X158889000Y-71655214D02*
X158960428Y-71512357D01*
X158960428Y-71512357D02*
X158960428Y-71083785D01*
X158960428Y-71083785D02*
X158889000Y-70940928D01*
X158889000Y-70940928D02*
X158817571Y-70869500D01*
X158817571Y-70869500D02*
X158674714Y-70798071D01*
X158674714Y-70798071D02*
X158460428Y-70798071D01*
X158460428Y-70798071D02*
X158317571Y-70869500D01*
X158317571Y-70869500D02*
X158246143Y-70940928D01*
X158246143Y-70940928D02*
X158174714Y-71083785D01*
X158174714Y-71083785D02*
X158174714Y-71512357D01*
X158174714Y-71512357D02*
X158246143Y-71655214D01*
X158246143Y-71655214D02*
X158317571Y-71726642D01*
X158317571Y-71726642D02*
X158460428Y-71798071D01*
X158460428Y-71798071D02*
X158674714Y-71798071D01*
X157317571Y-71798071D02*
X157460428Y-71726642D01*
X157460428Y-71726642D02*
X157531857Y-71583785D01*
X157531857Y-71583785D02*
X157531857Y-70298071D01*
X156531857Y-71798071D02*
X156674714Y-71726642D01*
X156674714Y-71726642D02*
X156746143Y-71583785D01*
X156746143Y-71583785D02*
X156746143Y-70298071D01*
X155389000Y-71726642D02*
X155531857Y-71798071D01*
X155531857Y-71798071D02*
X155817572Y-71798071D01*
X155817572Y-71798071D02*
X155960429Y-71726642D01*
X155960429Y-71726642D02*
X156031857Y-71583785D01*
X156031857Y-71583785D02*
X156031857Y-71012357D01*
X156031857Y-71012357D02*
X155960429Y-70869500D01*
X155960429Y-70869500D02*
X155817572Y-70798071D01*
X155817572Y-70798071D02*
X155531857Y-70798071D01*
X155531857Y-70798071D02*
X155389000Y-70869500D01*
X155389000Y-70869500D02*
X155317572Y-71012357D01*
X155317572Y-71012357D02*
X155317572Y-71155214D01*
X155317572Y-71155214D02*
X156031857Y-71298071D01*
X154674715Y-71798071D02*
X154674715Y-70798071D01*
X154674715Y-71083785D02*
X154603286Y-70940928D01*
X154603286Y-70940928D02*
X154531858Y-70869500D01*
X154531858Y-70869500D02*
X154389000Y-70798071D01*
X154389000Y-70798071D02*
X154246143Y-70798071D01*
X151989001Y-71798071D02*
X152489001Y-71083785D01*
X152846144Y-71798071D02*
X152846144Y-70298071D01*
X152846144Y-70298071D02*
X152274715Y-70298071D01*
X152274715Y-70298071D02*
X152131858Y-70369500D01*
X152131858Y-70369500D02*
X152060429Y-70440928D01*
X152060429Y-70440928D02*
X151989001Y-70583785D01*
X151989001Y-70583785D02*
X151989001Y-70798071D01*
X151989001Y-70798071D02*
X152060429Y-70940928D01*
X152060429Y-70940928D02*
X152131858Y-71012357D01*
X152131858Y-71012357D02*
X152274715Y-71083785D01*
X152274715Y-71083785D02*
X152846144Y-71083785D01*
X150774715Y-71726642D02*
X150917572Y-71798071D01*
X150917572Y-71798071D02*
X151203287Y-71798071D01*
X151203287Y-71798071D02*
X151346144Y-71726642D01*
X151346144Y-71726642D02*
X151417572Y-71583785D01*
X151417572Y-71583785D02*
X151417572Y-71012357D01*
X151417572Y-71012357D02*
X151346144Y-70869500D01*
X151346144Y-70869500D02*
X151203287Y-70798071D01*
X151203287Y-70798071D02*
X150917572Y-70798071D01*
X150917572Y-70798071D02*
X150774715Y-70869500D01*
X150774715Y-70869500D02*
X150703287Y-71012357D01*
X150703287Y-71012357D02*
X150703287Y-71155214D01*
X150703287Y-71155214D02*
X151417572Y-71298071D01*
X150203287Y-70798071D02*
X149846144Y-71798071D01*
X149846144Y-71798071D02*
X149489001Y-70798071D01*
X148917573Y-71798071D02*
X148917573Y-70798071D01*
X148917573Y-70298071D02*
X148989001Y-70369500D01*
X148989001Y-70369500D02*
X148917573Y-70440928D01*
X148917573Y-70440928D02*
X148846144Y-70369500D01*
X148846144Y-70369500D02*
X148917573Y-70298071D01*
X148917573Y-70298071D02*
X148917573Y-70440928D01*
X148274715Y-71726642D02*
X148131858Y-71798071D01*
X148131858Y-71798071D02*
X147846144Y-71798071D01*
X147846144Y-71798071D02*
X147703287Y-71726642D01*
X147703287Y-71726642D02*
X147631858Y-71583785D01*
X147631858Y-71583785D02*
X147631858Y-71512357D01*
X147631858Y-71512357D02*
X147703287Y-71369500D01*
X147703287Y-71369500D02*
X147846144Y-71298071D01*
X147846144Y-71298071D02*
X148060430Y-71298071D01*
X148060430Y-71298071D02*
X148203287Y-71226642D01*
X148203287Y-71226642D02*
X148274715Y-71083785D01*
X148274715Y-71083785D02*
X148274715Y-71012357D01*
X148274715Y-71012357D02*
X148203287Y-70869500D01*
X148203287Y-70869500D02*
X148060430Y-70798071D01*
X148060430Y-70798071D02*
X147846144Y-70798071D01*
X147846144Y-70798071D02*
X147703287Y-70869500D01*
X146989001Y-71798071D02*
X146989001Y-70798071D01*
X146989001Y-70298071D02*
X147060429Y-70369500D01*
X147060429Y-70369500D02*
X146989001Y-70440928D01*
X146989001Y-70440928D02*
X146917572Y-70369500D01*
X146917572Y-70369500D02*
X146989001Y-70298071D01*
X146989001Y-70298071D02*
X146989001Y-70440928D01*
X146060429Y-71798071D02*
X146203286Y-71726642D01*
X146203286Y-71726642D02*
X146274715Y-71655214D01*
X146274715Y-71655214D02*
X146346143Y-71512357D01*
X146346143Y-71512357D02*
X146346143Y-71083785D01*
X146346143Y-71083785D02*
X146274715Y-70940928D01*
X146274715Y-70940928D02*
X146203286Y-70869500D01*
X146203286Y-70869500D02*
X146060429Y-70798071D01*
X146060429Y-70798071D02*
X145846143Y-70798071D01*
X145846143Y-70798071D02*
X145703286Y-70869500D01*
X145703286Y-70869500D02*
X145631858Y-70940928D01*
X145631858Y-70940928D02*
X145560429Y-71083785D01*
X145560429Y-71083785D02*
X145560429Y-71512357D01*
X145560429Y-71512357D02*
X145631858Y-71655214D01*
X145631858Y-71655214D02*
X145703286Y-71726642D01*
X145703286Y-71726642D02*
X145846143Y-71798071D01*
X145846143Y-71798071D02*
X146060429Y-71798071D01*
X144917572Y-70798071D02*
X144917572Y-71798071D01*
X144917572Y-70940928D02*
X144846143Y-70869500D01*
X144846143Y-70869500D02*
X144703286Y-70798071D01*
X144703286Y-70798071D02*
X144489000Y-70798071D01*
X144489000Y-70798071D02*
X144346143Y-70869500D01*
X144346143Y-70869500D02*
X144274715Y-71012357D01*
X144274715Y-71012357D02*
X144274715Y-71798071D01*
X142803286Y-70298071D02*
X141874714Y-70298071D01*
X141874714Y-70298071D02*
X142374714Y-70869500D01*
X142374714Y-70869500D02*
X142160429Y-70869500D01*
X142160429Y-70869500D02*
X142017572Y-70940928D01*
X142017572Y-70940928D02*
X141946143Y-71012357D01*
X141946143Y-71012357D02*
X141874714Y-71155214D01*
X141874714Y-71155214D02*
X141874714Y-71512357D01*
X141874714Y-71512357D02*
X141946143Y-71655214D01*
X141946143Y-71655214D02*
X142017572Y-71726642D01*
X142017572Y-71726642D02*
X142160429Y-71798071D01*
X142160429Y-71798071D02*
X142589000Y-71798071D01*
X142589000Y-71798071D02*
X142731857Y-71726642D01*
X142731857Y-71726642D02*
X142803286Y-71655214D01*
X141231858Y-71655214D02*
X141160429Y-71726642D01*
X141160429Y-71726642D02*
X141231858Y-71798071D01*
X141231858Y-71798071D02*
X141303286Y-71726642D01*
X141303286Y-71726642D02*
X141231858Y-71655214D01*
X141231858Y-71655214D02*
X141231858Y-71798071D01*
X140231857Y-70298071D02*
X140089000Y-70298071D01*
X140089000Y-70298071D02*
X139946143Y-70369500D01*
X139946143Y-70369500D02*
X139874715Y-70440928D01*
X139874715Y-70440928D02*
X139803286Y-70583785D01*
X139803286Y-70583785D02*
X139731857Y-70869500D01*
X139731857Y-70869500D02*
X139731857Y-71226642D01*
X139731857Y-71226642D02*
X139803286Y-71512357D01*
X139803286Y-71512357D02*
X139874715Y-71655214D01*
X139874715Y-71655214D02*
X139946143Y-71726642D01*
X139946143Y-71726642D02*
X140089000Y-71798071D01*
X140089000Y-71798071D02*
X140231857Y-71798071D01*
X140231857Y-71798071D02*
X140374715Y-71726642D01*
X140374715Y-71726642D02*
X140446143Y-71655214D01*
X140446143Y-71655214D02*
X140517572Y-71512357D01*
X140517572Y-71512357D02*
X140589000Y-71226642D01*
X140589000Y-71226642D02*
X140589000Y-70869500D01*
X140589000Y-70869500D02*
X140517572Y-70583785D01*
X140517572Y-70583785D02*
X140446143Y-70440928D01*
X140446143Y-70440928D02*
X140374715Y-70369500D01*
X140374715Y-70369500D02*
X140231857Y-70298071D01*
D11*
%TO.C,TP3*%
X146549904Y-80139380D02*
X145978476Y-80139380D01*
X146264190Y-81139380D02*
X146264190Y-80139380D01*
X145645142Y-81139380D02*
X145645142Y-80139380D01*
X145645142Y-80139380D02*
X145264190Y-80139380D01*
X145264190Y-80139380D02*
X145168952Y-80187000D01*
X145168952Y-80187000D02*
X145121333Y-80234619D01*
X145121333Y-80234619D02*
X145073714Y-80329857D01*
X145073714Y-80329857D02*
X145073714Y-80472714D01*
X145073714Y-80472714D02*
X145121333Y-80567952D01*
X145121333Y-80567952D02*
X145168952Y-80615571D01*
X145168952Y-80615571D02*
X145264190Y-80663190D01*
X145264190Y-80663190D02*
X145645142Y-80663190D01*
X144740380Y-80139380D02*
X144121333Y-80139380D01*
X144121333Y-80139380D02*
X144454666Y-80520333D01*
X144454666Y-80520333D02*
X144311809Y-80520333D01*
X144311809Y-80520333D02*
X144216571Y-80567952D01*
X144216571Y-80567952D02*
X144168952Y-80615571D01*
X144168952Y-80615571D02*
X144121333Y-80710809D01*
X144121333Y-80710809D02*
X144121333Y-80948904D01*
X144121333Y-80948904D02*
X144168952Y-81044142D01*
X144168952Y-81044142D02*
X144216571Y-81091761D01*
X144216571Y-81091761D02*
X144311809Y-81139380D01*
X144311809Y-81139380D02*
X144597523Y-81139380D01*
X144597523Y-81139380D02*
X144692761Y-81091761D01*
X144692761Y-81091761D02*
X144740380Y-81044142D01*
%TO.C,TP5*%
X139082304Y-76684980D02*
X138510876Y-76684980D01*
X138796590Y-77684980D02*
X138796590Y-76684980D01*
X138177542Y-77684980D02*
X138177542Y-76684980D01*
X138177542Y-76684980D02*
X137796590Y-76684980D01*
X137796590Y-76684980D02*
X137701352Y-76732600D01*
X137701352Y-76732600D02*
X137653733Y-76780219D01*
X137653733Y-76780219D02*
X137606114Y-76875457D01*
X137606114Y-76875457D02*
X137606114Y-77018314D01*
X137606114Y-77018314D02*
X137653733Y-77113552D01*
X137653733Y-77113552D02*
X137701352Y-77161171D01*
X137701352Y-77161171D02*
X137796590Y-77208790D01*
X137796590Y-77208790D02*
X138177542Y-77208790D01*
X136701352Y-76684980D02*
X137177542Y-76684980D01*
X137177542Y-76684980D02*
X137225161Y-77161171D01*
X137225161Y-77161171D02*
X137177542Y-77113552D01*
X137177542Y-77113552D02*
X137082304Y-77065933D01*
X137082304Y-77065933D02*
X136844209Y-77065933D01*
X136844209Y-77065933D02*
X136748971Y-77113552D01*
X136748971Y-77113552D02*
X136701352Y-77161171D01*
X136701352Y-77161171D02*
X136653733Y-77256409D01*
X136653733Y-77256409D02*
X136653733Y-77494504D01*
X136653733Y-77494504D02*
X136701352Y-77589742D01*
X136701352Y-77589742D02*
X136748971Y-77637361D01*
X136748971Y-77637361D02*
X136844209Y-77684980D01*
X136844209Y-77684980D02*
X137082304Y-77684980D01*
X137082304Y-77684980D02*
X137177542Y-77637361D01*
X137177542Y-77637361D02*
X137225161Y-77589742D01*
%TO.C,TP4*%
X135780304Y-76532580D02*
X135208876Y-76532580D01*
X135494590Y-77532580D02*
X135494590Y-76532580D01*
X134875542Y-77532580D02*
X134875542Y-76532580D01*
X134875542Y-76532580D02*
X134494590Y-76532580D01*
X134494590Y-76532580D02*
X134399352Y-76580200D01*
X134399352Y-76580200D02*
X134351733Y-76627819D01*
X134351733Y-76627819D02*
X134304114Y-76723057D01*
X134304114Y-76723057D02*
X134304114Y-76865914D01*
X134304114Y-76865914D02*
X134351733Y-76961152D01*
X134351733Y-76961152D02*
X134399352Y-77008771D01*
X134399352Y-77008771D02*
X134494590Y-77056390D01*
X134494590Y-77056390D02*
X134875542Y-77056390D01*
X133446971Y-76865914D02*
X133446971Y-77532580D01*
X133685066Y-76484961D02*
X133923161Y-77199247D01*
X133923161Y-77199247D02*
X133304114Y-77199247D01*
%TO.C,TP2*%
X125315504Y-78310580D02*
X124744076Y-78310580D01*
X125029790Y-79310580D02*
X125029790Y-78310580D01*
X124410742Y-79310580D02*
X124410742Y-78310580D01*
X124410742Y-78310580D02*
X124029790Y-78310580D01*
X124029790Y-78310580D02*
X123934552Y-78358200D01*
X123934552Y-78358200D02*
X123886933Y-78405819D01*
X123886933Y-78405819D02*
X123839314Y-78501057D01*
X123839314Y-78501057D02*
X123839314Y-78643914D01*
X123839314Y-78643914D02*
X123886933Y-78739152D01*
X123886933Y-78739152D02*
X123934552Y-78786771D01*
X123934552Y-78786771D02*
X124029790Y-78834390D01*
X124029790Y-78834390D02*
X124410742Y-78834390D01*
X123458361Y-78405819D02*
X123410742Y-78358200D01*
X123410742Y-78358200D02*
X123315504Y-78310580D01*
X123315504Y-78310580D02*
X123077409Y-78310580D01*
X123077409Y-78310580D02*
X122982171Y-78358200D01*
X122982171Y-78358200D02*
X122934552Y-78405819D01*
X122934552Y-78405819D02*
X122886933Y-78501057D01*
X122886933Y-78501057D02*
X122886933Y-78596295D01*
X122886933Y-78596295D02*
X122934552Y-78739152D01*
X122934552Y-78739152D02*
X123505980Y-79310580D01*
X123505980Y-79310580D02*
X122886933Y-79310580D01*
%TD*%
M02*
