M48
; DRILL file {KiCad 6.0.0} date Sun Jan  9 21:07:51 2022
; FORMAT={-:-/ absolute / inch / decimal}
; #@! TF.CreationDate,2022-01-09T21:07:51-07:00
; #@! TF.GenerationSoftware,Kicad,Pcbnew,6.0.0
; #@! TF.FileFunction,Plated,1,4,PTH
FMAT,2
INCH
; #@! TA.AperFunction,Plated,PTH,ViaDrill
T1C0.0119
; #@! TA.AperFunction,Plated,PTH,ViaDrill
T2C0.0157
; #@! TA.AperFunction,Plated,PTH,ViaDrill
T3C0.0250
; #@! TA.AperFunction,Plated,PTH,ComponentDrill
T4C0.0290
; #@! TA.AperFunction,Plated,PTH,ComponentDrill
T5C0.0295
; #@! TA.AperFunction,Plated,PTH,ComponentDrill
T6C0.0315
; #@! TA.AperFunction,Plated,PTH,ComponentDrill
T7C0.0669
; #@! TA.AperFunction,Plated,PTH,ComponentDrill
T8C0.0709
%
G90
G05
T1
X3.59Y-3.33
X3.6889Y-3.6911
X3.7425Y-3.4025
X3.76Y-4.2
X3.782Y-3.122
X4.6645Y-4.1125
X4.7368Y-3.8644
X4.7426Y-3.6912
X4.762Y-3.728
X4.7635Y-3.8847
X4.9372Y-3.7578
X4.94Y-3.896
X4.94Y-3.946
X5.062Y-3.824
X5.067Y-3.7974
X5.076Y-3.58
X5.107Y-3.825
X5.1095Y-3.9405
X5.1165Y-3.5965
X5.1168Y-3.5652
X5.123Y-3.4822
X5.136Y-4.046
X5.16Y-3.706
X5.161Y-4.1476
X5.1944Y-4.153
X5.1975Y-3.7425
X5.204Y-3.844
X5.208Y-3.592
X5.23Y-3.71
X5.232Y-4.314
X5.2346Y-4.0484
X5.2523Y-3.7552
X5.39Y-4.155
X5.4215Y-3.4963
X5.4275Y-4.12
X5.458Y-3.55
X5.46Y-3.452
X5.49Y-4.095
X5.504Y-4.0318
X5.508Y-4.0012
X5.604Y-3.868
X5.605Y-4.145
X5.63Y-3.83
X5.6325Y-4.3725
X5.656Y-4.336
X5.6658Y-4.0122
X5.68Y-3.566
X5.708Y-3.784
X5.76Y-3.76
X5.784Y-4.018
X5.805Y-3.128
X5.816Y-4.07
X5.82Y-4.172
X5.824Y-3.67
X5.836Y-3.71
X5.87Y-3.95
X6.09Y-4.045
X6.09Y-4.095
X6.134Y-3.94
X6.145Y-3.905
X6.225Y-3.897
X6.272Y-3.804
X6.295Y-4.11
X6.356Y-4.128
X6.366Y-3.81
X6.425Y-3.95
X6.442Y-3.832
X6.464Y-4.148
X6.464Y-4.2
X6.53Y-3.924
X6.6054Y-3.9262
X6.62Y-3.816
X6.684Y-4.208
X6.728Y-4.648
X6.766Y-4.092
X6.8Y-3.768
X6.818Y-3.848
X6.88Y-3.812
X6.962Y-3.958
X7.048Y-4.598
X7.406Y-3.928
X7.446Y-3.924
T2
X2.844Y-4.324
X2.85Y-3.275
X2.85Y-3.784
X3.28Y-3.862
X3.56Y-3.78
X3.895Y-3.445
X4.2909Y-3.49
X4.5878Y-3.6178
X4.6235Y-3.2855
T3
X3.755Y-3.545
X3.895Y-4.565
X4.22Y-3.98
X4.2776Y-3.8289
X4.5618Y-4.3918
X4.6352Y-4.4688
X4.6559Y-4.6509
X4.8404Y-4.4424
X4.85Y-4.3066
X6.122Y-3.41
X6.28Y-3.432
T4
X4.9976Y-3.3286
X4.9976Y-3.3786
X5.0476Y-3.3286
X5.0476Y-3.3786
X5.0976Y-3.3286
X5.0976Y-3.3786
X5.1476Y-3.3286
X5.1476Y-3.3786
X5.1976Y-3.3286
X5.1976Y-3.3786
X5.2476Y-3.3286
X5.2476Y-3.3786
X5.2976Y-3.3286
X5.2976Y-3.3786
X5.3476Y-3.3286
X5.3476Y-3.3786
X5.3976Y-3.3286
X5.3976Y-3.3786
X5.4476Y-3.3286
X5.4476Y-3.3786
T5
X5.7879Y-3.2985
X5.8666Y-3.2985
X5.9454Y-3.2985
X6.0241Y-3.2985
T6
X6.6231Y-4.83
X6.7019Y-4.83
X6.7806Y-4.83
X6.8594Y-4.83
X6.9381Y-4.83
X7.0169Y-4.83
X7.2931Y-4.83
X7.3Y-4.0631
X7.3Y-4.1419
X7.3Y-4.2206
X7.3Y-4.2994
X7.3Y-4.3781
X7.3Y-4.4569
X7.3719Y-4.83
X7.4506Y-4.83
X7.5294Y-4.83
X7.6081Y-4.83
X7.66Y-4.0631
X7.66Y-4.1419
X7.66Y-4.2206
X7.66Y-4.2994
X7.66Y-4.3781
X7.66Y-4.4569
X7.6869Y-4.83
T7
X5.774Y-4.426
X5.9299Y-4.426
X6.195Y-4.425
X6.3509Y-4.425
X6.6682Y-3.632
X6.8241Y-3.632
X6.98Y-3.632
X7.226Y-3.4462
X7.226Y-3.6021
X7.226Y-3.758
T8
X2.44Y-3.4661
X2.44Y-3.622
X2.44Y-3.778
X2.44Y-4.1641
X2.44Y-4.32
X2.44Y-4.4759
X2.8441Y-4.82
X3.0Y-4.82
X3.1559Y-4.82
X3.5841Y-4.82
X3.74Y-4.82
X3.8959Y-4.82
X4.3441Y-4.82
X4.5Y-4.82
X4.6559Y-4.82
X5.1041Y-4.82
X5.26Y-4.82
X5.4159Y-4.82
T0
M30
