%TF.GenerationSoftware,KiCad,Pcbnew,(6.0.4)*%
%TF.CreationDate,2022-04-12T20:51:16-07:00*%
%TF.ProjectId,L0005-Valve-Controller,4c303030-352d-4566-916c-76652d436f6e,1.0*%
%TF.SameCoordinates,Original*%
%TF.FileFunction,Copper,L4,Bot*%
%TF.FilePolarity,Positive*%
%FSLAX46Y46*%
G04 Gerber Fmt 4.6, Leading zero omitted, Abs format (unit mm)*
G04 Created by KiCad (PCBNEW (6.0.4)) date 2022-04-12 20:51:16*
%MOMM*%
%LPD*%
G01*
G04 APERTURE LIST*
%TA.AperFunction,ComponentPad*%
%ADD10C,1.066800*%
%TD*%
%TA.AperFunction,ComponentPad*%
%ADD11C,2.500000*%
%TD*%
%TA.AperFunction,SMDPad,CuDef*%
%ADD12C,1.524000*%
%TD*%
%TA.AperFunction,ComponentPad*%
%ADD13R,1.308000X1.308000*%
%TD*%
%TA.AperFunction,ComponentPad*%
%ADD14C,1.308000*%
%TD*%
%TA.AperFunction,ComponentPad*%
%ADD15R,2.050000X2.050000*%
%TD*%
%TA.AperFunction,ComponentPad*%
%ADD16C,2.286000*%
%TD*%
%TA.AperFunction,ComponentPad*%
%ADD17C,2.050000*%
%TD*%
%TA.AperFunction,ComponentPad*%
%ADD18R,1.258000X1.258000*%
%TD*%
%TA.AperFunction,ComponentPad*%
%ADD19C,1.258000*%
%TD*%
%TA.AperFunction,ViaPad*%
%ADD20C,0.607060*%
%TD*%
%TA.AperFunction,ViaPad*%
%ADD21C,1.016000*%
%TD*%
%TA.AperFunction,Conductor*%
%ADD22C,0.254000*%
%TD*%
%TA.AperFunction,Conductor*%
%ADD23C,0.762000*%
%TD*%
G04 APERTURE END LIST*
D10*
%TO.P,P1,1,1*%
%TO.N,3.3V*%
X108280200Y-75398250D03*
%TO.P,P1,2,2*%
X108280200Y-74128250D03*
%TO.P,P1,3,3*%
%TO.N,Earth*%
X109550200Y-75398250D03*
%TO.P,P1,4,4*%
X109550200Y-74128250D03*
%TO.P,P1,5,5*%
X110820200Y-75398250D03*
%TO.P,P1,6,6*%
X110820200Y-74128250D03*
%TO.P,P1,7,7*%
%TO.N,SWDIO*%
X112090200Y-75398250D03*
%TO.P,P1,8,8*%
%TO.N,Earth*%
X112090200Y-74128250D03*
%TO.P,P1,9,9*%
%TO.N,SWCLK*%
X113360200Y-75398250D03*
%TO.P,P1,10,10*%
%TO.N,Earth*%
X113360200Y-74128250D03*
%TO.P,P1,11,11*%
%TO.N,unconnected-(P1-Pad11)*%
X114630200Y-75398250D03*
%TO.P,P1,12,12*%
%TO.N,Earth*%
X114630200Y-74128250D03*
%TO.P,P1,13,13*%
%TO.N,SWO*%
X115900200Y-75398250D03*
%TO.P,P1,14,14*%
%TO.N,Earth*%
X115900200Y-74128250D03*
%TO.P,P1,15,15*%
%TO.N,NRST*%
X117170200Y-75398250D03*
%TO.P,P1,16,16*%
%TO.N,Earth*%
X117170200Y-74128250D03*
%TO.P,P1,17,17*%
%TO.N,unconnected-(P1-Pad17)*%
X118440200Y-75398250D03*
%TO.P,P1,18,18*%
%TO.N,Earth*%
X118440200Y-74128250D03*
%TO.P,P1,19,19*%
%TO.N,unconnected-(P1-Pad19)*%
X119710200Y-75398250D03*
%TO.P,P1,20,20*%
%TO.N,Earth*%
X119710200Y-74128250D03*
%TD*%
D11*
%TO.P,P3,1,1*%
%TO.N,Net-(C16-Pad2)*%
X115212000Y-122555000D03*
%TO.P,P3,2,2*%
%TO.N,AC_HOT*%
X111252000Y-122555000D03*
%TO.P,P3,3,3*%
%TO.N,unconnected-(P3-Pad3)*%
X107292000Y-122555000D03*
%TD*%
%TO.P,P4,1,1*%
%TO.N,Net-(C17-Pad2)*%
X97686000Y-122557000D03*
%TO.P,P4,2,2*%
%TO.N,AC_HOT*%
X93726000Y-122557000D03*
%TO.P,P4,3,3*%
%TO.N,unconnected-(P4-Pad3)*%
X89766000Y-122557000D03*
%TD*%
%TO.P,P5,1,1*%
%TO.N,Net-(C18-Pad2)*%
X79906000Y-122555000D03*
%TO.P,P5,2,2*%
%TO.N,AC_HOT*%
X75946000Y-122555000D03*
%TO.P,P5,3,3*%
%TO.N,unconnected-(P5-Pad3)*%
X71986000Y-122555000D03*
%TD*%
%TO.P,P6,1,1*%
%TO.N,Net-(C19-Pad2)*%
X61974000Y-114831000D03*
%TO.P,P6,2,2*%
%TO.N,AC_HOT*%
X61974000Y-110871000D03*
%TO.P,P6,3,3*%
%TO.N,unconnected-(P6-Pad3)*%
X61974000Y-106911000D03*
%TD*%
%TO.P,P8,1,1*%
%TO.N,Net-(C21-Pad2)*%
X62101000Y-80287000D03*
%TO.P,P8,2,2*%
%TO.N,AC_HOT*%
X62101000Y-76327000D03*
%TO.P,P8,3,3*%
%TO.N,unconnected-(P8-Pad3)*%
X62101000Y-72367000D03*
%TD*%
%TO.P,P7,1,1*%
%TO.N,Net-(C20-Pad2)*%
X62101000Y-97432000D03*
%TO.P,P7,2,2*%
%TO.N,AC_HOT*%
X62101000Y-93472000D03*
%TO.P,P7,3,3*%
%TO.N,unconnected-(P7-Pad3)*%
X62101000Y-89512000D03*
%TD*%
D12*
%TO.P,TP4,1*%
%TO.N,RX*%
X134518400Y-79146400D03*
%TD*%
D13*
%TO.P,P13,1,+12V*%
%TO.N,5V*%
X187042400Y-106507500D03*
D14*
%TO.P,P13,2,GND*%
%TO.N,Net-(P13-Pad2)*%
X187042400Y-108507500D03*
%TO.P,P13,3,3*%
%TO.N,Earth*%
X187042400Y-110507500D03*
%TO.P,P13,4,4*%
%TO.N,Net-(P13-Pad4)*%
X187042400Y-112507500D03*
%TO.P,P13,5,5*%
%TO.N,Earth*%
X187042400Y-114507500D03*
%TO.P,P13,6,6*%
X187042400Y-116507500D03*
%TD*%
D13*
%TO.P,P12,1,+12V*%
%TO.N,5V*%
X177901600Y-110417600D03*
D14*
%TO.P,P12,2,GND*%
%TO.N,Net-(P12-Pad2)*%
X177901600Y-112417600D03*
%TO.P,P12,3,3*%
%TO.N,5V*%
X177901600Y-114417600D03*
%TO.P,P12,4,4*%
%TO.N,Net-(P12-Pad4)*%
X177901600Y-116417600D03*
%TO.P,P12,5,5*%
%TO.N,/Valves/SBV2_PUL5*%
X177901600Y-118417600D03*
%TO.P,P12,6,6*%
%TO.N,Earth*%
X177901600Y-120417600D03*
%TD*%
D13*
%TO.P,P10,1,+12V*%
%TO.N,5V*%
X153080500Y-122526400D03*
D14*
%TO.P,P10,2,GND*%
%TO.N,Net-(P10-Pad2)*%
X151080500Y-122526400D03*
%TO.P,P10,3,3*%
%TO.N,5V*%
X149080500Y-122526400D03*
%TO.P,P10,4,4*%
%TO.N,Net-(P10-Pad4)*%
X147080500Y-122526400D03*
%TO.P,P10,5,5*%
%TO.N,/Valves/SBV1_PUL5*%
X145080500Y-122526400D03*
%TO.P,P10,6,6*%
%TO.N,Earth*%
X143080500Y-122526400D03*
%TD*%
D13*
%TO.P,P11,1,+12V*%
%TO.N,5V*%
X170098500Y-122628000D03*
D14*
%TO.P,P11,2,GND*%
%TO.N,Net-(P11-Pad2)*%
X168098500Y-122628000D03*
%TO.P,P11,3,3*%
%TO.N,Earth*%
X166098500Y-122628000D03*
%TO.P,P11,4,4*%
%TO.N,Net-(P11-Pad4)*%
X164098500Y-122628000D03*
%TO.P,P11,5,5*%
%TO.N,Earth*%
X162098500Y-122628000D03*
%TO.P,P11,6,6*%
X160098500Y-122628000D03*
%TD*%
D15*
%TO.P,P14,1,1*%
%TO.N,5V*%
X175670100Y-86578100D03*
D16*
%TO.P,P14,2,2*%
%TO.N,PG1*%
X175670100Y-82618100D03*
%TO.P,P14,3,3*%
%TO.N,Earth*%
X175670100Y-78658100D03*
%TD*%
D15*
%TO.P,P9,1,1*%
%TO.N,Net-(F1-Pad2)*%
X122564300Y-112576500D03*
D17*
%TO.P,P9,2,2*%
%TO.N,AC_NEUTRAL*%
X126524300Y-112576500D03*
%TD*%
D12*
%TO.P,TP5,1*%
%TO.N,TX*%
X137820400Y-79298800D03*
%TD*%
D18*
%TO.P,P2,1,+12V*%
%TO.N,5V*%
X133657600Y-74282000D03*
D19*
%TO.P,P2,2,GND*%
%TO.N,RX*%
X131657600Y-74282000D03*
%TO.P,P2,3,3*%
%TO.N,TX*%
X129657600Y-74282000D03*
%TO.P,P2,4,4*%
%TO.N,Earth*%
X127657600Y-74282000D03*
%TD*%
D15*
%TO.P,P16,1,1*%
%TO.N,Net-(P16-Pad1)*%
X132927500Y-112525700D03*
D17*
%TO.P,P16,2,2*%
%TO.N,Net-(D2-Pad1)*%
X136887500Y-112525700D03*
%TD*%
D12*
%TO.P,TP3,1*%
%TO.N,3.3V*%
X145288000Y-82753200D03*
%TD*%
D15*
%TO.P,P15,1,1*%
%TO.N,5V*%
X175568500Y-100598900D03*
D16*
%TO.P,P15,2,2*%
%TO.N,PG2*%
X175568500Y-96638900D03*
%TO.P,P15,3,3*%
%TO.N,Earth*%
X175568500Y-92678900D03*
%TD*%
D12*
%TO.P,TP2,1*%
%TO.N,Earth*%
X124053600Y-80924400D03*
%TD*%
%TO.P,TP1,1*%
%TO.N,NRST*%
X119684800Y-92659200D03*
%TD*%
D20*
%TO.N,Net-(K1-Pad2)*%
X78613000Y-116408200D03*
%TO.N,SOL5*%
X126064000Y-96795600D03*
D21*
%TO.N,3.3V*%
X142748000Y-72339200D03*
D20*
%TO.N,Earth*%
X154990800Y-93522800D03*
%TO.N,3.3V*%
X153659599Y-114361201D03*
%TO.N,SBV2_PUL*%
X167944800Y-113995200D03*
X132588000Y-90017600D03*
D21*
%TO.N,Net-(C16-Pad2)*%
X94996000Y-118414800D03*
D20*
%TO.N,3.3V*%
X143713200Y-84226400D03*
D21*
%TO.N,5V*%
X180035200Y-112522000D03*
D20*
%TO.N,PG1*%
X136956800Y-88138000D03*
%TO.N,SWCLK*%
X131013200Y-86614000D03*
%TO.N,PG2*%
X137922000Y-88646000D03*
%TO.N,ENCD2_B*%
X167182800Y-104952800D03*
X139344400Y-88290400D03*
%TO.N,SBV2_DIR*%
X146456400Y-91236800D03*
%TO.N,ENCD1_A*%
X145440400Y-90474800D03*
%TO.N,ENCD2_A*%
X148488400Y-92151200D03*
X157480000Y-100838000D03*
%TO.N,Earth*%
X166245600Y-101064000D03*
%TO.N,SBV2_EN*%
X141732000Y-89103200D03*
X172974000Y-108204000D03*
%TO.N,SBV2_DIR*%
X157175200Y-103936800D03*
%TO.N,Earth*%
X171094400Y-107696000D03*
%TO.N,3.3V*%
X168402000Y-110896400D03*
%TO.N,Earth*%
X167386000Y-112318800D03*
%TO.N,ENCD1_A*%
X159664400Y-110642400D03*
%TO.N,ENCD1_B*%
X141427200Y-90373200D03*
X159359600Y-111506000D03*
%TO.N,Net-(P10-Pad4)*%
X160121600Y-108966000D03*
X158445200Y-118618000D03*
%TO.N,Net-(P10-Pad2)*%
X156210000Y-112623600D03*
%TO.N,SBV1_DIR*%
X140766800Y-89001600D03*
X145389600Y-96520000D03*
%TO.N,Earth*%
X158343600Y-109474000D03*
%TO.N,SBV1_PUL*%
X129692400Y-87477600D03*
X154635200Y-116687600D03*
%TO.N,Earth*%
X158394400Y-115671600D03*
X149783800Y-115290600D03*
%TO.N,3.3V*%
X142798800Y-100025200D03*
X151536400Y-108508800D03*
%TO.N,Earth*%
X147116800Y-76911200D03*
%TO.N,TX*%
X137464800Y-81229200D03*
%TO.N,3.3V*%
X114655600Y-77012800D03*
%TO.N,NRST*%
X122224800Y-92964000D03*
X121107200Y-81635600D03*
%TO.N,SWO*%
X134823200Y-85852000D03*
X125628400Y-82346800D03*
%TO.N,SWCLK*%
X126187200Y-83972400D03*
%TO.N,SOL4*%
X129336800Y-96164400D03*
X84429600Y-92811600D03*
X85140800Y-82753200D03*
X97739200Y-76809600D03*
%TO.N,SOL1*%
X123545600Y-84175600D03*
X69748400Y-115163600D03*
%TO.N,SOL6*%
X125831600Y-98196400D03*
X83108800Y-93776800D03*
%TO.N,SOL3*%
X122732800Y-87172800D03*
X76860400Y-106222800D03*
%TO.N,SOL5*%
X90779600Y-97028000D03*
%TO.N,Earth*%
X148488400Y-85394800D03*
X141491600Y-86295600D03*
X141542400Y-103516800D03*
%TO.N,3.3V*%
X129413000Y-101117400D03*
X125933200Y-95402400D03*
X129320800Y-90795600D03*
%TO.N,Earth*%
X129859700Y-82585900D03*
%TO.N,3.3V*%
X128066800Y-83718400D03*
%TO.N,Earth*%
X124917200Y-89408000D03*
X127508000Y-100431600D03*
X121564400Y-95402400D03*
X116420000Y-104329600D03*
X99441000Y-94107000D03*
X100482400Y-107188000D03*
X115417600Y-85191600D03*
%TO.N,Net-(K1-Pad2)*%
X100279200Y-114909600D03*
%TO.N,Net-(C16-Pad2)*%
X92405200Y-115011200D03*
X78079600Y-107188000D03*
D21*
%TO.N,AC_NEUTRAL*%
X109931200Y-112166400D03*
X94488000Y-112166400D03*
X84175600Y-108559600D03*
D20*
%TO.N,Earth*%
X87757000Y-107061000D03*
D21*
%TO.N,AC_NEUTRAL*%
X95351600Y-76250800D03*
D20*
%TO.N,Earth*%
X86029800Y-87249000D03*
D21*
%TO.N,AC_NEUTRAL*%
X72694800Y-91440000D03*
X74879200Y-76250800D03*
D20*
%TO.N,Earth*%
X85191600Y-75184000D03*
%TO.N,Net-(C21-Pad2)*%
X77012800Y-69697600D03*
D21*
X96672400Y-69697600D03*
%TD*%
D22*
%TO.N,NRST*%
X122224800Y-92964000D02*
X121361200Y-92964000D01*
X121361200Y-92964000D02*
X121056400Y-92659200D01*
X121056400Y-92659200D02*
X119938800Y-92659200D01*
X119938800Y-92659200D02*
X119837200Y-92760800D01*
%TO.N,SBV2_PUL*%
X132588000Y-90017600D02*
X133553200Y-90017600D01*
X133553200Y-90017600D02*
X142392400Y-98856800D01*
X142392400Y-98856800D02*
X144475200Y-98856800D01*
X144475200Y-98856800D02*
X157327600Y-111709200D01*
X157327600Y-111709200D02*
X157327600Y-119888000D01*
X157327600Y-119888000D02*
X158038800Y-120599200D01*
X158038800Y-120599200D02*
X161340800Y-120599200D01*
X161340800Y-120599200D02*
X167944800Y-113995200D01*
D23*
%TO.N,Net-(C16-Pad2)*%
X94996000Y-118414800D02*
X111302800Y-118414800D01*
X111302800Y-118414800D02*
X114858800Y-121970800D01*
D22*
%TO.N,Earth*%
X124053600Y-80924400D02*
X124053600Y-77927200D01*
X124053600Y-77927200D02*
X127660400Y-74320400D01*
%TO.N,3.3V*%
X145288000Y-82753200D02*
X145186400Y-82753200D01*
X145186400Y-82753200D02*
X143713200Y-84226400D01*
%TO.N,RX*%
X131657600Y-74282000D02*
X131657600Y-76438000D01*
X131657600Y-76438000D02*
X134112000Y-78892400D01*
%TO.N,TX*%
X137820400Y-79298800D02*
X137820400Y-80873600D01*
X137820400Y-80873600D02*
X137464800Y-81229200D01*
D23*
%TO.N,5V*%
X180035200Y-121564400D02*
X178816000Y-122783600D01*
X180035200Y-112522000D02*
X180035200Y-121564400D01*
X178816000Y-122783600D02*
X170027600Y-122783600D01*
X180035200Y-112522000D02*
X186029600Y-106527600D01*
X186029600Y-106527600D02*
X186893200Y-106527600D01*
X187042400Y-106507500D02*
X187042400Y-105508400D01*
X187042400Y-105508400D02*
X178866800Y-97332800D01*
X178866800Y-76504800D02*
X178866800Y-86512400D01*
X178866800Y-86512400D02*
X178866800Y-97332800D01*
X175670100Y-86578100D02*
X178801100Y-86578100D01*
X178801100Y-86578100D02*
X178866800Y-86512400D01*
X133657600Y-74282000D02*
X176644000Y-74282000D01*
X176644000Y-74282000D02*
X178866800Y-76504800D01*
X178866800Y-97332800D02*
X175564800Y-100634800D01*
D22*
%TO.N,PG1*%
X136956800Y-88138000D02*
X139801600Y-85293200D01*
X147777200Y-86360000D02*
X167436800Y-86360000D01*
X139801600Y-85293200D02*
X146710400Y-85293200D01*
X146710400Y-85293200D02*
X147777200Y-86360000D01*
X167436800Y-86360000D02*
X171246800Y-82550000D01*
X171246800Y-82550000D02*
X175971200Y-82550000D01*
%TO.N,SWCLK*%
X131013200Y-86614000D02*
X128828800Y-86614000D01*
%TO.N,PG2*%
X137922000Y-88646000D02*
X139242800Y-87325200D01*
X139242800Y-87325200D02*
X152755600Y-87325200D01*
X152755600Y-87325200D02*
X162204400Y-96774000D01*
X162204400Y-96774000D02*
X175514000Y-96774000D01*
%TO.N,ENCD2_B*%
X159105600Y-94843600D02*
X159105600Y-96875600D01*
X152450800Y-88188800D02*
X159105600Y-94843600D01*
X159105600Y-96875600D02*
X167182800Y-104952800D01*
X139344400Y-88290400D02*
X139446000Y-88188800D01*
X139446000Y-88188800D02*
X152450800Y-88188800D01*
%TO.N,SBV2_DIR*%
X146456400Y-91795600D02*
X146456400Y-91236800D01*
%TO.N,ENCD1_A*%
X145440400Y-90474800D02*
X145424400Y-90560400D01*
X145424400Y-90795600D02*
X145440400Y-90474800D01*
%TO.N,SBV2_EN*%
X141732000Y-89103200D02*
X146558000Y-89103200D01*
X146558000Y-89103200D02*
X147370800Y-89916000D01*
X147370800Y-89916000D02*
X147370800Y-92710000D01*
X147370800Y-92710000D02*
X162986841Y-108326041D01*
X162986841Y-108326041D02*
X172851959Y-108326041D01*
X172851959Y-108326041D02*
X172974000Y-108204000D01*
%TO.N,ENCD2_A*%
X157480000Y-100838000D02*
X157175200Y-100838000D01*
X157175200Y-100838000D02*
X148488400Y-92151200D01*
%TO.N,SBV2_DIR*%
X157175200Y-103936800D02*
X146456400Y-93218000D01*
X146456400Y-93218000D02*
X146456400Y-91795600D01*
%TO.N,ENCD1_A*%
X145424400Y-90795600D02*
X145424400Y-94116400D01*
X147116800Y-96977200D02*
X159664400Y-109524800D01*
X145424400Y-94116400D02*
X147116800Y-95808800D01*
X147116800Y-95808800D02*
X147116800Y-96977200D01*
X159664400Y-109524800D02*
X159664400Y-110642400D01*
%TO.N,ENCD1_B*%
X159359600Y-111506000D02*
X146456400Y-98602800D01*
X146456400Y-98602800D02*
X146456400Y-96113600D01*
X146456400Y-96113600D02*
X145694400Y-95351600D01*
X142341600Y-95351600D02*
X141427200Y-94437200D01*
X145694400Y-95351600D02*
X142341600Y-95351600D01*
X141427200Y-94437200D02*
X141427200Y-90373200D01*
%TO.N,Net-(P10-Pad4)*%
X158445200Y-118618000D02*
X160375600Y-116687600D01*
X160375600Y-116687600D02*
X160375600Y-109220000D01*
X160375600Y-109220000D02*
X160121600Y-108966000D01*
%TO.N,Net-(P10-Pad2)*%
X156210000Y-112623600D02*
X156210000Y-116484400D01*
X156210000Y-116484400D02*
X152958800Y-119735600D01*
X152958800Y-119735600D02*
X151739600Y-119735600D01*
X151739600Y-119735600D02*
X151180800Y-120294400D01*
X151180800Y-120294400D02*
X151180800Y-122682000D01*
%TO.N,SBV1_DIR*%
X141681200Y-96520000D02*
X140766800Y-95605600D01*
X145389600Y-96520000D02*
X141681200Y-96520000D01*
X140766800Y-95605600D02*
X140766800Y-89001600D01*
%TO.N,SBV1_PUL*%
X130810000Y-93675414D02*
X130810000Y-88595200D01*
X154635200Y-116687600D02*
X153822186Y-116687600D01*
X153822186Y-116687600D02*
X130810000Y-93675414D01*
X130810000Y-88595200D02*
X129692400Y-87477600D01*
%TO.N,TX*%
X134823200Y-81229200D02*
X137464800Y-81229200D01*
X129657600Y-74282000D02*
X129657600Y-76063600D01*
X129657600Y-76063600D02*
X134823200Y-81229200D01*
%TO.N,NRST*%
X121107200Y-81635600D02*
X122478800Y-81635600D01*
X124175641Y-87406359D02*
X122224800Y-89357200D01*
X122478800Y-81635600D02*
X124175641Y-83332441D01*
X124175641Y-83332441D02*
X124175641Y-87406359D01*
X122224800Y-89357200D02*
X122224800Y-92964000D01*
%TO.N,SWO*%
X125628400Y-82346800D02*
X129133600Y-85852000D01*
X129133600Y-85852000D02*
X134823200Y-85852000D01*
%TO.N,SWCLK*%
X126187200Y-83972400D02*
X128828800Y-86614000D01*
%TO.N,SOL4*%
X84429600Y-92811600D02*
X88544400Y-92811600D01*
X88544400Y-92811600D02*
X91897200Y-96164400D01*
X91897200Y-96164400D02*
X129336800Y-96164400D01*
X97739200Y-76809600D02*
X91795600Y-82753200D01*
X91795600Y-82753200D02*
X85140800Y-82753200D01*
%TO.N,SOL1*%
X75844400Y-87801426D02*
X79470226Y-84175600D01*
X75844400Y-92506800D02*
X75844400Y-87801426D01*
X69748400Y-115163600D02*
X69748400Y-98602800D01*
X69748400Y-98602800D02*
X75844400Y-92506800D01*
X79470226Y-84175600D02*
X123545600Y-84175600D01*
%TO.N,SOL6*%
X88290400Y-98958400D02*
X125069600Y-98958400D01*
X83108800Y-93776800D02*
X88290400Y-98958400D01*
X125069600Y-98958400D02*
X125831600Y-98196400D01*
%TO.N,SOL3*%
X77978000Y-86309200D02*
X121869200Y-86309200D01*
X76860400Y-106222800D02*
X76860400Y-87426800D01*
X76860400Y-87426800D02*
X77978000Y-86309200D01*
X121869200Y-86309200D02*
X122732800Y-87172800D01*
%TO.N,SOL5*%
X90779600Y-97028000D02*
X125831600Y-97028000D01*
X125831600Y-97028000D02*
X125958600Y-96901000D01*
%TO.N,Net-(K1-Pad2)*%
X78613000Y-116408200D02*
X98780600Y-116408200D01*
X98780600Y-116408200D02*
X100279200Y-114909600D01*
%TO.N,Net-(C16-Pad2)*%
X78079600Y-107188000D02*
X85902800Y-115011200D01*
X85902800Y-115011200D02*
X92405200Y-115011200D01*
D23*
%TO.N,AC_NEUTRAL*%
X126524300Y-112576500D02*
X124183800Y-110236000D01*
X124183800Y-110236000D02*
X111861600Y-110236000D01*
X111861600Y-110236000D02*
X109931200Y-112166400D01*
X94488000Y-112166400D02*
X109931200Y-112166400D01*
X84175600Y-108559600D02*
X90881200Y-108559600D01*
X90881200Y-108559600D02*
X94488000Y-112166400D01*
X74879200Y-76250800D02*
X95351600Y-76250800D01*
X74879200Y-76250800D02*
X72694800Y-78435200D01*
X72694800Y-78435200D02*
X72694800Y-91440000D01*
%TO.N,Net-(C21-Pad2)*%
X77012800Y-69697600D02*
X96672400Y-69697600D01*
X62101000Y-80287000D02*
X64289800Y-80287000D01*
X64289800Y-80287000D02*
X65532000Y-79044800D01*
X65532000Y-79044800D02*
X65532000Y-71120000D01*
X65532000Y-71120000D02*
X66954400Y-69697600D01*
X66954400Y-69697600D02*
X77012800Y-69697600D01*
%TD*%
M02*
