%TF.GenerationSoftware,KiCad,Pcbnew,6.0.0*%
%TF.CreationDate,2022-01-09T21:07:46-07:00*%
%TF.ProjectId,L0005-Valve-Controller,4c303030-352d-4566-916c-76652d436f6e,1.0*%
%TF.SameCoordinates,Original*%
%TF.FileFunction,Copper,L4,Bot*%
%TF.FilePolarity,Positive*%
%FSLAX46Y46*%
G04 Gerber Fmt 4.6, Leading zero omitted, Abs format (unit mm)*
G04 Created by KiCad (PCBNEW 6.0.0) date 2022-01-09 21:07:46*
%MOMM*%
%LPD*%
G01*
G04 APERTURE LIST*
%TA.AperFunction,ComponentPad*%
%ADD10C,1.066800*%
%TD*%
%TA.AperFunction,ComponentPad*%
%ADD11R,1.258000X1.258000*%
%TD*%
%TA.AperFunction,ComponentPad*%
%ADD12C,1.258000*%
%TD*%
%TA.AperFunction,ComponentPad*%
%ADD13C,2.500000*%
%TD*%
%TA.AperFunction,ComponentPad*%
%ADD14R,2.050000X2.050000*%
%TD*%
%TA.AperFunction,ComponentPad*%
%ADD15C,2.050000*%
%TD*%
%TA.AperFunction,ComponentPad*%
%ADD16C,2.286000*%
%TD*%
%TA.AperFunction,ComponentPad*%
%ADD17R,1.308000X1.308000*%
%TD*%
%TA.AperFunction,ComponentPad*%
%ADD18C,1.308000*%
%TD*%
%TA.AperFunction,SMDPad,CuDef*%
%ADD19C,1.524000*%
%TD*%
%TA.AperFunction,ViaPad*%
%ADD20C,0.482600*%
%TD*%
%TA.AperFunction,ViaPad*%
%ADD21C,1.016000*%
%TD*%
%TA.AperFunction,ViaPad*%
%ADD22C,0.800000*%
%TD*%
%TA.AperFunction,Conductor*%
%ADD23C,0.254000*%
%TD*%
%TA.AperFunction,Conductor*%
%ADD24C,0.762000*%
%TD*%
%TA.AperFunction,Conductor*%
%ADD25C,0.508000*%
%TD*%
%TA.AperFunction,Conductor*%
%ADD26C,0.250000*%
%TD*%
G04 APERTURE END LIST*
D10*
%TO.P,P1,1,1*%
%TO.N,3.3V*%
X126939040Y-85816440D03*
%TO.P,P1,2,2*%
%TO.N,unconnected-(P1-Pad2)*%
X126939040Y-84546440D03*
%TO.P,P1,3,3*%
%TO.N,unconnected-(P1-Pad3)*%
X128209040Y-85816440D03*
%TO.P,P1,4,4*%
%TO.N,Earth*%
X128209040Y-84546440D03*
%TO.P,P1,5,5*%
%TO.N,unconnected-(P1-Pad5)*%
X129479040Y-85816440D03*
%TO.P,P1,6,6*%
%TO.N,Earth*%
X129479040Y-84546440D03*
%TO.P,P1,7,7*%
%TO.N,SWDIO*%
X130749040Y-85816440D03*
%TO.P,P1,8,8*%
%TO.N,Earth*%
X130749040Y-84546440D03*
%TO.P,P1,9,9*%
%TO.N,SWCLK*%
X132019040Y-85816440D03*
%TO.P,P1,10,10*%
%TO.N,Earth*%
X132019040Y-84546440D03*
%TO.P,P1,11,11*%
%TO.N,unconnected-(P1-Pad11)*%
X133289040Y-85816440D03*
%TO.P,P1,12,12*%
%TO.N,Earth*%
X133289040Y-84546440D03*
%TO.P,P1,13,13*%
%TO.N,SWO*%
X134559040Y-85816440D03*
%TO.P,P1,14,14*%
%TO.N,Earth*%
X134559040Y-84546440D03*
%TO.P,P1,15,15*%
%TO.N,NRST*%
X135829040Y-85816440D03*
%TO.P,P1,16,16*%
%TO.N,Earth*%
X135829040Y-84546440D03*
%TO.P,P1,17,17*%
%TO.N,unconnected-(P1-Pad17)*%
X137099040Y-85816440D03*
%TO.P,P1,18,18*%
%TO.N,Earth*%
X137099040Y-84546440D03*
%TO.P,P1,19,19*%
%TO.N,unconnected-(P1-Pad19)*%
X138369040Y-85816440D03*
%TO.P,P1,20,20*%
%TO.N,Earth*%
X138369040Y-84546440D03*
%TD*%
D11*
%TO.P,P2,1,+12V*%
%TO.N,5V*%
X153012400Y-83781600D03*
D12*
%TO.P,P2,2,GND*%
%TO.N,RX*%
X151012400Y-83781600D03*
%TO.P,P2,3,3*%
%TO.N,TX*%
X149012400Y-83781600D03*
%TO.P,P2,4,4*%
%TO.N,Earth*%
X147012400Y-83781600D03*
%TD*%
D13*
%TO.P,P3,1,1*%
%TO.N,Net-(C16-Pad2)*%
X137564000Y-122428000D03*
%TO.P,P3,2,2*%
%TO.N,AC_HOT*%
X133604000Y-122428000D03*
%TO.P,P3,3,3*%
%TO.N,unconnected-(P3-Pad3)*%
X129644000Y-122428000D03*
%TD*%
%TO.P,P4,1,1*%
%TO.N,Net-(C17-Pad2)*%
X118260000Y-122428000D03*
%TO.P,P4,2,2*%
%TO.N,AC_HOT*%
X114300000Y-122428000D03*
%TO.P,P4,3,3*%
%TO.N,unconnected-(P4-Pad3)*%
X110340000Y-122428000D03*
%TD*%
%TO.P,P5,1,1*%
%TO.N,Net-(C18-Pad2)*%
X98956000Y-122428000D03*
%TO.P,P5,2,2*%
%TO.N,AC_HOT*%
X94996000Y-122428000D03*
%TO.P,P5,3,3*%
%TO.N,unconnected-(P5-Pad3)*%
X91036000Y-122428000D03*
%TD*%
%TO.P,P6,1,1*%
%TO.N,Net-(C19-Pad2)*%
X80160000Y-122428000D03*
%TO.P,P6,2,2*%
%TO.N,AC_HOT*%
X76200000Y-122428000D03*
%TO.P,P6,3,3*%
%TO.N,unconnected-(P6-Pad3)*%
X72240000Y-122428000D03*
%TD*%
D14*
%TO.P,P9,1,1*%
%TO.N,Net-(F1-Pad2)*%
X146659600Y-112420400D03*
D15*
%TO.P,P9,2,2*%
%TO.N,AC_NEUTRAL*%
X150619600Y-112420400D03*
%TD*%
D14*
%TO.P,P14,1,1*%
%TO.N,5V*%
X177292000Y-92252800D03*
D16*
%TO.P,P14,2,2*%
%TO.N,PG1*%
X173332000Y-92252800D03*
%TO.P,P14,3,3*%
%TO.N,Earth*%
X169372000Y-92252800D03*
%TD*%
D14*
%TO.P,P15,1,1*%
%TO.N,5V*%
X183540400Y-95453200D03*
D16*
%TO.P,P15,2,2*%
%TO.N,PG2*%
X183540400Y-91493200D03*
%TO.P,P15,3,3*%
%TO.N,Earth*%
X183540400Y-87533200D03*
%TD*%
D14*
%TO.P,P16,1,1*%
%TO.N,Net-(P16-Pad1)*%
X157353000Y-112395000D03*
D15*
%TO.P,P16,2,2*%
%TO.N,Net-(D2-Pad1)*%
X161313000Y-112395000D03*
%TD*%
D13*
%TO.P,P8,1,1*%
%TO.N,Net-(C21-Pad2)*%
X61976000Y-95960000D03*
%TO.P,P8,2,2*%
%TO.N,AC_HOT*%
X61976000Y-92000000D03*
%TO.P,P8,3,3*%
%TO.N,unconnected-(P8-Pad3)*%
X61976000Y-88040000D03*
%TD*%
%TO.P,P7,1,1*%
%TO.N,Net-(C20-Pad2)*%
X61976000Y-113688000D03*
%TO.P,P7,2,2*%
%TO.N,AC_HOT*%
X61976000Y-109728000D03*
%TO.P,P7,3,3*%
%TO.N,unconnected-(P7-Pad3)*%
X61976000Y-105768000D03*
%TD*%
D17*
%TO.P,P13,1,+12V*%
%TO.N,5V*%
X185420000Y-103204000D03*
D18*
%TO.P,P13,2,GND*%
%TO.N,Net-(P13-Pad2)*%
X185420000Y-105204000D03*
%TO.P,P13,3,3*%
%TO.N,Earth*%
X185420000Y-107204000D03*
%TO.P,P13,4,4*%
%TO.N,Net-(P13-Pad4)*%
X185420000Y-109204000D03*
%TO.P,P13,5,5*%
%TO.N,Earth*%
X185420000Y-111204000D03*
%TO.P,P13,6,6*%
X185420000Y-113204000D03*
%TD*%
D17*
%TO.P,P12,1,+12V*%
%TO.N,5V*%
X194564000Y-103204000D03*
D18*
%TO.P,P12,2,GND*%
%TO.N,Net-(P12-Pad2)*%
X194564000Y-105204000D03*
%TO.P,P12,3,3*%
%TO.N,5V*%
X194564000Y-107204000D03*
%TO.P,P12,4,4*%
%TO.N,Net-(P12-Pad4)*%
X194564000Y-109204000D03*
%TO.P,P12,5,5*%
%TO.N,/Valves/SBV2_PUL5*%
X194564000Y-111204000D03*
%TO.P,P12,6,6*%
%TO.N,Earth*%
X194564000Y-113204000D03*
%TD*%
D17*
%TO.P,P10,1,+12V*%
%TO.N,5V*%
X178228000Y-122682000D03*
D18*
%TO.P,P10,2,GND*%
%TO.N,Net-(P10-Pad2)*%
X176228000Y-122682000D03*
%TO.P,P10,3,3*%
%TO.N,5V*%
X174228000Y-122682000D03*
%TO.P,P10,4,4*%
%TO.N,Net-(P10-Pad4)*%
X172228000Y-122682000D03*
%TO.P,P10,5,5*%
%TO.N,/Valves/SBV1_PUL5*%
X170228000Y-122682000D03*
%TO.P,P10,6,6*%
%TO.N,Earth*%
X168228000Y-122682000D03*
%TD*%
D17*
%TO.P,P11,1,+12V*%
%TO.N,5V*%
X195246000Y-122682000D03*
D18*
%TO.P,P11,2,GND*%
%TO.N,Net-(P11-Pad2)*%
X193246000Y-122682000D03*
%TO.P,P11,3,3*%
%TO.N,Earth*%
X191246000Y-122682000D03*
%TO.P,P11,4,4*%
%TO.N,Net-(P11-Pad4)*%
X189246000Y-122682000D03*
%TO.P,P11,5,5*%
%TO.N,Earth*%
X187246000Y-122682000D03*
%TO.P,P11,6,6*%
X185246000Y-122682000D03*
%TD*%
D19*
%TO.P,TP1,1*%
%TO.N,NRST*%
X123571000Y-89336880D03*
%TD*%
%TO.P,TP2,1*%
%TO.N,Earth*%
X165658800Y-84632800D03*
%TD*%
%TO.P,TP3,1*%
%TO.N,3.3V*%
X161696400Y-84632800D03*
%TD*%
%TO.P,TP4,1*%
%TO.N,RX*%
X139192000Y-107238800D03*
%TD*%
%TO.P,TP5,1*%
%TO.N,TX*%
X142341600Y-107238800D03*
%TD*%
D20*
%TO.N,Earth*%
X132842000Y-94234000D03*
X125476000Y-98958400D03*
X93698000Y-93754000D03*
X96062800Y-79298800D03*
X156083000Y-99187000D03*
X139801600Y-102407720D03*
X120954800Y-94691200D03*
X159893000Y-104394000D03*
X167778400Y-99725600D03*
X120992900Y-98671380D03*
X130124200Y-88447880D03*
X142367000Y-105283000D03*
X163195000Y-100330000D03*
X132892800Y-109575600D03*
X164185600Y-105359200D03*
D21*
X155498800Y-86614000D03*
D20*
X176834800Y-100533200D03*
X95504000Y-106680000D03*
X161696400Y-96774000D03*
X130454400Y-102768400D03*
X154686000Y-104013000D03*
X149098000Y-100330000D03*
X132959920Y-102830440D03*
X143911320Y-101909880D03*
%TO.N,NRST*%
X128930400Y-90932000D03*
%TO.N,3.3V*%
X131089400Y-105349040D03*
X154686000Y-102743000D03*
X143662400Y-110134400D03*
D21*
X159512000Y-87172800D03*
D20*
X131937760Y-105486200D03*
X129716572Y-97153772D03*
X139904399Y-101629281D03*
X132283200Y-91236800D03*
X158115000Y-98983800D03*
X125404880Y-95448120D03*
X139446000Y-104013000D03*
D21*
%TO.N,Net-(C16-Pad2)*%
X115869720Y-111551720D03*
X123190000Y-109387640D03*
%TO.N,Net-(C17-Pad2)*%
X107188000Y-101092000D03*
X118260000Y-118133000D03*
D22*
%TO.N,Net-(C18-Pad2)*%
X117436900Y-83451700D03*
X108988860Y-88646000D03*
X98933000Y-87503000D03*
D21*
X98933000Y-115951000D03*
D22*
%TO.N,Net-(C20-Pad2)*%
X90424000Y-96012000D03*
X83312000Y-98094800D03*
D20*
%TO.N,EXECPT*%
X138684000Y-87680800D03*
X129959920Y-91351920D03*
%TO.N,Net-(J1-Pad2)*%
X128701800Y-96453960D03*
X120462040Y-93756480D03*
%TO.N,Net-(J2-Pad2)*%
X128574800Y-97129600D03*
X120314720Y-98155760D03*
D21*
%TO.N,AC_NEUTRAL*%
X95377000Y-90043000D03*
X122946160Y-112836960D03*
D22*
X72237600Y-109829600D03*
X116531390Y-91893390D03*
D21*
X108651040Y-97254060D03*
D22*
X72390000Y-96113600D03*
X72390000Y-83185000D03*
D21*
X117734080Y-113507520D03*
D20*
%TO.N,SOL3*%
X137706100Y-88806020D03*
X129967680Y-90555120D03*
%TO.N,SOL5*%
X133407150Y-95383350D03*
X118478300Y-104457500D03*
%TO.N,SOL6*%
X132016500Y-95059500D03*
X95059500Y-86423500D03*
%TO.N,SOL4*%
X91186000Y-84582000D03*
X131064000Y-94132400D03*
%TO.N,TX*%
X137858500Y-104648000D03*
%TO.N,RX*%
X136906000Y-105537000D03*
%TO.N,Net-(P11-Pad4)*%
X179019200Y-116789200D03*
%TO.N,Net-(P10-Pad2)*%
X170891200Y-118059200D03*
%TO.N,PG1*%
X147447000Y-79451200D03*
X132181600Y-97637600D03*
%TO.N,PG2*%
X144272000Y-90576400D03*
X138633200Y-90170000D03*
X125476000Y-100228400D03*
%TO.N,ENCD1_A*%
X171856400Y-103936800D03*
X146913600Y-102057200D03*
%TO.N,ENCD2_A*%
X172720000Y-95707200D03*
X148234400Y-94234000D03*
%TO.N,ENCD1_B*%
X142341600Y-98247200D03*
X165862000Y-99669600D03*
%TO.N,ENCD2_B*%
X174752000Y-96824800D03*
X147929600Y-93218000D03*
%TO.N,VAC_MON*%
X129781300Y-100088700D03*
X143065500Y-111061500D03*
%TO.N,Net-(P12-Pad2)*%
X188112400Y-99771200D03*
X168148000Y-96926400D03*
%TO.N,Net-(P12-Pad4)*%
X189128400Y-99669600D03*
X173177200Y-97739200D03*
%TO.N,/Valves/SBV2_PUL5*%
X169773600Y-106883200D03*
%TO.N,SBV1_DIR*%
X161442400Y-104851200D03*
X147726400Y-103378000D03*
%TO.N,SBV1_EN*%
X164185600Y-106680000D03*
X147828000Y-105968800D03*
%TO.N,SBV2_DIR*%
X159308800Y-96621600D03*
X146304000Y-95504000D03*
%TO.N,SBV2_PUL*%
X155803600Y-100076000D03*
X143002000Y-97282000D03*
%TO.N,SBV2_EN*%
X163626800Y-97332800D03*
X144983200Y-96113600D03*
%TD*%
D23*
%TO.N,Earth*%
X165658800Y-84632800D02*
X167538400Y-84632800D01*
X169367200Y-86461600D02*
X169367200Y-90830400D01*
X169367200Y-90830400D02*
X169367200Y-91948000D01*
X167538400Y-84632800D02*
X169367200Y-86461600D01*
%TO.N,NRST*%
X129885440Y-87335360D02*
X135493760Y-87335360D01*
X128955800Y-90932000D02*
X125130560Y-90932000D01*
X128955800Y-88265000D02*
X129885440Y-87335360D01*
X135823960Y-87005160D02*
X135823960Y-85846920D01*
X128955800Y-90932000D02*
X128955800Y-88265000D01*
X125130560Y-90932000D02*
X123667520Y-89468960D01*
X135493760Y-87335360D02*
X135823960Y-87005160D01*
%TO.N,3.3V*%
X161340800Y-84582000D02*
X161798000Y-84582000D01*
X160528000Y-84531200D02*
X161391600Y-84531200D01*
X159512000Y-87172800D02*
X159512000Y-85547200D01*
X159512000Y-85547200D02*
X160528000Y-84531200D01*
D24*
%TO.N,5V*%
X177241200Y-78130400D02*
X177190400Y-78079600D01*
X193192400Y-92354400D02*
X197307200Y-96469200D01*
X197307200Y-102717600D02*
X197307200Y-106934000D01*
X153012400Y-83781600D02*
X153012400Y-80159600D01*
X190906400Y-100126800D02*
X197307200Y-100126800D01*
X197307200Y-124714000D02*
X195935600Y-126085600D01*
X185369200Y-103102400D02*
X187930800Y-103102400D01*
X153012400Y-80159600D02*
X155092400Y-78079600D01*
X174193200Y-124409200D02*
X174193200Y-122580400D01*
X197256400Y-122682000D02*
X197307200Y-122631200D01*
X195935600Y-126085600D02*
X179832000Y-126085600D01*
X196973200Y-103051600D02*
X197307200Y-102717600D01*
X155092400Y-78079600D02*
X177190400Y-78079600D01*
X195296800Y-122682000D02*
X197256400Y-122682000D01*
X194462400Y-103051600D02*
X196973200Y-103051600D01*
X175869600Y-126085600D02*
X174193200Y-124409200D01*
X179832000Y-126085600D02*
X178358800Y-126085600D01*
X190093600Y-95453200D02*
X193192400Y-92354400D01*
X194462400Y-107051600D02*
X197189600Y-107051600D01*
X183540400Y-95453200D02*
X190093600Y-95453200D01*
X178358800Y-126085600D02*
X175869600Y-126085600D01*
X197307200Y-122631200D02*
X197307200Y-124714000D01*
X178228000Y-125954800D02*
X178358800Y-126085600D01*
X177241200Y-91135200D02*
X177241200Y-78130400D01*
X197307200Y-96469200D02*
X197307200Y-100126800D01*
X177190400Y-78079600D02*
X178917600Y-78079600D01*
X197307200Y-106934000D02*
X197307200Y-122631200D01*
X178228000Y-122631200D02*
X178228000Y-125954800D01*
X197307200Y-100126800D02*
X197307200Y-102717600D01*
X197189600Y-107051600D02*
X197307200Y-106934000D01*
X178917600Y-78079600D02*
X193192400Y-92354400D01*
X187930800Y-103102400D02*
X190906400Y-100126800D01*
D25*
%TO.N,Net-(C16-Pad2)*%
X118033800Y-109387640D02*
X115869720Y-111551720D01*
X123190000Y-109387640D02*
X118033800Y-109387640D01*
%TO.N,Net-(C17-Pad2)*%
X118260000Y-118133000D02*
X114323000Y-118133000D01*
X107188000Y-110998000D02*
X107188000Y-101092000D01*
X114323000Y-118133000D02*
X107188000Y-110998000D01*
%TO.N,Net-(C18-Pad2)*%
X98933000Y-115951000D02*
X98933000Y-87503000D01*
X112257840Y-88630760D02*
X108988860Y-88646000D01*
X117386100Y-83502500D02*
X112257840Y-88630760D01*
%TO.N,Net-(C20-Pad2)*%
X90373200Y-96012000D02*
X85344000Y-96012000D01*
X85344000Y-96012000D02*
X83312000Y-98044000D01*
D23*
%TO.N,EXECPT*%
X132207000Y-90170000D02*
X134810500Y-90170000D01*
X138176000Y-89598500D02*
X138684000Y-89090500D01*
X134810500Y-90170000D02*
X135382000Y-89598500D01*
X131025080Y-91351920D02*
X132207000Y-90170000D01*
X138684000Y-89090500D02*
X138684000Y-87680800D01*
X129959920Y-91351920D02*
X131025080Y-91351920D01*
X135382000Y-89598500D02*
X138176000Y-89598500D01*
%TO.N,Net-(J1-Pad2)*%
X120462040Y-93756480D02*
X121848880Y-93756480D01*
X121848880Y-93756480D02*
X124714000Y-96621600D01*
D26*
X125973840Y-96621600D02*
X124714000Y-96621600D01*
X128701800Y-96453960D02*
X126141480Y-96453960D01*
X126141480Y-96453960D02*
X125973840Y-96621600D01*
D23*
%TO.N,Net-(J2-Pad2)*%
X128574800Y-97129600D02*
X128574800Y-97276920D01*
X124682861Y-97755099D02*
X124866400Y-97571560D01*
X128574800Y-97276920D02*
X128280160Y-97571560D01*
X120715381Y-97755099D02*
X124682861Y-97755099D01*
X124866400Y-97571560D02*
X128280160Y-97571560D01*
X120314720Y-98155760D02*
X120715381Y-97755099D01*
D24*
%TO.N,AC_NEUTRAL*%
X79502000Y-117094000D02*
X82296000Y-119888000D01*
X122936000Y-119888000D02*
X124714000Y-119888000D01*
X72224900Y-109816900D02*
X72224900Y-98767900D01*
X96326301Y-90992301D02*
X96326301Y-102174699D01*
X146050000Y-117856000D02*
X147777200Y-117856000D01*
X126238000Y-119888000D02*
X128270000Y-117856000D01*
X72390000Y-98602800D02*
X72390000Y-96113600D01*
X72390000Y-96012000D02*
X72390000Y-83185000D01*
X95377000Y-90043000D02*
X96326301Y-90992301D01*
X82296000Y-119888000D02*
X93218000Y-119888000D01*
X93218000Y-105283000D02*
X93218000Y-119888000D01*
X124714000Y-119888000D02*
X126238000Y-119888000D01*
D25*
X111272320Y-97152460D02*
X108651040Y-97254060D01*
D24*
X72224900Y-109816900D02*
X72237600Y-109829600D01*
X147777200Y-117856000D02*
X150520400Y-115112800D01*
X122946160Y-119877840D02*
X122936000Y-119888000D01*
D25*
X116429790Y-91994990D02*
X111272320Y-97152460D01*
D24*
X150520400Y-115112800D02*
X150520400Y-112268000D01*
X122946160Y-112836960D02*
X122946160Y-119877840D01*
X128270000Y-117856000D02*
X146050000Y-117856000D01*
X72224900Y-98767900D02*
X72390000Y-98602800D01*
D25*
X118404640Y-112836960D02*
X117734080Y-113507520D01*
D24*
X93218000Y-119888000D02*
X122936000Y-119888000D01*
D25*
X122946160Y-112836960D02*
X118404640Y-112836960D01*
D24*
X72237600Y-109829600D02*
X79502000Y-117094000D01*
X72390000Y-96113600D02*
X72390000Y-96012000D01*
X96326301Y-102174699D02*
X93218000Y-105283000D01*
D23*
%TO.N,SOL3*%
X129967680Y-89523880D02*
X130685540Y-88806020D01*
X129967680Y-90555120D02*
X129967680Y-89523880D01*
X130685540Y-88806020D02*
X137706100Y-88806020D01*
%TO.N,SOL5*%
X129159000Y-100457000D02*
X129159000Y-99631500D01*
X129159000Y-99631500D02*
X133407150Y-95383350D01*
X125158500Y-104457500D02*
X129159000Y-100457000D01*
X118478300Y-104457500D02*
X125158500Y-104457500D01*
%TO.N,SOL6*%
X101219000Y-86423500D02*
X105537000Y-90741500D01*
X129032000Y-95059500D02*
X132016500Y-95059500D01*
X123634500Y-93726000D02*
X127698500Y-93726000D01*
X105537000Y-90741500D02*
X120650000Y-90741500D01*
X95059500Y-86423500D02*
X101219000Y-86423500D01*
X127698500Y-93726000D02*
X129032000Y-95059500D01*
X120650000Y-90741500D02*
X123634500Y-93726000D01*
%TO.N,SOL4*%
X107188000Y-89916000D02*
X120904000Y-89916000D01*
X91186000Y-84582000D02*
X101854000Y-84582000D01*
X127381000Y-92456000D02*
X129413000Y-94488000D01*
X101854000Y-84582000D02*
X107188000Y-89916000D01*
X129413000Y-94488000D02*
X130708400Y-94488000D01*
X130708400Y-94488000D02*
X131064000Y-94132400D01*
X120904000Y-89916000D02*
X123444000Y-92456000D01*
X123444000Y-92456000D02*
X127381000Y-92456000D01*
%TO.N,TX*%
X140868400Y-107238800D02*
X142290800Y-107238800D01*
X140716000Y-107086400D02*
X140868400Y-107238800D01*
X137858500Y-104648000D02*
X137858500Y-94957900D01*
X138988800Y-104648000D02*
X140716000Y-106375200D01*
X137858500Y-104648000D02*
X138988800Y-104648000D01*
X137858500Y-94957900D02*
X148945600Y-83870800D01*
X140716000Y-106375200D02*
X140716000Y-107086400D01*
%TO.N,RX*%
X151028400Y-81940400D02*
X151028400Y-84023200D01*
X136906000Y-105537000D02*
X137337800Y-105537000D01*
X136906000Y-94691200D02*
X145084800Y-86512400D01*
X150622000Y-81534000D02*
X151028400Y-81940400D01*
X137337800Y-105537000D02*
X138988800Y-107188000D01*
X146710400Y-81534000D02*
X150622000Y-81534000D01*
X145084800Y-83159600D02*
X146710400Y-81534000D01*
X145084800Y-86512400D02*
X145084800Y-83159600D01*
X136906000Y-105537000D02*
X136906000Y-94691200D01*
%TO.N,Net-(P11-Pad4)*%
X186385200Y-116789200D02*
X189230000Y-119634000D01*
X189230000Y-119634000D02*
X189230000Y-122783600D01*
X179019200Y-116789200D02*
X186385200Y-116789200D01*
%TO.N,Net-(P10-Pad2)*%
X175514000Y-120446800D02*
X176225200Y-121158000D01*
X173278800Y-120446800D02*
X175514000Y-120446800D01*
X170891200Y-118059200D02*
X173278800Y-120446800D01*
X176225200Y-121158000D02*
X176225200Y-122580400D01*
%TO.N,PG1*%
X142849600Y-86868000D02*
X142849600Y-84023200D01*
X132181600Y-97637600D02*
X136093200Y-93726000D01*
X136093200Y-93624400D02*
X142849600Y-86868000D01*
X136093200Y-93726000D02*
X136093200Y-93624400D01*
X142849600Y-84023200D02*
X147421600Y-79451200D01*
%TO.N,PG2*%
X156311600Y-91948000D02*
X147015200Y-91948000D01*
X145643600Y-90576400D02*
X144272000Y-90576400D01*
X137747086Y-90170000D02*
X131701886Y-96215200D01*
X183540400Y-91493200D02*
X180799600Y-94234000D01*
X127558800Y-100228400D02*
X125476000Y-100228400D01*
X138633200Y-90170000D02*
X137747086Y-90170000D01*
X167436800Y-94234000D02*
X166725600Y-93522800D01*
X180799600Y-94234000D02*
X167436800Y-94234000D01*
X157886400Y-93522800D02*
X156311600Y-91948000D01*
X131572000Y-96215200D02*
X127558800Y-100228400D01*
X147015200Y-91948000D02*
X145643600Y-90576400D01*
X131701886Y-96215200D02*
X131572000Y-96215200D01*
X166725600Y-93522800D02*
X157886400Y-93522800D01*
%TO.N,ENCD1_A*%
X152552400Y-102057200D02*
X153924000Y-103428800D01*
X171856400Y-103886000D02*
X171856400Y-103936800D01*
X153924000Y-103428800D02*
X171399200Y-103428800D01*
X146913600Y-102057200D02*
X152552400Y-102057200D01*
X171399200Y-103428800D02*
X171856400Y-103886000D01*
%TO.N,ENCD2_A*%
X153162000Y-94234000D02*
X154686000Y-95758000D01*
X148234400Y-94234000D02*
X153162000Y-94234000D01*
X154686000Y-95758000D02*
X159004000Y-95758000D01*
X159004000Y-95758000D02*
X172720000Y-95707200D01*
%TO.N,ENCD1_B*%
X162380567Y-100643811D02*
X163133556Y-101396800D01*
X142341600Y-98247200D02*
X151942800Y-98247200D01*
X163133556Y-101396800D02*
X164134800Y-101396800D01*
X154339411Y-100643811D02*
X162380567Y-100643811D01*
X151942800Y-98247200D02*
X154339411Y-100643811D01*
X164134800Y-101396800D02*
X165862000Y-99669600D01*
%TO.N,ENCD2_B*%
X156612720Y-94687520D02*
X174341920Y-94687520D01*
X147929600Y-93218000D02*
X155143200Y-93218000D01*
X174701200Y-95046800D02*
X174752000Y-96774000D01*
X155143200Y-93218000D02*
X156612720Y-94687520D01*
X174341920Y-94687520D02*
X174701200Y-95046800D01*
%TO.N,VAC_MON*%
X136144000Y-106855606D02*
X136144000Y-103949500D01*
X143065500Y-111061500D02*
X140349894Y-111061500D01*
X132270500Y-100076000D02*
X129819400Y-100076000D01*
X140349894Y-111061500D02*
X136144000Y-106855606D01*
X136144000Y-103949500D02*
X132270500Y-100076000D01*
%TO.N,Net-(P12-Pad2)*%
X173939200Y-99771200D02*
X188112400Y-99771200D01*
X171094400Y-96926400D02*
X173939200Y-99771200D01*
X168148000Y-96926400D02*
X171094400Y-96926400D01*
%TO.N,Net-(P12-Pad4)*%
X173177200Y-97739200D02*
X176326800Y-97739200D01*
X177342800Y-98755200D02*
X188214000Y-98755200D01*
X188214000Y-98755200D02*
X189128400Y-99669600D01*
X176326800Y-97739200D02*
X177342800Y-98755200D01*
%TO.N,/Valves/SBV2_PUL5*%
X169773600Y-106883200D02*
X178155600Y-115265200D01*
X178155600Y-115265200D02*
X187858400Y-115265200D01*
X191973200Y-111150400D02*
X194513200Y-111150400D01*
X187858400Y-115265200D02*
X191973200Y-111150400D01*
%TO.N,SBV1_DIR*%
X160985200Y-105308400D02*
X161442400Y-104851200D01*
X154736800Y-105308400D02*
X160985200Y-105308400D01*
X147726400Y-103378000D02*
X152806400Y-103378000D01*
X152806400Y-103378000D02*
X154736800Y-105308400D01*
%TO.N,SBV1_EN*%
X163626800Y-105968800D02*
X164185600Y-106527600D01*
X147828000Y-105968800D02*
X163626800Y-105968800D01*
X164185600Y-106527600D02*
X164185600Y-106680000D01*
%TO.N,SBV2_DIR*%
X153314400Y-95504000D02*
X155194000Y-97383600D01*
X155194000Y-97383600D02*
X158699200Y-97383600D01*
X158699200Y-97383600D02*
X159308800Y-96774000D01*
X146304000Y-95504000D02*
X153314400Y-95504000D01*
X159308800Y-96774000D02*
X159308800Y-96621600D01*
%TO.N,SBV2_PUL*%
X155803600Y-100076000D02*
X153035000Y-97282000D01*
X153035000Y-97282000D02*
X143002000Y-97282000D01*
%TO.N,SBV2_EN*%
X155092400Y-98044000D02*
X162915600Y-98044000D01*
X162915600Y-98044000D02*
X163626800Y-97332800D01*
X153162000Y-96113600D02*
X155092400Y-98044000D01*
X144983200Y-96113600D02*
X153162000Y-96113600D01*
%TD*%
M02*
