%TF.GenerationSoftware,KiCad,Pcbnew,7.0.1*%
%TF.CreationDate,2023-06-09T22:35:25-07:00*%
%TF.ProjectId,L0005-Valve-Controller,4c303030-352d-4566-916c-76652d436f6e,1.0*%
%TF.SameCoordinates,Original*%
%TF.FileFunction,Soldermask,Top*%
%TF.FilePolarity,Negative*%
%FSLAX46Y46*%
G04 Gerber Fmt 4.6, Leading zero omitted, Abs format (unit mm)*
G04 Created by KiCad (PCBNEW 7.0.1) date 2023-06-09 22:35:25*
%MOMM*%
%LPD*%
G01*
G04 APERTURE LIST*
%ADD10R,1.700000X0.990600*%
%ADD11R,1.600000X0.855600*%
%ADD12R,0.855600X1.600000*%
%ADD13R,0.685800X0.609600*%
%ADD14R,1.900000X1.500000*%
%ADD15C,1.066800*%
%ADD16C,2.500000*%
%ADD17R,0.940000X1.020000*%
%ADD18R,1.020000X0.940000*%
%ADD19R,3.048000X1.854200*%
%ADD20R,1.854200X3.048000*%
%ADD21R,2.150000X0.950000*%
%ADD22R,2.150000X3.250000*%
%ADD23R,0.979300X0.558800*%
%ADD24C,4.300000*%
%ADD25R,0.965200X1.295400*%
%ADD26R,1.778000X1.270000*%
%ADD27R,1.308000X1.308000*%
%ADD28C,1.308000*%
%ADD29R,1.100000X1.000000*%
%ADD30R,0.508000X0.254000*%
%ADD31R,1.219200X0.457200*%
%ADD32R,2.050000X2.050000*%
%ADD33C,2.286000*%
%ADD34R,1.000000X1.100000*%
%ADD35C,2.050000*%
%ADD36R,1.560000X0.280000*%
%ADD37R,0.280000X1.560000*%
%ADD38R,2.620000X3.200000*%
%ADD39R,0.900000X0.254000*%
%ADD40R,0.254000X0.900000*%
%ADD41R,3.100000X3.100000*%
%ADD42R,1.258000X1.258000*%
%ADD43C,1.258000*%
%ADD44R,1.478000X1.478000*%
%ADD45C,1.478000*%
%ADD46C,3.366000*%
%ADD47R,1.000000X0.800000*%
G04 APERTURE END LIST*
D10*
%TO.C,B1*%
X116441200Y-99948799D03*
X111041200Y-99948799D03*
X116441200Y-96748801D03*
X111041200Y-96748801D03*
%TD*%
D11*
%TO.C,C16*%
X78079600Y-112068601D03*
X78079600Y-109012999D03*
%TD*%
%TO.C,C17*%
X104800400Y-89708999D03*
X104800400Y-92764601D03*
%TD*%
%TO.C,C18*%
X69494400Y-112119401D03*
X69494400Y-109063799D03*
%TD*%
D12*
%TO.C,C19*%
X84331801Y-98171000D03*
X81276199Y-98171000D03*
%TD*%
%TO.C,C20*%
X71631801Y-83312000D03*
X68576199Y-83312000D03*
%TD*%
%TO.C,C21*%
X82172801Y-70358000D03*
X79117199Y-70358000D03*
%TD*%
D13*
%TO.C,J1*%
X126136400Y-78790800D03*
X125018800Y-78790800D03*
%TD*%
D14*
%TO.C,K1*%
X102956000Y-114808000D03*
X102956000Y-112268000D03*
X102956000Y-109728000D03*
X102956000Y-107188000D03*
X94656000Y-107188000D03*
X94656000Y-109728000D03*
X94656000Y-114808000D03*
%TD*%
%TO.C,K2*%
X101813000Y-101727000D03*
X101813000Y-99187000D03*
X101813000Y-96647000D03*
X101813000Y-94107000D03*
X93513000Y-94107000D03*
X93513000Y-96647000D03*
X93513000Y-101727000D03*
%TD*%
%TO.C,K3*%
X89621000Y-114681000D03*
X89621000Y-112141000D03*
X89621000Y-109601000D03*
X89621000Y-107061000D03*
X81321000Y-107061000D03*
X81321000Y-109601000D03*
X81321000Y-114681000D03*
%TD*%
%TO.C,K4*%
X88063500Y-94869000D03*
X88063500Y-92329000D03*
X88063500Y-89789000D03*
X88063500Y-87249000D03*
X79763500Y-87249000D03*
X79763500Y-89789000D03*
X79763500Y-94869000D03*
%TD*%
%TO.C,K5*%
X88097000Y-82804000D03*
X88097000Y-80264000D03*
X88097000Y-77724000D03*
X88097000Y-75184000D03*
X79797000Y-75184000D03*
X79797000Y-77724000D03*
X79797000Y-82804000D03*
%TD*%
%TO.C,K6*%
X118111700Y-92811600D03*
X118111700Y-90271600D03*
X118111700Y-87731600D03*
X118111700Y-85191600D03*
X109811700Y-85191600D03*
X109811700Y-87731600D03*
X109811700Y-92811600D03*
%TD*%
D15*
%TO.C,P1*%
X108280200Y-75398250D03*
X108280200Y-74128250D03*
X109550200Y-75398250D03*
X109550200Y-74128250D03*
X110820200Y-75398250D03*
X110820200Y-74128250D03*
X112090200Y-75398250D03*
X112090200Y-74128250D03*
X113360200Y-75398250D03*
X113360200Y-74128250D03*
X114630200Y-75398250D03*
X114630200Y-74128250D03*
X115900200Y-75398250D03*
X115900200Y-74128250D03*
X117170200Y-75398250D03*
X117170200Y-74128250D03*
X118440200Y-75398250D03*
X118440200Y-74128250D03*
X119710200Y-75398250D03*
X119710200Y-74128250D03*
%TD*%
D16*
%TO.C,P3*%
X115212000Y-122555000D03*
X111252000Y-122555000D03*
X107292000Y-122555000D03*
%TD*%
%TO.C,P4*%
X97686000Y-122557000D03*
X93726000Y-122557000D03*
X89766000Y-122557000D03*
%TD*%
%TO.C,P5*%
X79906000Y-122555000D03*
X75946000Y-122555000D03*
X71986000Y-122555000D03*
%TD*%
%TO.C,P6*%
X61974000Y-114831000D03*
X61974000Y-110871000D03*
X61974000Y-106911000D03*
%TD*%
D17*
%TO.C,R2*%
X73124000Y-116332000D03*
X74704000Y-116332000D03*
%TD*%
%TO.C,R3*%
X73383200Y-114350800D03*
X71803200Y-114350800D03*
%TD*%
D18*
%TO.C,R4*%
X105308400Y-101628000D03*
X105308400Y-100048000D03*
%TD*%
%TO.C,R5*%
X75336400Y-109293600D03*
X75336400Y-110873600D03*
%TD*%
%TO.C,R6*%
X104800400Y-86388000D03*
X104800400Y-84808000D03*
%TD*%
%TO.C,R7*%
X72491600Y-110873600D03*
X72491600Y-109293600D03*
%TD*%
D17*
%TO.C,R8*%
X88521600Y-98348800D03*
X86941600Y-98348800D03*
%TD*%
%TO.C,R9*%
X75562400Y-85445600D03*
X77142400Y-85445600D03*
%TD*%
%TO.C,R10*%
X87912000Y-69977000D03*
X86332000Y-69977000D03*
%TD*%
%TO.C,R11*%
X83746400Y-101244400D03*
X82166400Y-101244400D03*
%TD*%
%TO.C,R12*%
X75537000Y-83439000D03*
X77117000Y-83439000D03*
%TD*%
%TO.C,R13*%
X86332000Y-71882000D03*
X87912000Y-71882000D03*
%TD*%
D19*
%TO.C,RV1*%
X110591600Y-106467900D03*
X110591600Y-115324900D03*
%TD*%
D20*
%TO.C,RV2*%
X92726500Y-87249000D03*
X101583500Y-87249000D03*
%TD*%
%TO.C,RV3*%
X69358500Y-103632000D03*
X78215500Y-103632000D03*
%TD*%
D19*
%TO.C,RV4*%
X72644000Y-97138500D03*
X72644000Y-88281500D03*
%TD*%
%TO.C,RV5*%
X73152000Y-80247500D03*
X73152000Y-71390500D03*
%TD*%
D20*
%TO.C,RV6*%
X101329500Y-75057000D03*
X92472500Y-75057000D03*
%TD*%
D16*
%TO.C,P8*%
X62101000Y-80287000D03*
X62101000Y-76327000D03*
X62101000Y-72367000D03*
%TD*%
%TO.C,P7*%
X62101000Y-97432000D03*
X62101000Y-93472000D03*
X62101000Y-89512000D03*
%TD*%
D21*
%TO.C,U2*%
X140631000Y-70217000D03*
X140631000Y-72517000D03*
D22*
X146431000Y-72517000D03*
D21*
X140631000Y-74817000D03*
%TD*%
D23*
%TO.C,D4*%
X167925052Y-95696999D03*
X167925052Y-96647000D03*
X167925052Y-97597001D03*
X170656948Y-97597001D03*
X170656948Y-95696999D03*
%TD*%
D18*
%TO.C,R15*%
X177520600Y-105156000D03*
X177520600Y-103576000D03*
%TD*%
D24*
%TO.C,H2*%
X186283600Y-122936000D03*
%TD*%
D25*
%TO.C,D1*%
X142621000Y-79121000D03*
X145669000Y-79121000D03*
%TD*%
D18*
%TO.C,R27*%
X114655600Y-79834800D03*
X114655600Y-78254800D03*
%TD*%
D17*
%TO.C,R25*%
X150975000Y-104648000D03*
X152555000Y-104648000D03*
%TD*%
D18*
%TO.C,R21*%
X182397400Y-103553200D03*
X182397400Y-105133200D03*
%TD*%
D26*
%TO.C,C2*%
X149479000Y-73837800D03*
X149479000Y-71196200D03*
%TD*%
D27*
%TO.C,P13*%
X187042400Y-106507500D03*
D28*
X187042400Y-108507500D03*
X187042400Y-110507500D03*
X187042400Y-112507500D03*
X187042400Y-114507500D03*
X187042400Y-116507500D03*
%TD*%
D24*
%TO.C,H3*%
X61214000Y-123190000D03*
%TD*%
D29*
%TO.C,C8*%
X126353200Y-103530400D03*
X128053200Y-103530400D03*
%TD*%
D27*
%TO.C,P12*%
X177901600Y-110417600D03*
D28*
X177901600Y-112417600D03*
X177901600Y-114417600D03*
X177901600Y-116417600D03*
X177901600Y-118417600D03*
X177901600Y-120417600D03*
%TD*%
D29*
%TO.C,C4*%
X126353200Y-101600000D03*
X128053200Y-101600000D03*
%TD*%
D27*
%TO.C,P10*%
X153080500Y-122526400D03*
D28*
X151080500Y-122526400D03*
X149080500Y-122526400D03*
X147080500Y-122526400D03*
X145080500Y-122526400D03*
X143080500Y-122526400D03*
%TD*%
D30*
%TO.C,Q2*%
X171297000Y-112649000D03*
X171297000Y-113157000D03*
X171297000Y-113665000D03*
X173100400Y-113665000D03*
X173100400Y-113157000D03*
X173100400Y-112649000D03*
%TD*%
D17*
%TO.C,R31*%
X157833000Y-90170000D03*
X159413000Y-90170000D03*
%TD*%
D18*
%TO.C,R24*%
X156337000Y-103025000D03*
X156337000Y-101445000D03*
%TD*%
D27*
%TO.C,P11*%
X170098500Y-122628000D03*
D28*
X168098500Y-122628000D03*
X166098500Y-122628000D03*
X164098500Y-122628000D03*
X162098500Y-122628000D03*
X160098500Y-122628000D03*
%TD*%
D31*
%TO.C,U5*%
X143649700Y-108508800D03*
X143649700Y-111048800D03*
X153631900Y-111048800D03*
X153631900Y-108508800D03*
%TD*%
D32*
%TO.C,P14*%
X175249500Y-80717500D03*
D33*
X171289500Y-80717500D03*
X167329500Y-80717500D03*
%TD*%
D34*
%TO.C,C12*%
X137566400Y-103567600D03*
X137566400Y-101867600D03*
%TD*%
D30*
%TO.C,Q1*%
X153771000Y-116332000D03*
X153771000Y-116840000D03*
X153771000Y-117348000D03*
X155574400Y-117348000D03*
X155574400Y-116840000D03*
X155574400Y-116332000D03*
%TD*%
D26*
%TO.C,C1*%
X137541000Y-73202800D03*
X137541000Y-70561200D03*
%TD*%
D29*
%TO.C,C10*%
X122949600Y-95402400D03*
X124649600Y-95402400D03*
%TD*%
D17*
%TO.C,R22*%
X150215600Y-114046000D03*
X148635600Y-114046000D03*
%TD*%
D29*
%TO.C,C23*%
X164250000Y-90297000D03*
X165950000Y-90297000D03*
%TD*%
D32*
%TO.C,P9*%
X122564300Y-112576500D03*
D35*
X126524300Y-112576500D03*
%TD*%
D17*
%TO.C,R30*%
X157833000Y-87503000D03*
X159413000Y-87503000D03*
%TD*%
%TO.C,R1*%
X138579800Y-79121000D03*
X140159800Y-79121000D03*
%TD*%
D36*
%TO.C,U1*%
X127679700Y-85795600D03*
X127679700Y-86295600D03*
X127679700Y-86795600D03*
X127679700Y-87295600D03*
X127679700Y-87795600D03*
X127679700Y-88295600D03*
X127679700Y-88795600D03*
X127679700Y-89295600D03*
X127679700Y-89795600D03*
X127679700Y-90295600D03*
X127679700Y-90795600D03*
X127679700Y-91295600D03*
X127679700Y-91795600D03*
X127679700Y-92295600D03*
X127679700Y-92795600D03*
X127679700Y-93295600D03*
X127679700Y-93795600D03*
X127679700Y-94295600D03*
X127679700Y-94795600D03*
X127679700Y-95295600D03*
X127679700Y-95795600D03*
X127679700Y-96295600D03*
X127679700Y-96795600D03*
X127679700Y-97295600D03*
X127679700Y-97795600D03*
D37*
X129359700Y-99475600D03*
X129859700Y-99475600D03*
X130359700Y-99475600D03*
X130859700Y-99475600D03*
X131359700Y-99475600D03*
X131859700Y-99475600D03*
X132359700Y-99475600D03*
X132859700Y-99475600D03*
X133359700Y-99475600D03*
X133859700Y-99475600D03*
X134359700Y-99475600D03*
X134859700Y-99475600D03*
X135359700Y-99475600D03*
X135859700Y-99475600D03*
X136359700Y-99475600D03*
X136859700Y-99475600D03*
X137359700Y-99475600D03*
X137859700Y-99475600D03*
X138359700Y-99475600D03*
X138859700Y-99475600D03*
X139359700Y-99475600D03*
X139859700Y-99475600D03*
X140359700Y-99475600D03*
X140859700Y-99475600D03*
X141359700Y-99475600D03*
D36*
X143039700Y-97795600D03*
X143039700Y-97295600D03*
X143039700Y-96795600D03*
X143039700Y-96295600D03*
X143039700Y-95795600D03*
X143039700Y-95295600D03*
X143039700Y-94795600D03*
X143039700Y-94295600D03*
X143039700Y-93795600D03*
X143039700Y-93295600D03*
X143039700Y-92795600D03*
X143039700Y-92295600D03*
X143039700Y-91795600D03*
X143039700Y-91295600D03*
X143039700Y-90795600D03*
X143039700Y-90295600D03*
X143039700Y-89795600D03*
X143039700Y-89295600D03*
X143039700Y-88795600D03*
X143039700Y-88295600D03*
X143039700Y-87795600D03*
X143039700Y-87295600D03*
X143039700Y-86795600D03*
X143039700Y-86295600D03*
X143039700Y-85795600D03*
D37*
X141359700Y-84115600D03*
X140859700Y-84115600D03*
X140359700Y-84115600D03*
X139859700Y-84115600D03*
X139359700Y-84115600D03*
X138859700Y-84115600D03*
X138359700Y-84115600D03*
X137859700Y-84115600D03*
X137359700Y-84115600D03*
X136859700Y-84115600D03*
X136359700Y-84115600D03*
X135859700Y-84115600D03*
X135359700Y-84115600D03*
X134859700Y-84115600D03*
X134359700Y-84115600D03*
X133859700Y-84115600D03*
X133359700Y-84115600D03*
X132859700Y-84115600D03*
X132359700Y-84115600D03*
X131859700Y-84115600D03*
X131359700Y-84115600D03*
X130859700Y-84115600D03*
X130359700Y-84115600D03*
X129859700Y-84115600D03*
X129359700Y-84115600D03*
%TD*%
D17*
%TO.C,R26*%
X110721200Y-78181200D03*
X109141200Y-78181200D03*
%TD*%
D38*
%TO.C,F1*%
X121581400Y-107899200D03*
X129675400Y-107899200D03*
%TD*%
D18*
%TO.C,R20*%
X175742600Y-105156000D03*
X175742600Y-103576000D03*
%TD*%
D39*
%TO.C,U3*%
X162814000Y-96639000D03*
X162814000Y-96139000D03*
X162814000Y-95639000D03*
X162814000Y-95139000D03*
X162814000Y-94639000D03*
X162814000Y-94139000D03*
X162814000Y-93639000D03*
D40*
X161724000Y-92549000D03*
X161224000Y-92549000D03*
X160724000Y-92549000D03*
X160224000Y-92549000D03*
X159724000Y-92549000D03*
X159224000Y-92549000D03*
X158724000Y-92549000D03*
D39*
X157634000Y-93639000D03*
X157634000Y-94139000D03*
X157634000Y-94639000D03*
X157634000Y-95139000D03*
X157634000Y-95639000D03*
X157634000Y-96139000D03*
X157634000Y-96639000D03*
D40*
X158724000Y-97729000D03*
X159224000Y-97729000D03*
X159724000Y-97729000D03*
X160224000Y-97729000D03*
X160724000Y-97729000D03*
X161224000Y-97729000D03*
X161724000Y-97729000D03*
D41*
X160224000Y-95139000D03*
%TD*%
D29*
%TO.C,C9*%
X122898800Y-97282000D03*
X124598800Y-97282000D03*
%TD*%
D30*
%TO.C,Q3*%
X158089000Y-112522000D03*
X158089000Y-113030000D03*
X158089000Y-113538000D03*
X159892400Y-113538000D03*
X159892400Y-113030000D03*
X159892400Y-112522000D03*
%TD*%
D18*
%TO.C,R14*%
X167132000Y-115796000D03*
X167132000Y-117376000D03*
%TD*%
D42*
%TO.C,P2*%
X133657600Y-74282000D03*
D43*
X131657600Y-74282000D03*
X129657600Y-74282000D03*
X127657600Y-74282000D03*
%TD*%
D34*
%TO.C,C15*%
X117754400Y-102629600D03*
X117754400Y-104329600D03*
%TD*%
%TO.C,C11*%
X139649200Y-103516800D03*
X139649200Y-101816800D03*
%TD*%
D29*
%TO.C,C7*%
X129424800Y-81534000D03*
X127724800Y-81534000D03*
%TD*%
D32*
%TO.C,P16*%
X132927500Y-112525700D03*
D35*
X136887500Y-112525700D03*
%TD*%
D29*
%TO.C,C13*%
X147103200Y-87223600D03*
X145403200Y-87223600D03*
%TD*%
D44*
%TO.C,P17*%
X175588500Y-91333000D03*
D45*
X175588500Y-93833000D03*
X177588500Y-93833000D03*
X177588500Y-91333000D03*
D46*
X180298500Y-98603000D03*
X180298500Y-86563000D03*
%TD*%
D24*
%TO.C,H1*%
X186029600Y-72085200D03*
%TD*%
D29*
%TO.C,C6*%
X147103200Y-85394800D03*
X145403200Y-85394800D03*
%TD*%
D18*
%TO.C,R18*%
X169316400Y-115846800D03*
X169316400Y-117426800D03*
%TD*%
D17*
%TO.C,R29*%
X182344000Y-82804000D03*
X183924000Y-82804000D03*
%TD*%
D32*
%TO.C,P15*%
X161025500Y-80717500D03*
D33*
X157065500Y-80717500D03*
X153105500Y-80717500D03*
%TD*%
D25*
%TO.C,D2*%
X142494000Y-115620800D03*
X145542000Y-115620800D03*
%TD*%
D47*
%TO.C,D3*%
X151523000Y-99780000D03*
X153023000Y-99780000D03*
X153023000Y-100880000D03*
X151523000Y-100880000D03*
%TD*%
D29*
%TO.C,C5*%
X141745600Y-101752400D03*
X143445600Y-101752400D03*
%TD*%
D18*
%TO.C,R19*%
X164566600Y-117325200D03*
X164566600Y-115745200D03*
%TD*%
D17*
%TO.C,R32*%
X183924000Y-80645000D03*
X182344000Y-80645000D03*
%TD*%
D29*
%TO.C,C14*%
X147103200Y-88950800D03*
X145403200Y-88950800D03*
%TD*%
D18*
%TO.C,R17*%
X180467000Y-105184000D03*
X180467000Y-103604000D03*
%TD*%
D13*
%TO.C,J2*%
X114096800Y-103759000D03*
X112979200Y-103759000D03*
%TD*%
D17*
%TO.C,R23*%
X138356400Y-108305600D03*
X136776400Y-108305600D03*
%TD*%
D29*
%TO.C,C3*%
X123356000Y-90424000D03*
X125056000Y-90424000D03*
%TD*%
D18*
%TO.C,R28*%
X148717000Y-102644000D03*
X148717000Y-101064000D03*
%TD*%
%TO.C,R16*%
X162712400Y-115745200D03*
X162712400Y-117325200D03*
%TD*%
D29*
%TO.C,C22*%
X164377000Y-92202000D03*
X166077000Y-92202000D03*
%TD*%
M02*
