%TF.GenerationSoftware,KiCad,Pcbnew,(6.0.4)*%
%TF.CreationDate,2022-04-12T20:51:16-07:00*%
%TF.ProjectId,L0005-Valve-Controller,4c303030-352d-4566-916c-76652d436f6e,1.0*%
%TF.SameCoordinates,Original*%
%TF.FileFunction,Copper,L1,Top*%
%TF.FilePolarity,Positive*%
%FSLAX46Y46*%
G04 Gerber Fmt 4.6, Leading zero omitted, Abs format (unit mm)*
G04 Created by KiCad (PCBNEW (6.0.4)) date 2022-04-12 20:51:16*
%MOMM*%
%LPD*%
G01*
G04 APERTURE LIST*
%TA.AperFunction,ComponentPad*%
%ADD10C,1.066800*%
%TD*%
%TA.AperFunction,SMDPad,CuDef*%
%ADD11R,1.700000X0.990600*%
%TD*%
%TA.AperFunction,SMDPad,CuDef*%
%ADD12R,1.900000X1.500000*%
%TD*%
%TA.AperFunction,SMDPad,CuDef*%
%ADD13R,1.600000X0.855600*%
%TD*%
%TA.AperFunction,SMDPad,CuDef*%
%ADD14R,0.855600X1.600000*%
%TD*%
%TA.AperFunction,SMDPad,CuDef*%
%ADD15R,0.965200X1.295400*%
%TD*%
%TA.AperFunction,SMDPad,CuDef*%
%ADD16R,0.800000X0.800000*%
%TD*%
%TA.AperFunction,SMDPad,CuDef*%
%ADD17R,1.100000X1.000000*%
%TD*%
%TA.AperFunction,ComponentPad*%
%ADD18C,2.500000*%
%TD*%
%TA.AperFunction,SMDPad,CuDef*%
%ADD19R,0.940000X1.020000*%
%TD*%
%TA.AperFunction,SMDPad,CuDef*%
%ADD20R,1.020000X0.940000*%
%TD*%
%TA.AperFunction,SMDPad,CuDef*%
%ADD21R,3.048000X1.854200*%
%TD*%
%TA.AperFunction,SMDPad,CuDef*%
%ADD22R,1.854200X3.048000*%
%TD*%
%TA.AperFunction,SMDPad,CuDef*%
%ADD23R,2.150000X0.950000*%
%TD*%
%TA.AperFunction,SMDPad,CuDef*%
%ADD24R,2.150000X3.250000*%
%TD*%
%TA.AperFunction,SMDPad,CuDef*%
%ADD25R,0.876300X0.304800*%
%TD*%
%TA.AperFunction,SMDPad,CuDef*%
%ADD26R,1.778000X1.270000*%
%TD*%
%TA.AperFunction,ComponentPad*%
%ADD27R,1.308000X1.308000*%
%TD*%
%TA.AperFunction,ComponentPad*%
%ADD28C,1.308000*%
%TD*%
%TA.AperFunction,SMDPad,CuDef*%
%ADD29R,1.000000X1.100000*%
%TD*%
%TA.AperFunction,SMDPad,CuDef*%
%ADD30R,0.508000X0.254000*%
%TD*%
%TA.AperFunction,SMDPad,CuDef*%
%ADD31R,1.219200X0.457200*%
%TD*%
%TA.AperFunction,ComponentPad*%
%ADD32R,2.050000X2.050000*%
%TD*%
%TA.AperFunction,ComponentPad*%
%ADD33C,2.286000*%
%TD*%
%TA.AperFunction,ComponentPad*%
%ADD34C,2.050000*%
%TD*%
%TA.AperFunction,SMDPad,CuDef*%
%ADD35R,1.560000X0.280000*%
%TD*%
%TA.AperFunction,SMDPad,CuDef*%
%ADD36R,0.280000X1.560000*%
%TD*%
%TA.AperFunction,SMDPad,CuDef*%
%ADD37R,2.620000X3.200000*%
%TD*%
%TA.AperFunction,ComponentPad*%
%ADD38R,1.258000X1.258000*%
%TD*%
%TA.AperFunction,ComponentPad*%
%ADD39C,1.258000*%
%TD*%
%TA.AperFunction,ViaPad*%
%ADD40C,0.607060*%
%TD*%
%TA.AperFunction,ViaPad*%
%ADD41C,1.016000*%
%TD*%
%TA.AperFunction,Conductor*%
%ADD42C,0.254000*%
%TD*%
%TA.AperFunction,Conductor*%
%ADD43C,0.762000*%
%TD*%
%TA.AperFunction,Conductor*%
%ADD44C,0.508000*%
%TD*%
G04 APERTURE END LIST*
D10*
%TO.P,P1,1,1*%
%TO.N,3.3V*%
X108280200Y-75398250D03*
%TO.P,P1,2,2*%
X108280200Y-74128250D03*
%TO.P,P1,3,3*%
%TO.N,Earth*%
X109550200Y-75398250D03*
%TO.P,P1,4,4*%
X109550200Y-74128250D03*
%TO.P,P1,5,5*%
X110820200Y-75398250D03*
%TO.P,P1,6,6*%
X110820200Y-74128250D03*
%TO.P,P1,7,7*%
%TO.N,SWDIO*%
X112090200Y-75398250D03*
%TO.P,P1,8,8*%
%TO.N,Earth*%
X112090200Y-74128250D03*
%TO.P,P1,9,9*%
%TO.N,SWCLK*%
X113360200Y-75398250D03*
%TO.P,P1,10,10*%
%TO.N,Earth*%
X113360200Y-74128250D03*
%TO.P,P1,11,11*%
%TO.N,unconnected-(P1-Pad11)*%
X114630200Y-75398250D03*
%TO.P,P1,12,12*%
%TO.N,Earth*%
X114630200Y-74128250D03*
%TO.P,P1,13,13*%
%TO.N,SWO*%
X115900200Y-75398250D03*
%TO.P,P1,14,14*%
%TO.N,Earth*%
X115900200Y-74128250D03*
%TO.P,P1,15,15*%
%TO.N,NRST*%
X117170200Y-75398250D03*
%TO.P,P1,16,16*%
%TO.N,Earth*%
X117170200Y-74128250D03*
%TO.P,P1,17,17*%
%TO.N,unconnected-(P1-Pad17)*%
X118440200Y-75398250D03*
%TO.P,P1,18,18*%
%TO.N,Earth*%
X118440200Y-74128250D03*
%TO.P,P1,19,19*%
%TO.N,unconnected-(P1-Pad19)*%
X119710200Y-75398250D03*
%TO.P,P1,20,20*%
%TO.N,Earth*%
X119710200Y-74128250D03*
%TD*%
D11*
%TO.P,B1,1,1*%
%TO.N,NRST*%
X116441200Y-99948799D03*
%TO.P,B1,2,2*%
%TO.N,unconnected-(B1-Pad2)*%
X111041200Y-99948799D03*
%TO.P,B1,3,3*%
%TO.N,Earth*%
X116441200Y-96748801D03*
%TO.P,B1,4,4*%
%TO.N,unconnected-(B1-Pad4)*%
X111041200Y-96748801D03*
%TD*%
D12*
%TO.P,K6,1*%
%TO.N,unconnected-(K6-Pad1)*%
X118111700Y-92811600D03*
%TO.P,K6,2*%
%TO.N,Net-(K6-Pad2)*%
X118111700Y-90271600D03*
%TO.P,K6,3*%
%TO.N,unconnected-(K6-Pad3)*%
X118111700Y-87731600D03*
%TO.P,K6,4*%
%TO.N,Earth*%
X118111700Y-85191600D03*
%TO.P,K6,5*%
%TO.N,unconnected-(K6-Pad5)*%
X109811700Y-85191600D03*
%TO.P,K6,6*%
%TO.N,AC_NEUTRAL*%
X109811700Y-87731600D03*
%TO.P,K6,8*%
%TO.N,Net-(C21-Pad2)*%
X109811700Y-92811600D03*
%TD*%
D13*
%TO.P,C16,1*%
%TO.N,Net-(C16-Pad1)*%
X78079600Y-112068601D03*
%TO.P,C16,2*%
%TO.N,Net-(C16-Pad2)*%
X78079600Y-109012999D03*
%TD*%
%TO.P,C17,1*%
%TO.N,Net-(C17-Pad1)*%
X104800400Y-89708999D03*
%TO.P,C17,2*%
%TO.N,Net-(C17-Pad2)*%
X104800400Y-92764601D03*
%TD*%
%TO.P,C18,1*%
%TO.N,Net-(C18-Pad1)*%
X69494400Y-112119401D03*
%TO.P,C18,2*%
%TO.N,Net-(C18-Pad2)*%
X69494400Y-109063799D03*
%TD*%
D14*
%TO.P,C19,1*%
%TO.N,Net-(C19-Pad1)*%
X84331801Y-98171000D03*
%TO.P,C19,2*%
%TO.N,Net-(C19-Pad2)*%
X81276199Y-98171000D03*
%TD*%
%TO.P,C20,1*%
%TO.N,Net-(C20-Pad1)*%
X71631801Y-83312000D03*
%TO.P,C20,2*%
%TO.N,Net-(C20-Pad2)*%
X68576199Y-83312000D03*
%TD*%
%TO.P,C21,1*%
%TO.N,Net-(C21-Pad1)*%
X82172801Y-70358000D03*
%TO.P,C21,2*%
%TO.N,Net-(C21-Pad2)*%
X79117199Y-70358000D03*
%TD*%
D15*
%TO.P,D3,1,1*%
%TO.N,Net-(D3-Pad1)*%
X144373600Y-78435200D03*
%TO.P,D3,2,2*%
%TO.N,STATUS*%
X141325600Y-78435200D03*
%TD*%
D16*
%TO.P,D4,1,1*%
%TO.N,Net-(D4-Pad1)*%
X149059400Y-93370400D03*
%TO.P,D4,2,2*%
%TO.N,EXECPT*%
X147409400Y-93370400D03*
%TD*%
D17*
%TO.P,J1,1,A*%
%TO.N,BOOT*%
X126427600Y-78790800D03*
%TO.P,J1,2,B*%
%TO.N,Earth*%
X124727600Y-78790800D03*
%TD*%
D12*
%TO.P,K1,1*%
%TO.N,unconnected-(K1-Pad1)*%
X102956000Y-114808000D03*
%TO.P,K1,2*%
%TO.N,Net-(K1-Pad2)*%
X102956000Y-112268000D03*
%TO.P,K1,3*%
%TO.N,unconnected-(K1-Pad3)*%
X102956000Y-109728000D03*
%TO.P,K1,4*%
%TO.N,Earth*%
X102956000Y-107188000D03*
%TO.P,K1,5*%
%TO.N,unconnected-(K1-Pad5)*%
X94656000Y-107188000D03*
%TO.P,K1,6*%
%TO.N,AC_NEUTRAL*%
X94656000Y-109728000D03*
%TO.P,K1,8*%
%TO.N,Net-(C16-Pad2)*%
X94656000Y-114808000D03*
%TD*%
%TO.P,K2,1*%
%TO.N,unconnected-(K2-Pad1)*%
X101813000Y-101727000D03*
%TO.P,K2,2*%
%TO.N,Net-(K2-Pad2)*%
X101813000Y-99187000D03*
%TO.P,K2,3*%
%TO.N,unconnected-(K2-Pad3)*%
X101813000Y-96647000D03*
%TO.P,K2,4*%
%TO.N,Earth*%
X101813000Y-94107000D03*
%TO.P,K2,5*%
%TO.N,unconnected-(K2-Pad5)*%
X93513000Y-94107000D03*
%TO.P,K2,6*%
%TO.N,AC_NEUTRAL*%
X93513000Y-96647000D03*
%TO.P,K2,8*%
%TO.N,Net-(C17-Pad2)*%
X93513000Y-101727000D03*
%TD*%
%TO.P,K3,1*%
%TO.N,unconnected-(K3-Pad1)*%
X89621000Y-114681000D03*
%TO.P,K3,2*%
%TO.N,Net-(K3-Pad2)*%
X89621000Y-112141000D03*
%TO.P,K3,3*%
%TO.N,unconnected-(K3-Pad3)*%
X89621000Y-109601000D03*
%TO.P,K3,4*%
%TO.N,Earth*%
X89621000Y-107061000D03*
%TO.P,K3,5*%
%TO.N,unconnected-(K3-Pad5)*%
X81321000Y-107061000D03*
%TO.P,K3,6*%
%TO.N,AC_NEUTRAL*%
X81321000Y-109601000D03*
%TO.P,K3,8*%
%TO.N,Net-(C18-Pad2)*%
X81321000Y-114681000D03*
%TD*%
%TO.P,K4,1*%
%TO.N,unconnected-(K4-Pad1)*%
X88063500Y-94869000D03*
%TO.P,K4,2*%
%TO.N,Net-(K4-Pad2)*%
X88063500Y-92329000D03*
%TO.P,K4,3*%
%TO.N,unconnected-(K4-Pad3)*%
X88063500Y-89789000D03*
%TO.P,K4,4*%
%TO.N,Earth*%
X88063500Y-87249000D03*
%TO.P,K4,5*%
%TO.N,unconnected-(K4-Pad5)*%
X79763500Y-87249000D03*
%TO.P,K4,6*%
%TO.N,AC_NEUTRAL*%
X79763500Y-89789000D03*
%TO.P,K4,8*%
%TO.N,Net-(C19-Pad2)*%
X79763500Y-94869000D03*
%TD*%
%TO.P,K5,1*%
%TO.N,unconnected-(K5-Pad1)*%
X88097000Y-82804000D03*
%TO.P,K5,2*%
%TO.N,Net-(K5-Pad2)*%
X88097000Y-80264000D03*
%TO.P,K5,3*%
%TO.N,unconnected-(K5-Pad3)*%
X88097000Y-77724000D03*
%TO.P,K5,4*%
%TO.N,Earth*%
X88097000Y-75184000D03*
%TO.P,K5,5*%
%TO.N,unconnected-(K5-Pad5)*%
X79797000Y-75184000D03*
%TO.P,K5,6*%
%TO.N,AC_NEUTRAL*%
X79797000Y-77724000D03*
%TO.P,K5,8*%
%TO.N,Net-(C20-Pad2)*%
X79797000Y-82804000D03*
%TD*%
D18*
%TO.P,P3,1,1*%
%TO.N,Net-(C16-Pad2)*%
X115212000Y-122555000D03*
%TO.P,P3,2,2*%
%TO.N,AC_HOT*%
X111252000Y-122555000D03*
%TO.P,P3,3,3*%
%TO.N,unconnected-(P3-Pad3)*%
X107292000Y-122555000D03*
%TD*%
%TO.P,P4,1,1*%
%TO.N,Net-(C17-Pad2)*%
X97686000Y-122557000D03*
%TO.P,P4,2,2*%
%TO.N,AC_HOT*%
X93726000Y-122557000D03*
%TO.P,P4,3,3*%
%TO.N,unconnected-(P4-Pad3)*%
X89766000Y-122557000D03*
%TD*%
%TO.P,P5,1,1*%
%TO.N,Net-(C18-Pad2)*%
X79906000Y-122555000D03*
%TO.P,P5,2,2*%
%TO.N,AC_HOT*%
X75946000Y-122555000D03*
%TO.P,P5,3,3*%
%TO.N,unconnected-(P5-Pad3)*%
X71986000Y-122555000D03*
%TD*%
%TO.P,P6,1,1*%
%TO.N,Net-(C19-Pad2)*%
X61974000Y-114831000D03*
%TO.P,P6,2,2*%
%TO.N,AC_HOT*%
X61974000Y-110871000D03*
%TO.P,P6,3,3*%
%TO.N,unconnected-(P6-Pad3)*%
X61974000Y-106911000D03*
%TD*%
D19*
%TO.P,R2,1*%
%TO.N,SOL1*%
X73124000Y-116332000D03*
%TO.P,R2,2*%
%TO.N,Net-(K1-Pad2)*%
X74704000Y-116332000D03*
%TD*%
%TO.P,R3,1*%
%TO.N,Net-(C16-Pad1)*%
X73383200Y-114350800D03*
%TO.P,R3,2*%
%TO.N,AC_NEUTRAL*%
X71803200Y-114350800D03*
%TD*%
D20*
%TO.P,R4,1*%
%TO.N,SOL2*%
X105308400Y-101628000D03*
%TO.P,R4,2*%
%TO.N,Net-(K2-Pad2)*%
X105308400Y-100048000D03*
%TD*%
%TO.P,R5,1*%
%TO.N,SOL3*%
X75336400Y-109293600D03*
%TO.P,R5,2*%
%TO.N,Net-(K3-Pad2)*%
X75336400Y-110873600D03*
%TD*%
%TO.P,R6,1*%
%TO.N,Net-(C17-Pad1)*%
X104800400Y-86388000D03*
%TO.P,R6,2*%
%TO.N,AC_NEUTRAL*%
X104800400Y-84808000D03*
%TD*%
%TO.P,R7,1*%
%TO.N,Net-(C18-Pad1)*%
X72491600Y-110873600D03*
%TO.P,R7,2*%
%TO.N,AC_NEUTRAL*%
X72491600Y-109293600D03*
%TD*%
D19*
%TO.P,R8,1*%
%TO.N,SOL5*%
X88521600Y-98348800D03*
%TO.P,R8,2*%
%TO.N,Net-(K4-Pad2)*%
X86941600Y-98348800D03*
%TD*%
%TO.P,R9,1*%
%TO.N,SOL6*%
X75562400Y-85445600D03*
%TO.P,R9,2*%
%TO.N,Net-(K5-Pad2)*%
X77142400Y-85445600D03*
%TD*%
%TO.P,R10,1*%
%TO.N,SOL4*%
X87912000Y-69977000D03*
%TO.P,R10,2*%
%TO.N,Net-(K6-Pad2)*%
X86332000Y-69977000D03*
%TD*%
%TO.P,R11,1*%
%TO.N,Net-(C19-Pad1)*%
X83746400Y-101244400D03*
%TO.P,R11,2*%
%TO.N,AC_NEUTRAL*%
X82166400Y-101244400D03*
%TD*%
%TO.P,R12,1*%
%TO.N,Net-(C20-Pad1)*%
X75537000Y-83439000D03*
%TO.P,R12,2*%
%TO.N,AC_NEUTRAL*%
X77117000Y-83439000D03*
%TD*%
%TO.P,R13,1*%
%TO.N,Net-(C21-Pad1)*%
X86332000Y-71882000D03*
%TO.P,R13,2*%
%TO.N,AC_NEUTRAL*%
X87912000Y-71882000D03*
%TD*%
%TO.P,R24,1*%
%TO.N,Net-(D3-Pad1)*%
X146936400Y-80162400D03*
%TO.P,R24,2*%
%TO.N,Earth*%
X148516400Y-80162400D03*
%TD*%
%TO.P,R25,1*%
%TO.N,Net-(D4-Pad1)*%
X152219600Y-93522800D03*
%TO.P,R25,2*%
%TO.N,Earth*%
X153799600Y-93522800D03*
%TD*%
D21*
%TO.P,RV1,1*%
%TO.N,Net-(C16-Pad2)*%
X110591600Y-106467900D03*
%TO.P,RV1,2*%
%TO.N,AC_NEUTRAL*%
X110591600Y-115324900D03*
%TD*%
D22*
%TO.P,RV2,1*%
%TO.N,Net-(C17-Pad2)*%
X92726500Y-87249000D03*
%TO.P,RV2,2*%
%TO.N,AC_NEUTRAL*%
X101583500Y-87249000D03*
%TD*%
%TO.P,RV3,1*%
%TO.N,Net-(C18-Pad2)*%
X69358500Y-103632000D03*
%TO.P,RV3,2*%
%TO.N,AC_NEUTRAL*%
X78215500Y-103632000D03*
%TD*%
D21*
%TO.P,RV4,1*%
%TO.N,Net-(C19-Pad2)*%
X72644000Y-97138500D03*
%TO.P,RV4,2*%
%TO.N,AC_NEUTRAL*%
X72644000Y-88281500D03*
%TD*%
%TO.P,RV5,1*%
%TO.N,Net-(C20-Pad2)*%
X73152000Y-80247500D03*
%TO.P,RV5,2*%
%TO.N,AC_NEUTRAL*%
X73152000Y-71390500D03*
%TD*%
D22*
%TO.P,RV6,1*%
%TO.N,Net-(C21-Pad2)*%
X101329500Y-75057000D03*
%TO.P,RV6,2*%
%TO.N,AC_NEUTRAL*%
X92472500Y-75057000D03*
%TD*%
D18*
%TO.P,P8,1,1*%
%TO.N,Net-(C21-Pad2)*%
X62101000Y-80287000D03*
%TO.P,P8,2,2*%
%TO.N,AC_HOT*%
X62101000Y-76327000D03*
%TO.P,P8,3,3*%
%TO.N,unconnected-(P8-Pad3)*%
X62101000Y-72367000D03*
%TD*%
%TO.P,P7,1,1*%
%TO.N,Net-(C20-Pad2)*%
X62101000Y-97432000D03*
%TO.P,P7,2,2*%
%TO.N,AC_HOT*%
X62101000Y-93472000D03*
%TO.P,P7,3,3*%
%TO.N,unconnected-(P7-Pad3)*%
X62101000Y-89512000D03*
%TD*%
D23*
%TO.P,U2,1,GND*%
%TO.N,Earth*%
X145436000Y-70039200D03*
D24*
%TO.P,U2,2,VOUT*%
%TO.N,3.3V*%
X151236000Y-72339200D03*
D23*
X145436000Y-72339200D03*
%TO.P,U2,3,VIN*%
%TO.N,5V*%
X145436000Y-74639200D03*
%TD*%
D20*
%TO.P,R15,1*%
%TO.N,ENCD2_A*%
X164896800Y-102644000D03*
%TO.P,R15,2*%
%TO.N,Earth*%
X164896800Y-101064000D03*
%TD*%
D15*
%TO.P,D1,1,1*%
%TO.N,Net-(D1-Pad1)*%
X152400000Y-78181200D03*
%TO.P,D1,2,2*%
%TO.N,3.3V*%
X155448000Y-78181200D03*
%TD*%
D20*
%TO.P,R27,2*%
%TO.N,3.3V*%
X114655600Y-78254800D03*
%TO.P,R27,1*%
%TO.N,SWCLK*%
X114655600Y-79834800D03*
%TD*%
%TO.P,R21,1*%
%TO.N,Net-(P13-Pad4)*%
X169773600Y-101041200D03*
%TO.P,R21,2*%
%TO.N,ENCD2_B*%
X169773600Y-102621200D03*
%TD*%
D25*
%TO.P,U4,1,VL*%
%TO.N,3.3V*%
X168713150Y-111668801D03*
%TO.P,U4,2,GND*%
%TO.N,Earth*%
X168713150Y-112318800D03*
%TO.P,U4,3,IOVL*%
%TO.N,SBV2_PUL*%
X168713150Y-112968799D03*
%TO.P,U4,4,IOVCC*%
%TO.N,/Valves/SBV2_PUL5*%
X170935650Y-112968799D03*
%TO.P,U4,5,VCC*%
%TO.N,5V*%
X170935650Y-111668801D03*
%TD*%
D26*
%TO.P,C2,1*%
%TO.N,3.3V*%
X155143200Y-73101200D03*
%TO.P,C2,2*%
%TO.N,Earth*%
X155143200Y-70459600D03*
%TD*%
D27*
%TO.P,P13,1,+12V*%
%TO.N,5V*%
X187042400Y-106507500D03*
D28*
%TO.P,P13,2,GND*%
%TO.N,Net-(P13-Pad2)*%
X187042400Y-108507500D03*
%TO.P,P13,3,3*%
%TO.N,Earth*%
X187042400Y-110507500D03*
%TO.P,P13,4,4*%
%TO.N,Net-(P13-Pad4)*%
X187042400Y-112507500D03*
%TO.P,P13,5,5*%
%TO.N,Earth*%
X187042400Y-114507500D03*
%TO.P,P13,6,6*%
X187042400Y-116507500D03*
%TD*%
D17*
%TO.P,C8,1*%
%TO.N,Earth*%
X126353200Y-103530400D03*
%TO.P,C8,2*%
%TO.N,3.3V*%
X128053200Y-103530400D03*
%TD*%
D27*
%TO.P,P12,1,+12V*%
%TO.N,5V*%
X177901600Y-110417600D03*
D28*
%TO.P,P12,2,GND*%
%TO.N,Net-(P12-Pad2)*%
X177901600Y-112417600D03*
%TO.P,P12,3,3*%
%TO.N,5V*%
X177901600Y-114417600D03*
%TO.P,P12,4,4*%
%TO.N,Net-(P12-Pad4)*%
X177901600Y-116417600D03*
%TO.P,P12,5,5*%
%TO.N,/Valves/SBV2_PUL5*%
X177901600Y-118417600D03*
%TO.P,P12,6,6*%
%TO.N,Earth*%
X177901600Y-120417600D03*
%TD*%
D29*
%TO.P,C22,1*%
%TO.N,Earth*%
X152400000Y-116521600D03*
%TO.P,C22,2*%
%TO.N,3.3V*%
X152400000Y-114821600D03*
%TD*%
D17*
%TO.P,C4,1*%
%TO.N,Earth*%
X126353200Y-101600000D03*
%TO.P,C4,2*%
%TO.N,3.3V*%
X128053200Y-101600000D03*
%TD*%
D27*
%TO.P,P10,1,+12V*%
%TO.N,5V*%
X153080500Y-122526400D03*
D28*
%TO.P,P10,2,GND*%
%TO.N,Net-(P10-Pad2)*%
X151080500Y-122526400D03*
%TO.P,P10,3,3*%
%TO.N,5V*%
X149080500Y-122526400D03*
%TO.P,P10,4,4*%
%TO.N,Net-(P10-Pad4)*%
X147080500Y-122526400D03*
%TO.P,P10,5,5*%
%TO.N,/Valves/SBV1_PUL5*%
X145080500Y-122526400D03*
%TO.P,P10,6,6*%
%TO.N,Earth*%
X143080500Y-122526400D03*
%TD*%
D30*
%TO.P,Q2,1,G*%
%TO.N,SBV2_DIR*%
X170179400Y-107188000D03*
%TO.P,Q2,2,S*%
%TO.N,Earth*%
X170179400Y-107696000D03*
%TO.P,Q2,3,D*%
%TO.N,Net-(P12-Pad2)*%
X170179400Y-108204000D03*
%TO.P,Q2,4,G*%
%TO.N,SBV2_EN*%
X171982800Y-108204000D03*
%TO.P,Q2,5,S*%
%TO.N,Earth*%
X171982800Y-107696000D03*
%TO.P,Q2,6,D*%
%TO.N,Net-(P12-Pad4)*%
X171982800Y-107188000D03*
%TD*%
D27*
%TO.P,P11,1,+12V*%
%TO.N,5V*%
X170098500Y-122628000D03*
D28*
%TO.P,P11,2,GND*%
%TO.N,Net-(P11-Pad2)*%
X168098500Y-122628000D03*
%TO.P,P11,3,3*%
%TO.N,Earth*%
X166098500Y-122628000D03*
%TO.P,P11,4,4*%
%TO.N,Net-(P11-Pad4)*%
X164098500Y-122628000D03*
%TO.P,P11,5,5*%
%TO.N,Earth*%
X162098500Y-122628000D03*
%TO.P,P11,6,6*%
X160098500Y-122628000D03*
%TD*%
D31*
%TO.P,U5,1*%
%TO.N,Net-(R23-Pad1)*%
X143649700Y-108508800D03*
%TO.P,U5,2*%
%TO.N,Net-(D2-Pad2)*%
X143649700Y-111048800D03*
%TO.P,U5,3*%
%TO.N,VAC_MON*%
X153631900Y-111048800D03*
%TO.P,U5,4*%
%TO.N,3.3V*%
X153631900Y-108508800D03*
%TD*%
D32*
%TO.P,P14,1,1*%
%TO.N,5V*%
X175670100Y-86578100D03*
D33*
%TO.P,P14,2,2*%
%TO.N,PG1*%
X175670100Y-82618100D03*
%TO.P,P14,3,3*%
%TO.N,Earth*%
X175670100Y-78658100D03*
%TD*%
D29*
%TO.P,C12,1*%
%TO.N,Earth*%
X137566400Y-103567600D03*
%TO.P,C12,2*%
%TO.N,VCAP1*%
X137566400Y-101867600D03*
%TD*%
D30*
%TO.P,Q1,1,G*%
%TO.N,SBV1_DIR*%
X157340300Y-108966000D03*
%TO.P,Q1,2,S*%
%TO.N,Earth*%
X157340300Y-109474000D03*
%TO.P,Q1,3,D*%
%TO.N,Net-(P10-Pad2)*%
X157340300Y-109982000D03*
%TO.P,Q1,4,G*%
%TO.N,SBV1_EN*%
X159143700Y-109982000D03*
%TO.P,Q1,5,S*%
%TO.N,Earth*%
X159143700Y-109474000D03*
%TO.P,Q1,6,D*%
%TO.N,Net-(P10-Pad4)*%
X159143700Y-108966000D03*
%TD*%
D29*
%TO.P,C25,1*%
%TO.N,Earth*%
X173329600Y-114134000D03*
%TO.P,C25,2*%
%TO.N,5V*%
X173329600Y-112434000D03*
%TD*%
D26*
%TO.P,C1,1*%
%TO.N,5V*%
X140258800Y-73710800D03*
%TO.P,C1,2*%
%TO.N,Earth*%
X140258800Y-71069200D03*
%TD*%
D17*
%TO.P,C10,1*%
%TO.N,Earth*%
X122949600Y-95402400D03*
%TO.P,C10,2*%
%TO.N,3.3V*%
X124649600Y-95402400D03*
%TD*%
D19*
%TO.P,R22,2*%
%TO.N,Earth*%
X148635600Y-114046000D03*
%TO.P,R22,1*%
%TO.N,VAC_MON*%
X150215600Y-114046000D03*
%TD*%
D32*
%TO.P,P9,1,1*%
%TO.N,Net-(F1-Pad2)*%
X122564300Y-112576500D03*
D34*
%TO.P,P9,2,2*%
%TO.N,AC_NEUTRAL*%
X126524300Y-112576500D03*
%TD*%
D19*
%TO.P,R1,1*%
%TO.N,Earth*%
X148358800Y-78181200D03*
%TO.P,R1,2*%
%TO.N,Net-(D1-Pad1)*%
X149938800Y-78181200D03*
%TD*%
D35*
%TO.P,U1,1,PE2*%
%TO.N,SOL1*%
X127679700Y-85795600D03*
%TO.P,U1,2,PE3*%
%TO.N,SOL2*%
X127679700Y-86295600D03*
%TO.P,U1,3,PE4*%
%TO.N,SOL3*%
X127679700Y-86795600D03*
%TO.P,U1,4,PE5*%
%TO.N,SBV1_PUL*%
X127679700Y-87295600D03*
%TO.P,U1,5,PE6*%
%TO.N,SBV2_PUL*%
X127679700Y-87795600D03*
%TO.P,U1,6,VBAT*%
%TO.N,unconnected-(U1-Pad6)*%
X127679700Y-88295600D03*
%TO.P,U1,7,PC13*%
%TO.N,unconnected-(U1-Pad7)*%
X127679700Y-88795600D03*
%TO.P,U1,8,PC14*%
%TO.N,unconnected-(U1-Pad8)*%
X127679700Y-89295600D03*
%TO.P,U1,9,PC15*%
%TO.N,unconnected-(U1-Pad9)*%
X127679700Y-89795600D03*
%TO.P,U1,10,VSS*%
%TO.N,Earth*%
X127679700Y-90295600D03*
%TO.P,U1,11,VDD*%
%TO.N,3.3V*%
X127679700Y-90795600D03*
%TO.P,U1,12,PH0*%
%TO.N,unconnected-(U1-Pad12)*%
X127679700Y-91295600D03*
%TO.P,U1,13,PH1*%
%TO.N,unconnected-(U1-Pad13)*%
X127679700Y-91795600D03*
%TO.P,U1,14,NRST*%
%TO.N,NRST*%
X127679700Y-92295600D03*
%TO.P,U1,15,PC0*%
%TO.N,PG1*%
X127679700Y-92795600D03*
%TO.P,U1,16,PC1*%
%TO.N,PG2*%
X127679700Y-93295600D03*
%TO.P,U1,17,PC2_C*%
%TO.N,unconnected-(U1-Pad17)*%
X127679700Y-93795600D03*
%TO.P,U1,18,PC3_C*%
%TO.N,unconnected-(U1-Pad18)*%
X127679700Y-94295600D03*
%TO.P,U1,19,VSSA*%
%TO.N,Earth*%
X127679700Y-94795600D03*
%TO.P,U1,20,VREF+*%
%TO.N,3.3V*%
X127679700Y-95295600D03*
%TO.P,U1,21,VDDA*%
X127679700Y-95795600D03*
%TO.P,U1,22,PA0*%
%TO.N,SOL4*%
X127679700Y-96295600D03*
%TO.P,U1,23,PA1*%
%TO.N,SOL5*%
X127679700Y-96795600D03*
%TO.P,U1,24,PA2*%
%TO.N,SOL6*%
X127679700Y-97295600D03*
%TO.P,U1,25,PA3*%
%TO.N,unconnected-(U1-Pad25)*%
X127679700Y-97795600D03*
D36*
%TO.P,U1,26,VSS*%
%TO.N,Earth*%
X129359700Y-99475600D03*
%TO.P,U1,27,VDD*%
%TO.N,3.3V*%
X129859700Y-99475600D03*
%TO.P,U1,28,PA4*%
%TO.N,unconnected-(U1-Pad28)*%
X130359700Y-99475600D03*
%TO.P,U1,29,PA5*%
%TO.N,unconnected-(U1-Pad29)*%
X130859700Y-99475600D03*
%TO.P,U1,30,PA6*%
%TO.N,unconnected-(U1-Pad30)*%
X131359700Y-99475600D03*
%TO.P,U1,31,PA7*%
%TO.N,unconnected-(U1-Pad31)*%
X131859700Y-99475600D03*
%TO.P,U1,32,PC4*%
%TO.N,unconnected-(U1-Pad32)*%
X132359700Y-99475600D03*
%TO.P,U1,33,PC5*%
%TO.N,unconnected-(U1-Pad33)*%
X132859700Y-99475600D03*
%TO.P,U1,34,PB0*%
%TO.N,unconnected-(U1-Pad34)*%
X133359700Y-99475600D03*
%TO.P,U1,35,PB1*%
%TO.N,unconnected-(U1-Pad35)*%
X133859700Y-99475600D03*
%TO.P,U1,36,PB2*%
%TO.N,unconnected-(U1-Pad36)*%
X134359700Y-99475600D03*
%TO.P,U1,37,PE7*%
%TO.N,unconnected-(U1-Pad37)*%
X134859700Y-99475600D03*
%TO.P,U1,38,PE8*%
%TO.N,unconnected-(U1-Pad38)*%
X135359700Y-99475600D03*
%TO.P,U1,39,PE9*%
%TO.N,unconnected-(U1-Pad39)*%
X135859700Y-99475600D03*
%TO.P,U1,40,PE10*%
%TO.N,unconnected-(U1-Pad40)*%
X136359700Y-99475600D03*
%TO.P,U1,41,PE11*%
%TO.N,unconnected-(U1-Pad41)*%
X136859700Y-99475600D03*
%TO.P,U1,42,PE12*%
%TO.N,unconnected-(U1-Pad42)*%
X137359700Y-99475600D03*
%TO.P,U1,43,PE13*%
%TO.N,unconnected-(U1-Pad43)*%
X137859700Y-99475600D03*
%TO.P,U1,44,PE14*%
%TO.N,unconnected-(U1-Pad44)*%
X138359700Y-99475600D03*
%TO.P,U1,45,PE15*%
%TO.N,unconnected-(U1-Pad45)*%
X138859700Y-99475600D03*
%TO.P,U1,46,PB10*%
%TO.N,unconnected-(U1-Pad46)*%
X139359700Y-99475600D03*
%TO.P,U1,47,PB11*%
%TO.N,unconnected-(U1-Pad47)*%
X139859700Y-99475600D03*
%TO.P,U1,48,VCAP1*%
%TO.N,VCAP1*%
X140359700Y-99475600D03*
%TO.P,U1,49,VSS*%
%TO.N,Earth*%
X140859700Y-99475600D03*
%TO.P,U1,50,VDD*%
%TO.N,3.3V*%
X141359700Y-99475600D03*
D35*
%TO.P,U1,51,PB12*%
%TO.N,unconnected-(U1-Pad51)*%
X143039700Y-97795600D03*
%TO.P,U1,52,PB13*%
%TO.N,VAC_MON*%
X143039700Y-97295600D03*
%TO.P,U1,53,PB14*%
%TO.N,unconnected-(U1-Pad53)*%
X143039700Y-96795600D03*
%TO.P,U1,54,PB15*%
%TO.N,unconnected-(U1-Pad54)*%
X143039700Y-96295600D03*
%TO.P,U1,55,PD8*%
%TO.N,unconnected-(U1-Pad55)*%
X143039700Y-95795600D03*
%TO.P,U1,56,PD9*%
%TO.N,unconnected-(U1-Pad56)*%
X143039700Y-95295600D03*
%TO.P,U1,57,PD10*%
%TO.N,unconnected-(U1-Pad57)*%
X143039700Y-94795600D03*
%TO.P,U1,58,PD11*%
%TO.N,unconnected-(U1-Pad58)*%
X143039700Y-94295600D03*
%TO.P,U1,59,PD12*%
%TO.N,unconnected-(U1-Pad59)*%
X143039700Y-93795600D03*
%TO.P,U1,60,PD13*%
%TO.N,EXECPT*%
X143039700Y-93295600D03*
%TO.P,U1,61,PD14*%
%TO.N,unconnected-(U1-Pad61)*%
X143039700Y-92795600D03*
%TO.P,U1,62,PD15*%
%TO.N,ENCD2_B*%
X143039700Y-92295600D03*
%TO.P,U1,63,PC6*%
%TO.N,ENCD2_A*%
X143039700Y-91795600D03*
%TO.P,U1,64,PC7*%
%TO.N,SBV2_DIR*%
X143039700Y-91295600D03*
%TO.P,U1,65,PC8*%
%TO.N,ENCD1_A*%
X143039700Y-90795600D03*
%TO.P,U1,66,PC9*%
%TO.N,ENCD1_B*%
X143039700Y-90295600D03*
%TO.P,U1,67,PA8*%
%TO.N,SBV1_EN*%
X143039700Y-89795600D03*
%TO.P,U1,68,PA9*%
%TO.N,unconnected-(U1-Pad68)*%
X143039700Y-89295600D03*
%TO.P,U1,69,PA10*%
%TO.N,unconnected-(U1-Pad69)*%
X143039700Y-88795600D03*
%TO.P,U1,70,PA11*%
%TO.N,SBV2_EN*%
X143039700Y-88295600D03*
%TO.P,U1,71,PA12*%
%TO.N,SBV1_DIR*%
X143039700Y-87795600D03*
%TO.P,U1,72,PA13*%
%TO.N,SWDIO*%
X143039700Y-87295600D03*
%TO.P,U1,73,VCAP2*%
%TO.N,VCAP2*%
X143039700Y-86795600D03*
%TO.P,U1,74,VSS*%
%TO.N,Earth*%
X143039700Y-86295600D03*
%TO.P,U1,75,VDD*%
%TO.N,3.3V*%
X143039700Y-85795600D03*
D36*
%TO.P,U1,76,PA14*%
%TO.N,SWCLK*%
X141359700Y-84115600D03*
%TO.P,U1,77,PA15*%
%TO.N,STATUS*%
X140859700Y-84115600D03*
%TO.P,U1,78,PC10*%
%TO.N,TX*%
X140359700Y-84115600D03*
%TO.P,U1,79,PC11*%
%TO.N,RX*%
X139859700Y-84115600D03*
%TO.P,U1,80,PC12*%
%TO.N,unconnected-(U1-Pad80)*%
X139359700Y-84115600D03*
%TO.P,U1,81,PD0*%
%TO.N,unconnected-(U1-Pad81)*%
X138859700Y-84115600D03*
%TO.P,U1,82,PD1*%
%TO.N,unconnected-(U1-Pad82)*%
X138359700Y-84115600D03*
%TO.P,U1,83,PD2*%
%TO.N,unconnected-(U1-Pad83)*%
X137859700Y-84115600D03*
%TO.P,U1,84,PD3*%
%TO.N,unconnected-(U1-Pad84)*%
X137359700Y-84115600D03*
%TO.P,U1,85,PD4*%
%TO.N,unconnected-(U1-Pad85)*%
X136859700Y-84115600D03*
%TO.P,U1,86,PD5*%
%TO.N,unconnected-(U1-Pad86)*%
X136359700Y-84115600D03*
%TO.P,U1,87,PD6*%
%TO.N,unconnected-(U1-Pad87)*%
X135859700Y-84115600D03*
%TO.P,U1,88,PD7*%
%TO.N,unconnected-(U1-Pad88)*%
X135359700Y-84115600D03*
%TO.P,U1,89,PB3*%
%TO.N,SWO*%
X134859700Y-84115600D03*
%TO.P,U1,90,PB4*%
%TO.N,unconnected-(U1-Pad90)*%
X134359700Y-84115600D03*
%TO.P,U1,91,PB5*%
%TO.N,unconnected-(U1-Pad91)*%
X133859700Y-84115600D03*
%TO.P,U1,92,PB6*%
%TO.N,unconnected-(U1-Pad92)*%
X133359700Y-84115600D03*
%TO.P,U1,93,PB7*%
%TO.N,unconnected-(U1-Pad93)*%
X132859700Y-84115600D03*
%TO.P,U1,94,BOOT0*%
%TO.N,BOOT*%
X132359700Y-84115600D03*
%TO.P,U1,95,PB8*%
%TO.N,unconnected-(U1-Pad95)*%
X131859700Y-84115600D03*
%TO.P,U1,96,PB9*%
%TO.N,unconnected-(U1-Pad96)*%
X131359700Y-84115600D03*
%TO.P,U1,97,PE0*%
%TO.N,unconnected-(U1-Pad97)*%
X130859700Y-84115600D03*
%TO.P,U1,98,PE1*%
%TO.N,unconnected-(U1-Pad98)*%
X130359700Y-84115600D03*
%TO.P,U1,99,VSS*%
%TO.N,Earth*%
X129859700Y-84115600D03*
%TO.P,U1,100,VDD*%
%TO.N,3.3V*%
X129359700Y-84115600D03*
%TD*%
D19*
%TO.P,R26,1*%
%TO.N,SWDIO*%
X110721200Y-78181200D03*
%TO.P,R26,2*%
%TO.N,3.3V*%
X109141200Y-78181200D03*
%TD*%
D37*
%TO.P,F1,1*%
%TO.N,AC_HOT*%
X121581400Y-107899200D03*
%TO.P,F1,2*%
%TO.N,Net-(F1-Pad2)*%
X129675400Y-107899200D03*
%TD*%
D29*
%TO.P,C24,1*%
%TO.N,Earth*%
X159715200Y-116115200D03*
%TO.P,C24,2*%
%TO.N,5V*%
X159715200Y-114415200D03*
%TD*%
D20*
%TO.P,R20,1*%
%TO.N,ENCD2_A*%
X163118800Y-102644000D03*
%TO.P,R20,2*%
%TO.N,Net-(P13-Pad2)*%
X163118800Y-101064000D03*
%TD*%
D17*
%TO.P,C9,1*%
%TO.N,Earth*%
X122898800Y-97282000D03*
%TO.P,C9,2*%
%TO.N,3.3V*%
X124598800Y-97282000D03*
%TD*%
D20*
%TO.P,R14,2*%
%TO.N,Earth*%
X167132000Y-117376000D03*
%TO.P,R14,1*%
%TO.N,ENCD1_A*%
X167132000Y-115796000D03*
%TD*%
D38*
%TO.P,P2,1,+12V*%
%TO.N,5V*%
X133657600Y-74282000D03*
D39*
%TO.P,P2,2,GND*%
%TO.N,RX*%
X131657600Y-74282000D03*
%TO.P,P2,3,3*%
%TO.N,TX*%
X129657600Y-74282000D03*
%TO.P,P2,4,4*%
%TO.N,Earth*%
X127657600Y-74282000D03*
%TD*%
D29*
%TO.P,C15,1*%
%TO.N,NRST*%
X117754400Y-102629600D03*
%TO.P,C15,2*%
%TO.N,Earth*%
X117754400Y-104329600D03*
%TD*%
%TO.P,C11,1*%
%TO.N,Earth*%
X139649200Y-103516800D03*
%TO.P,C11,2*%
%TO.N,VCAP1*%
X139649200Y-101816800D03*
%TD*%
D17*
%TO.P,C7,1*%
%TO.N,Earth*%
X129424800Y-81534000D03*
%TO.P,C7,2*%
%TO.N,3.3V*%
X127724800Y-81534000D03*
%TD*%
D32*
%TO.P,P16,1,1*%
%TO.N,Net-(P16-Pad1)*%
X132927500Y-112525700D03*
D34*
%TO.P,P16,2,2*%
%TO.N,Net-(D2-Pad1)*%
X136887500Y-112525700D03*
%TD*%
D17*
%TO.P,C13,1*%
%TO.N,Earth*%
X147103200Y-87223600D03*
%TO.P,C13,2*%
%TO.N,VCAP2*%
X145403200Y-87223600D03*
%TD*%
%TO.P,C6,1*%
%TO.N,Earth*%
X147103200Y-85394800D03*
%TO.P,C6,2*%
%TO.N,3.3V*%
X145403200Y-85394800D03*
%TD*%
D29*
%TO.P,C23,1*%
%TO.N,Earth*%
X166116000Y-112711600D03*
%TO.P,C23,2*%
%TO.N,3.3V*%
X166116000Y-111011600D03*
%TD*%
D20*
%TO.P,R18,2*%
%TO.N,Net-(P11-Pad2)*%
X169316400Y-117426800D03*
%TO.P,R18,1*%
%TO.N,ENCD1_A*%
X169316400Y-115846800D03*
%TD*%
D32*
%TO.P,P15,1,1*%
%TO.N,5V*%
X175568500Y-100598900D03*
D33*
%TO.P,P15,2,2*%
%TO.N,PG2*%
X175568500Y-96638900D03*
%TO.P,P15,3,3*%
%TO.N,Earth*%
X175568500Y-92678900D03*
%TD*%
D15*
%TO.P,D2,1,1*%
%TO.N,Net-(D2-Pad1)*%
X142494000Y-115620800D03*
%TO.P,D2,2,2*%
%TO.N,Net-(D2-Pad2)*%
X145542000Y-115620800D03*
%TD*%
D17*
%TO.P,C5,1*%
%TO.N,Earth*%
X141745600Y-101752400D03*
%TO.P,C5,2*%
%TO.N,3.3V*%
X143445600Y-101752400D03*
%TD*%
D20*
%TO.P,R19,1*%
%TO.N,Net-(P11-Pad4)*%
X164566600Y-117325200D03*
%TO.P,R19,2*%
%TO.N,ENCD1_B*%
X164566600Y-115745200D03*
%TD*%
D17*
%TO.P,C14,1*%
%TO.N,Earth*%
X147103200Y-88950800D03*
%TO.P,C14,2*%
%TO.N,VCAP2*%
X145403200Y-88950800D03*
%TD*%
D20*
%TO.P,R17,1*%
%TO.N,ENCD2_B*%
X167843200Y-102672000D03*
%TO.P,R17,2*%
%TO.N,Earth*%
X167843200Y-101092000D03*
%TD*%
D19*
%TO.P,R23,1*%
%TO.N,Net-(R23-Pad1)*%
X138356400Y-108305600D03*
%TO.P,R23,2*%
%TO.N,Net-(P16-Pad1)*%
X136776400Y-108305600D03*
%TD*%
D25*
%TO.P,U3,1,VL*%
%TO.N,3.3V*%
X154997150Y-114361201D03*
%TO.P,U3,2,GND*%
%TO.N,Earth*%
X154997150Y-115011200D03*
%TO.P,U3,3,IOVL*%
%TO.N,SBV1_PUL*%
X154997150Y-115661199D03*
%TO.P,U3,4,IOVCC*%
%TO.N,/Valves/SBV1_PUL5*%
X157219650Y-115661199D03*
%TO.P,U3,5,VCC*%
%TO.N,5V*%
X157219650Y-114361201D03*
%TD*%
D17*
%TO.P,C3,1*%
%TO.N,Earth*%
X123356000Y-90424000D03*
%TO.P,C3,2*%
%TO.N,3.3V*%
X125056000Y-90424000D03*
%TD*%
D20*
%TO.P,R16,1*%
%TO.N,ENCD1_B*%
X162712400Y-115745200D03*
%TO.P,R16,2*%
%TO.N,Earth*%
X162712400Y-117325200D03*
%TD*%
D40*
%TO.N,Net-(K1-Pad2)*%
X78613000Y-116408200D03*
%TO.N,SOL5*%
X126064000Y-96795600D03*
D41*
%TO.N,3.3V*%
X142748000Y-72339200D03*
D40*
%TO.N,Earth*%
X154990800Y-93522800D03*
%TO.N,3.3V*%
X153659599Y-114361201D03*
%TO.N,SBV2_PUL*%
X167944800Y-113995200D03*
X132588000Y-90017600D03*
D41*
%TO.N,Net-(C16-Pad2)*%
X94996000Y-118414800D03*
D40*
%TO.N,3.3V*%
X143713200Y-84226400D03*
D41*
%TO.N,5V*%
X180035200Y-112522000D03*
D40*
%TO.N,PG1*%
X136956800Y-88138000D03*
%TO.N,SWCLK*%
X131013200Y-86614000D03*
%TO.N,PG2*%
X137922000Y-88646000D03*
%TO.N,ENCD2_B*%
X167182800Y-104952800D03*
X139344400Y-88290400D03*
%TO.N,SBV2_DIR*%
X146456400Y-91236800D03*
%TO.N,ENCD1_A*%
X145440400Y-90474800D03*
%TO.N,ENCD2_A*%
X148488400Y-92151200D03*
X157480000Y-100838000D03*
%TO.N,Earth*%
X166245600Y-101064000D03*
%TO.N,SBV2_EN*%
X141732000Y-89103200D03*
X172974000Y-108204000D03*
%TO.N,SBV2_DIR*%
X157175200Y-103936800D03*
%TO.N,Earth*%
X171094400Y-107696000D03*
%TO.N,3.3V*%
X168402000Y-110896400D03*
%TO.N,Earth*%
X167386000Y-112318800D03*
%TO.N,ENCD1_A*%
X159664400Y-110642400D03*
%TO.N,ENCD1_B*%
X141427200Y-90373200D03*
X159359600Y-111506000D03*
%TO.N,Net-(P10-Pad4)*%
X160121600Y-108966000D03*
X158445200Y-118618000D03*
%TO.N,Net-(P10-Pad2)*%
X156210000Y-112623600D03*
%TO.N,SBV1_DIR*%
X140766800Y-89001600D03*
X145389600Y-96520000D03*
%TO.N,Earth*%
X158343600Y-109474000D03*
%TO.N,SBV1_PUL*%
X129692400Y-87477600D03*
X154635200Y-116687600D03*
%TO.N,Earth*%
X158394400Y-115671600D03*
X149783800Y-115290600D03*
%TO.N,3.3V*%
X142798800Y-100025200D03*
X151536400Y-108508800D03*
%TO.N,Earth*%
X147116800Y-76911200D03*
%TO.N,TX*%
X137464800Y-81229200D03*
%TO.N,3.3V*%
X114655600Y-77012800D03*
%TO.N,NRST*%
X122224800Y-92964000D03*
X121107200Y-81635600D03*
%TO.N,SWO*%
X134823200Y-85852000D03*
X125628400Y-82346800D03*
%TO.N,SWCLK*%
X126187200Y-83972400D03*
%TO.N,SOL4*%
X129336800Y-96164400D03*
X84429600Y-92811600D03*
X85140800Y-82753200D03*
X97739200Y-76809600D03*
%TO.N,SOL1*%
X123545600Y-84175600D03*
X69748400Y-115163600D03*
%TO.N,SOL6*%
X125831600Y-98196400D03*
X83108800Y-93776800D03*
%TO.N,SOL3*%
X122732800Y-87172800D03*
X76860400Y-106222800D03*
%TO.N,SOL5*%
X90779600Y-97028000D03*
%TO.N,Earth*%
X148488400Y-85394800D03*
X141491600Y-86295600D03*
X141542400Y-103516800D03*
%TO.N,3.3V*%
X129413000Y-101117400D03*
X125933200Y-95402400D03*
X129320800Y-90795600D03*
%TO.N,Earth*%
X129859700Y-82585900D03*
%TO.N,3.3V*%
X128066800Y-83718400D03*
%TO.N,Earth*%
X124917200Y-89408000D03*
X127508000Y-100431600D03*
X121564400Y-95402400D03*
X116420000Y-104329600D03*
X99441000Y-94107000D03*
X100482400Y-107188000D03*
X115417600Y-85191600D03*
%TO.N,Net-(K1-Pad2)*%
X100279200Y-114909600D03*
%TO.N,Net-(C16-Pad2)*%
X92405200Y-115011200D03*
X78079600Y-107188000D03*
D41*
%TO.N,AC_NEUTRAL*%
X109931200Y-112166400D03*
X94488000Y-112166400D03*
X84175600Y-108559600D03*
D40*
%TO.N,Earth*%
X87757000Y-107061000D03*
D41*
%TO.N,AC_NEUTRAL*%
X95351600Y-76250800D03*
D40*
%TO.N,Earth*%
X86029800Y-87249000D03*
D41*
%TO.N,AC_NEUTRAL*%
X72694800Y-91440000D03*
X74879200Y-76250800D03*
D40*
%TO.N,Earth*%
X85191600Y-75184000D03*
%TO.N,Net-(C21-Pad2)*%
X77012800Y-69697600D03*
D41*
X96672400Y-69697600D03*
%TD*%
D42*
%TO.N,3.3V*%
X153659599Y-114361201D02*
X152694399Y-114361201D01*
%TO.N,SBV2_PUL*%
X168713150Y-112968799D02*
X168713150Y-113226850D01*
X168713150Y-113226850D02*
X167944800Y-113995200D01*
X127679700Y-87795600D02*
X127679700Y-87801700D01*
X127679700Y-87801700D02*
X127707089Y-87829089D01*
X127707089Y-87829089D02*
X128723089Y-87829089D01*
X128723089Y-87829089D02*
X130911600Y-90017600D01*
X130911600Y-90017600D02*
X132588000Y-90017600D01*
D43*
%TO.N,Net-(C16-Pad2)*%
X94656000Y-114808000D02*
X94656000Y-118074800D01*
X94656000Y-118074800D02*
X94996000Y-118414800D01*
D42*
%TO.N,3.3V*%
X143039700Y-85795600D02*
X143039700Y-84899900D01*
X143039700Y-84899900D02*
X143713200Y-84226400D01*
D43*
%TO.N,5V*%
X180035200Y-112522000D02*
X180035200Y-113842800D01*
D42*
%TO.N,PG1*%
X132854320Y-92795600D02*
X136956800Y-88693120D01*
X127679700Y-92795600D02*
X132854320Y-92795600D01*
X136956800Y-88693120D02*
X136956800Y-88138000D01*
%TO.N,SWCLK*%
X141359700Y-84115600D02*
X141359700Y-85157500D01*
X141359700Y-85157500D02*
X140919200Y-85598000D01*
X140919200Y-85598000D02*
X135890000Y-85598000D01*
X135890000Y-85598000D02*
X135890000Y-85676214D01*
X135890000Y-85676214D02*
X134952214Y-86614000D01*
X134952214Y-86614000D02*
X131013200Y-86614000D01*
%TO.N,PG2*%
X127679700Y-93295600D02*
X133272400Y-93295600D01*
X133272400Y-93295600D02*
X137922000Y-88646000D01*
%TO.N,ENCD2_B*%
X167182800Y-104952800D02*
X167182800Y-103378000D01*
X167182800Y-103378000D02*
X167640000Y-102920800D01*
X141165200Y-92295600D02*
X139344400Y-90474800D01*
X139344400Y-90474800D02*
X139344400Y-88290400D01*
X143039700Y-92295600D02*
X141165200Y-92295600D01*
%TO.N,ENCD2_A*%
X146456400Y-92151200D02*
X148488400Y-92151200D01*
X143510000Y-91795600D02*
X146100800Y-91795600D01*
X146100800Y-91795600D02*
X146456400Y-92151200D01*
%TO.N,SBV2_DIR*%
X143408400Y-91329089D02*
X146364111Y-91329089D01*
X146364111Y-91329089D02*
X146456400Y-91236800D01*
%TO.N,ENCD1_A*%
X143039700Y-90795600D02*
X144186400Y-90795600D01*
X145440400Y-90474800D02*
X144507200Y-90474800D01*
X144507200Y-90474800D02*
X144186400Y-90795600D01*
%TO.N,EXECPT*%
X143039700Y-93295600D02*
X144095600Y-93295600D01*
X144095600Y-93295600D02*
X145186400Y-94386400D01*
X145186400Y-94386400D02*
X147015200Y-94386400D01*
X147015200Y-94386400D02*
X147320000Y-94081600D01*
X147320000Y-94081600D02*
X147320000Y-93472000D01*
%TO.N,ENCD2_A*%
X163118800Y-102644000D02*
X159235200Y-102644000D01*
X159235200Y-102644000D02*
X159235200Y-102593200D01*
X159235200Y-102593200D02*
X157480000Y-100838000D01*
%TO.N,Net-(P13-Pad2)*%
X163118800Y-101064000D02*
X163118800Y-100126800D01*
X163322000Y-99923600D02*
X170434000Y-99923600D01*
X163118800Y-100126800D02*
X163322000Y-99923600D01*
X170434000Y-99923600D02*
X174853600Y-104343200D01*
X174853600Y-104343200D02*
X174853600Y-105308400D01*
X174853600Y-105308400D02*
X175564800Y-106019600D01*
X175564800Y-106019600D02*
X179171600Y-106019600D01*
X179171600Y-106019600D02*
X181660800Y-108508800D01*
X181660800Y-108508800D02*
X186994800Y-108508800D01*
%TO.N,Net-(P13-Pad4)*%
X169773600Y-101041200D02*
X173685200Y-104952800D01*
X173685200Y-104952800D02*
X173685200Y-105867200D01*
X173685200Y-105867200D02*
X174345600Y-106527600D01*
X174345600Y-106527600D02*
X177546000Y-106527600D01*
X177546000Y-106527600D02*
X183489600Y-112471200D01*
X183489600Y-112471200D02*
X187096400Y-112471200D01*
%TO.N,ENCD2_B*%
X167843200Y-102672000D02*
X169768400Y-102672000D01*
%TO.N,Earth*%
X166245600Y-101064000D02*
X167764400Y-101064000D01*
X165912800Y-101064000D02*
X165021200Y-101064000D01*
X165912800Y-101064000D02*
X166245600Y-101064000D01*
%TO.N,ENCD2_A*%
X163118800Y-102644000D02*
X164670800Y-102644000D01*
%TO.N,SBV2_EN*%
X143039700Y-88295600D02*
X141980800Y-88295600D01*
X141980800Y-88295600D02*
X141732000Y-88544400D01*
X141732000Y-88544400D02*
X141732000Y-89103200D01*
%TO.N,SBV1_DIR*%
X143039700Y-87795600D02*
X141058400Y-87795600D01*
X141058400Y-87795600D02*
X140766800Y-88087200D01*
X140766800Y-88087200D02*
X140766800Y-89001600D01*
%TO.N,SBV2_EN*%
X171982800Y-108204000D02*
X172974000Y-108204000D01*
%TO.N,SBV2_DIR*%
X170179400Y-107188000D02*
X160426400Y-107188000D01*
X160426400Y-107188000D02*
X157175200Y-103936800D01*
%TO.N,Net-(P12-Pad2)*%
X177901600Y-112417600D02*
X175059600Y-109575600D01*
X175059600Y-109575600D02*
X170992800Y-109575600D01*
X170992800Y-109575600D02*
X170180000Y-108762800D01*
X170180000Y-108762800D02*
X170180000Y-108305600D01*
%TO.N,Net-(P12-Pad4)*%
X177124184Y-107188000D02*
X171805600Y-107188000D01*
X178832000Y-116417600D02*
X181102000Y-114147600D01*
X177901600Y-116417600D02*
X178832000Y-116417600D01*
X181102000Y-114147600D02*
X181102000Y-111165816D01*
X181102000Y-111165816D02*
X177124184Y-107188000D01*
%TO.N,Earth*%
X171094400Y-107696000D02*
X171856400Y-107696000D01*
X170179400Y-107696000D02*
X171094400Y-107696000D01*
%TO.N,5V*%
X170935650Y-111668801D02*
X172578001Y-111668801D01*
X172578001Y-111668801D02*
X173228000Y-112318800D01*
%TO.N,/Valves/SBV2_PUL5*%
X179628800Y-120904000D02*
X179628800Y-120243600D01*
X176834800Y-121564400D02*
X178968400Y-121564400D01*
X178968400Y-121564400D02*
X179628800Y-120904000D01*
X179628800Y-120243600D02*
X178003200Y-118618000D01*
X170935650Y-112968799D02*
X170935650Y-115665250D01*
X170935650Y-115665250D02*
X176834800Y-121564400D01*
%TO.N,Earth*%
X175666400Y-119329200D02*
X176885600Y-120548400D01*
X176885600Y-120548400D02*
X177850800Y-120548400D01*
X174332000Y-114134000D02*
X175666400Y-115468400D01*
X173329600Y-114134000D02*
X174332000Y-114134000D01*
X175666400Y-115468400D02*
X175666400Y-119329200D01*
%TO.N,5V*%
X173329600Y-112434000D02*
X174460800Y-112434000D01*
X174460800Y-112434000D02*
X176377600Y-114350800D01*
X176377600Y-114350800D02*
X177647600Y-114350800D01*
D43*
X180035200Y-113842800D02*
X179476400Y-114401600D01*
X180035200Y-111099600D02*
X180035200Y-112522000D01*
X179476400Y-114401600D02*
X178003200Y-114401600D01*
X177901600Y-110417600D02*
X179353200Y-110417600D01*
X179353200Y-110417600D02*
X180035200Y-111099600D01*
D42*
%TO.N,3.3V*%
X168402000Y-110896400D02*
X168351200Y-110845600D01*
X168713150Y-111207550D02*
X168402000Y-110896400D01*
X168713150Y-111668801D02*
X168713150Y-111207550D01*
X168351200Y-110845600D02*
X166217600Y-110845600D01*
%TO.N,Earth*%
X167386000Y-112318800D02*
X166268400Y-112318800D01*
X168713150Y-112318800D02*
X167386000Y-112318800D01*
%TO.N,ENCD1_A*%
X167132000Y-115796000D02*
X167132000Y-115011200D01*
X167132000Y-115011200D02*
X166370000Y-114249200D01*
X166370000Y-114249200D02*
X163271200Y-114249200D01*
X163271200Y-114249200D02*
X159664400Y-110642400D01*
%TO.N,ENCD1_B*%
X143039700Y-90295600D02*
X141504800Y-90295600D01*
X141504800Y-90295600D02*
X141427200Y-90373200D01*
X162712400Y-115745200D02*
X162712400Y-114858800D01*
X162712400Y-114858800D02*
X159359600Y-111506000D01*
%TO.N,Net-(P11-Pad2)*%
X168098500Y-122628000D02*
X168098500Y-121512300D01*
X168098500Y-121512300D02*
X169164000Y-120446800D01*
X169164000Y-120446800D02*
X169164000Y-117449600D01*
%TO.N,ENCD1_A*%
X167132000Y-115796000D02*
X169136000Y-115796000D01*
X169136000Y-115796000D02*
X169164000Y-115824000D01*
%TO.N,Earth*%
X167132000Y-117376000D02*
X167132000Y-119786400D01*
X167132000Y-119786400D02*
X165963600Y-120954800D01*
X165963600Y-120954800D02*
X165963600Y-122478800D01*
X165963600Y-122478800D02*
X166014400Y-122529600D01*
%TO.N,Net-(P11-Pad4)*%
X164033200Y-121005600D02*
X164033200Y-122428000D01*
X164033200Y-122428000D02*
X164134800Y-122529600D01*
X164566600Y-117325200D02*
X164566600Y-120472200D01*
X164566600Y-120472200D02*
X164033200Y-121005600D01*
%TO.N,Earth*%
X162001200Y-121005600D02*
X162001200Y-122529600D01*
X162712400Y-117325200D02*
X162712400Y-120294400D01*
X162712400Y-120294400D02*
X162001200Y-121005600D01*
%TO.N,ENCD1_B*%
X162712400Y-115745200D02*
X164366000Y-115745200D01*
%TO.N,Earth*%
X166065200Y-122580400D02*
X166116000Y-122631200D01*
D44*
%TO.N,5V*%
X152349200Y-124256800D02*
X153060400Y-124256800D01*
X153060400Y-124256800D02*
X169672000Y-124256800D01*
X153080500Y-124236700D02*
X153060400Y-124256800D01*
X153080500Y-122526400D02*
X153080500Y-124236700D01*
X170129200Y-123799600D02*
X170180000Y-123748800D01*
X170180000Y-123748800D02*
X170180000Y-122529600D01*
X169672000Y-124256800D02*
X170129200Y-123799600D01*
D42*
%TO.N,SBV1_EN*%
X156108400Y-104061786D02*
X156108400Y-93698586D01*
X160324800Y-109982000D02*
X160782000Y-109524800D01*
X159143700Y-109982000D02*
X160324800Y-109982000D01*
X156108400Y-93698586D02*
X152238903Y-89829089D01*
X160782000Y-109524800D02*
X160782000Y-108735386D01*
X160782000Y-108735386D02*
X156108400Y-104061786D01*
X152238903Y-89829089D02*
X143611600Y-89829089D01*
%TO.N,Net-(P10-Pad4)*%
X160070800Y-108966000D02*
X159156400Y-108966000D01*
X147080500Y-122526400D02*
X150988900Y-118618000D01*
X150988900Y-118618000D02*
X158445200Y-118618000D01*
D44*
%TO.N,5V*%
X149080500Y-122526400D02*
X149080500Y-123578900D01*
X149080500Y-123578900D02*
X149758400Y-124256800D01*
X149758400Y-124256800D02*
X152349200Y-124256800D01*
D42*
X159715200Y-114415200D02*
X160795600Y-114415200D01*
X160795600Y-114415200D02*
X161290000Y-114909600D01*
X161290000Y-114909600D02*
X161290000Y-117856000D01*
X161290000Y-117856000D02*
X159715200Y-119430800D01*
X159715200Y-119430800D02*
X156210000Y-119430800D01*
X156210000Y-119430800D02*
X153060400Y-122580400D01*
%TO.N,Net-(P10-Pad2)*%
X157340300Y-109982000D02*
X157340300Y-111493300D01*
X157340300Y-111493300D02*
X156210000Y-112623600D01*
%TO.N,SBV1_DIR*%
X157340300Y-106845100D02*
X147015200Y-96520000D01*
X157340300Y-108966000D02*
X157340300Y-106845100D01*
X147015200Y-96520000D02*
X145389600Y-96520000D01*
%TO.N,Earth*%
X158343600Y-109474000D02*
X157340300Y-109474000D01*
X159143700Y-109474000D02*
X158343600Y-109474000D01*
%TO.N,SBV1_PUL*%
X129692400Y-87477600D02*
X129032000Y-87477600D01*
X129032000Y-87477600D02*
X128879600Y-87325200D01*
X128879600Y-87325200D02*
X128270000Y-87325200D01*
X154997150Y-115661199D02*
X154997150Y-116325650D01*
X154997150Y-116325650D02*
X154635200Y-116687600D01*
%TO.N,Earth*%
X159715200Y-116115200D02*
X158838000Y-116115200D01*
X158838000Y-116115200D02*
X158394400Y-115671600D01*
%TO.N,5V*%
X157219650Y-114361201D02*
X159624001Y-114361201D01*
X159624001Y-114361201D02*
X159715200Y-114452400D01*
%TO.N,3.3V*%
X154997150Y-114361201D02*
X153659599Y-114361201D01*
X152694399Y-114361201D02*
X152501600Y-114554000D01*
%TO.N,Earth*%
X154997150Y-115011200D02*
X153873200Y-115011200D01*
X153873200Y-115011200D02*
X152552400Y-116332000D01*
X149783800Y-115290600D02*
X151028400Y-116535200D01*
X151028400Y-116535200D02*
X152349200Y-116535200D01*
X148635600Y-114046000D02*
X148635600Y-114142400D01*
X148635600Y-114142400D02*
X149783800Y-115290600D01*
%TO.N,/Valves/SBV1_PUL5*%
X145080500Y-122526400D02*
X149598500Y-118008400D01*
X149598500Y-118008400D02*
X155956000Y-118008400D01*
X155956000Y-118008400D02*
X157276800Y-116687600D01*
X157276800Y-116687600D02*
X157276800Y-115722400D01*
%TO.N,3.3V*%
X142798800Y-100025200D02*
X143408400Y-100634800D01*
%TO.N,VAC_MON*%
X153631900Y-111048800D02*
X152768300Y-111048800D01*
X152768300Y-111048800D02*
X146913600Y-105194100D01*
X146913600Y-105194100D02*
X146913600Y-98145600D01*
X146913600Y-98145600D02*
X146030111Y-97262111D01*
X146030111Y-97262111D02*
X143154400Y-97262111D01*
X151333200Y-114046000D02*
X153314400Y-112064800D01*
X150215600Y-114046000D02*
X151333200Y-114046000D01*
X153314400Y-112064800D02*
X153314400Y-111150400D01*
%TO.N,3.3V*%
X153631900Y-108508800D02*
X151536400Y-108508800D01*
%TO.N,Net-(D2-Pad2)*%
X145338800Y-114300000D02*
X145338800Y-115570000D01*
X145186400Y-114147600D02*
X145338800Y-114300000D01*
X143649700Y-111048800D02*
X143649700Y-112610900D01*
X143649700Y-112610900D02*
X145186400Y-114147600D01*
%TO.N,Net-(R23-Pad1)*%
X143649700Y-108508800D02*
X138430000Y-108508800D01*
%TO.N,Net-(D2-Pad1)*%
X136887500Y-112525700D02*
X139500500Y-112525700D01*
X139500500Y-112525700D02*
X142544800Y-115570000D01*
%TO.N,Net-(P16-Pad1)*%
X134721600Y-108305600D02*
X133045200Y-109982000D01*
X136776400Y-108305600D02*
X134721600Y-108305600D01*
X133045200Y-109982000D02*
X133045200Y-112522000D01*
%TO.N,Earth*%
X153799600Y-93522800D02*
X154990800Y-93522800D01*
%TO.N,Net-(D4-Pad1)*%
X149059400Y-93370400D02*
X152044400Y-93370400D01*
%TO.N,Net-(D3-Pad1)*%
X146354800Y-78435200D02*
X146862800Y-78943200D01*
X144373600Y-78435200D02*
X146354800Y-78435200D01*
X146862800Y-78943200D02*
X146862800Y-80162400D01*
%TO.N,Earth*%
X148516400Y-80162400D02*
X148516400Y-78310800D01*
%TO.N,STATUS*%
X140859700Y-84115600D02*
X140859700Y-81288700D01*
X140859700Y-81288700D02*
X141274800Y-80873600D01*
X141274800Y-80873600D02*
X141274800Y-78384400D01*
%TO.N,Earth*%
X148358800Y-78181200D02*
X148358800Y-78153200D01*
X148358800Y-78153200D02*
X147116800Y-76911200D01*
%TO.N,Net-(D1-Pad1)*%
X152400000Y-78181200D02*
X150063200Y-78181200D01*
%TO.N,3.3V*%
X155448000Y-78181200D02*
X155448000Y-73101200D01*
D43*
%TO.N,Earth*%
X148590000Y-68935600D02*
X153365200Y-68935600D01*
X153365200Y-68935600D02*
X154838400Y-70408800D01*
X145436000Y-70039200D02*
X147486400Y-70039200D01*
X147486400Y-70039200D02*
X148590000Y-68935600D01*
%TO.N,3.3V*%
X155143200Y-73101200D02*
X151434800Y-73101200D01*
X145436000Y-72339200D02*
X151079200Y-72339200D01*
X151079200Y-72339200D02*
X151130000Y-72390000D01*
X145436000Y-72339200D02*
X142748000Y-72339200D01*
%TO.N,5V*%
X145436000Y-74639200D02*
X141288800Y-74639200D01*
X141288800Y-74639200D02*
X140614400Y-73964800D01*
%TO.N,Earth*%
X142900400Y-70307200D02*
X145034000Y-70307200D01*
X145034000Y-70307200D02*
X145084800Y-70256400D01*
X140258800Y-71069200D02*
X142138400Y-71069200D01*
X142138400Y-71069200D02*
X142900400Y-70307200D01*
X140258800Y-71069200D02*
X130759200Y-71069200D01*
X130759200Y-71069200D02*
X127508000Y-74320400D01*
%TO.N,5V*%
X137464800Y-73812400D02*
X140462000Y-73812400D01*
X133657600Y-74282000D02*
X136995200Y-74282000D01*
X136995200Y-74282000D02*
X137464800Y-73812400D01*
D42*
%TO.N,BOOT*%
X129692400Y-78790800D02*
X132393189Y-81491589D01*
X126427600Y-78790800D02*
X129692400Y-78790800D01*
X132393189Y-81491589D02*
X132393189Y-83769200D01*
%TO.N,Earth*%
X125374400Y-80111600D02*
X124714000Y-79451200D01*
X129424800Y-80453600D02*
X129082800Y-80111600D01*
X129424800Y-81534000D02*
X129424800Y-80453600D01*
X129082800Y-80111600D02*
X125374400Y-80111600D01*
X124714000Y-79451200D02*
X124714000Y-78943200D01*
%TO.N,TX*%
X139496800Y-81229200D02*
X140360400Y-82092800D01*
X137464800Y-81229200D02*
X139496800Y-81229200D01*
X140360400Y-82092800D02*
X140360400Y-83616800D01*
%TO.N,RX*%
X139293600Y-81889600D02*
X139826211Y-82422211D01*
X139826211Y-82422211D02*
X139826211Y-83718400D01*
X131657600Y-74282000D02*
X131657600Y-76996800D01*
X131657600Y-76996800D02*
X136550400Y-81889600D01*
X136550400Y-81889600D02*
X139293600Y-81889600D01*
%TO.N,3.3V*%
X114655600Y-78254800D02*
X114655600Y-77012800D01*
%TO.N,SWCLK*%
X113360200Y-79121000D02*
X113360200Y-79883000D01*
X113360200Y-79883000D02*
X113360200Y-80746600D01*
X114655600Y-79834800D02*
X113408400Y-79834800D01*
X113408400Y-79834800D02*
X113360200Y-79883000D01*
X113360200Y-75398250D02*
X113360200Y-79121000D01*
%TO.N,3.3V*%
X108280200Y-75398250D02*
X108280200Y-77241400D01*
X108280200Y-77241400D02*
X108966000Y-77927200D01*
%TO.N,SWDIO*%
X112090200Y-75398250D02*
X112090200Y-78257400D01*
X112090200Y-78257400D02*
X112090200Y-80695800D01*
X110721200Y-78181200D02*
X112014000Y-78181200D01*
X112014000Y-78181200D02*
X112090200Y-78257400D01*
%TO.N,NRST*%
X117170200Y-81305400D02*
X117500400Y-81635600D01*
X117170200Y-75398250D02*
X117170200Y-81305400D01*
X117500400Y-81635600D02*
X121107200Y-81635600D01*
%TO.N,SWO*%
X134823200Y-85293200D02*
X134826211Y-85290189D01*
X134823200Y-85852000D02*
X134823200Y-85293200D01*
X134826211Y-85290189D02*
X134826211Y-84378800D01*
X115900200Y-75398250D02*
X115900200Y-81661000D01*
X115900200Y-81661000D02*
X116586000Y-82346800D01*
X116586000Y-82346800D02*
X125628400Y-82346800D01*
%TO.N,SWCLK*%
X113360200Y-80746600D02*
X115468400Y-82854800D01*
X115468400Y-82854800D02*
X125069600Y-82854800D01*
X125069600Y-82854800D02*
X126187200Y-83972400D01*
%TO.N,SWDIO*%
X112090200Y-80695800D02*
X114757200Y-83362800D01*
X114757200Y-83362800D02*
X124053600Y-83362800D01*
X128422400Y-85191600D02*
X128452911Y-85222111D01*
X128452911Y-85222111D02*
X128656111Y-85222111D01*
X124053600Y-83362800D02*
X125882400Y-85191600D01*
X125882400Y-85191600D02*
X128422400Y-85191600D01*
X128656111Y-85222111D02*
X130759200Y-87325200D01*
X130759200Y-87325200D02*
X142494000Y-87325200D01*
%TO.N,SOL4*%
X127679700Y-96295600D02*
X129205600Y-96295600D01*
X129205600Y-96295600D02*
X129336800Y-96164400D01*
X85140800Y-82753200D02*
X85140800Y-92100400D01*
X85140800Y-92100400D02*
X84429600Y-92811600D01*
X87912000Y-69977000D02*
X91871800Y-69977000D01*
X91871800Y-69977000D02*
X97739200Y-75844400D01*
X97739200Y-75844400D02*
X97739200Y-76809600D01*
D43*
%TO.N,Net-(C18-Pad2)*%
X67310000Y-103733600D02*
X69545200Y-103733600D01*
X66548000Y-109118400D02*
X66548000Y-104495600D01*
X66548000Y-104495600D02*
X67310000Y-103733600D01*
D42*
%TO.N,SOL1*%
X125171200Y-85801200D02*
X127203200Y-85801200D01*
X123545600Y-84175600D02*
X125171200Y-85801200D01*
X73124000Y-116332000D02*
X70916800Y-116332000D01*
X70916800Y-116332000D02*
X69748400Y-115163600D01*
%TO.N,SOL6*%
X125831600Y-98196400D02*
X126765889Y-97262111D01*
X126765889Y-97262111D02*
X127203200Y-97262111D01*
X71192511Y-92274511D02*
X81606511Y-92274511D01*
X69342000Y-90424000D02*
X71192511Y-92274511D01*
X69342000Y-87071200D02*
X69342000Y-90424000D01*
X81606511Y-92274511D02*
X83108800Y-93776800D01*
X75562400Y-85445600D02*
X70967600Y-85445600D01*
X70967600Y-85445600D02*
X69342000Y-87071200D01*
%TO.N,SOL3*%
X127679700Y-86795600D02*
X123110000Y-86795600D01*
X123110000Y-86795600D02*
X122732800Y-87172800D01*
X75336400Y-109293600D02*
X75336400Y-107746800D01*
X75336400Y-107746800D02*
X76860400Y-106222800D01*
%TO.N,SOL5*%
X127679700Y-96795600D02*
X126064000Y-96795600D01*
X88521600Y-98348800D02*
X89458800Y-98348800D01*
X89458800Y-98348800D02*
X90779600Y-97028000D01*
%TO.N,SOL2*%
X122529600Y-86309200D02*
X127254000Y-86309200D01*
X121615200Y-92100400D02*
X121615200Y-87223600D01*
X109880400Y-94538800D02*
X119176800Y-94538800D01*
X119176800Y-94538800D02*
X121615200Y-92100400D01*
X108305600Y-96113600D02*
X109423200Y-94996000D01*
X121615200Y-87223600D02*
X122529600Y-86309200D01*
X108305600Y-98630800D02*
X108305600Y-96113600D01*
X109423200Y-94996000D02*
X109880400Y-94538800D01*
X105308400Y-101628000D02*
X108305600Y-98630800D01*
%TO.N,NRST*%
X120192800Y-94996000D02*
X122885200Y-92303600D01*
X118745201Y-99948799D02*
X120192800Y-98501200D01*
X116441200Y-99948799D02*
X118745201Y-99948799D01*
X120192800Y-98501200D02*
X120192800Y-94996000D01*
X122885200Y-92303600D02*
X127000000Y-92303600D01*
%TO.N,Earth*%
X147103200Y-85394800D02*
X148488400Y-85394800D01*
X143039700Y-86295600D02*
X141491600Y-86295600D01*
%TO.N,3.3V*%
X143039700Y-85795600D02*
X144938000Y-85795600D01*
%TO.N,Earth*%
X147103200Y-85394800D02*
X147103200Y-87237200D01*
%TO.N,VCAP2*%
X145403200Y-87223600D02*
X145403200Y-88812000D01*
X143039700Y-86795600D02*
X145114000Y-86795600D01*
%TO.N,Earth*%
X147103200Y-87362400D02*
X147015200Y-87274400D01*
X147103200Y-88950800D02*
X147103200Y-87362400D01*
%TO.N,3.3V*%
X142249200Y-99475600D02*
X142798800Y-100025200D01*
X141359700Y-99475600D02*
X142249200Y-99475600D01*
X143408400Y-100634800D02*
X143408400Y-101650800D01*
%TO.N,Earth*%
X140859700Y-99475600D02*
X140859700Y-100880100D01*
X140859700Y-100880100D02*
X141427200Y-101447600D01*
X141542400Y-103516800D02*
X141542400Y-101816800D01*
X139649200Y-103516800D02*
X141542400Y-103516800D01*
X137566400Y-103567600D02*
X139635600Y-103567600D01*
%TO.N,VCAP1*%
X139649200Y-101816800D02*
X140326211Y-101139789D01*
X140326211Y-101139789D02*
X140326211Y-100076000D01*
X137566400Y-101867600D02*
X139737200Y-101867600D01*
%TO.N,3.3V*%
X129413000Y-101117400D02*
X129844800Y-100685600D01*
X128053200Y-101600000D02*
X128053200Y-103530400D01*
X127679700Y-90795600D02*
X129320800Y-90795600D01*
%TO.N,Earth*%
X129859700Y-82585900D02*
X129859700Y-81599700D01*
%TO.N,3.3V*%
X128066800Y-83718400D02*
X127762000Y-83413600D01*
X128464000Y-84115600D02*
X128066800Y-83718400D01*
X129359700Y-84115600D02*
X128464000Y-84115600D01*
X127762000Y-83413600D02*
X127762000Y-81534000D01*
%TO.N,Earth*%
X129859700Y-84115600D02*
X129859700Y-82585900D01*
X129859700Y-81599700D02*
X129743200Y-81483200D01*
X124917200Y-89408000D02*
X124053600Y-89408000D01*
X127679700Y-90295600D02*
X126630622Y-90295600D01*
X126630622Y-90295600D02*
X125743022Y-89408000D01*
X125743022Y-89408000D02*
X124917200Y-89408000D01*
X124053600Y-89408000D02*
X123748800Y-89712800D01*
X123748800Y-89712800D02*
X123748800Y-90068400D01*
%TO.N,3.3V*%
X125984000Y-90424000D02*
X126389089Y-90829089D01*
X125056000Y-90424000D02*
X125984000Y-90424000D01*
X126389089Y-90829089D02*
X127101600Y-90829089D01*
%TO.N,Earth*%
X127508000Y-100431600D02*
X129032000Y-100431600D01*
X126353200Y-101600000D02*
X126353200Y-100773600D01*
X126353200Y-100773600D02*
X126695200Y-100431600D01*
X126695200Y-100431600D02*
X127508000Y-100431600D01*
X129032000Y-100431600D02*
X129336800Y-100126800D01*
%TO.N,3.3V*%
X128930400Y-101600000D02*
X129413000Y-101117400D01*
X128053200Y-101600000D02*
X128930400Y-101600000D01*
X129844800Y-100685600D02*
X129844800Y-99974400D01*
%TO.N,Earth*%
X126353200Y-103530400D02*
X126353200Y-101766000D01*
X127679700Y-94795600D02*
X126342400Y-94795600D01*
X126342400Y-94795600D02*
X125831600Y-94284800D01*
X125831600Y-94284800D02*
X123342400Y-94284800D01*
X123342400Y-94284800D02*
X123088400Y-94538800D01*
X123088400Y-94538800D02*
X123088400Y-95504000D01*
%TO.N,3.3V*%
X127679700Y-95370900D02*
X127609600Y-95300800D01*
X127679700Y-95795600D02*
X127679700Y-95370900D01*
X125882400Y-95402400D02*
X125933200Y-95402400D01*
X124649600Y-95402400D02*
X125882400Y-95402400D01*
X126034800Y-95300800D02*
X127203200Y-95300800D01*
X125933200Y-95402400D02*
X126034800Y-95300800D01*
%TO.N,Earth*%
X122949600Y-95402400D02*
X121564400Y-95402400D01*
X122949600Y-95402400D02*
X122949600Y-97166800D01*
%TO.N,3.3V*%
X124598800Y-97282000D02*
X124598800Y-95416000D01*
%TO.N,Earth*%
X116441200Y-96748801D02*
X114046000Y-99144001D01*
X114046000Y-99144001D02*
X114046000Y-101955600D01*
X114046000Y-101955600D02*
X116420000Y-104329600D01*
X117754400Y-104329600D02*
X116420000Y-104329600D01*
%TO.N,NRST*%
X116441200Y-102318800D02*
X116789200Y-102666800D01*
X116441200Y-99948799D02*
X116441200Y-102318800D01*
X116789200Y-102666800D02*
X117652800Y-102666800D01*
%TO.N,Earth*%
X101813000Y-94107000D02*
X99441000Y-94107000D01*
%TO.N,Net-(K2-Pad2)*%
X105308400Y-100048000D02*
X104264400Y-100048000D01*
X104264400Y-100048000D02*
X103479600Y-99263200D01*
X103479600Y-99263200D02*
X101955600Y-99263200D01*
%TO.N,Earth*%
X102956000Y-107188000D02*
X100482400Y-107188000D01*
%TO.N,Net-(K6-Pad2)*%
X86332000Y-69977000D02*
X86332000Y-69116000D01*
X86332000Y-69116000D02*
X86918800Y-68529200D01*
X86918800Y-68529200D02*
X99771200Y-68529200D01*
X114350800Y-89204800D02*
X115519200Y-90373200D01*
X99771200Y-68529200D02*
X103530400Y-72288400D01*
X104648000Y-80416400D02*
X109728000Y-80416400D01*
X103530400Y-72288400D02*
X103530400Y-79298800D01*
X114350800Y-85039200D02*
X114350800Y-89204800D01*
X103530400Y-79298800D02*
X104648000Y-80416400D01*
X109728000Y-80416400D02*
X114350800Y-85039200D01*
X115519200Y-90373200D02*
X118414800Y-90373200D01*
D43*
%TO.N,Net-(C21-Pad2)*%
X101329500Y-75057000D02*
X101329500Y-79282300D01*
X112522000Y-84632800D02*
X112522000Y-90373200D01*
X101329500Y-79282300D02*
X103479600Y-81432400D01*
X103479600Y-81432400D02*
X107704900Y-81432400D01*
X107704900Y-81432400D02*
X108568500Y-82296000D01*
X108568500Y-82296000D02*
X110185200Y-82296000D01*
X110185200Y-82296000D02*
X112522000Y-84632800D01*
X112522000Y-90373200D02*
X110032800Y-92862400D01*
%TO.N,AC_NEUTRAL*%
X105359200Y-82550000D02*
X107188000Y-84378800D01*
X101650800Y-82550000D02*
X105359200Y-82550000D01*
X107188000Y-86614000D02*
X108254800Y-87680800D01*
X107188000Y-84378800D02*
X107188000Y-86614000D01*
X108254800Y-87680800D02*
X109474000Y-87680800D01*
D42*
%TO.N,Earth*%
X118111700Y-85191600D02*
X115417600Y-85191600D01*
%TO.N,Net-(C17-Pad2)*%
X104800400Y-92764601D02*
X104800400Y-91643200D01*
X104800400Y-91643200D02*
X103945700Y-90788500D01*
X103945700Y-90788500D02*
X96266000Y-90788500D01*
%TO.N,Net-(C17-Pad1)*%
X104800400Y-86388000D02*
X104800400Y-89712800D01*
D43*
%TO.N,AC_NEUTRAL*%
X101650800Y-83667600D02*
X101650800Y-84785200D01*
X101650800Y-84785200D02*
X101650800Y-86969600D01*
D42*
X104800400Y-84808000D02*
X101673600Y-84808000D01*
X101673600Y-84808000D02*
X101650800Y-84785200D01*
D43*
%TO.N,Net-(C17-Pad2)*%
X92726500Y-87249000D02*
X96266000Y-90788500D01*
X96266000Y-90788500D02*
X96266000Y-101904800D01*
%TO.N,AC_NEUTRAL*%
X90373200Y-93507200D02*
X90373200Y-85140800D01*
X93513000Y-96647000D02*
X90373200Y-93507200D01*
X91846400Y-83667600D02*
X101650800Y-83667600D01*
X101650800Y-82550000D02*
X101650800Y-83667600D01*
X90373200Y-85140800D02*
X91846400Y-83667600D01*
X95351600Y-76250800D02*
X101650800Y-82550000D01*
X78215500Y-103632000D02*
X82397600Y-103632000D01*
D42*
X82166400Y-101244400D02*
X82166400Y-103400800D01*
D43*
X82397600Y-103632000D02*
X84429600Y-103632000D01*
D42*
X82166400Y-103400800D02*
X82397600Y-103632000D01*
D43*
X84429600Y-103632000D02*
X86410800Y-103632000D01*
X84175600Y-108559600D02*
X84226400Y-108508800D01*
X84226400Y-103835200D02*
X84429600Y-103632000D01*
X84226400Y-108508800D02*
X84226400Y-103835200D01*
X86410800Y-103632000D02*
X92964000Y-97078800D01*
D42*
%TO.N,Net-(K1-Pad2)*%
X100279200Y-114909600D02*
X100279200Y-114808000D01*
X100279200Y-114808000D02*
X102514400Y-112572800D01*
X74704000Y-116332000D02*
X78536800Y-116332000D01*
X78536800Y-116332000D02*
X78613000Y-116408200D01*
%TO.N,Net-(C16-Pad2)*%
X92405200Y-115011200D02*
X94843600Y-115011200D01*
X78079600Y-109012999D02*
X78079600Y-107188000D01*
D43*
%TO.N,Net-(F1-Pad2)*%
X122627500Y-112576500D02*
X126898400Y-108305600D01*
X122564300Y-112576500D02*
X122627500Y-112576500D01*
X126898400Y-108305600D02*
X129438400Y-108305600D01*
%TO.N,AC_HOT*%
X116992400Y-125730000D02*
X111201200Y-125730000D01*
X111201200Y-125730000D02*
X108559600Y-125730000D01*
X111252000Y-122555000D02*
X111252000Y-125679200D01*
X111252000Y-125679200D02*
X111201200Y-125730000D01*
X121581400Y-107899200D02*
X118770400Y-110710200D01*
X118770400Y-110710200D02*
X118770400Y-123952000D01*
X118770400Y-123952000D02*
X116992400Y-125730000D01*
%TO.N,Net-(C16-Pad2)*%
X110794800Y-110693200D02*
X110794800Y-106527600D01*
X115212000Y-122555000D02*
X115212000Y-115110400D01*
X115212000Y-115110400D02*
X110794800Y-110693200D01*
%TO.N,AC_NEUTRAL*%
X109931200Y-112166400D02*
X109931200Y-114909600D01*
X94488000Y-112166400D02*
X94488000Y-109778800D01*
X84175600Y-108559600D02*
X83261200Y-109474000D01*
%TO.N,Net-(C17-Pad2)*%
X97686000Y-103324800D02*
X96266000Y-101904800D01*
X97686000Y-122557000D02*
X97686000Y-103324800D01*
X96266000Y-101904800D02*
X93573600Y-101904800D01*
D42*
%TO.N,Net-(K3-Pad2)*%
X75336400Y-110873600D02*
X79479200Y-110873600D01*
X80873600Y-112268000D02*
X89509600Y-112268000D01*
X79479200Y-110873600D02*
X80873600Y-112268000D01*
X89509600Y-112268000D02*
X89611200Y-112166400D01*
%TO.N,Net-(C16-Pad1)*%
X73383200Y-114350800D02*
X75488800Y-114350800D01*
X75488800Y-114350800D02*
X77724000Y-112115600D01*
%TO.N,AC_NEUTRAL*%
X71803200Y-114350800D02*
X71803200Y-113261200D01*
X71803200Y-113261200D02*
X73863200Y-111201200D01*
X73863200Y-111201200D02*
X73863200Y-109474000D01*
X73863200Y-109474000D02*
X73609200Y-109220000D01*
X73609200Y-109220000D02*
X72440800Y-109220000D01*
%TO.N,Earth*%
X89621000Y-107061000D02*
X87757000Y-107061000D01*
D43*
%TO.N,AC_NEUTRAL*%
X83261200Y-109474000D02*
X81584800Y-109474000D01*
D42*
X72491600Y-108051600D02*
X75692000Y-104851200D01*
X72491600Y-109293600D02*
X72491600Y-108051600D01*
X75692000Y-104851200D02*
X77724000Y-104851200D01*
%TO.N,Net-(C18-Pad1)*%
X69494400Y-112119401D02*
X71116199Y-112119401D01*
X71116199Y-112119401D02*
X72288400Y-110947200D01*
%TO.N,Net-(C18-Pad2)*%
X69494400Y-109063799D02*
X66602601Y-109063799D01*
D43*
X66548000Y-109118400D02*
X66548000Y-117043200D01*
D42*
X66602601Y-109063799D02*
X66548000Y-109118400D01*
D43*
X69293600Y-119788800D02*
X79906000Y-119788800D01*
X66548000Y-117043200D02*
X69293600Y-119788800D01*
X79906000Y-122555000D02*
X79906000Y-119788800D01*
X79906000Y-119788800D02*
X81229200Y-118465600D01*
X81229200Y-118465600D02*
X81229200Y-114706400D01*
D42*
%TO.N,Net-(K4-Pad2)*%
X86941600Y-98348800D02*
X86941600Y-97304800D01*
X86360000Y-92506800D02*
X88239600Y-92506800D01*
X86941600Y-97304800D02*
X85801200Y-96164400D01*
X85801200Y-93065600D02*
X86360000Y-92506800D01*
X85801200Y-96164400D02*
X85801200Y-93065600D01*
D43*
%TO.N,AC_NEUTRAL*%
X95351600Y-76250800D02*
X92456000Y-76250800D01*
D42*
%TO.N,Earth*%
X88063500Y-87249000D02*
X86029800Y-87249000D01*
D43*
%TO.N,AC_NEUTRAL*%
X77165200Y-89662000D02*
X79806800Y-89662000D01*
X72644000Y-88281500D02*
X75784700Y-88281500D01*
X75784700Y-88281500D02*
X77165200Y-89662000D01*
D42*
%TO.N,Net-(C19-Pad1)*%
X84378800Y-99314000D02*
X84378800Y-98094800D01*
X83746400Y-101244400D02*
X83746400Y-100149600D01*
X83746400Y-99946400D02*
X84074000Y-99618800D01*
X83746400Y-100149600D02*
X83746400Y-99946400D01*
X84074000Y-99618800D02*
X84378800Y-99314000D01*
%TO.N,Net-(C19-Pad2)*%
X81276199Y-98171000D02*
X81276199Y-96414599D01*
X81276199Y-96414599D02*
X79908400Y-95046800D01*
D43*
X72644000Y-97138500D02*
X77105500Y-97138500D01*
X77105500Y-97138500D02*
X79298800Y-94945200D01*
X68021200Y-97485200D02*
X72237600Y-97485200D01*
X61974000Y-114831000D02*
X64770000Y-112035000D01*
X64770000Y-112035000D02*
X64770000Y-100736400D01*
X64770000Y-100736400D02*
X68021200Y-97485200D01*
%TO.N,AC_NEUTRAL*%
X72694800Y-91440000D02*
X72694800Y-89103200D01*
X74879200Y-76250800D02*
X73304400Y-74676000D01*
D42*
%TO.N,Net-(K5-Pad2)*%
X83108800Y-80873600D02*
X83769200Y-80213200D01*
X80975200Y-85445600D02*
X83108800Y-83312000D01*
X77142400Y-85445600D02*
X80975200Y-85445600D01*
X83108800Y-83312000D02*
X83108800Y-80873600D01*
X83769200Y-80213200D02*
X88239600Y-80213200D01*
%TO.N,AC_NEUTRAL*%
X81584800Y-83769200D02*
X81584800Y-79502000D01*
X78006000Y-84328000D02*
X81026000Y-84328000D01*
X77117000Y-83439000D02*
X78006000Y-84328000D01*
X81026000Y-84328000D02*
X81584800Y-83769200D01*
X81584800Y-79502000D02*
X79959200Y-77876400D01*
D43*
%TO.N,Net-(C20-Pad2)*%
X73152000Y-80247500D02*
X78825100Y-80247500D01*
X78825100Y-80247500D02*
X79857600Y-81280000D01*
X79857600Y-81280000D02*
X79857600Y-82905600D01*
D42*
%TO.N,Net-(C20-Pad1)*%
X71631801Y-83312000D02*
X75488800Y-83312000D01*
D43*
%TO.N,Net-(C20-Pad2)*%
X66192400Y-80314800D02*
X68580000Y-80314800D01*
X68580000Y-80314800D02*
X73609200Y-80314800D01*
D42*
X68576199Y-83312000D02*
X68576199Y-80318601D01*
X68576199Y-80318601D02*
X68580000Y-80314800D01*
D43*
X65328800Y-81178400D02*
X66192400Y-80314800D01*
X65077200Y-97432000D02*
X65328800Y-97180400D01*
X62101000Y-97432000D02*
X65077200Y-97432000D01*
X65328800Y-97180400D02*
X65328800Y-81178400D01*
D42*
%TO.N,Earth*%
X88097000Y-75184000D02*
X85191600Y-75184000D01*
D43*
%TO.N,AC_NEUTRAL*%
X79797000Y-77724000D02*
X76352400Y-77724000D01*
X76352400Y-77724000D02*
X74879200Y-76250800D01*
X73304400Y-74676000D02*
X73304400Y-71374000D01*
D42*
X89916000Y-71882000D02*
X92202000Y-74168000D01*
X87912000Y-71882000D02*
X89916000Y-71882000D01*
%TO.N,Net-(C21-Pad1)*%
X84582000Y-71729600D02*
X86207600Y-71729600D01*
X82172801Y-70358000D02*
X83210400Y-70358000D01*
X83210400Y-70358000D02*
X84582000Y-71729600D01*
%TO.N,Net-(C21-Pad2)*%
X79117199Y-70358000D02*
X77622400Y-70358000D01*
X77622400Y-70358000D02*
X77012800Y-69748400D01*
D43*
X98958400Y-69697600D02*
X101295200Y-72034400D01*
X96672400Y-69697600D02*
X98958400Y-69697600D01*
X101295200Y-72034400D02*
X101295200Y-74980800D01*
%TO.N,AC_HOT*%
X93726000Y-125730000D02*
X108559600Y-125730000D01*
X63627000Y-118491000D02*
X70993000Y-125857000D01*
X75946000Y-125730000D02*
X75819000Y-125857000D01*
X93726000Y-122557000D02*
X93726000Y-125730000D01*
X58293000Y-115443000D02*
X61341000Y-118491000D01*
X61974000Y-110871000D02*
X58420000Y-110871000D01*
X61341000Y-118491000D02*
X63627000Y-118491000D01*
X93726000Y-125730000D02*
X93853000Y-125857000D01*
X62101000Y-76327000D02*
X58293000Y-80135000D01*
X58293000Y-93345000D02*
X58293000Y-110998000D01*
X70993000Y-125857000D02*
X75819000Y-125857000D01*
X75946000Y-122555000D02*
X75946000Y-125730000D01*
X58420000Y-110871000D02*
X58293000Y-110998000D01*
X75819000Y-125857000D02*
X93853000Y-125857000D01*
X58293000Y-93345000D02*
X62230000Y-93345000D01*
X58293000Y-110998000D02*
X58293000Y-115443000D01*
X58293000Y-80135000D02*
X58293000Y-93345000D01*
%TD*%
M02*
