%TF.GenerationSoftware,KiCad,Pcbnew,(6.0.2)*%
%TF.CreationDate,2022-03-05T21:41:31-07:00*%
%TF.ProjectId,L0005-Valve-Controller,4c303030-352d-4566-916c-76652d436f6e,1.0*%
%TF.SameCoordinates,Original*%
%TF.FileFunction,Copper,L1,Top*%
%TF.FilePolarity,Positive*%
%FSLAX46Y46*%
G04 Gerber Fmt 4.6, Leading zero omitted, Abs format (unit mm)*
G04 Created by KiCad (PCBNEW (6.0.2)) date 2022-03-05 21:41:31*
%MOMM*%
%LPD*%
G01*
G04 APERTURE LIST*
%TA.AperFunction,SMDPad,CuDef*%
%ADD10R,1.700000X0.990600*%
%TD*%
%TA.AperFunction,SMDPad,CuDef*%
%ADD11R,1.000000X1.100000*%
%TD*%
%TA.AperFunction,SMDPad,CuDef*%
%ADD12R,1.100000X1.000000*%
%TD*%
%TA.AperFunction,SMDPad,CuDef*%
%ADD13R,1.600000X0.855600*%
%TD*%
%TA.AperFunction,SMDPad,CuDef*%
%ADD14R,0.855600X1.600000*%
%TD*%
%TA.AperFunction,SMDPad,CuDef*%
%ADD15R,0.965200X1.295400*%
%TD*%
%TA.AperFunction,SMDPad,CuDef*%
%ADD16R,1.295400X0.965200*%
%TD*%
%TA.AperFunction,SMDPad,CuDef*%
%ADD17R,0.800000X0.800000*%
%TD*%
%TA.AperFunction,SMDPad,CuDef*%
%ADD18R,2.620000X3.200000*%
%TD*%
%TA.AperFunction,SMDPad,CuDef*%
%ADD19R,1.900000X1.500000*%
%TD*%
%TA.AperFunction,ComponentPad*%
%ADD20C,1.066800*%
%TD*%
%TA.AperFunction,ComponentPad*%
%ADD21R,1.258000X1.258000*%
%TD*%
%TA.AperFunction,ComponentPad*%
%ADD22C,1.258000*%
%TD*%
%TA.AperFunction,ComponentPad*%
%ADD23C,2.500000*%
%TD*%
%TA.AperFunction,ComponentPad*%
%ADD24R,2.050000X2.050000*%
%TD*%
%TA.AperFunction,ComponentPad*%
%ADD25C,2.050000*%
%TD*%
%TA.AperFunction,ComponentPad*%
%ADD26C,2.286000*%
%TD*%
%TA.AperFunction,SMDPad,CuDef*%
%ADD27R,0.940000X1.020000*%
%TD*%
%TA.AperFunction,SMDPad,CuDef*%
%ADD28R,1.020000X0.940000*%
%TD*%
%TA.AperFunction,SMDPad,CuDef*%
%ADD29R,1.854200X3.048000*%
%TD*%
%TA.AperFunction,SMDPad,CuDef*%
%ADD30R,3.048000X1.854200*%
%TD*%
%TA.AperFunction,SMDPad,CuDef*%
%ADD31R,1.430605X0.270000*%
%TD*%
%TA.AperFunction,SMDPad,CuDef*%
%ADD32R,0.270000X1.430605*%
%TD*%
%TA.AperFunction,SMDPad,CuDef*%
%ADD33R,2.150000X0.950000*%
%TD*%
%TA.AperFunction,SMDPad,CuDef*%
%ADD34R,2.150000X3.250000*%
%TD*%
%TA.AperFunction,SMDPad,CuDef*%
%ADD35R,1.219200X0.457200*%
%TD*%
%TA.AperFunction,SMDPad,CuDef*%
%ADD36R,1.270000X1.778000*%
%TD*%
%TA.AperFunction,SMDPad,CuDef*%
%ADD37R,1.778000X1.270000*%
%TD*%
%TA.AperFunction,SMDPad,CuDef*%
%ADD38R,0.876300X0.304800*%
%TD*%
%TA.AperFunction,ComponentPad*%
%ADD39R,1.308000X1.308000*%
%TD*%
%TA.AperFunction,ComponentPad*%
%ADD40C,1.308000*%
%TD*%
%TA.AperFunction,SMDPad,CuDef*%
%ADD41R,0.508000X0.254000*%
%TD*%
%TA.AperFunction,ViaPad*%
%ADD42C,0.607060*%
%TD*%
%TA.AperFunction,ViaPad*%
%ADD43C,1.016000*%
%TD*%
%TA.AperFunction,ViaPad*%
%ADD44C,0.800000*%
%TD*%
%TA.AperFunction,Conductor*%
%ADD45C,0.250000*%
%TD*%
%TA.AperFunction,Conductor*%
%ADD46C,0.254000*%
%TD*%
%TA.AperFunction,Conductor*%
%ADD47C,0.762000*%
%TD*%
%TA.AperFunction,Conductor*%
%ADD48C,0.508000*%
%TD*%
G04 APERTURE END LIST*
D10*
%TO.P,B1,1,1*%
%TO.N,NRST*%
X126347200Y-91089279D03*
%TO.P,B1,2,2*%
%TO.N,unconnected-(B1-Pad2)*%
X120947200Y-91089279D03*
%TO.P,B1,3,3*%
%TO.N,Earth*%
X126347200Y-87889281D03*
%TO.P,B1,4,4*%
%TO.N,unconnected-(B1-Pad4)*%
X120947200Y-87889281D03*
%TD*%
D11*
%TO.P,C1,1*%
%TO.N,Earth*%
X132852160Y-108190400D03*
%TO.P,C1,2*%
%TO.N,3.3V*%
X132852160Y-106490400D03*
%TD*%
D12*
%TO.P,C2,1*%
%TO.N,Earth*%
X122167280Y-94701360D03*
%TO.P,C2,2*%
%TO.N,3.3V*%
X123867280Y-94701360D03*
%TD*%
D11*
%TO.P,C3,1*%
%TO.N,Earth*%
X134691120Y-108215800D03*
%TO.P,C3,2*%
%TO.N,3.3V*%
X134691120Y-106515800D03*
%TD*%
D12*
%TO.P,C4,1*%
%TO.N,Earth*%
X142856320Y-103657400D03*
%TO.P,C4,2*%
%TO.N,3.3V*%
X141156320Y-103657400D03*
%TD*%
%TO.P,C5,1*%
%TO.N,Earth*%
X122741320Y-96448880D03*
%TO.P,C5,2*%
%TO.N,3.3V*%
X124441320Y-96448880D03*
%TD*%
%TO.P,C6,1*%
%TO.N,Earth*%
X122710840Y-98298000D03*
%TO.P,C6,2*%
%TO.N,3.3V*%
X124410840Y-98298000D03*
%TD*%
D11*
%TO.P,C7,1*%
%TO.N,Earth*%
X133217920Y-88491960D03*
%TO.P,C7,2*%
%TO.N,3.3V*%
X133217920Y-90191960D03*
%TD*%
D12*
%TO.P,C8,1*%
%TO.N,Earth*%
X142886800Y-101909880D03*
%TO.P,C8,2*%
%TO.N,3.3V*%
X141186800Y-101909880D03*
%TD*%
%TO.P,C9,1*%
%TO.N,Earth*%
X140613500Y-105791000D03*
%TO.P,C9,2*%
%TO.N,3.3V*%
X138913500Y-105791000D03*
%TD*%
D11*
%TO.P,C10,1*%
%TO.N,Earth*%
X129082800Y-108200560D03*
%TO.P,C10,2*%
%TO.N,3.3V*%
X129082800Y-106500560D03*
%TD*%
%TO.P,C11,1*%
%TO.N,Earth*%
X130997960Y-108193840D03*
%TO.P,C11,2*%
%TO.N,3.3V*%
X130997960Y-106493840D03*
%TD*%
D12*
%TO.P,C12,1*%
%TO.N,Earth*%
X163284800Y-80213200D03*
%TO.P,C12,2*%
%TO.N,3.3V*%
X164984800Y-80213200D03*
%TD*%
D11*
%TO.P,C13,1*%
%TO.N,Earth*%
X131424680Y-88466560D03*
%TO.P,C13,2*%
%TO.N,3.3V*%
X131424680Y-90166560D03*
%TD*%
D13*
%TO.P,C16,1*%
%TO.N,Net-(C16-Pad1)*%
X125811280Y-112439441D03*
%TO.P,C16,2*%
%TO.N,Net-(C16-Pad2)*%
X125811280Y-109383839D03*
%TD*%
D14*
%TO.P,C17,1*%
%TO.N,Net-(C17-Pad1)*%
X113282721Y-92453460D03*
%TO.P,C17,2*%
%TO.N,Net-(C17-Pad2)*%
X110227119Y-92453460D03*
%TD*%
D13*
%TO.P,C18,1*%
%TO.N,Net-(C18-Pad1)*%
X120446800Y-85401141D03*
%TO.P,C18,2*%
%TO.N,Net-(C18-Pad2)*%
X120446800Y-82345539D03*
%TD*%
D14*
%TO.P,C19,1*%
%TO.N,Net-(C19-Pad1)*%
X95507801Y-113792000D03*
%TO.P,C19,2*%
%TO.N,Net-(C19-Pad2)*%
X92452199Y-113792000D03*
%TD*%
D13*
%TO.P,C20,1*%
%TO.N,Net-(C20-Pad1)*%
X92456000Y-99063801D03*
%TO.P,C20,2*%
%TO.N,Net-(C20-Pad2)*%
X92456000Y-96008199D03*
%TD*%
%TO.P,C21,1*%
%TO.N,Net-(C21-Pad1)*%
X92456000Y-85848199D03*
%TO.P,C21,2*%
%TO.N,Net-(C21-Pad2)*%
X92456000Y-88903801D03*
%TD*%
D15*
%TO.P,D1,1,1*%
%TO.N,Net-(D1-Pad1)*%
X160375600Y-82499200D03*
%TO.P,D1,2,2*%
%TO.N,3.3V*%
X157327600Y-82499200D03*
%TD*%
D16*
%TO.P,D2,1,1*%
%TO.N,Net-(D2-Pad1)*%
X157924500Y-108839000D03*
%TO.P,D2,2,2*%
%TO.N,Net-(D2-Pad2)*%
X157924500Y-105791000D03*
%TD*%
D15*
%TO.P,D3,1,1*%
%TO.N,Net-(D3-Pad1)*%
X145669000Y-92583000D03*
%TO.P,D3,2,2*%
%TO.N,STATUS*%
X142621000Y-92583000D03*
%TD*%
D17*
%TO.P,D4,1,1*%
%TO.N,Net-(D4-Pad1)*%
X143192000Y-87122000D03*
%TO.P,D4,2,2*%
%TO.N,EXECPT*%
X141542000Y-87122000D03*
%TD*%
D18*
%TO.P,F1,1*%
%TO.N,AC_HOT*%
X132097000Y-114046000D03*
%TO.P,F1,2*%
%TO.N,Net-(F1-Pad2)*%
X140191000Y-114046000D03*
%TD*%
D11*
%TO.P,J1,1,A*%
%TO.N,Earth*%
X118780560Y-94484560D03*
%TO.P,J1,2,B*%
%TO.N,Net-(J1-Pad2)*%
X118780560Y-92784560D03*
%TD*%
%TO.P,J2,1,A*%
%TO.N,Earth*%
X118805960Y-96467560D03*
%TO.P,J2,2,B*%
%TO.N,Net-(J2-Pad2)*%
X118805960Y-98167560D03*
%TD*%
D19*
%TO.P,K1,1*%
%TO.N,unconnected-(K1-Pad1)*%
X120451520Y-115260120D03*
%TO.P,K1,2*%
%TO.N,SOL1*%
X120451520Y-112720120D03*
%TO.P,K1,3*%
%TO.N,unconnected-(K1-Pad3)*%
X120451520Y-110180120D03*
%TO.P,K1,4*%
%TO.N,Net-(K1-Pad4)*%
X120451520Y-107640120D03*
%TO.P,K1,5*%
%TO.N,unconnected-(K1-Pad5)*%
X112151520Y-107640120D03*
%TO.P,K1,6*%
%TO.N,AC_NEUTRAL*%
X112151520Y-110180120D03*
%TO.P,K1,8*%
%TO.N,Net-(C16-Pad2)*%
X112151520Y-115260120D03*
%TD*%
%TO.P,K2,1*%
%TO.N,unconnected-(K2-Pad1)*%
X114416480Y-103687880D03*
%TO.P,K2,2*%
%TO.N,SOL2*%
X114416480Y-101147880D03*
%TO.P,K2,3*%
%TO.N,unconnected-(K2-Pad3)*%
X114416480Y-98607880D03*
%TO.P,K2,4*%
%TO.N,Net-(K2-Pad4)*%
X114416480Y-96067880D03*
%TO.P,K2,5*%
%TO.N,unconnected-(K2-Pad5)*%
X106116480Y-96067880D03*
%TO.P,K2,6*%
%TO.N,AC_NEUTRAL*%
X106116480Y-98607880D03*
%TO.P,K2,8*%
%TO.N,Net-(C17-Pad2)*%
X106116480Y-103687880D03*
%TD*%
%TO.P,K3,1*%
%TO.N,unconnected-(K3-Pad1)*%
X114307260Y-88943180D03*
%TO.P,K3,2*%
%TO.N,SOL3*%
X114307260Y-86403180D03*
%TO.P,K3,3*%
%TO.N,unconnected-(K3-Pad3)*%
X114307260Y-83863180D03*
%TO.P,K3,4*%
%TO.N,Net-(K3-Pad4)*%
X114307260Y-81323180D03*
%TO.P,K3,5*%
%TO.N,unconnected-(K3-Pad5)*%
X106007260Y-81323180D03*
%TO.P,K3,6*%
%TO.N,AC_NEUTRAL*%
X106007260Y-83863180D03*
%TO.P,K3,8*%
%TO.N,Net-(C18-Pad2)*%
X106007260Y-88943180D03*
%TD*%
%TO.P,K4,1*%
%TO.N,unconnected-(K4-Pad1)*%
X88478000Y-113538000D03*
%TO.P,K4,2*%
%TO.N,SOL5*%
X88478000Y-110998000D03*
%TO.P,K4,3*%
%TO.N,unconnected-(K4-Pad3)*%
X88478000Y-108458000D03*
%TO.P,K4,4*%
%TO.N,Net-(K4-Pad4)*%
X88478000Y-105918000D03*
%TO.P,K4,5*%
%TO.N,unconnected-(K4-Pad5)*%
X80178000Y-105918000D03*
%TO.P,K4,6*%
%TO.N,AC_NEUTRAL*%
X80178000Y-108458000D03*
%TO.P,K4,8*%
%TO.N,Net-(C19-Pad2)*%
X80178000Y-113538000D03*
%TD*%
%TO.P,K5,1*%
%TO.N,unconnected-(K5-Pad1)*%
X88208760Y-100838000D03*
%TO.P,K5,2*%
%TO.N,SOL6*%
X88208760Y-98298000D03*
%TO.P,K5,3*%
%TO.N,unconnected-(K5-Pad3)*%
X88208760Y-95758000D03*
%TO.P,K5,4*%
%TO.N,Net-(K5-Pad4)*%
X88208760Y-93218000D03*
%TO.P,K5,5*%
%TO.N,unconnected-(K5-Pad5)*%
X79908760Y-93218000D03*
%TO.P,K5,6*%
%TO.N,AC_NEUTRAL*%
X79908760Y-95758000D03*
%TO.P,K5,8*%
%TO.N,Net-(C20-Pad2)*%
X79908760Y-100838000D03*
%TD*%
%TO.P,K6,1*%
%TO.N,unconnected-(K6-Pad1)*%
X87860780Y-87122000D03*
%TO.P,K6,2*%
%TO.N,SOL4*%
X87860780Y-84582000D03*
%TO.P,K6,3*%
%TO.N,unconnected-(K6-Pad3)*%
X87860780Y-82042000D03*
%TO.P,K6,4*%
%TO.N,Net-(K6-Pad4)*%
X87860780Y-79502000D03*
%TO.P,K6,5*%
%TO.N,unconnected-(K6-Pad5)*%
X79560780Y-79502000D03*
%TO.P,K6,6*%
%TO.N,AC_NEUTRAL*%
X79560780Y-82042000D03*
%TO.P,K6,8*%
%TO.N,Net-(C21-Pad2)*%
X79560780Y-87122000D03*
%TD*%
D20*
%TO.P,P1,1,1*%
%TO.N,3.3V*%
X126939040Y-85816440D03*
%TO.P,P1,2,2*%
%TO.N,unconnected-(P1-Pad2)*%
X126939040Y-84546440D03*
%TO.P,P1,3,3*%
%TO.N,unconnected-(P1-Pad3)*%
X128209040Y-85816440D03*
%TO.P,P1,4,4*%
%TO.N,Earth*%
X128209040Y-84546440D03*
%TO.P,P1,5,5*%
%TO.N,unconnected-(P1-Pad5)*%
X129479040Y-85816440D03*
%TO.P,P1,6,6*%
%TO.N,Earth*%
X129479040Y-84546440D03*
%TO.P,P1,7,7*%
%TO.N,SWDIO*%
X130749040Y-85816440D03*
%TO.P,P1,8,8*%
%TO.N,Earth*%
X130749040Y-84546440D03*
%TO.P,P1,9,9*%
%TO.N,SWCLK*%
X132019040Y-85816440D03*
%TO.P,P1,10,10*%
%TO.N,Earth*%
X132019040Y-84546440D03*
%TO.P,P1,11,11*%
%TO.N,unconnected-(P1-Pad11)*%
X133289040Y-85816440D03*
%TO.P,P1,12,12*%
%TO.N,Earth*%
X133289040Y-84546440D03*
%TO.P,P1,13,13*%
%TO.N,SWO*%
X134559040Y-85816440D03*
%TO.P,P1,14,14*%
%TO.N,Earth*%
X134559040Y-84546440D03*
%TO.P,P1,15,15*%
%TO.N,NRST*%
X135829040Y-85816440D03*
%TO.P,P1,16,16*%
%TO.N,Earth*%
X135829040Y-84546440D03*
%TO.P,P1,17,17*%
%TO.N,unconnected-(P1-Pad17)*%
X137099040Y-85816440D03*
%TO.P,P1,18,18*%
%TO.N,Earth*%
X137099040Y-84546440D03*
%TO.P,P1,19,19*%
%TO.N,unconnected-(P1-Pad19)*%
X138369040Y-85816440D03*
%TO.P,P1,20,20*%
%TO.N,Earth*%
X138369040Y-84546440D03*
%TD*%
D21*
%TO.P,P2,1,+12V*%
%TO.N,5V*%
X153012400Y-83781600D03*
D22*
%TO.P,P2,2,GND*%
%TO.N,RX*%
X151012400Y-83781600D03*
%TO.P,P2,3,3*%
%TO.N,TX*%
X149012400Y-83781600D03*
%TO.P,P2,4,4*%
%TO.N,Earth*%
X147012400Y-83781600D03*
%TD*%
D23*
%TO.P,P3,1,1*%
%TO.N,Net-(C16-Pad2)*%
X137564000Y-122428000D03*
%TO.P,P3,2,2*%
%TO.N,AC_HOT*%
X133604000Y-122428000D03*
%TO.P,P3,3,3*%
%TO.N,unconnected-(P3-Pad3)*%
X129644000Y-122428000D03*
%TD*%
%TO.P,P4,1,1*%
%TO.N,Net-(C17-Pad2)*%
X118260000Y-122428000D03*
%TO.P,P4,2,2*%
%TO.N,AC_HOT*%
X114300000Y-122428000D03*
%TO.P,P4,3,3*%
%TO.N,unconnected-(P4-Pad3)*%
X110340000Y-122428000D03*
%TD*%
%TO.P,P5,1,1*%
%TO.N,Net-(C18-Pad2)*%
X98956000Y-122428000D03*
%TO.P,P5,2,2*%
%TO.N,AC_HOT*%
X94996000Y-122428000D03*
%TO.P,P5,3,3*%
%TO.N,unconnected-(P5-Pad3)*%
X91036000Y-122428000D03*
%TD*%
%TO.P,P6,1,1*%
%TO.N,Net-(C19-Pad2)*%
X80160000Y-122428000D03*
%TO.P,P6,2,2*%
%TO.N,AC_HOT*%
X76200000Y-122428000D03*
%TO.P,P6,3,3*%
%TO.N,unconnected-(P6-Pad3)*%
X72240000Y-122428000D03*
%TD*%
D24*
%TO.P,P9,1,1*%
%TO.N,Net-(F1-Pad2)*%
X146659600Y-112420400D03*
D25*
%TO.P,P9,2,2*%
%TO.N,AC_NEUTRAL*%
X150619600Y-112420400D03*
%TD*%
D24*
%TO.P,P14,1,1*%
%TO.N,5V*%
X177292000Y-92252800D03*
D26*
%TO.P,P14,2,2*%
%TO.N,PG1*%
X173332000Y-92252800D03*
%TO.P,P14,3,3*%
%TO.N,Earth*%
X169372000Y-92252800D03*
%TD*%
D24*
%TO.P,P15,1,1*%
%TO.N,5V*%
X183540400Y-95453200D03*
D26*
%TO.P,P15,2,2*%
%TO.N,PG2*%
X183540400Y-91493200D03*
%TO.P,P15,3,3*%
%TO.N,Earth*%
X183540400Y-87533200D03*
%TD*%
D24*
%TO.P,P16,1,1*%
%TO.N,Net-(P16-Pad1)*%
X157353000Y-112395000D03*
D25*
%TO.P,P16,2,2*%
%TO.N,Net-(D2-Pad1)*%
X161313000Y-112395000D03*
%TD*%
D27*
%TO.P,R2,1*%
%TO.N,Net-(K1-Pad4)*%
X123314400Y-107020360D03*
%TO.P,R2,2*%
%TO.N,Earth*%
X124894400Y-107020360D03*
%TD*%
%TO.P,R3,1*%
%TO.N,Net-(C16-Pad1)*%
X126088200Y-115082320D03*
%TO.P,R3,2*%
%TO.N,AC_NEUTRAL*%
X124508200Y-115082320D03*
%TD*%
%TO.P,R4,1*%
%TO.N,Net-(K2-Pad4)*%
X118991320Y-101081840D03*
%TO.P,R4,2*%
%TO.N,Earth*%
X120571320Y-101081840D03*
%TD*%
%TO.P,R5,1*%
%TO.N,Net-(K3-Pad4)*%
X119270720Y-80233520D03*
%TO.P,R5,2*%
%TO.N,Earth*%
X120850720Y-80233520D03*
%TD*%
%TO.P,R6,1*%
%TO.N,Net-(C17-Pad1)*%
X107205840Y-92080080D03*
%TO.P,R6,2*%
%TO.N,AC_NEUTRAL*%
X105625840Y-92080080D03*
%TD*%
D28*
%TO.P,R7,1*%
%TO.N,Net-(C18-Pad1)*%
X117589300Y-87017800D03*
%TO.P,R7,2*%
%TO.N,AC_NEUTRAL*%
X117589300Y-88597800D03*
%TD*%
D27*
%TO.P,R8,1*%
%TO.N,Net-(K4-Pad4)*%
X91666000Y-106680000D03*
%TO.P,R8,2*%
%TO.N,Earth*%
X93246000Y-106680000D03*
%TD*%
D28*
%TO.P,R9,1*%
%TO.N,Net-(K5-Pad4)*%
X91948000Y-92174000D03*
%TO.P,R9,2*%
%TO.N,Earth*%
X91948000Y-93754000D03*
%TD*%
D27*
%TO.P,R10,1*%
%TO.N,Net-(K6-Pad4)*%
X93190000Y-78740000D03*
%TO.P,R10,2*%
%TO.N,Earth*%
X94770000Y-78740000D03*
%TD*%
D28*
%TO.P,R11,1*%
%TO.N,Net-(C19-Pad1)*%
X96012000Y-110518000D03*
%TO.P,R11,2*%
%TO.N,AC_NEUTRAL*%
X96012000Y-108938000D03*
%TD*%
%TO.P,R12,1*%
%TO.N,Net-(C20-Pad1)*%
X92456000Y-102842000D03*
%TO.P,R12,2*%
%TO.N,AC_NEUTRAL*%
X92456000Y-104422000D03*
%TD*%
D27*
%TO.P,R13,1*%
%TO.N,Net-(C21-Pad1)*%
X91158000Y-81788000D03*
%TO.P,R13,2*%
%TO.N,AC_NEUTRAL*%
X92738000Y-81788000D03*
%TD*%
%TO.P,R22,1*%
%TO.N,VAC_MON*%
X140109000Y-109283500D03*
%TO.P,R22,2*%
%TO.N,Earth*%
X138529000Y-109283500D03*
%TD*%
%TO.P,R23,1*%
%TO.N,Net-(R23-Pad1)*%
X151056400Y-104140000D03*
%TO.P,R23,2*%
%TO.N,Net-(P16-Pad1)*%
X149476400Y-104140000D03*
%TD*%
%TO.P,R24,1*%
%TO.N,Net-(D3-Pad1)*%
X147073500Y-89979500D03*
%TO.P,R24,2*%
%TO.N,Earth*%
X148653500Y-89979500D03*
%TD*%
%TO.P,R25,1*%
%TO.N,Net-(D4-Pad1)*%
X147038000Y-88074500D03*
%TO.P,R25,2*%
%TO.N,Earth*%
X148618000Y-88074500D03*
%TD*%
D29*
%TO.P,RV1,1*%
%TO.N,Net-(C16-Pad2)*%
X107953820Y-111241840D03*
%TO.P,RV1,2*%
%TO.N,AC_NEUTRAL*%
X99096820Y-111241840D03*
%TD*%
D30*
%TO.P,RV2,1*%
%TO.N,Net-(C17-Pad2)*%
X98628200Y-104420680D03*
%TO.P,RV2,2*%
%TO.N,AC_NEUTRAL*%
X98628200Y-95563680D03*
%TD*%
%TO.P,RV3,1*%
%TO.N,Net-(C18-Pad2)*%
X98402140Y-90920580D03*
%TO.P,RV3,2*%
%TO.N,AC_NEUTRAL*%
X98402140Y-82063580D03*
%TD*%
%TO.P,RV4,1*%
%TO.N,Net-(C19-Pad2)*%
X72224900Y-114156500D03*
%TO.P,RV4,2*%
%TO.N,AC_NEUTRAL*%
X72224900Y-105299500D03*
%TD*%
%TO.P,RV5,1*%
%TO.N,Net-(C20-Pad2)*%
X72382380Y-100948500D03*
%TO.P,RV5,2*%
%TO.N,AC_NEUTRAL*%
X72382380Y-92091500D03*
%TD*%
%TO.P,RV6,1*%
%TO.N,Net-(C21-Pad2)*%
X72438260Y-88248500D03*
%TO.P,RV6,2*%
%TO.N,AC_NEUTRAL*%
X72438260Y-79391500D03*
%TD*%
D31*
%TO.P,U1,1,PIO0_23*%
%TO.N,unconnected-(U1-Pad1)*%
X126994618Y-94629280D03*
%TO.P,U1,2,PIO0_24*%
%TO.N,unconnected-(U1-Pad2)*%
X126994618Y-95129279D03*
%TO.P,U1,3,PIO0_25*%
%TO.N,unconnected-(U1-Pad3)*%
X126994618Y-95629280D03*
%TO.P,U1,4,PIO0_26*%
%TO.N,unconnected-(U1-Pad4)*%
X126994618Y-96129279D03*
%TO.P,U1,5,USB_DP*%
%TO.N,Net-(J1-Pad2)*%
X126994618Y-96629281D03*
%TO.P,U1,6,USB_DM*%
%TO.N,Net-(J2-Pad2)*%
X126994618Y-97129280D03*
%TO.P,U1,7,PIO1_16*%
%TO.N,unconnected-(U1-Pad7)*%
X126994618Y-97629279D03*
%TO.P,U1,8,VDD*%
%TO.N,3.3V*%
X126994618Y-98129280D03*
%TO.P,U1,9,VSS*%
%TO.N,Earth*%
X126994618Y-98629280D03*
%TO.P,U1,10,PIO1_17*%
%TO.N,unconnected-(U1-Pad10)*%
X126994618Y-99129281D03*
%TO.P,U1,11,PIO0_29*%
%TO.N,PG1*%
X126994618Y-99629280D03*
%TO.P,U1,12,PIO0_30*%
%TO.N,PG2*%
X126994618Y-100129279D03*
%TO.P,U1,13,PIO0_31*%
%TO.N,VAC_MON*%
X126994618Y-100629281D03*
%TO.P,U1,14,PIO1_0*%
%TO.N,unconnected-(U1-Pad14)*%
X126994618Y-101129280D03*
%TO.P,U1,15,PIO1_1*%
%TO.N,unconnected-(U1-Pad15)*%
X126994618Y-101629281D03*
%TO.P,U1,16,PIO1_2*%
%TO.N,unconnected-(U1-Pad16)*%
X126994618Y-102129280D03*
D32*
%TO.P,U1,17,PIO1_3*%
%TO.N,unconnected-(U1-Pad17)*%
X128959920Y-104094582D03*
%TO.P,U1,18,PIO1_4*%
%TO.N,unconnected-(U1-Pad18)*%
X129459919Y-104094582D03*
%TO.P,U1,19,PIO1_5*%
%TO.N,unconnected-(U1-Pad19)*%
X129959920Y-104094582D03*
%TO.P,U1,20,VSSA*%
%TO.N,Earth*%
X130459919Y-104094582D03*
%TO.P,U1,21,VREFN*%
X130959921Y-104094582D03*
%TO.P,U1,22,VREFP*%
%TO.N,3.3V*%
X131459920Y-104094582D03*
%TO.P,U1,23,VDDA*%
X131959919Y-104094582D03*
%TO.P,U1,24,VDD*%
X132459920Y-104094582D03*
%TO.P,U1,25,VSS*%
%TO.N,Earth*%
X132959920Y-104094582D03*
%TO.P,U1,26,PIO1_6*%
%TO.N,unconnected-(U1-Pad26)*%
X133459921Y-104094582D03*
%TO.P,U1,27,PIO1_7*%
%TO.N,unconnected-(U1-Pad27)*%
X133959920Y-104094582D03*
%TO.P,U1,28,PIO1_8*%
%TO.N,unconnected-(U1-Pad28)*%
X134459919Y-104094582D03*
%TO.P,U1,29,PIO1_9*%
%TO.N,unconnected-(U1-Pad29)*%
X134959921Y-104094582D03*
%TO.P,U1,30,PIO1_10*%
%TO.N,unconnected-(U1-Pad30)*%
X135459920Y-104094582D03*
%TO.P,U1,31,PIO0_0*%
%TO.N,RX*%
X135959921Y-104094582D03*
%TO.P,U1,32,PIO0_1*%
%TO.N,TX*%
X136459920Y-104094582D03*
D31*
%TO.P,U1,33,RTCXIN*%
%TO.N,Earth*%
X138425222Y-102129280D03*
%TO.P,U1,34,VDD*%
%TO.N,3.3V*%
X138425222Y-101629281D03*
%TO.P,U1,35,RTCXOUT*%
%TO.N,unconnected-(U1-Pad35)*%
X138425222Y-101129280D03*
%TO.P,U1,36,PIO0_2*%
%TO.N,SBV1_EN*%
X138425222Y-100629281D03*
%TO.P,U1,37,PIO0_3*%
%TO.N,SBV1_DIR*%
X138425222Y-100129279D03*
%TO.P,U1,38,PIO0_4*%
%TO.N,ENCD1_A*%
X138425222Y-99629280D03*
%TO.P,U1,39,PIO0_5*%
%TO.N,SBV1_PUL*%
X138425222Y-99129281D03*
%TO.P,U1,40,PIO0_6*%
%TO.N,ENCD1_B*%
X138425222Y-98629280D03*
%TO.P,U1,41,PIO0_7*%
%TO.N,SBV2_PUL*%
X138425222Y-98129280D03*
%TO.P,U1,42,PIO1_11*%
%TO.N,SBV2_EN*%
X138425222Y-97629279D03*
%TO.P,U1,43,PIO0_8*%
%TO.N,SBV2_DIR*%
X138425222Y-97129280D03*
%TO.P,U1,44,PIO0_9*%
%TO.N,unconnected-(U1-Pad44)*%
X138425222Y-96629281D03*
%TO.P,U1,45,PIO0_10*%
%TO.N,ENCD2_A*%
X138425222Y-96129279D03*
%TO.P,U1,46,PIO0_11*%
%TO.N,ENCD2_B*%
X138425222Y-95629280D03*
%TO.P,U1,47,PIO0_12*%
%TO.N,SOL1*%
X138425222Y-95129279D03*
%TO.P,U1,48,PIO0_13*%
%TO.N,SOL2*%
X138425222Y-94629280D03*
D32*
%TO.P,U1,49,PIO0_14*%
%TO.N,SOL3*%
X136459920Y-92663978D03*
%TO.P,U1,50,PIO0_15*%
%TO.N,SWO*%
X135959921Y-92663978D03*
%TO.P,U1,51,PIO1_12*%
%TO.N,SOL5*%
X135459920Y-92663978D03*
%TO.P,U1,52,SWCLK/PIO0_16*%
%TO.N,SWCLK*%
X134959921Y-92663978D03*
%TO.P,U1,53,SWDIO/PIO0_17*%
%TO.N,SWDIO*%
X134459919Y-92663978D03*
%TO.P,U1,54,PIO1_13*%
%TO.N,SOL6*%
X133959920Y-92663978D03*
%TO.P,U1,55,VSS*%
%TO.N,Earth*%
X133459921Y-92663978D03*
%TO.P,U1,56,VDD*%
%TO.N,3.3V*%
X132959920Y-92663978D03*
%TO.P,U1,57,PIO1_14*%
%TO.N,SOL4*%
X132459920Y-92663978D03*
%TO.P,U1,58,PIO0_18*%
%TO.N,unconnected-(U1-Pad58)*%
X131959919Y-92663978D03*
%TO.P,U1,59,PIO0_19*%
%TO.N,unconnected-(U1-Pad59)*%
X131459920Y-92663978D03*
%TO.P,U1,60,PIO0_20*%
%TO.N,unconnected-(U1-Pad60)*%
X130959921Y-92663978D03*
%TO.P,U1,61,PIO0_21*%
%TO.N,unconnected-(U1-Pad61)*%
X130459919Y-92663978D03*
%TO.P,U1,62,PIO1_15*%
%TO.N,EXECPT*%
X129959920Y-92663978D03*
%TO.P,U1,63,PIO0_22*%
%TO.N,STATUS*%
X129459919Y-92663978D03*
%TO.P,U1,64,RESET*%
%TO.N,NRST*%
X128959920Y-92663978D03*
%TD*%
D33*
%TO.P,U2,1,GND*%
%TO.N,Earth*%
X153119500Y-88378000D03*
D34*
%TO.P,U2,2,VOUT*%
%TO.N,3.3V*%
X158919500Y-90678000D03*
D33*
X153119500Y-90678000D03*
%TO.P,U2,3,VIN*%
%TO.N,5V*%
X153119500Y-92978000D03*
%TD*%
D35*
%TO.P,U5,1*%
%TO.N,Net-(R23-Pad1)*%
X154089100Y-108839000D03*
%TO.P,U5,2*%
%TO.N,Net-(D2-Pad2)*%
X154089100Y-106299000D03*
%TO.P,U5,3*%
%TO.N,VAC_MON*%
X144106900Y-106299000D03*
%TO.P,U5,4*%
%TO.N,3.3V*%
X144106900Y-108839000D03*
%TD*%
D36*
%TO.P,C14,1*%
%TO.N,5V*%
X149999700Y-97218500D03*
%TO.P,C14,2*%
%TO.N,Earth*%
X152641300Y-97218500D03*
%TD*%
D37*
%TO.P,C15,1*%
%TO.N,3.3V*%
X163525200Y-88747600D03*
%TO.P,C15,2*%
%TO.N,Earth*%
X163525200Y-91389200D03*
%TD*%
D23*
%TO.P,P8,1,1*%
%TO.N,Net-(C21-Pad2)*%
X61976000Y-95960000D03*
%TO.P,P8,2,2*%
%TO.N,AC_HOT*%
X61976000Y-92000000D03*
%TO.P,P8,3,3*%
%TO.N,unconnected-(P8-Pad3)*%
X61976000Y-88040000D03*
%TD*%
%TO.P,P7,1,1*%
%TO.N,Net-(C20-Pad2)*%
X61976000Y-113688000D03*
%TO.P,P7,2,2*%
%TO.N,AC_HOT*%
X61976000Y-109728000D03*
%TO.P,P7,3,3*%
%TO.N,unconnected-(P7-Pad3)*%
X61976000Y-105768000D03*
%TD*%
D27*
%TO.P,R1,1*%
%TO.N,Earth*%
X158772800Y-80111600D03*
%TO.P,R1,2*%
%TO.N,Net-(D1-Pad1)*%
X160352800Y-80111600D03*
%TD*%
D28*
%TO.P,R15,1*%
%TO.N,ENCD2_A*%
X180086000Y-95730000D03*
%TO.P,R15,2*%
%TO.N,Earth*%
X180086000Y-97310000D03*
%TD*%
%TO.P,R21,1*%
%TO.N,Net-(P13-Pad4)*%
X180213000Y-100556000D03*
%TO.P,R21,2*%
%TO.N,ENCD2_B*%
X180213000Y-102136000D03*
%TD*%
D38*
%TO.P,U4,1,VL*%
%TO.N,3.3V*%
X157169358Y-98791001D03*
%TO.P,U4,2,GND*%
%TO.N,Earth*%
X157169358Y-99441000D03*
%TO.P,U4,3,IOVL*%
%TO.N,SBV2_PUL*%
X157169358Y-100090999D03*
%TO.P,U4,4,IOVCC*%
%TO.N,/Valves/SBV2_PUL5*%
X159391858Y-100090999D03*
%TO.P,U4,5,VCC*%
%TO.N,5V*%
X159391858Y-98791001D03*
%TD*%
D39*
%TO.P,P13,1,+12V*%
%TO.N,5V*%
X185420000Y-103204000D03*
D40*
%TO.P,P13,2,GND*%
%TO.N,Net-(P13-Pad2)*%
X185420000Y-105204000D03*
%TO.P,P13,3,3*%
%TO.N,Earth*%
X185420000Y-107204000D03*
%TO.P,P13,4,4*%
%TO.N,Net-(P13-Pad4)*%
X185420000Y-109204000D03*
%TO.P,P13,5,5*%
%TO.N,Earth*%
X185420000Y-111204000D03*
%TO.P,P13,6,6*%
X185420000Y-113204000D03*
%TD*%
D39*
%TO.P,P12,1,+12V*%
%TO.N,5V*%
X194564000Y-103204000D03*
D40*
%TO.P,P12,2,GND*%
%TO.N,Net-(P12-Pad2)*%
X194564000Y-105204000D03*
%TO.P,P12,3,3*%
%TO.N,5V*%
X194564000Y-107204000D03*
%TO.P,P12,4,4*%
%TO.N,Net-(P12-Pad4)*%
X194564000Y-109204000D03*
%TO.P,P12,5,5*%
%TO.N,/Valves/SBV2_PUL5*%
X194564000Y-111204000D03*
%TO.P,P12,6,6*%
%TO.N,Earth*%
X194564000Y-113204000D03*
%TD*%
D12*
%TO.P,C22,1*%
%TO.N,Earth*%
X150788000Y-100965000D03*
%TO.P,C22,2*%
%TO.N,3.3V*%
X152488000Y-100965000D03*
%TD*%
D39*
%TO.P,P10,1,+12V*%
%TO.N,5V*%
X178228000Y-122682000D03*
D40*
%TO.P,P10,2,GND*%
%TO.N,Net-(P10-Pad2)*%
X176228000Y-122682000D03*
%TO.P,P10,3,3*%
%TO.N,5V*%
X174228000Y-122682000D03*
%TO.P,P10,4,4*%
%TO.N,Net-(P10-Pad4)*%
X172228000Y-122682000D03*
%TO.P,P10,5,5*%
%TO.N,/Valves/SBV1_PUL5*%
X170228000Y-122682000D03*
%TO.P,P10,6,6*%
%TO.N,Earth*%
X168228000Y-122682000D03*
%TD*%
D41*
%TO.P,Q2,1,G*%
%TO.N,SBV2_DIR*%
X160755990Y-96266000D03*
%TO.P,Q2,2,S*%
%TO.N,Earth*%
X160755990Y-96774000D03*
%TO.P,Q2,3,D*%
%TO.N,Net-(P12-Pad2)*%
X160755990Y-97282000D03*
%TO.P,Q2,4,G*%
%TO.N,SBV2_EN*%
X162559390Y-97282000D03*
%TO.P,Q2,5,S*%
%TO.N,Earth*%
X162559390Y-96774000D03*
%TO.P,Q2,6,D*%
%TO.N,Net-(P12-Pad4)*%
X162559390Y-96266000D03*
%TD*%
D39*
%TO.P,P11,1,+12V*%
%TO.N,5V*%
X195246000Y-122682000D03*
D40*
%TO.P,P11,2,GND*%
%TO.N,Net-(P11-Pad2)*%
X193246000Y-122682000D03*
%TO.P,P11,3,3*%
%TO.N,Earth*%
X191246000Y-122682000D03*
%TO.P,P11,4,4*%
%TO.N,Net-(P11-Pad4)*%
X189246000Y-122682000D03*
%TO.P,P11,5,5*%
%TO.N,Earth*%
X187246000Y-122682000D03*
%TO.P,P11,6,6*%
X185246000Y-122682000D03*
%TD*%
D41*
%TO.P,Q1,1,G*%
%TO.N,SBV1_DIR*%
X163334700Y-104851200D03*
%TO.P,Q1,2,S*%
%TO.N,Earth*%
X163334700Y-105359200D03*
%TO.P,Q1,3,D*%
%TO.N,Net-(P10-Pad2)*%
X163334700Y-105867200D03*
%TO.P,Q1,4,G*%
%TO.N,SBV1_EN*%
X165138100Y-105867200D03*
%TO.P,Q1,5,S*%
%TO.N,Earth*%
X165138100Y-105359200D03*
%TO.P,Q1,6,D*%
%TO.N,Net-(P10-Pad4)*%
X165138100Y-104851200D03*
%TD*%
D12*
%TO.P,C25,1*%
%TO.N,Earth*%
X163156000Y-99060000D03*
%TO.P,C25,2*%
%TO.N,5V*%
X161456000Y-99060000D03*
%TD*%
%TO.P,C24,1*%
%TO.N,Earth*%
X159473000Y-103378000D03*
%TO.P,C24,2*%
%TO.N,5V*%
X157773000Y-103378000D03*
%TD*%
D28*
%TO.P,R20,1*%
%TO.N,ENCD2_A*%
X178308000Y-95730000D03*
%TO.P,R20,2*%
%TO.N,Net-(P13-Pad2)*%
X178308000Y-97310000D03*
%TD*%
%TO.P,R14,1*%
%TO.N,ENCD1_A*%
X175666400Y-104112000D03*
%TO.P,R14,2*%
%TO.N,Earth*%
X175666400Y-105692000D03*
%TD*%
D12*
%TO.P,C23,1*%
%TO.N,Earth*%
X159473000Y-101727000D03*
%TO.P,C23,2*%
%TO.N,3.3V*%
X157773000Y-101727000D03*
%TD*%
D28*
%TO.P,R18,1*%
%TO.N,ENCD1_A*%
X173634400Y-104112000D03*
%TO.P,R18,2*%
%TO.N,Net-(P11-Pad2)*%
X173634400Y-105692000D03*
%TD*%
%TO.P,R19,1*%
%TO.N,Net-(P11-Pad4)*%
X171133800Y-99725600D03*
%TO.P,R19,2*%
%TO.N,ENCD1_B*%
X171133800Y-98145600D03*
%TD*%
%TO.P,R17,1*%
%TO.N,ENCD2_B*%
X178308000Y-102136000D03*
%TO.P,R17,2*%
%TO.N,Earth*%
X178308000Y-100556000D03*
%TD*%
D38*
%TO.P,U3,1,VL*%
%TO.N,3.3V*%
X153574750Y-102728001D03*
%TO.P,U3,2,GND*%
%TO.N,Earth*%
X153574750Y-103378000D03*
%TO.P,U3,3,IOVL*%
%TO.N,SBV1_PUL*%
X153574750Y-104027999D03*
%TO.P,U3,4,IOVCC*%
%TO.N,/Valves/SBV1_PUL5*%
X155797250Y-104027999D03*
%TO.P,U3,5,VCC*%
%TO.N,5V*%
X155797250Y-102728001D03*
%TD*%
D28*
%TO.P,R16,1*%
%TO.N,ENCD1_B*%
X169279600Y-98145600D03*
%TO.P,R16,2*%
%TO.N,Earth*%
X169279600Y-99725600D03*
%TD*%
D42*
%TO.N,Earth*%
X132080000Y-94361000D03*
%TO.N,SOL4*%
X130302000Y-94488000D03*
%TO.N,Net-(P10-Pad2)*%
X170942000Y-118110000D03*
%TO.N,Net-(P11-Pad4)*%
X179019200Y-116789200D03*
%TO.N,SOL5*%
X118478300Y-104457500D03*
%TO.N,Earth*%
X95504000Y-106680000D03*
X132892800Y-109575600D03*
%TO.N,3.3V*%
X130860800Y-105349040D03*
X131919980Y-105503980D03*
%TO.N,VAC_MON*%
X143065500Y-111061500D03*
%TO.N,3.3V*%
X143662400Y-110134400D03*
%TO.N,Earth*%
X142430500Y-105219500D03*
X130124200Y-88447880D03*
%TO.N,SOL6*%
X130556000Y-95504000D03*
%TO.N,SOL5*%
X134287700Y-94805500D03*
%TO.N,VAC_MON*%
X130175000Y-99695000D03*
%TO.N,SBV2_DIR*%
X146304000Y-95504000D03*
%TO.N,SBV2_EN*%
X144399000Y-96520000D03*
%TO.N,Earth*%
X154686000Y-104140000D03*
%TO.N,SBV2_PUL*%
X154686000Y-99568000D03*
%TO.N,Earth*%
X155448000Y-98806000D03*
%TO.N,3.3V*%
X158115000Y-98983800D03*
%TO.N,SOL3*%
X129932120Y-90539880D03*
%TO.N,Net-(J2-Pad2)*%
X128546860Y-97304860D03*
%TO.N,Earth*%
X96012000Y-79248000D03*
%TO.N,SBV1_DIR*%
X147828000Y-103378000D03*
%TO.N,ENCD1_A*%
X146913600Y-102057200D03*
%TO.N,ENCD1_B*%
X165862000Y-99669600D03*
%TO.N,SBV2_EN*%
X163576000Y-97282000D03*
%TO.N,Net-(P12-Pad2)*%
X168097200Y-96977200D03*
%TO.N,3.3V*%
X129689944Y-97177944D03*
%TO.N,SOL3*%
X137706100Y-88861900D03*
%TO.N,PG2*%
X138633200Y-90170000D03*
X144272000Y-90576400D03*
%TO.N,ENCD2_B*%
X147878800Y-93268800D03*
%TO.N,ENCD2_A*%
X148336000Y-94234000D03*
%TO.N,PG1*%
X147421600Y-79451200D03*
%TO.N,EXECPT*%
X138684000Y-87630000D03*
%TO.N,3.3V*%
X132283200Y-91236800D03*
%TO.N,EXECPT*%
X129959920Y-91351920D03*
%TO.N,NRST*%
X128955800Y-90932000D03*
%TO.N,Net-(P12-Pad4)*%
X189128400Y-99669600D03*
%TO.N,Net-(P12-Pad2)*%
X188112400Y-99771200D03*
%TO.N,Earth*%
X176834800Y-100533200D03*
%TO.N,Net-(P12-Pad4)*%
X173177200Y-97739200D03*
%TO.N,ENCD2_B*%
X174752000Y-96774000D03*
%TO.N,ENCD2_A*%
X172720000Y-95707200D03*
%TO.N,3.3V*%
X154686000Y-102743000D03*
%TO.N,SBV1_EN*%
X147828000Y-105968800D03*
%TO.N,ENCD1_A*%
X171856400Y-103936800D03*
%TO.N,/Valves/SBV2_PUL5*%
X169773600Y-106883200D03*
%TO.N,SBV1_EN*%
X164185600Y-106680000D03*
%TO.N,Earth*%
X164388800Y-105359200D03*
%TO.N,SBV1_DIR*%
X161442400Y-104851200D03*
%TO.N,Earth*%
X159893000Y-104394000D03*
X163195000Y-100330000D03*
X167778400Y-99725600D03*
X161798000Y-96774000D03*
%TO.N,SBV2_DIR*%
X159308800Y-96621600D03*
%TO.N,SBV2_PUL*%
X143002000Y-97282000D03*
%TO.N,ENCD1_B*%
X142341600Y-98247200D03*
%TO.N,Earth*%
X149098000Y-100330000D03*
X143911320Y-101909880D03*
%TO.N,3.3V*%
X139954000Y-101600000D03*
%TO.N,Earth*%
X139801600Y-102407720D03*
%TO.N,3.3V*%
X139382500Y-104076500D03*
%TO.N,TX*%
X137922000Y-104648000D03*
%TO.N,RX*%
X136906000Y-105537000D03*
%TO.N,Earth*%
X132959920Y-102830440D03*
X130459919Y-102727321D03*
%TO.N,PG1*%
X132181600Y-97637600D03*
%TO.N,Net-(J1-Pad2)*%
X128701800Y-96453960D03*
%TO.N,PG2*%
X125476000Y-100228400D03*
%TO.N,Earth*%
X125476000Y-98958400D03*
X121008140Y-98656140D03*
%TO.N,Net-(J2-Pad2)*%
X120314720Y-98155760D03*
%TO.N,3.3V*%
X125404880Y-95448120D03*
%TO.N,Earth*%
X120954800Y-94691200D03*
%TO.N,Net-(J1-Pad2)*%
X120462040Y-93756480D03*
%TO.N,Earth*%
X93698000Y-93754000D03*
%TO.N,SOL6*%
X95059500Y-86423500D03*
%TO.N,SOL4*%
X91186000Y-84582000D03*
D43*
%TO.N,Earth*%
X155498800Y-86614000D03*
%TO.N,3.3V*%
X159512000Y-87172800D03*
%TO.N,Net-(C16-Pad2)*%
X115869720Y-111551720D03*
X123190000Y-109387640D03*
%TO.N,Net-(C17-Pad2)*%
X107188000Y-101092000D03*
X118260000Y-118133000D03*
D44*
%TO.N,Net-(C18-Pad2)*%
X117436900Y-83451700D03*
X108988860Y-88646000D03*
X98933000Y-87503000D03*
D43*
X98933000Y-115951000D03*
D44*
%TO.N,Net-(C20-Pad2)*%
X90424000Y-96012000D03*
X83312000Y-98094800D03*
D43*
%TO.N,AC_NEUTRAL*%
X95377000Y-90043000D03*
X122946160Y-112836960D03*
D44*
X72237600Y-109829600D03*
X116531390Y-91893390D03*
D43*
X108651040Y-97254060D03*
D44*
X72390000Y-96113600D03*
X72390000Y-83185000D03*
D43*
X117734080Y-113507520D03*
%TD*%
D45*
%TO.N,Earth*%
X132715000Y-94361000D02*
X132080000Y-94361000D01*
D46*
%TO.N,SOL4*%
X130302000Y-94488000D02*
X130302000Y-93853000D01*
X130302000Y-93853000D02*
X130449209Y-93705791D01*
X130449209Y-93705791D02*
X131492609Y-93705791D01*
D45*
%TO.N,Earth*%
X133459921Y-92663978D02*
X133459921Y-93616079D01*
X133459921Y-93616079D02*
X132715000Y-94361000D01*
D46*
%TO.N,3.3V*%
X131919980Y-105503980D02*
X131033520Y-106390440D01*
%TO.N,Earth*%
X142430500Y-105219500D02*
X142875000Y-104775000D01*
%TO.N,3.3V*%
X127000000Y-86563200D02*
X127000000Y-85852000D01*
X130606800Y-90170000D02*
X127000000Y-86563200D01*
X130606800Y-90170000D02*
X131419600Y-90170000D01*
%TO.N,SOL6*%
X133959920Y-92663978D02*
X133959920Y-94027573D01*
X132461000Y-95504000D02*
X130556000Y-95504000D01*
X133959920Y-94027573D02*
X132927993Y-95059500D01*
X132905500Y-95059500D02*
X132461000Y-95504000D01*
X132927993Y-95059500D02*
X132905500Y-95059500D01*
%TO.N,STATUS*%
X129459919Y-92663978D02*
X129459919Y-95677919D01*
X133906941Y-96266000D02*
X136065941Y-94107000D01*
X136065941Y-94107000D02*
X137033000Y-94107000D01*
X129459919Y-95677919D02*
X130048000Y-96266000D01*
X130048000Y-96266000D02*
X133906941Y-96266000D01*
X137033000Y-94107000D02*
X138557000Y-92583000D01*
X138557000Y-92583000D02*
X142684500Y-92583000D01*
D45*
%TO.N,SOL4*%
X132419430Y-93703791D02*
X131492609Y-93703791D01*
X132419430Y-92704468D02*
X132419430Y-93703791D01*
X132459920Y-92663978D02*
X132419430Y-92704468D01*
D46*
%TO.N,VAC_MON*%
X129781300Y-100088700D02*
X130175000Y-99695000D01*
%TO.N,SBV2_EN*%
X141859000Y-96520000D02*
X144399000Y-96520000D01*
X140767130Y-97637270D02*
X140767130Y-97611870D01*
X140767130Y-97611870D02*
X141859000Y-96520000D01*
%TO.N,SBV2_PUL*%
X154686000Y-99568000D02*
X155194000Y-100076000D01*
X155194000Y-100076000D02*
X155829000Y-100076000D01*
%TO.N,Earth*%
X155702000Y-98806000D02*
X155448000Y-98806000D01*
X156083000Y-99187000D02*
X155702000Y-98806000D01*
%TO.N,5V*%
X153543000Y-99949000D02*
X153543000Y-99441000D01*
X153543000Y-99441000D02*
X154813000Y-98171000D01*
X154813000Y-98171000D02*
X157480000Y-98171000D01*
X157480000Y-98171000D02*
X157734000Y-97917000D01*
X157734000Y-97917000D02*
X158750000Y-97917000D01*
X159391850Y-98558850D02*
X159391850Y-98791001D01*
X158750000Y-97917000D02*
X159391850Y-98558850D01*
%TO.N,Earth*%
X164388800Y-105359200D02*
X165100000Y-105359200D01*
X161798000Y-96774000D02*
X162458400Y-96774000D01*
%TO.N,3.3V*%
X139954000Y-101600000D02*
X141055161Y-101629281D01*
X139382500Y-104076500D02*
X139446000Y-104013000D01*
%TO.N,Earth*%
X121008140Y-98656140D02*
X121391680Y-98272600D01*
X130459919Y-102747641D02*
X130459919Y-102727321D01*
X120992900Y-98671380D02*
X121008140Y-98656140D01*
X143901160Y-101909880D02*
X143911320Y-101909880D01*
X142367000Y-105283000D02*
X142430500Y-105219500D01*
X148158200Y-86487000D02*
X148209000Y-86487000D01*
X156667200Y-80111600D02*
X158851600Y-80111600D01*
X122741320Y-96448880D02*
X122741320Y-96437080D01*
X154686000Y-103505000D02*
X154686000Y-104140000D01*
X145224500Y-86487000D02*
X148158200Y-86487000D01*
X142856320Y-103657400D02*
X142856320Y-101942000D01*
X161899600Y-78740000D02*
X163372800Y-80213200D01*
X130959921Y-102842121D02*
X130845121Y-102727321D01*
X130459919Y-104094582D02*
X130454400Y-102768400D01*
X127767080Y-108132880D02*
X129082800Y-108132880D01*
X120850720Y-80233520D02*
X126207520Y-80233520D01*
X157169350Y-99441000D02*
X156337000Y-99441000D01*
X159473000Y-103251000D02*
X159473000Y-103974000D01*
X124894400Y-107020360D02*
X126654560Y-107020360D01*
X138425222Y-102129280D02*
X139497760Y-102129280D01*
X128252220Y-82278220D02*
X128252220Y-83126580D01*
X128252220Y-84650580D02*
X128236980Y-84650580D01*
X140613500Y-105791000D02*
X141859000Y-105791000D01*
X138480800Y-109321600D02*
X138531600Y-109270800D01*
X131424680Y-88466560D02*
X130124200Y-88447880D01*
X126994618Y-98629280D02*
X125810200Y-98629280D01*
X122741320Y-96437080D02*
X122488960Y-96184720D01*
X131424680Y-88466560D02*
X133256920Y-88466560D01*
D47*
X166878000Y-92202000D02*
X169164000Y-92202000D01*
D46*
X122710840Y-98298000D02*
X122710840Y-96501320D01*
D47*
X163830000Y-93980000D02*
X163830000Y-91440000D01*
D46*
X130959921Y-104094582D02*
X130959921Y-102842121D01*
X94770000Y-78740000D02*
X95504000Y-78740000D01*
X180820000Y-97310000D02*
X181457600Y-96672400D01*
X161696400Y-96774000D02*
X161798000Y-96774000D01*
D45*
X137099040Y-84546440D02*
X138262360Y-84546440D01*
D47*
X159258000Y-94996000D02*
X162814000Y-94996000D01*
X153734800Y-88378000D02*
X155498800Y-86614000D01*
D46*
X130454400Y-102768400D02*
X130459919Y-102747641D01*
X178308000Y-100556000D02*
X176834800Y-100533200D01*
X120571320Y-99092960D02*
X120992900Y-98671380D01*
X132959920Y-104094582D02*
X132959920Y-102830440D01*
D45*
X129423160Y-84546440D02*
X129489200Y-84480400D01*
D46*
X122167280Y-94701360D02*
X121066560Y-94696280D01*
X178183600Y-105692000D02*
X183591200Y-111099600D01*
D47*
X152654000Y-97282000D02*
X156972000Y-97282000D01*
D46*
X134691120Y-108215800D02*
X136409800Y-108215800D01*
X118973600Y-94696280D02*
X120954800Y-94691200D01*
X128209040Y-84546440D02*
X129555240Y-84546440D01*
X129555240Y-84546440D02*
X130845560Y-84546440D01*
X159473000Y-103315400D02*
X159461200Y-103327200D01*
X126347200Y-87129600D02*
X124714000Y-85496400D01*
X124714000Y-85496400D02*
X124714000Y-83667600D01*
X162458400Y-96774000D02*
X162560000Y-96774000D01*
X148653500Y-86931500D02*
X148653500Y-88074500D01*
X134604760Y-84546440D02*
X136006840Y-84546440D01*
X141033500Y-85852000D02*
X144589500Y-85852000D01*
X132852160Y-108190400D02*
X134545440Y-108190400D01*
X163156000Y-99060000D02*
X163195000Y-100330000D01*
X158772800Y-80111600D02*
X158772800Y-79428400D01*
X156337000Y-99441000D02*
X156083000Y-99187000D01*
X126207520Y-80233520D02*
X128252220Y-82278220D01*
X125255020Y-83126580D02*
X128252220Y-83126580D01*
X95504000Y-78740000D02*
X96012000Y-79248000D01*
X159461200Y-78740000D02*
X161899600Y-78740000D01*
X130845121Y-102727321D02*
X130459919Y-102727321D01*
D47*
X162814000Y-94996000D02*
X163830000Y-93980000D01*
D46*
X122488960Y-96184720D02*
X122407680Y-96103440D01*
X130997960Y-108193840D02*
X132730240Y-108193840D01*
X148653500Y-89979500D02*
X148653500Y-87947500D01*
X181914800Y-87528400D02*
X183540400Y-87528400D01*
X164185600Y-105359200D02*
X164388800Y-105359200D01*
X118805960Y-94528640D02*
X118973600Y-94696280D01*
X175666400Y-105692000D02*
X178183600Y-105692000D01*
X132852160Y-108190400D02*
X132892800Y-109575600D01*
X139497760Y-102129280D02*
X139801600Y-102407720D01*
X181457600Y-87985600D02*
X181914800Y-87528400D01*
X136409800Y-108215800D02*
X137515600Y-109321600D01*
X158772800Y-79428400D02*
X159461200Y-78740000D01*
X165100000Y-105359200D02*
X165150800Y-105359200D01*
X150788000Y-100965000D02*
X149733000Y-100965000D01*
X153574750Y-103378000D02*
X154559000Y-103378000D01*
X148209000Y-86487000D02*
X148653500Y-86931500D01*
D45*
X138262360Y-84546440D02*
X138277600Y-84531200D01*
D46*
X128252220Y-83126580D02*
X128252220Y-84650580D01*
X126654560Y-107020360D02*
X127767080Y-108132880D01*
X132044440Y-84546440D02*
X133283960Y-84546440D01*
X163334700Y-105359200D02*
X164185600Y-105359200D01*
X129082800Y-108200560D02*
X131126600Y-108200560D01*
X91948000Y-93754000D02*
X93698000Y-93754000D01*
X169279600Y-99725600D02*
X167778400Y-99725600D01*
X160756000Y-96774000D02*
X161696400Y-96774000D01*
X154559000Y-103378000D02*
X154686000Y-103505000D01*
X183591200Y-111099600D02*
X185420000Y-111099600D01*
D47*
X153119500Y-88378000D02*
X153734800Y-88378000D01*
D46*
X122407680Y-96103440D02*
X122407680Y-94609920D01*
X133283960Y-84546440D02*
X134604760Y-84546440D01*
D47*
X166065200Y-91389200D02*
X166878000Y-92202000D01*
D46*
X136006840Y-84546440D02*
X137093960Y-84546440D01*
X141859000Y-105791000D02*
X142367000Y-105283000D01*
X144589500Y-85852000D02*
X145224500Y-86487000D01*
X130845560Y-84546440D02*
X132044440Y-84546440D01*
X137515600Y-109321600D02*
X138480800Y-109321600D01*
X142875000Y-104775000D02*
X142875000Y-103695500D01*
X142886800Y-101909880D02*
X143901160Y-101909880D01*
X181457600Y-96672400D02*
X181457600Y-87985600D01*
X93246000Y-106680000D02*
X95504000Y-106680000D01*
X139727940Y-84546440D02*
X141033500Y-85852000D01*
X122710840Y-98298000D02*
X121391680Y-98272600D01*
X124714000Y-83667600D02*
X125255020Y-83126580D01*
X125810200Y-98629280D02*
X125476000Y-98958400D01*
X155498800Y-86614000D02*
X155498800Y-81280000D01*
X149733000Y-100965000D02*
X149098000Y-100330000D01*
D47*
X156972000Y-97282000D02*
X159258000Y-94996000D01*
D46*
X155498800Y-81280000D02*
X156667200Y-80111600D01*
X180086000Y-97310000D02*
X180820000Y-97310000D01*
X126347200Y-87889281D02*
X126347200Y-87129600D01*
X131126600Y-108200560D02*
X131107920Y-108219240D01*
D47*
X163525200Y-91389200D02*
X166065200Y-91389200D01*
D46*
X159473000Y-101727000D02*
X159473000Y-103315400D01*
X120571320Y-101081840D02*
X120571320Y-99092960D01*
X138369040Y-84546440D02*
X139727940Y-84546440D01*
X159473000Y-103974000D02*
X159893000Y-104394000D01*
X118805960Y-96467560D02*
X118805960Y-94528640D01*
%TO.N,NRST*%
X128950720Y-90932000D02*
X128930400Y-90932000D01*
X128930400Y-90932000D02*
X126746000Y-90932000D01*
X128959920Y-92663978D02*
X128955800Y-90932000D01*
%TO.N,3.3V*%
X132621020Y-105407460D02*
X132567680Y-105354120D01*
X130860800Y-105349040D02*
X129392680Y-105349040D01*
X131930140Y-105493820D02*
X131919980Y-105503980D01*
X139878999Y-101629281D02*
X139904399Y-101629281D01*
X132961380Y-91229180D02*
X133238240Y-90952320D01*
X125552200Y-98120200D02*
X124501720Y-98129280D01*
X131089400Y-105349040D02*
X130860800Y-105349040D01*
X131937760Y-105486200D02*
X131930140Y-105493820D01*
X139904399Y-101629281D02*
X139954000Y-101600000D01*
X139446000Y-104013000D02*
X139890500Y-103568500D01*
X131959919Y-104094582D02*
X132349542Y-104094582D01*
D47*
X161798000Y-87122000D02*
X161036000Y-87122000D01*
D45*
X123867280Y-94701360D02*
X124658120Y-94701360D01*
D46*
X132567680Y-105354120D02*
X132450840Y-105237280D01*
D47*
X157327600Y-87172800D02*
X159512000Y-87172800D01*
X161036000Y-87122000D02*
X159562800Y-87122000D01*
D46*
X144106900Y-109689900D02*
X143662400Y-110134400D01*
X153670000Y-102616000D02*
X153670000Y-102743000D01*
X129392680Y-105349040D02*
X129032000Y-105709720D01*
X124441320Y-96448880D02*
X124439680Y-96448880D01*
X157773000Y-101727000D02*
X157773000Y-100799000D01*
D47*
X163423600Y-88747600D02*
X161798000Y-87122000D01*
D46*
X124211080Y-96220280D02*
X124211080Y-94757240D01*
X132450840Y-105237280D02*
X132450840Y-104465120D01*
X157773000Y-100799000D02*
X158115000Y-100457000D01*
X161036000Y-86156800D02*
X161036000Y-87122000D01*
X138425222Y-101629281D02*
X139878999Y-101629281D01*
X131160520Y-105349040D02*
X131089400Y-105349040D01*
D47*
X161290000Y-90678000D02*
X163068000Y-88900000D01*
D46*
X132852160Y-106490400D02*
X132852160Y-105638600D01*
X157327600Y-82499200D02*
X157327600Y-84480400D01*
D45*
X124658120Y-94701360D02*
X125404880Y-95448120D01*
D46*
X131459920Y-105049640D02*
X131160520Y-105349040D01*
X132852160Y-105638600D02*
X132621020Y-105407460D01*
D47*
X159562800Y-87122000D02*
X159512000Y-87172800D01*
D46*
X153574750Y-102728001D02*
X154686000Y-102743000D01*
D47*
X153119500Y-90678000D02*
X154635200Y-90678000D01*
D46*
X138913500Y-104545500D02*
X139382500Y-104076500D01*
D47*
X158919500Y-90678000D02*
X161290000Y-90678000D01*
D46*
X144106900Y-108839000D02*
X144106900Y-109689900D01*
X131424680Y-90166560D02*
X133119760Y-90166560D01*
X126994618Y-98129280D02*
X125552200Y-98120200D01*
X153162000Y-100965000D02*
X153670000Y-101473000D01*
X129032000Y-105709720D02*
X129032000Y-106588560D01*
X158953200Y-85598000D02*
X159512000Y-86156800D01*
X124410840Y-98298000D02*
X124410840Y-96359080D01*
X132959920Y-91230640D02*
X132961380Y-91229180D01*
X164896800Y-82296000D02*
X161036000Y-86156800D01*
X131459920Y-104094582D02*
X132018738Y-104094582D01*
X132852160Y-106490400D02*
X134545440Y-106490400D01*
X153670000Y-101473000D02*
X153670000Y-102616000D01*
X128641920Y-98129280D02*
X129689944Y-97177944D01*
X132959920Y-91230640D02*
X132283200Y-91236800D01*
X132349542Y-104094582D02*
X132349844Y-104094280D01*
X132959920Y-92663978D02*
X132959920Y-91230640D01*
D47*
X156108400Y-89204800D02*
X156108400Y-88392000D01*
X154635200Y-90678000D02*
X156108400Y-89204800D01*
D46*
X124439680Y-96448880D02*
X124211080Y-96220280D01*
X131459920Y-104094582D02*
X131459920Y-105049640D01*
X138913500Y-105791000D02*
X138913500Y-104545500D01*
X159512000Y-86156800D02*
X159512000Y-87172800D01*
D47*
X156108400Y-88392000D02*
X157327600Y-87172800D01*
D46*
X130997960Y-106493840D02*
X132865600Y-106493840D01*
X141156320Y-103657400D02*
X141156320Y-101982640D01*
X131959919Y-105464041D02*
X131937760Y-105486200D01*
X152488000Y-100965000D02*
X153162000Y-100965000D01*
X126994618Y-98129280D02*
X128641920Y-98129280D01*
X157327600Y-84480400D02*
X158445200Y-85598000D01*
X133238240Y-90952320D02*
X133238240Y-90154760D01*
X139890500Y-103568500D02*
X141097000Y-103568500D01*
X164896800Y-80213200D02*
X164896800Y-82296000D01*
X131959919Y-104094582D02*
X131959919Y-105464041D01*
X158115000Y-98933000D02*
X157937200Y-98755200D01*
X158115000Y-98983800D02*
X158115000Y-98933000D01*
X157937200Y-98755200D02*
X157378400Y-98755200D01*
X158115000Y-100457000D02*
X158115000Y-98983800D01*
X158445200Y-85598000D02*
X158953200Y-85598000D01*
X129082800Y-106500560D02*
X130923400Y-106500560D01*
D47*
%TO.N,5V*%
X150114000Y-95504000D02*
X150114000Y-97028000D01*
X153060400Y-94030800D02*
X153060400Y-93065600D01*
D46*
X155797250Y-101949250D02*
X155797250Y-101695250D01*
D47*
X152298400Y-94792800D02*
X150825200Y-94792800D01*
X152298400Y-94792800D02*
X153060400Y-94030800D01*
D46*
X161456000Y-99060000D02*
X159893000Y-99060000D01*
X157211001Y-102728001D02*
X157861000Y-103378000D01*
X153543000Y-99949000D02*
X151003000Y-99949000D01*
D47*
X150825200Y-94792800D02*
X150114000Y-95504000D01*
X150672800Y-87325200D02*
X150672800Y-92456000D01*
D46*
X150114000Y-99060000D02*
X150114000Y-97282000D01*
X155797250Y-102728001D02*
X157211001Y-102728001D01*
X154051000Y-99949000D02*
X153543000Y-99949000D01*
D47*
X151231600Y-93014800D02*
X153162000Y-93014800D01*
X150672800Y-92456000D02*
X151231600Y-93014800D01*
D46*
X151003000Y-99949000D02*
X150114000Y-99060000D01*
D47*
X153012400Y-84985600D02*
X150672800Y-87325200D01*
D46*
X155797250Y-102728001D02*
X155797250Y-101949250D01*
D47*
X153012400Y-83781600D02*
X153012400Y-84985600D01*
D46*
X155797250Y-101695250D02*
X154051000Y-99949000D01*
X159893000Y-99060000D02*
X159639000Y-98806000D01*
D48*
%TO.N,Net-(C16-Pad1)*%
X126088200Y-115082320D02*
X126088200Y-112539840D01*
X126088200Y-112539840D02*
X126034800Y-112486440D01*
%TO.N,Net-(C16-Pad2)*%
X110921800Y-111998760D02*
X107944920Y-111998760D01*
X115869720Y-113863120D02*
X114457480Y-115275360D01*
X125811280Y-109383839D02*
X123190000Y-109387640D01*
X129286000Y-110998000D02*
X127889000Y-109601000D01*
X114457480Y-115275360D02*
X112237520Y-115275360D01*
X137564000Y-117371000D02*
X136144000Y-115951000D01*
X127889000Y-109601000D02*
X125984000Y-109601000D01*
X136144000Y-111633000D02*
X135509000Y-110998000D01*
X112151520Y-113228480D02*
X110921800Y-111998760D01*
X115869720Y-111551720D02*
X115869720Y-113863120D01*
X136144000Y-115951000D02*
X136144000Y-111633000D01*
X135509000Y-110998000D02*
X129286000Y-110998000D01*
X137564000Y-122428000D02*
X137564000Y-117371000D01*
X112151520Y-115260120D02*
X112151520Y-113228480D01*
%TO.N,Net-(C17-Pad2)*%
X102119420Y-104420680D02*
X102872540Y-103667560D01*
X106116480Y-103687880D02*
X108582460Y-103687880D01*
X110230920Y-102039420D02*
X110230920Y-92516960D01*
X108582460Y-103687880D02*
X110230920Y-102039420D01*
X98628200Y-104420680D02*
X102119420Y-104420680D01*
X106116480Y-102163520D02*
X107188000Y-101092000D01*
X118260000Y-122428000D02*
X118260000Y-118133000D01*
X102872540Y-103667560D02*
X106037380Y-103667560D01*
X106116480Y-103687880D02*
X106116480Y-102163520D01*
%TO.N,Net-(C17-Pad1)*%
X113282721Y-91116141D02*
X112750600Y-90584020D01*
X108602780Y-90584020D02*
X107241340Y-91945460D01*
X112750600Y-90584020D02*
X108602780Y-90584020D01*
X113282721Y-92453460D02*
X113282721Y-91116141D01*
%TO.N,Net-(C18-Pad1)*%
X118219220Y-85496400D02*
X120754140Y-85496400D01*
X117589300Y-87017800D02*
X117589300Y-86126320D01*
X117589300Y-86126320D02*
X118219220Y-85496400D01*
%TO.N,Net-(C18-Pad2)*%
X120446800Y-82345539D02*
X118543061Y-82345539D01*
X98956000Y-122428000D02*
X98933000Y-115951000D01*
X108988860Y-88646000D02*
X106103420Y-88646000D01*
X98402140Y-90920580D02*
X101829860Y-90920580D01*
X103837740Y-88912700D02*
X105892600Y-88912700D01*
X106103420Y-88646000D02*
X106060240Y-88689180D01*
X118543061Y-82345539D02*
X117436900Y-83451700D01*
X101829860Y-90920580D02*
X103837740Y-88912700D01*
X98933000Y-87503000D02*
X98933000Y-90551000D01*
%TO.N,Net-(C19-Pad2)*%
X72224900Y-114156500D02*
X76597500Y-114156500D01*
X85344000Y-113792000D02*
X79756000Y-113792000D01*
X80160000Y-122428000D02*
X80160000Y-113561000D01*
X80160000Y-113561000D02*
X80137000Y-113538000D01*
X77343000Y-113411000D02*
X80264000Y-113411000D01*
X92452199Y-114303801D02*
X91440000Y-115316000D01*
X91440000Y-115316000D02*
X86868000Y-115316000D01*
X76597500Y-114156500D02*
X77343000Y-113411000D01*
X86868000Y-115316000D02*
X85344000Y-113792000D01*
X92452199Y-113792000D02*
X92452199Y-114303801D01*
%TO.N,Net-(C19-Pad1)*%
X95507801Y-113792000D02*
X95507801Y-112264199D01*
X96012000Y-111760000D02*
X96012000Y-110744000D01*
X95507801Y-112264199D02*
X96012000Y-111760000D01*
%TO.N,Net-(C20-Pad2)*%
X82296000Y-100584000D02*
X80264000Y-100584000D01*
X65128000Y-113688000D02*
X67310000Y-111506000D01*
X67310000Y-111506000D02*
X67310000Y-102743000D01*
X69215000Y-100838000D02*
X72771000Y-100838000D01*
X67310000Y-102743000D02*
X69215000Y-100838000D01*
X83312000Y-98094800D02*
X83312000Y-99568000D01*
X83312000Y-99568000D02*
X82296000Y-100584000D01*
X92456000Y-96008199D02*
X90424000Y-96012000D01*
X61976000Y-113688000D02*
X65128000Y-113688000D01*
X72382380Y-100948500D02*
X80120500Y-100948500D01*
%TO.N,Net-(C20-Pad1)*%
X92456000Y-102842000D02*
X92456000Y-99060000D01*
%TO.N,Net-(C21-Pad1)*%
X90932000Y-82804000D02*
X90932000Y-81788000D01*
X91440000Y-83312000D02*
X90932000Y-82804000D01*
X92456000Y-85848199D02*
X92456000Y-84328000D01*
X92456000Y-84328000D02*
X91440000Y-83312000D01*
%TO.N,Net-(C21-Pad2)*%
X69671000Y-88265000D02*
X72009000Y-88265000D01*
X77724000Y-86868000D02*
X79756000Y-86868000D01*
X72438260Y-88248500D02*
X76343500Y-88248500D01*
X61976000Y-95960000D02*
X69671000Y-88265000D01*
X86363801Y-88903801D02*
X84836000Y-87376000D01*
X92456000Y-88903801D02*
X86363801Y-88903801D01*
X76343500Y-88248500D02*
X77724000Y-86868000D01*
X84836000Y-87376000D02*
X79248000Y-87376000D01*
D46*
%TO.N,Net-(D1-Pad1)*%
X160375600Y-82499200D02*
X160375600Y-80060800D01*
%TO.N,Net-(D2-Pad2)*%
X155829000Y-106299000D02*
X156311600Y-105816400D01*
X154089100Y-106299000D02*
X155829000Y-106299000D01*
X156311600Y-105816400D02*
X157937200Y-105816400D01*
%TO.N,Net-(D2-Pad1)*%
X161340800Y-111099600D02*
X161340800Y-112268000D01*
X157924500Y-108839000D02*
X159080200Y-108839000D01*
X159080200Y-108839000D02*
X161340800Y-111099600D01*
%TO.N,Net-(D3-Pad1)*%
X145669000Y-92583000D02*
X145669000Y-90551000D01*
X145669000Y-90551000D02*
X146367500Y-89852500D01*
X146367500Y-89852500D02*
X147066000Y-89852500D01*
%TO.N,EXECPT*%
X139446000Y-87630000D02*
X139954000Y-87122000D01*
X139954000Y-87122000D02*
X141541500Y-87122000D01*
X138684000Y-87630000D02*
X139446000Y-87630000D01*
X129959920Y-92663978D02*
X129959920Y-91351920D01*
%TO.N,Net-(D4-Pad1)*%
X144462500Y-87122000D02*
X145415000Y-88074500D01*
X143192000Y-87122000D02*
X144462500Y-87122000D01*
X145415000Y-88074500D02*
X147193000Y-88074500D01*
D47*
%TO.N,Net-(F1-Pad2)*%
X143408400Y-114046000D02*
X144881600Y-112572800D01*
X140191000Y-114046000D02*
X143129000Y-114046000D01*
X143129000Y-114046000D02*
X143408400Y-114046000D01*
X144881600Y-112572800D02*
X146608800Y-112572800D01*
%TO.N,AC_HOT*%
X60198000Y-117221000D02*
X70993000Y-117221000D01*
X59107000Y-106986000D02*
X61722000Y-109601000D01*
X76200000Y-122428000D02*
X78486000Y-124714000D01*
X112014000Y-124587000D02*
X114554000Y-122047000D01*
X92837000Y-124714000D02*
X95250000Y-122301000D01*
X116713000Y-124841000D02*
X131191000Y-124841000D01*
X94996000Y-122428000D02*
X97028000Y-124460000D01*
X97155000Y-124587000D02*
X112014000Y-124587000D01*
X61976000Y-109728000D02*
X59309000Y-112395000D01*
X132207000Y-117983000D02*
X132207000Y-113919000D01*
X70993000Y-117221000D02*
X76073000Y-122301000D01*
X59309000Y-112395000D02*
X59309000Y-116078000D01*
X131191000Y-124841000D02*
X133731000Y-122301000D01*
X61976000Y-92000000D02*
X59107000Y-94869000D01*
X59309000Y-116078000D02*
X59309000Y-116332000D01*
X59309000Y-116332000D02*
X60198000Y-117221000D01*
X78486000Y-124714000D02*
X92837000Y-124714000D01*
X97028000Y-124460000D02*
X97155000Y-124587000D01*
X133604000Y-122428000D02*
X133604000Y-119380000D01*
X133604000Y-119380000D02*
X132207000Y-117983000D01*
X59107000Y-94869000D02*
X59107000Y-106986000D01*
X114300000Y-122428000D02*
X116713000Y-124841000D01*
D45*
%TO.N,Net-(J1-Pad2)*%
X128371600Y-96453960D02*
X128701800Y-96453960D01*
X126994618Y-96629281D02*
X128196279Y-96629281D01*
X128196279Y-96629281D02*
X128371600Y-96453960D01*
D46*
X119490120Y-92784560D02*
X120456960Y-93746320D01*
X118780560Y-92784560D02*
X119490120Y-92784560D01*
%TO.N,Net-(J2-Pad2)*%
X126994618Y-97129280D02*
X128574800Y-97129600D01*
X118805960Y-98167560D02*
X120309679Y-98155799D01*
D48*
%TO.N,AC_NEUTRAL*%
X95377000Y-90043000D02*
X95377000Y-92710000D01*
X106007260Y-83863180D02*
X104640380Y-83863180D01*
X98628200Y-95563680D02*
X98628200Y-97500440D01*
X72382380Y-92091500D02*
X74311500Y-92091500D01*
X102974140Y-82196940D02*
X98262440Y-82196940D01*
X108651040Y-98338640D02*
X108211620Y-98778060D01*
X102585520Y-95775780D02*
X98785680Y-95775780D01*
X105625840Y-92080080D02*
X104505760Y-92080080D01*
X72438260Y-79391500D02*
X75327500Y-79391500D01*
X109926120Y-108127800D02*
X112049560Y-110251240D01*
X99700080Y-98572320D02*
X106382820Y-98572320D01*
X117589300Y-90835480D02*
X116531390Y-91893390D01*
X72224900Y-105299500D02*
X75200500Y-105299500D01*
X96012000Y-108938000D02*
X97254000Y-108938000D01*
X117114320Y-110180120D02*
X116819680Y-109885480D01*
X122946160Y-114772440D02*
X122946160Y-112836960D01*
X95377000Y-87884000D02*
X95377000Y-90043000D01*
X74311500Y-92091500D02*
X77724000Y-95504000D01*
X117734080Y-113507520D02*
X117114320Y-112887760D01*
X75200500Y-105299500D02*
X78232000Y-108331000D01*
X108651040Y-97254060D02*
X108651040Y-98338640D01*
X98402140Y-82063580D02*
X98402140Y-84858860D01*
D47*
X72382380Y-92091500D02*
X72390000Y-96012000D01*
D48*
X78232000Y-108331000D02*
X80518000Y-108331000D01*
X104521000Y-108127800D02*
X109926120Y-108127800D01*
X104505760Y-92080080D02*
X103710740Y-92875100D01*
X96012000Y-95504000D02*
X99060000Y-95504000D01*
X124508200Y-115082320D02*
X123256040Y-115082320D01*
X75327500Y-79391500D02*
X78232000Y-82296000D01*
X103710740Y-94650560D02*
X102585520Y-95775780D01*
X123256040Y-115082320D02*
X122946160Y-114772440D01*
X92738000Y-81788000D02*
X94996000Y-81788000D01*
X97254000Y-108938000D02*
X99060000Y-110744000D01*
X92456000Y-104422000D02*
X93474000Y-104422000D01*
X95504000Y-102392000D02*
X95504000Y-96012000D01*
D47*
X72224900Y-105299500D02*
X72224900Y-109816900D01*
D48*
X94996000Y-81788000D02*
X95504000Y-82296000D01*
X99096820Y-111241840D02*
X101406960Y-111241840D01*
X108211620Y-98778060D02*
X106276140Y-98778060D01*
X116819680Y-109885480D02*
X112247680Y-109885480D01*
X98628200Y-97500440D02*
X99700080Y-98572320D01*
X78232000Y-82296000D02*
X79248000Y-82296000D01*
X103710740Y-92875100D02*
X103710740Y-94650560D01*
X101406960Y-111241840D02*
X104521000Y-108127800D01*
X98402140Y-84858860D02*
X95377000Y-87884000D01*
X77724000Y-95504000D02*
X80264000Y-95504000D01*
X93474000Y-104422000D02*
X95504000Y-102392000D01*
X95504000Y-82296000D02*
X98552000Y-82296000D01*
X104640380Y-83863180D02*
X102974140Y-82196940D01*
X95504000Y-96012000D02*
X96012000Y-95504000D01*
X117589300Y-88597800D02*
X117589300Y-90835480D01*
X117114320Y-112887760D02*
X117114320Y-110180120D01*
X95377000Y-92710000D02*
X97790000Y-95123000D01*
D47*
X72438260Y-79391500D02*
X72390000Y-83185000D01*
D46*
%TO.N,Net-(K1-Pad4)*%
X121599960Y-107640120D02*
X122250200Y-106989880D01*
X122250200Y-106989880D02*
X123276360Y-106989880D01*
X120451520Y-107640120D02*
X121599960Y-107640120D01*
%TO.N,SOL1*%
X120060720Y-105105200D02*
X126354840Y-105105200D01*
X137910641Y-95129279D02*
X138425222Y-95129279D01*
X120451520Y-112720120D02*
X118816120Y-112720120D01*
X136292761Y-95167279D02*
X137872641Y-95167279D01*
X118237000Y-112141000D02*
X118237000Y-106928920D01*
X118816120Y-112720120D02*
X118237000Y-112141000D01*
X126354840Y-105105200D02*
X136292761Y-95167279D01*
X118237000Y-106928920D02*
X120060720Y-105105200D01*
X137872641Y-95167279D02*
X137910641Y-95129279D01*
%TO.N,Net-(K2-Pad4)*%
X117256560Y-100431600D02*
X117871240Y-101046280D01*
X114416480Y-96067880D02*
X116387880Y-96067880D01*
X117871240Y-101046280D02*
X119075200Y-101046280D01*
X117256560Y-96936560D02*
X117256560Y-100431600D01*
X116387880Y-96067880D02*
X117256560Y-96936560D01*
%TO.N,SOL2*%
X116245640Y-101147880D02*
X118470680Y-103372920D01*
X127431800Y-103372920D02*
X136187734Y-94630240D01*
X118470680Y-103372920D02*
X127431800Y-103372920D01*
X114416480Y-101147880D02*
X116245640Y-101147880D01*
X136187734Y-94630240D02*
X138511280Y-94630240D01*
%TO.N,SOL3*%
X114307260Y-86403180D02*
X115788440Y-86403180D01*
X137109502Y-92663978D02*
X137706100Y-92067380D01*
X125034040Y-89418160D02*
X128810400Y-89418160D01*
X121597420Y-83934300D02*
X124279660Y-86616540D01*
X115788440Y-86403180D02*
X118257320Y-83934300D01*
X124279660Y-88663780D02*
X125034040Y-89418160D01*
X128810400Y-89418160D02*
X129932120Y-90539880D01*
X136459920Y-92663978D02*
X137109502Y-92663978D01*
X118257320Y-83934300D02*
X121597420Y-83934300D01*
X124279660Y-86616540D02*
X124279660Y-88663780D01*
X137706100Y-92067380D02*
X137706100Y-88861900D01*
%TO.N,Net-(K3-Pad4)*%
X117045740Y-80192880D02*
X119194580Y-80192880D01*
X114307260Y-81323180D02*
X115915440Y-81323180D01*
X115915440Y-81323180D02*
X117045740Y-80192880D01*
%TO.N,Net-(K4-Pad4)*%
X89662000Y-105918000D02*
X90424000Y-106680000D01*
X90424000Y-106680000D02*
X91440000Y-106680000D01*
X88478000Y-105918000D02*
X89662000Y-105918000D01*
%TO.N,SOL5*%
X92392500Y-110998000D02*
X94170500Y-109220000D01*
X135459920Y-93633280D02*
X134287700Y-94805500D01*
X104584500Y-105537000D02*
X117348000Y-105537000D01*
X94869000Y-107442000D02*
X102679500Y-107442000D01*
X102679500Y-107442000D02*
X104584500Y-105537000D01*
X88478000Y-110998000D02*
X92392500Y-110998000D01*
X94170500Y-108267500D02*
X94170500Y-108140500D01*
X117348000Y-105537000D02*
X118427500Y-104457500D01*
X94170500Y-109220000D02*
X94170500Y-108267500D01*
X94170500Y-108140500D02*
X94869000Y-107442000D01*
X135459920Y-92663978D02*
X135459920Y-93633280D01*
%TO.N,SOL6*%
X88208760Y-98298000D02*
X90233500Y-98298000D01*
X94361000Y-89598500D02*
X94361000Y-87122000D01*
X93599000Y-97282000D02*
X94361000Y-96520000D01*
X91249500Y-97282000D02*
X93599000Y-97282000D01*
X94361000Y-96520000D02*
X94361000Y-89598500D01*
X90233500Y-98298000D02*
X91249500Y-97282000D01*
X94361000Y-87122000D02*
X95059500Y-86423500D01*
%TO.N,Net-(K5-Pad4)*%
X90932000Y-91948000D02*
X91948000Y-91948000D01*
X88208760Y-93218000D02*
X89662000Y-93218000D01*
X89662000Y-93218000D02*
X90932000Y-91948000D01*
%TO.N,SOL4*%
X87860780Y-84582000D02*
X91186000Y-84582000D01*
%TO.N,Net-(K6-Pad4)*%
X90932000Y-78740000D02*
X92964000Y-78740000D01*
X87860780Y-79502000D02*
X90170000Y-79502000D01*
X90170000Y-79502000D02*
X90932000Y-78740000D01*
%TO.N,SWCLK*%
X132301630Y-86911830D02*
X132039360Y-86649560D01*
X134959921Y-87713935D02*
X134157817Y-86911830D01*
X134157817Y-86911830D02*
X132301630Y-86911830D01*
X134959921Y-92663978D02*
X134959921Y-87713935D01*
X132039360Y-86649560D02*
X132039360Y-85938360D01*
%TO.N,SWDIO*%
X134459919Y-92663978D02*
X134459919Y-87855999D01*
X130733800Y-86852760D02*
X130733800Y-85887560D01*
X133969760Y-87365840D02*
X131246880Y-87365840D01*
X134459919Y-87855999D02*
X133969760Y-87365840D01*
X131246880Y-87365840D02*
X130733800Y-86852760D01*
%TO.N,TX*%
X136459920Y-104094582D02*
X137305082Y-104094582D01*
X137305082Y-104094582D02*
X137858500Y-104648000D01*
%TO.N,RX*%
X135959921Y-104094582D02*
X135959921Y-105033488D01*
X135959921Y-105033488D02*
X136463433Y-105537000D01*
X136463433Y-105537000D02*
X136906000Y-105537000D01*
%TO.N,SWO*%
X134559040Y-86553040D02*
X135921431Y-87915431D01*
X135921431Y-87915431D02*
X135921431Y-92202000D01*
X134559040Y-85816440D02*
X134559040Y-86553040D01*
%TO.N,Net-(P11-Pad4)*%
X171133800Y-108903800D02*
X179019200Y-116789200D01*
X171133800Y-99725600D02*
X171133800Y-108903800D01*
%TO.N,Net-(P11-Pad2)*%
X193141600Y-124968000D02*
X193294000Y-124815600D01*
X173634400Y-109626400D02*
X182016400Y-118008400D01*
X173634400Y-105692000D02*
X173634400Y-109626400D01*
X182016400Y-124104400D02*
X182880000Y-124968000D01*
X182016400Y-118008400D02*
X182016400Y-124104400D01*
X182880000Y-124968000D02*
X193141600Y-124968000D01*
X193294000Y-124815600D02*
X193294000Y-122682000D01*
%TO.N,Net-(P10-Pad2)*%
X163334700Y-110502700D02*
X170891200Y-118059200D01*
X163334700Y-105867200D02*
X163334700Y-110502700D01*
%TO.N,Net-(P10-Pad4)*%
X172262800Y-122580400D02*
X172212000Y-122631200D01*
X165138100Y-104851200D02*
X165664122Y-104851200D01*
X165664122Y-104851200D02*
X172262800Y-111449878D01*
X172262800Y-111449878D02*
X172262800Y-122580400D01*
%TO.N,Net-(P13-Pad2)*%
X185470800Y-105257600D02*
X185420000Y-105206800D01*
X187756800Y-104698800D02*
X187198000Y-105257600D01*
X186385200Y-99110800D02*
X187756800Y-100482400D01*
X187756800Y-100482400D02*
X187756800Y-104698800D01*
X187198000Y-105257600D02*
X185470800Y-105257600D01*
X178308000Y-97310000D02*
X180108800Y-99110800D01*
X180108800Y-99110800D02*
X186385200Y-99110800D01*
%TO.N,Net-(P13-Pad4)*%
X183032400Y-108305600D02*
X183946800Y-109220000D01*
X183032400Y-102717600D02*
X183032400Y-108305600D01*
X180213000Y-100556000D02*
X180870800Y-100556000D01*
X183946800Y-109220000D02*
X185420000Y-109220000D01*
X180870800Y-100556000D02*
X183032400Y-102717600D01*
%TO.N,PG1*%
X156616400Y-77927200D02*
X167538400Y-77927200D01*
X147447000Y-79451200D02*
X155092400Y-79451200D01*
X128361120Y-99629280D02*
X130352800Y-97637600D01*
X126994618Y-99629280D02*
X128361120Y-99629280D01*
X155092400Y-79451200D02*
X156616400Y-77927200D01*
X173126400Y-83515200D02*
X173126400Y-92252800D01*
X130352800Y-97637600D02*
X132181600Y-97637600D01*
X167538400Y-77927200D02*
X173126400Y-83515200D01*
%TO.N,PG2*%
X139039600Y-90576400D02*
X138633200Y-90170000D01*
X144272000Y-90576400D02*
X139039600Y-90576400D01*
X126994618Y-100129279D02*
X126083121Y-100129279D01*
X125476000Y-100228400D02*
X125984000Y-100228400D01*
X126083121Y-100129279D02*
X125984000Y-100228400D01*
%TO.N,Net-(P16-Pad1)*%
X155377434Y-112395000D02*
X149504400Y-106521966D01*
X157353000Y-112395000D02*
X155377434Y-112395000D01*
X149504400Y-106521966D02*
X149504400Y-103936800D01*
%TO.N,/Valves/SBV1_PUL5*%
X170180000Y-118745000D02*
X170180000Y-122682000D01*
X159131000Y-104775000D02*
X161798000Y-107442000D01*
X161798000Y-110363000D02*
X170180000Y-118745000D01*
X161798000Y-107442000D02*
X161798000Y-110363000D01*
X156083000Y-104775000D02*
X159131000Y-104775000D01*
X155797250Y-104027999D02*
X155797250Y-104489250D01*
X155797250Y-104489250D02*
X156083000Y-104775000D01*
%TO.N,ENCD1_A*%
X146488174Y-102057200D02*
X146862800Y-102057200D01*
X173634400Y-104112000D02*
X175440400Y-104112000D01*
X138425222Y-99629280D02*
X144097613Y-99629280D01*
X145865133Y-101396800D02*
X145865133Y-101434159D01*
X144097613Y-99629280D02*
X145865133Y-101396800D01*
X171856400Y-103936800D02*
X173532800Y-103936800D01*
X173532800Y-103936800D02*
X173736000Y-104140000D01*
X145865133Y-101434159D02*
X146488174Y-102057200D01*
%TO.N,ENCD2_A*%
X179860000Y-95730000D02*
X180114000Y-95730000D01*
X141570433Y-94738810D02*
X147729590Y-94738810D01*
X147729590Y-94738810D02*
X148234400Y-94234000D01*
X138425222Y-96129279D02*
X140179964Y-96129279D01*
X178308000Y-95730000D02*
X179860000Y-95730000D01*
X140179964Y-96129279D02*
X141570433Y-94738810D01*
X172720000Y-95707200D02*
X178206400Y-95707200D01*
%TO.N,ENCD1_B*%
X169279600Y-98145600D02*
X171283600Y-98145600D01*
X141908720Y-98629280D02*
X142341600Y-98247200D01*
X167843200Y-98298000D02*
X169164000Y-98298000D01*
X166471600Y-99669600D02*
X167843200Y-98298000D01*
X169164000Y-98298000D02*
X169214800Y-98247200D01*
X165862000Y-99669600D02*
X166471600Y-99669600D01*
X138425222Y-98629280D02*
X141908720Y-98629280D01*
%TO.N,ENCD2_B*%
X146862800Y-94284800D02*
X147878800Y-93268800D01*
X139981120Y-95629280D02*
X141325600Y-94284800D01*
X176834800Y-102108000D02*
X178308000Y-102108000D01*
X174752000Y-100025200D02*
X176834800Y-102108000D01*
X138425222Y-95629280D02*
X139981120Y-95629280D01*
X174752000Y-96824800D02*
X174752000Y-100025200D01*
X141325600Y-94284800D02*
X146862800Y-94284800D01*
X178308000Y-102136000D02*
X180114000Y-102136000D01*
%TO.N,VAC_MON*%
X146050000Y-109321600D02*
X146050000Y-106527600D01*
X141287500Y-109283500D02*
X143065500Y-111061500D01*
X144310100Y-111061500D02*
X146050000Y-109321600D01*
X126994618Y-100629281D02*
X129240719Y-100629281D01*
X140109000Y-109283500D02*
X141287500Y-109283500D01*
X129240719Y-100629281D02*
X129781300Y-100088700D01*
X143065500Y-111061500D02*
X144310100Y-111061500D01*
X145821400Y-106299000D02*
X146050000Y-106527600D01*
X144106900Y-106299000D02*
X145821400Y-106299000D01*
%TO.N,Net-(P12-Pad2)*%
X192786000Y-101549200D02*
X192786000Y-104800400D01*
X189077600Y-98806000D02*
X190042800Y-98806000D01*
X188112400Y-99771200D02*
X189077600Y-98806000D01*
X193141600Y-105156000D02*
X194513200Y-105156000D01*
X167030400Y-98044000D02*
X168097200Y-96977200D01*
X160883000Y-97282000D02*
X161645000Y-98044000D01*
X160756000Y-97282000D02*
X160883000Y-97282000D01*
X161645000Y-98044000D02*
X167030400Y-98044000D01*
X192786000Y-104800400D02*
X193141600Y-105156000D01*
X190042800Y-98806000D02*
X192786000Y-101549200D01*
%TO.N,Net-(P12-Pad4)*%
X189128400Y-99669600D02*
X189128400Y-105257600D01*
X162559400Y-96266000D02*
X171704000Y-96266000D01*
X171704000Y-96266000D02*
X173177200Y-97739200D01*
X193090800Y-109220000D02*
X194716400Y-109220000D01*
X189128400Y-105257600D02*
X193090800Y-109220000D01*
%TO.N,/Valves/SBV2_PUL5*%
X167741600Y-102666800D02*
X169773600Y-104698800D01*
X169773600Y-104698800D02*
X169773600Y-106883200D01*
X160949399Y-100090999D02*
X163525200Y-102666800D01*
X159391850Y-100090999D02*
X160949399Y-100090999D01*
X163525200Y-102666800D02*
X167741600Y-102666800D01*
%TO.N,SBV1_DIR*%
X144071990Y-100434790D02*
X144224390Y-100434790D01*
X141124879Y-100129279D02*
X141427200Y-100431600D01*
X138425222Y-100129279D02*
X141124879Y-100129279D01*
X141427200Y-100431600D02*
X144068800Y-100431600D01*
X147167600Y-103378000D02*
X147726400Y-103378000D01*
X161442400Y-104851200D02*
X163322000Y-104851200D01*
X144224390Y-100434790D02*
X147167600Y-103378000D01*
X144068800Y-100431600D02*
X144071990Y-100434790D01*
%TO.N,SBV1_EN*%
X164185600Y-106680000D02*
X164795200Y-106680000D01*
X138425222Y-100629281D02*
X140608881Y-100629281D01*
X147726400Y-104597200D02*
X147777200Y-105968800D01*
X164795200Y-106680000D02*
X165150800Y-106324400D01*
X144018000Y-100888800D02*
X147726400Y-104597200D01*
X165150800Y-106324400D02*
X165150800Y-105867200D01*
X140608881Y-100629281D02*
X140868400Y-100888800D01*
X140868400Y-100888800D02*
X144018000Y-100888800D01*
%TO.N,SBV2_DIR*%
X159664400Y-96621600D02*
X160020000Y-96266000D01*
X159308800Y-96621600D02*
X159664400Y-96621600D01*
X141986000Y-95504000D02*
X146177000Y-95504000D01*
X140360720Y-97129280D02*
X141986000Y-95504000D01*
X138425222Y-97129280D02*
X140360720Y-97129280D01*
X160020000Y-96266000D02*
X160731200Y-96266000D01*
%TO.N,SBV2_PUL*%
X140955187Y-98091280D02*
X141815266Y-97231200D01*
X141815266Y-97231200D02*
X142983666Y-97231200D01*
X157169350Y-100090999D02*
X155829000Y-100076000D01*
X138839920Y-98091280D02*
X140955187Y-98091280D01*
%TO.N,SBV1_PUL*%
X153574750Y-104027999D02*
X152795999Y-104027999D01*
X144277679Y-99167279D02*
X138791279Y-99167279D01*
X151892000Y-103124000D02*
X148971000Y-103124000D01*
X145389600Y-100279200D02*
X144277679Y-99167279D01*
X146126200Y-100279200D02*
X145389600Y-100279200D01*
X152795999Y-104027999D02*
X151892000Y-103124000D01*
X148971000Y-103124000D02*
X146126200Y-100279200D01*
%TO.N,SBV2_EN*%
X138425222Y-97629279D02*
X138828079Y-97629279D01*
X138828079Y-97629279D02*
X138836070Y-97637270D01*
X138836070Y-97637270D02*
X140767130Y-97637270D01*
X162559400Y-97282000D02*
X163576000Y-97282000D01*
%TO.N,Net-(R23-Pad1)*%
X151056400Y-104140000D02*
X151056400Y-106860400D01*
X153009600Y-108813600D02*
X153873200Y-108813600D01*
X151056400Y-106860400D02*
X153009600Y-108813600D01*
%TD*%
M02*
