%TF.GenerationSoftware,KiCad,Pcbnew,(6.0.4)*%
%TF.CreationDate,2022-04-12T20:51:16-07:00*%
%TF.ProjectId,L0005-Valve-Controller,4c303030-352d-4566-916c-76652d436f6e,1.0*%
%TF.SameCoordinates,Original*%
%TF.FileFunction,Paste,Top*%
%TF.FilePolarity,Positive*%
%FSLAX46Y46*%
G04 Gerber Fmt 4.6, Leading zero omitted, Abs format (unit mm)*
G04 Created by KiCad (PCBNEW (6.0.4)) date 2022-04-12 20:51:16*
%MOMM*%
%LPD*%
G01*
G04 APERTURE LIST*
%ADD10R,1.700000X0.990600*%
%ADD11R,1.900000X1.500000*%
%ADD12R,1.600000X0.855600*%
%ADD13R,0.855600X1.600000*%
%ADD14R,0.965200X1.295400*%
%ADD15R,0.800000X0.800000*%
%ADD16R,1.100000X1.000000*%
%ADD17R,0.940000X1.020000*%
%ADD18R,1.020000X0.940000*%
%ADD19R,3.048000X1.854200*%
%ADD20R,1.854200X3.048000*%
%ADD21R,2.150000X0.950000*%
%ADD22R,2.150000X3.250000*%
%ADD23R,0.876300X0.304800*%
%ADD24R,1.778000X1.270000*%
%ADD25R,1.000000X1.100000*%
%ADD26R,0.508000X0.254000*%
%ADD27R,1.219200X0.457200*%
%ADD28R,1.560000X0.280000*%
%ADD29R,0.280000X1.560000*%
%ADD30R,2.620000X3.200000*%
G04 APERTURE END LIST*
D10*
%TO.C,B1*%
X116441200Y-99948799D03*
X111041200Y-99948799D03*
X116441200Y-96748801D03*
X111041200Y-96748801D03*
%TD*%
D11*
%TO.C,K6*%
X118111700Y-92811600D03*
X118111700Y-90271600D03*
X118111700Y-87731600D03*
X118111700Y-85191600D03*
X109811700Y-85191600D03*
X109811700Y-87731600D03*
X109811700Y-92811600D03*
%TD*%
D12*
%TO.C,C16*%
X78079600Y-112068601D03*
X78079600Y-109012999D03*
%TD*%
%TO.C,C17*%
X104800400Y-89708999D03*
X104800400Y-92764601D03*
%TD*%
%TO.C,C18*%
X69494400Y-112119401D03*
X69494400Y-109063799D03*
%TD*%
D13*
%TO.C,C19*%
X84331801Y-98171000D03*
X81276199Y-98171000D03*
%TD*%
%TO.C,C20*%
X71631801Y-83312000D03*
X68576199Y-83312000D03*
%TD*%
%TO.C,C21*%
X82172801Y-70358000D03*
X79117199Y-70358000D03*
%TD*%
D14*
%TO.C,D3*%
X144373600Y-78435200D03*
X141325600Y-78435200D03*
%TD*%
D15*
%TO.C,D4*%
X149059400Y-93370400D03*
X147409400Y-93370400D03*
%TD*%
D16*
%TO.C,J1*%
X126427600Y-78790800D03*
X124727600Y-78790800D03*
%TD*%
D11*
%TO.C,K1*%
X102956000Y-114808000D03*
X102956000Y-112268000D03*
X102956000Y-109728000D03*
X102956000Y-107188000D03*
X94656000Y-107188000D03*
X94656000Y-109728000D03*
X94656000Y-114808000D03*
%TD*%
%TO.C,K2*%
X101813000Y-101727000D03*
X101813000Y-99187000D03*
X101813000Y-96647000D03*
X101813000Y-94107000D03*
X93513000Y-94107000D03*
X93513000Y-96647000D03*
X93513000Y-101727000D03*
%TD*%
%TO.C,K3*%
X89621000Y-114681000D03*
X89621000Y-112141000D03*
X89621000Y-109601000D03*
X89621000Y-107061000D03*
X81321000Y-107061000D03*
X81321000Y-109601000D03*
X81321000Y-114681000D03*
%TD*%
%TO.C,K4*%
X88063500Y-94869000D03*
X88063500Y-92329000D03*
X88063500Y-89789000D03*
X88063500Y-87249000D03*
X79763500Y-87249000D03*
X79763500Y-89789000D03*
X79763500Y-94869000D03*
%TD*%
%TO.C,K5*%
X88097000Y-82804000D03*
X88097000Y-80264000D03*
X88097000Y-77724000D03*
X88097000Y-75184000D03*
X79797000Y-75184000D03*
X79797000Y-77724000D03*
X79797000Y-82804000D03*
%TD*%
D17*
%TO.C,R2*%
X73124000Y-116332000D03*
X74704000Y-116332000D03*
%TD*%
%TO.C,R3*%
X73383200Y-114350800D03*
X71803200Y-114350800D03*
%TD*%
D18*
%TO.C,R4*%
X105308400Y-101628000D03*
X105308400Y-100048000D03*
%TD*%
%TO.C,R5*%
X75336400Y-109293600D03*
X75336400Y-110873600D03*
%TD*%
%TO.C,R6*%
X104800400Y-86388000D03*
X104800400Y-84808000D03*
%TD*%
%TO.C,R7*%
X72491600Y-110873600D03*
X72491600Y-109293600D03*
%TD*%
D17*
%TO.C,R8*%
X88521600Y-98348800D03*
X86941600Y-98348800D03*
%TD*%
%TO.C,R9*%
X75562400Y-85445600D03*
X77142400Y-85445600D03*
%TD*%
%TO.C,R10*%
X87912000Y-69977000D03*
X86332000Y-69977000D03*
%TD*%
%TO.C,R11*%
X83746400Y-101244400D03*
X82166400Y-101244400D03*
%TD*%
%TO.C,R12*%
X75537000Y-83439000D03*
X77117000Y-83439000D03*
%TD*%
%TO.C,R13*%
X86332000Y-71882000D03*
X87912000Y-71882000D03*
%TD*%
%TO.C,R24*%
X146936400Y-80162400D03*
X148516400Y-80162400D03*
%TD*%
%TO.C,R25*%
X152219600Y-93522800D03*
X153799600Y-93522800D03*
%TD*%
D19*
%TO.C,RV1*%
X110591600Y-106467900D03*
X110591600Y-115324900D03*
%TD*%
D20*
%TO.C,RV2*%
X92726500Y-87249000D03*
X101583500Y-87249000D03*
%TD*%
%TO.C,RV3*%
X69358500Y-103632000D03*
X78215500Y-103632000D03*
%TD*%
D19*
%TO.C,RV4*%
X72644000Y-97138500D03*
X72644000Y-88281500D03*
%TD*%
%TO.C,RV5*%
X73152000Y-80247500D03*
X73152000Y-71390500D03*
%TD*%
D20*
%TO.C,RV6*%
X101329500Y-75057000D03*
X92472500Y-75057000D03*
%TD*%
D21*
%TO.C,U2*%
X145436000Y-70039200D03*
D22*
X151236000Y-72339200D03*
D21*
X145436000Y-72339200D03*
X145436000Y-74639200D03*
%TD*%
D18*
%TO.C,R15*%
X164896800Y-102644000D03*
X164896800Y-101064000D03*
%TD*%
D14*
%TO.C,D1*%
X152400000Y-78181200D03*
X155448000Y-78181200D03*
%TD*%
D18*
%TO.C,R27*%
X114655600Y-78254800D03*
X114655600Y-79834800D03*
%TD*%
%TO.C,R21*%
X169773600Y-101041200D03*
X169773600Y-102621200D03*
%TD*%
D23*
%TO.C,U4*%
X168713150Y-111668801D03*
X168713150Y-112318800D03*
X168713150Y-112968799D03*
X170935650Y-112968799D03*
X170935650Y-111668801D03*
%TD*%
D24*
%TO.C,C2*%
X155143200Y-73101200D03*
X155143200Y-70459600D03*
%TD*%
D16*
%TO.C,C8*%
X126353200Y-103530400D03*
X128053200Y-103530400D03*
%TD*%
D25*
%TO.C,C22*%
X152400000Y-116521600D03*
X152400000Y-114821600D03*
%TD*%
D16*
%TO.C,C4*%
X126353200Y-101600000D03*
X128053200Y-101600000D03*
%TD*%
D26*
%TO.C,Q2*%
X170179400Y-107188000D03*
X170179400Y-107696000D03*
X170179400Y-108204000D03*
X171982800Y-108204000D03*
X171982800Y-107696000D03*
X171982800Y-107188000D03*
%TD*%
D27*
%TO.C,U5*%
X143649700Y-108508800D03*
X143649700Y-111048800D03*
X153631900Y-111048800D03*
X153631900Y-108508800D03*
%TD*%
D25*
%TO.C,C12*%
X137566400Y-103567600D03*
X137566400Y-101867600D03*
%TD*%
D26*
%TO.C,Q1*%
X157340300Y-108966000D03*
X157340300Y-109474000D03*
X157340300Y-109982000D03*
X159143700Y-109982000D03*
X159143700Y-109474000D03*
X159143700Y-108966000D03*
%TD*%
D25*
%TO.C,C25*%
X173329600Y-114134000D03*
X173329600Y-112434000D03*
%TD*%
D24*
%TO.C,C1*%
X140258800Y-73710800D03*
X140258800Y-71069200D03*
%TD*%
D16*
%TO.C,C10*%
X122949600Y-95402400D03*
X124649600Y-95402400D03*
%TD*%
D17*
%TO.C,R22*%
X148635600Y-114046000D03*
X150215600Y-114046000D03*
%TD*%
%TO.C,R1*%
X148358800Y-78181200D03*
X149938800Y-78181200D03*
%TD*%
D28*
%TO.C,U1*%
X127679700Y-85795600D03*
X127679700Y-86295600D03*
X127679700Y-86795600D03*
X127679700Y-87295600D03*
X127679700Y-87795600D03*
X127679700Y-88295600D03*
X127679700Y-88795600D03*
X127679700Y-89295600D03*
X127679700Y-89795600D03*
X127679700Y-90295600D03*
X127679700Y-90795600D03*
X127679700Y-91295600D03*
X127679700Y-91795600D03*
X127679700Y-92295600D03*
X127679700Y-92795600D03*
X127679700Y-93295600D03*
X127679700Y-93795600D03*
X127679700Y-94295600D03*
X127679700Y-94795600D03*
X127679700Y-95295600D03*
X127679700Y-95795600D03*
X127679700Y-96295600D03*
X127679700Y-96795600D03*
X127679700Y-97295600D03*
X127679700Y-97795600D03*
D29*
X129359700Y-99475600D03*
X129859700Y-99475600D03*
X130359700Y-99475600D03*
X130859700Y-99475600D03*
X131359700Y-99475600D03*
X131859700Y-99475600D03*
X132359700Y-99475600D03*
X132859700Y-99475600D03*
X133359700Y-99475600D03*
X133859700Y-99475600D03*
X134359700Y-99475600D03*
X134859700Y-99475600D03*
X135359700Y-99475600D03*
X135859700Y-99475600D03*
X136359700Y-99475600D03*
X136859700Y-99475600D03*
X137359700Y-99475600D03*
X137859700Y-99475600D03*
X138359700Y-99475600D03*
X138859700Y-99475600D03*
X139359700Y-99475600D03*
X139859700Y-99475600D03*
X140359700Y-99475600D03*
X140859700Y-99475600D03*
X141359700Y-99475600D03*
D28*
X143039700Y-97795600D03*
X143039700Y-97295600D03*
X143039700Y-96795600D03*
X143039700Y-96295600D03*
X143039700Y-95795600D03*
X143039700Y-95295600D03*
X143039700Y-94795600D03*
X143039700Y-94295600D03*
X143039700Y-93795600D03*
X143039700Y-93295600D03*
X143039700Y-92795600D03*
X143039700Y-92295600D03*
X143039700Y-91795600D03*
X143039700Y-91295600D03*
X143039700Y-90795600D03*
X143039700Y-90295600D03*
X143039700Y-89795600D03*
X143039700Y-89295600D03*
X143039700Y-88795600D03*
X143039700Y-88295600D03*
X143039700Y-87795600D03*
X143039700Y-87295600D03*
X143039700Y-86795600D03*
X143039700Y-86295600D03*
X143039700Y-85795600D03*
D29*
X141359700Y-84115600D03*
X140859700Y-84115600D03*
X140359700Y-84115600D03*
X139859700Y-84115600D03*
X139359700Y-84115600D03*
X138859700Y-84115600D03*
X138359700Y-84115600D03*
X137859700Y-84115600D03*
X137359700Y-84115600D03*
X136859700Y-84115600D03*
X136359700Y-84115600D03*
X135859700Y-84115600D03*
X135359700Y-84115600D03*
X134859700Y-84115600D03*
X134359700Y-84115600D03*
X133859700Y-84115600D03*
X133359700Y-84115600D03*
X132859700Y-84115600D03*
X132359700Y-84115600D03*
X131859700Y-84115600D03*
X131359700Y-84115600D03*
X130859700Y-84115600D03*
X130359700Y-84115600D03*
X129859700Y-84115600D03*
X129359700Y-84115600D03*
%TD*%
D17*
%TO.C,R26*%
X110721200Y-78181200D03*
X109141200Y-78181200D03*
%TD*%
D30*
%TO.C,F1*%
X121581400Y-107899200D03*
X129675400Y-107899200D03*
%TD*%
D25*
%TO.C,C24*%
X159715200Y-116115200D03*
X159715200Y-114415200D03*
%TD*%
D18*
%TO.C,R20*%
X163118800Y-102644000D03*
X163118800Y-101064000D03*
%TD*%
D16*
%TO.C,C9*%
X122898800Y-97282000D03*
X124598800Y-97282000D03*
%TD*%
D18*
%TO.C,R14*%
X167132000Y-117376000D03*
X167132000Y-115796000D03*
%TD*%
D25*
%TO.C,C15*%
X117754400Y-102629600D03*
X117754400Y-104329600D03*
%TD*%
%TO.C,C11*%
X139649200Y-103516800D03*
X139649200Y-101816800D03*
%TD*%
D16*
%TO.C,C7*%
X129424800Y-81534000D03*
X127724800Y-81534000D03*
%TD*%
%TO.C,C13*%
X147103200Y-87223600D03*
X145403200Y-87223600D03*
%TD*%
%TO.C,C6*%
X147103200Y-85394800D03*
X145403200Y-85394800D03*
%TD*%
D25*
%TO.C,C23*%
X166116000Y-112711600D03*
X166116000Y-111011600D03*
%TD*%
D18*
%TO.C,R18*%
X169316400Y-117426800D03*
X169316400Y-115846800D03*
%TD*%
D14*
%TO.C,D2*%
X142494000Y-115620800D03*
X145542000Y-115620800D03*
%TD*%
D16*
%TO.C,C5*%
X141745600Y-101752400D03*
X143445600Y-101752400D03*
%TD*%
D18*
%TO.C,R19*%
X164566600Y-117325200D03*
X164566600Y-115745200D03*
%TD*%
D16*
%TO.C,C14*%
X147103200Y-88950800D03*
X145403200Y-88950800D03*
%TD*%
D18*
%TO.C,R17*%
X167843200Y-102672000D03*
X167843200Y-101092000D03*
%TD*%
D17*
%TO.C,R23*%
X138356400Y-108305600D03*
X136776400Y-108305600D03*
%TD*%
D23*
%TO.C,U3*%
X154997150Y-114361201D03*
X154997150Y-115011200D03*
X154997150Y-115661199D03*
X157219650Y-115661199D03*
X157219650Y-114361201D03*
%TD*%
D16*
%TO.C,C3*%
X123356000Y-90424000D03*
X125056000Y-90424000D03*
%TD*%
D18*
%TO.C,R16*%
X162712400Y-115745200D03*
X162712400Y-117325200D03*
%TD*%
M02*
