%TF.GenerationSoftware,KiCad,Pcbnew,(6.0.2)*%
%TF.CreationDate,2022-03-05T21:41:32-07:00*%
%TF.ProjectId,L0005-Valve-Controller,4c303030-352d-4566-916c-76652d436f6e,1.0*%
%TF.SameCoordinates,Original*%
%TF.FileFunction,Legend,Bot*%
%TF.FilePolarity,Positive*%
%FSLAX46Y46*%
G04 Gerber Fmt 4.6, Leading zero omitted, Abs format (unit mm)*
G04 Created by KiCad (PCBNEW (6.0.2)) date 2022-03-05 21:41:32*
%MOMM*%
%LPD*%
G01*
G04 APERTURE LIST*
%ADD10C,0.150000*%
G04 APERTURE END LIST*
D10*
%TO.C,TP1*%
X124832904Y-90770460D02*
X124261476Y-90770460D01*
X124547190Y-91770460D02*
X124547190Y-90770460D01*
X123928142Y-91770460D02*
X123928142Y-90770460D01*
X123547190Y-90770460D01*
X123451952Y-90818080D01*
X123404333Y-90865699D01*
X123356714Y-90960937D01*
X123356714Y-91103794D01*
X123404333Y-91199032D01*
X123451952Y-91246651D01*
X123547190Y-91294270D01*
X123928142Y-91294270D01*
X122404333Y-91770460D02*
X122975761Y-91770460D01*
X122690047Y-91770460D02*
X122690047Y-90770460D01*
X122785285Y-90913318D01*
X122880523Y-91008556D01*
X122975761Y-91056175D01*
%TO.C,TP2*%
X166920704Y-86066380D02*
X166349276Y-86066380D01*
X166634990Y-87066380D02*
X166634990Y-86066380D01*
X166015942Y-87066380D02*
X166015942Y-86066380D01*
X165634990Y-86066380D01*
X165539752Y-86114000D01*
X165492133Y-86161619D01*
X165444514Y-86256857D01*
X165444514Y-86399714D01*
X165492133Y-86494952D01*
X165539752Y-86542571D01*
X165634990Y-86590190D01*
X166015942Y-86590190D01*
X165063561Y-86161619D02*
X165015942Y-86114000D01*
X164920704Y-86066380D01*
X164682609Y-86066380D01*
X164587371Y-86114000D01*
X164539752Y-86161619D01*
X164492133Y-86256857D01*
X164492133Y-86352095D01*
X164539752Y-86494952D01*
X165111180Y-87066380D01*
X164492133Y-87066380D01*
%TO.C,TP3*%
X162958304Y-86066380D02*
X162386876Y-86066380D01*
X162672590Y-87066380D02*
X162672590Y-86066380D01*
X162053542Y-87066380D02*
X162053542Y-86066380D01*
X161672590Y-86066380D01*
X161577352Y-86114000D01*
X161529733Y-86161619D01*
X161482114Y-86256857D01*
X161482114Y-86399714D01*
X161529733Y-86494952D01*
X161577352Y-86542571D01*
X161672590Y-86590190D01*
X162053542Y-86590190D01*
X161148780Y-86066380D02*
X160529733Y-86066380D01*
X160863066Y-86447333D01*
X160720209Y-86447333D01*
X160624971Y-86494952D01*
X160577352Y-86542571D01*
X160529733Y-86637809D01*
X160529733Y-86875904D01*
X160577352Y-86971142D01*
X160624971Y-87018761D01*
X160720209Y-87066380D01*
X161005923Y-87066380D01*
X161101161Y-87018761D01*
X161148780Y-86971142D01*
%TO.C,TP4*%
X140453904Y-108672380D02*
X139882476Y-108672380D01*
X140168190Y-109672380D02*
X140168190Y-108672380D01*
X139549142Y-109672380D02*
X139549142Y-108672380D01*
X139168190Y-108672380D01*
X139072952Y-108720000D01*
X139025333Y-108767619D01*
X138977714Y-108862857D01*
X138977714Y-109005714D01*
X139025333Y-109100952D01*
X139072952Y-109148571D01*
X139168190Y-109196190D01*
X139549142Y-109196190D01*
X138120571Y-109005714D02*
X138120571Y-109672380D01*
X138358666Y-108624761D02*
X138596761Y-109339047D01*
X137977714Y-109339047D01*
%TO.C,TP5*%
X143603504Y-108672380D02*
X143032076Y-108672380D01*
X143317790Y-109672380D02*
X143317790Y-108672380D01*
X142698742Y-109672380D02*
X142698742Y-108672380D01*
X142317790Y-108672380D01*
X142222552Y-108720000D01*
X142174933Y-108767619D01*
X142127314Y-108862857D01*
X142127314Y-109005714D01*
X142174933Y-109100952D01*
X142222552Y-109148571D01*
X142317790Y-109196190D01*
X142698742Y-109196190D01*
X141222552Y-108672380D02*
X141698742Y-108672380D01*
X141746361Y-109148571D01*
X141698742Y-109100952D01*
X141603504Y-109053333D01*
X141365409Y-109053333D01*
X141270171Y-109100952D01*
X141222552Y-109148571D01*
X141174933Y-109243809D01*
X141174933Y-109481904D01*
X141222552Y-109577142D01*
X141270171Y-109624761D01*
X141365409Y-109672380D01*
X141603504Y-109672380D01*
X141698742Y-109624761D01*
X141746361Y-109577142D01*
%TD*%
M02*
