%TF.GenerationSoftware,KiCad,Pcbnew,7.0.1*%
%TF.CreationDate,2023-06-09T22:35:25-07:00*%
%TF.ProjectId,L0005-Valve-Controller,4c303030-352d-4566-916c-76652d436f6e,1.0*%
%TF.SameCoordinates,Original*%
%TF.FileFunction,Copper,L3,Inr*%
%TF.FilePolarity,Positive*%
%FSLAX46Y46*%
G04 Gerber Fmt 4.6, Leading zero omitted, Abs format (unit mm)*
G04 Created by KiCad (PCBNEW 7.0.1) date 2023-06-09 22:35:25*
%MOMM*%
%LPD*%
G01*
G04 APERTURE LIST*
%TA.AperFunction,ComponentPad*%
%ADD10C,1.066800*%
%TD*%
%TA.AperFunction,ComponentPad*%
%ADD11C,2.500000*%
%TD*%
%TA.AperFunction,ComponentPad*%
%ADD12R,1.308000X1.308000*%
%TD*%
%TA.AperFunction,ComponentPad*%
%ADD13C,1.308000*%
%TD*%
%TA.AperFunction,ComponentPad*%
%ADD14R,2.050000X2.050000*%
%TD*%
%TA.AperFunction,ComponentPad*%
%ADD15C,2.286000*%
%TD*%
%TA.AperFunction,ComponentPad*%
%ADD16C,2.050000*%
%TD*%
%TA.AperFunction,ComponentPad*%
%ADD17R,1.258000X1.258000*%
%TD*%
%TA.AperFunction,ComponentPad*%
%ADD18C,1.258000*%
%TD*%
%TA.AperFunction,ComponentPad*%
%ADD19R,1.478000X1.478000*%
%TD*%
%TA.AperFunction,ComponentPad*%
%ADD20C,1.478000*%
%TD*%
%TA.AperFunction,ComponentPad*%
%ADD21C,3.366000*%
%TD*%
%TA.AperFunction,ViaPad*%
%ADD22C,0.607060*%
%TD*%
%TA.AperFunction,ViaPad*%
%ADD23C,1.016000*%
%TD*%
%TA.AperFunction,Conductor*%
%ADD24C,0.254000*%
%TD*%
G04 APERTURE END LIST*
D10*
%TO.N,3.3V*%
%TO.C,P1*%
X108280200Y-75398250D03*
X108280200Y-74128250D03*
%TO.N,Earth*%
X109550200Y-75398250D03*
X109550200Y-74128250D03*
X110820200Y-75398250D03*
X110820200Y-74128250D03*
%TO.N,SWDIO*%
X112090200Y-75398250D03*
%TO.N,Earth*%
X112090200Y-74128250D03*
%TO.N,SWCLK*%
X113360200Y-75398250D03*
%TO.N,Earth*%
X113360200Y-74128250D03*
%TO.N,unconnected-(P1-Pad11)*%
X114630200Y-75398250D03*
%TO.N,Earth*%
X114630200Y-74128250D03*
%TO.N,SWO*%
X115900200Y-75398250D03*
%TO.N,Earth*%
X115900200Y-74128250D03*
%TO.N,NRST*%
X117170200Y-75398250D03*
%TO.N,Earth*%
X117170200Y-74128250D03*
%TO.N,unconnected-(P1-Pad17)*%
X118440200Y-75398250D03*
%TO.N,Earth*%
X118440200Y-74128250D03*
%TO.N,unconnected-(P1-Pad19)*%
X119710200Y-75398250D03*
%TO.N,Earth*%
X119710200Y-74128250D03*
%TD*%
D11*
%TO.N,Net-(C16-Pad2)*%
%TO.C,P3*%
X115212000Y-122555000D03*
%TO.N,AC_HOT*%
X111252000Y-122555000D03*
%TO.N,unconnected-(P3-Pad3)*%
X107292000Y-122555000D03*
%TD*%
%TO.N,Net-(C17-Pad2)*%
%TO.C,P4*%
X97686000Y-122557000D03*
%TO.N,AC_HOT*%
X93726000Y-122557000D03*
%TO.N,unconnected-(P4-Pad3)*%
X89766000Y-122557000D03*
%TD*%
%TO.N,Net-(C18-Pad2)*%
%TO.C,P5*%
X79906000Y-122555000D03*
%TO.N,AC_HOT*%
X75946000Y-122555000D03*
%TO.N,unconnected-(P5-Pad3)*%
X71986000Y-122555000D03*
%TD*%
%TO.N,Net-(C19-Pad2)*%
%TO.C,P6*%
X61974000Y-114831000D03*
%TO.N,AC_HOT*%
X61974000Y-110871000D03*
%TO.N,unconnected-(P6-Pad3)*%
X61974000Y-106911000D03*
%TD*%
%TO.N,Net-(C21-Pad2)*%
%TO.C,P8*%
X62101000Y-80287000D03*
%TO.N,AC_HOT*%
X62101000Y-76327000D03*
%TO.N,unconnected-(P8-Pad3)*%
X62101000Y-72367000D03*
%TD*%
%TO.N,Net-(C20-Pad2)*%
%TO.C,P7*%
X62101000Y-97432000D03*
%TO.N,AC_HOT*%
X62101000Y-93472000D03*
%TO.N,unconnected-(P7-Pad3)*%
X62101000Y-89512000D03*
%TD*%
D12*
%TO.N,5V*%
%TO.C,P13*%
X187042400Y-106507500D03*
D13*
%TO.N,Net-(P13-GND)*%
X187042400Y-108507500D03*
%TO.N,Earth*%
X187042400Y-110507500D03*
%TO.N,Net-(P13-Pad4)*%
X187042400Y-112507500D03*
%TO.N,Earth*%
X187042400Y-114507500D03*
X187042400Y-116507500D03*
%TD*%
D12*
%TO.N,5V*%
%TO.C,P12*%
X177901600Y-110417600D03*
D13*
%TO.N,SBV2_DIR-*%
X177901600Y-112417600D03*
%TO.N,5V*%
X177901600Y-114417600D03*
%TO.N,SBV2_EN-*%
X177901600Y-116417600D03*
%TO.N,5V*%
X177901600Y-118417600D03*
%TO.N,SBV2_PUL-*%
X177901600Y-120417600D03*
%TD*%
D12*
%TO.N,5V*%
%TO.C,P10*%
X153080500Y-122526400D03*
D13*
%TO.N,SBV1_DIR-*%
X151080500Y-122526400D03*
%TO.N,5V*%
X149080500Y-122526400D03*
%TO.N,SBV1_EN-*%
X147080500Y-122526400D03*
%TO.N,5V*%
X145080500Y-122526400D03*
%TO.N,SBV1_PUL-*%
X143080500Y-122526400D03*
%TD*%
D12*
%TO.N,5V*%
%TO.C,P11*%
X170098500Y-122628000D03*
D13*
%TO.N,Net-(P11-GND)*%
X168098500Y-122628000D03*
%TO.N,Earth*%
X166098500Y-122628000D03*
%TO.N,Net-(P11-Pad4)*%
X164098500Y-122628000D03*
%TO.N,Earth*%
X162098500Y-122628000D03*
X160098500Y-122628000D03*
%TD*%
D14*
%TO.N,PG1*%
%TO.C,P14*%
X175249500Y-80717500D03*
D15*
%TO.N,Earth*%
X171289500Y-80717500D03*
%TO.N,5V*%
X167329500Y-80717500D03*
%TD*%
D14*
%TO.N,Net-(F1-Pad2)*%
%TO.C,P9*%
X122564300Y-112576500D03*
D16*
%TO.N,AC_NEUTRAL*%
X126524300Y-112576500D03*
%TD*%
D17*
%TO.N,5V*%
%TO.C,P2*%
X133657600Y-74282000D03*
D18*
%TO.N,RX*%
X131657600Y-74282000D03*
%TO.N,TX*%
X129657600Y-74282000D03*
%TO.N,Earth*%
X127657600Y-74282000D03*
%TD*%
D14*
%TO.N,Net-(P16-Pad1)*%
%TO.C,P16*%
X132927500Y-112525700D03*
D16*
%TO.N,Net-(D2-Pad1)*%
X136887500Y-112525700D03*
%TD*%
D19*
%TO.N,5V*%
%TO.C,P17*%
X175588500Y-91333000D03*
D20*
%TO.N,/Power/D-*%
X175588500Y-93833000D03*
%TO.N,/Power/D+*%
X177588500Y-93833000D03*
%TO.N,Earth*%
X177588500Y-91333000D03*
D21*
X180298500Y-98603000D03*
X180298500Y-86563000D03*
%TD*%
D14*
%TO.N,PG2*%
%TO.C,P15*%
X161025500Y-80717500D03*
D15*
%TO.N,Earth*%
X157065500Y-80717500D03*
%TO.N,5V*%
X153105500Y-80717500D03*
%TD*%
D22*
%TO.N,Earth*%
X167259000Y-90297000D03*
X163957000Y-96012000D03*
X156718000Y-116840000D03*
X127508000Y-100431600D03*
X124917200Y-89408000D03*
X136271000Y-79121000D03*
X85191600Y-75184000D03*
X172212000Y-113157000D03*
X156337000Y-90170000D03*
X178869400Y-103576000D03*
X87757000Y-107061000D03*
X129859700Y-82585900D03*
X152908000Y-116840000D03*
X141491600Y-86295600D03*
X86029800Y-87249000D03*
X185547000Y-80645000D03*
X159004000Y-113030000D03*
X99441000Y-94107000D03*
X100482400Y-107188000D03*
X115417600Y-85191600D03*
X169037000Y-96647000D03*
X116420000Y-104329600D03*
X141542400Y-103516800D03*
X121564400Y-95402400D03*
X148488400Y-85394800D03*
%TO.N,NRST*%
X122224800Y-92964000D03*
X121107200Y-81635600D03*
%TO.N,3.3V*%
X151511000Y-98679000D03*
X114655600Y-77012800D03*
X151536400Y-108508800D03*
X128066800Y-83718400D03*
X129320800Y-90795600D03*
X143713200Y-84226400D03*
X129413000Y-101117400D03*
X142798800Y-100025200D03*
X156337000Y-87503000D03*
D23*
X143510000Y-72517000D03*
D22*
X125933200Y-95402400D03*
%TO.N,Net-(C16-Pad2)*%
X92405200Y-115011200D03*
D23*
X94996000Y-118414800D03*
D22*
X78079600Y-107188000D03*
%TO.N,Net-(C21-Pad2)*%
X77012800Y-69697600D03*
D23*
X96672400Y-69697600D03*
%TO.N,AC_NEUTRAL*%
X94488000Y-112166400D03*
X72694800Y-91440000D03*
X95351600Y-76250800D03*
X74879200Y-76250800D03*
X109931200Y-112166400D03*
X84175600Y-108559600D03*
D22*
%TO.N,SOL1*%
X69748400Y-115163600D03*
X123545600Y-84175600D03*
%TO.N,SOL3*%
X122732800Y-87172800D03*
X76860400Y-106222800D03*
%TO.N,Net-(K1-Pad2)*%
X78613000Y-116408200D03*
X100279200Y-114909600D03*
%TO.N,SOL5*%
X126064000Y-96795600D03*
X90779600Y-97028000D03*
%TO.N,SOL6*%
X125831600Y-98196400D03*
X83108800Y-93776800D03*
%TO.N,SOL4*%
X129336800Y-96164400D03*
X97739200Y-76809600D03*
X84429600Y-92811600D03*
X85140800Y-82753200D03*
%TO.N,SWCLK*%
X126187200Y-83972400D03*
X131013200Y-86614000D03*
%TO.N,TX*%
X137464800Y-81229200D03*
%TO.N,SWO*%
X125628400Y-82346800D03*
X134823200Y-85852000D03*
%TO.N,PG1*%
X136956800Y-88138000D03*
%TO.N,PG2*%
X137922000Y-88646000D03*
%TO.N,ENCD1_A*%
X145542000Y-90424000D03*
X167259000Y-114046000D03*
%TO.N,ENCD2_A*%
X175768000Y-107315000D03*
X148336000Y-92075000D03*
%TO.N,ENCD1_B*%
X141478000Y-90297000D03*
X164846000Y-113919000D03*
%TO.N,ENCD2_B*%
X180594000Y-107188000D03*
X147193000Y-91821000D03*
%TO.N,SBV1_DIR*%
X154432000Y-115189000D03*
X137541000Y-91186000D03*
%TO.N,SBV1_EN*%
X139827000Y-93218000D03*
X155702000Y-118491000D03*
%TO.N,SBV2_DIR*%
X170561000Y-110744000D03*
X145923000Y-91567000D03*
%TO.N,SBV2_PUL*%
X129921000Y-97536000D03*
X152400000Y-114300000D03*
%TO.N,SBV1_PUL*%
X162052000Y-113665000D03*
X133858000Y-89916000D03*
%TO.N,SBV2_EN*%
X174371000Y-114554000D03*
X138938000Y-91313000D03*
%TO.N,TX_USB*%
X161544000Y-101219000D03*
X147828000Y-96774000D03*
%TO.N,RX_USB*%
X159258000Y-102362000D03*
X147066000Y-97282000D03*
%TD*%
D24*
%TO.N,SBV1_PUL*%
X157988000Y-109601000D02*
X162052000Y-113665000D01*
X153098242Y-95577000D02*
X157988000Y-100466758D01*
X133858000Y-89916000D02*
X139519000Y-95577000D01*
X139519000Y-95577000D02*
X153098242Y-95577000D01*
X157988000Y-100466758D02*
X157988000Y-109601000D01*
%TO.N,SBV2_EN*%
X167510295Y-109347000D02*
X171958000Y-109347000D01*
X138938000Y-91313000D02*
X142748000Y-95123000D01*
X153543000Y-95377000D02*
X153289000Y-95123000D01*
X142748000Y-95123000D02*
X153289000Y-95123000D01*
X171958000Y-109347000D02*
X174371000Y-111760000D01*
X153543000Y-95379705D02*
X167510295Y-109347000D01*
X174371000Y-111760000D02*
X174371000Y-114554000D01*
X153543000Y-95379705D02*
X153543000Y-95377000D01*
%TD*%
%TA.AperFunction,Conductor*%
%TO.N,3.3V*%
G36*
X190945676Y-67390657D02*
G01*
X190991075Y-67436152D01*
X191007600Y-67498263D01*
X190881262Y-127003145D01*
X190864542Y-127065068D01*
X190819118Y-127110352D01*
X190757144Y-127126882D01*
X57083882Y-127000178D01*
X57021932Y-126983526D01*
X56976593Y-126938144D01*
X56960000Y-126876178D01*
X56960000Y-123112903D01*
X58809794Y-123112903D01*
X58819672Y-123420972D01*
X58868867Y-123725261D01*
X58956570Y-124020760D01*
X59081334Y-124302604D01*
X59081336Y-124302608D01*
X59081337Y-124302609D01*
X59241123Y-124566193D01*
X59433304Y-124807181D01*
X59654724Y-125021614D01*
X59901747Y-125205972D01*
X60170318Y-125357228D01*
X60456025Y-125472899D01*
X60754179Y-125551084D01*
X61059883Y-125590500D01*
X61290974Y-125590500D01*
X61290978Y-125590500D01*
X61340639Y-125587311D01*
X61521601Y-125575693D01*
X61824151Y-125516772D01*
X62116683Y-125419644D01*
X62394393Y-125285907D01*
X62652720Y-125117754D01*
X62669786Y-125103226D01*
X62753561Y-125031907D01*
X62887424Y-124917948D01*
X63023953Y-124767614D01*
X63094646Y-124689774D01*
X63094647Y-124689771D01*
X63094650Y-124689769D01*
X63270996Y-124436963D01*
X63413567Y-124163683D01*
X63466165Y-124020756D01*
X63520020Y-123874416D01*
X63588609Y-123573907D01*
X63588843Y-123571484D01*
X63618206Y-123267098D01*
X63608327Y-122959022D01*
X63559133Y-122654739D01*
X63529531Y-122555000D01*
X70222568Y-122555000D01*
X70242264Y-122817824D01*
X70300913Y-123074780D01*
X70397204Y-123320124D01*
X70526262Y-123543661D01*
X70528985Y-123548376D01*
X70693314Y-123754438D01*
X70693316Y-123754440D01*
X70693317Y-123754441D01*
X70886513Y-123933701D01*
X70886515Y-123933702D01*
X70886519Y-123933706D01*
X71104285Y-124082176D01*
X71341746Y-124196532D01*
X71593600Y-124274218D01*
X71807964Y-124306528D01*
X71854218Y-124313500D01*
X71854219Y-124313500D01*
X72117781Y-124313500D01*
X72117782Y-124313500D01*
X72157063Y-124307579D01*
X72378400Y-124274218D01*
X72630254Y-124196532D01*
X72867716Y-124082176D01*
X73085481Y-123933706D01*
X73278686Y-123754438D01*
X73443015Y-123548376D01*
X73574796Y-123320124D01*
X73671087Y-123074780D01*
X73729735Y-122817826D01*
X73749431Y-122555000D01*
X74182568Y-122555000D01*
X74202264Y-122817824D01*
X74260913Y-123074780D01*
X74357204Y-123320124D01*
X74486262Y-123543661D01*
X74488985Y-123548376D01*
X74653314Y-123754438D01*
X74653316Y-123754440D01*
X74653317Y-123754441D01*
X74846513Y-123933701D01*
X74846515Y-123933702D01*
X74846519Y-123933706D01*
X75064285Y-124082176D01*
X75301746Y-124196532D01*
X75553600Y-124274218D01*
X75767964Y-124306528D01*
X75814218Y-124313500D01*
X75814219Y-124313500D01*
X76077781Y-124313500D01*
X76077782Y-124313500D01*
X76117063Y-124307579D01*
X76338400Y-124274218D01*
X76590254Y-124196532D01*
X76827716Y-124082176D01*
X77045481Y-123933706D01*
X77238686Y-123754438D01*
X77403015Y-123548376D01*
X77534796Y-123320124D01*
X77631087Y-123074780D01*
X77689735Y-122817826D01*
X77709431Y-122555000D01*
X78142568Y-122555000D01*
X78162264Y-122817824D01*
X78220913Y-123074780D01*
X78317204Y-123320124D01*
X78446262Y-123543661D01*
X78448985Y-123548376D01*
X78613314Y-123754438D01*
X78613316Y-123754440D01*
X78613317Y-123754441D01*
X78806513Y-123933701D01*
X78806515Y-123933702D01*
X78806519Y-123933706D01*
X79024285Y-124082176D01*
X79261746Y-124196532D01*
X79513600Y-124274218D01*
X79727964Y-124306528D01*
X79774218Y-124313500D01*
X79774219Y-124313500D01*
X80037781Y-124313500D01*
X80037782Y-124313500D01*
X80077063Y-124307579D01*
X80298400Y-124274218D01*
X80550254Y-124196532D01*
X80787716Y-124082176D01*
X81005481Y-123933706D01*
X81198686Y-123754438D01*
X81363015Y-123548376D01*
X81494796Y-123320124D01*
X81591087Y-123074780D01*
X81649735Y-122817826D01*
X81669281Y-122556999D01*
X88002568Y-122556999D01*
X88022264Y-122819824D01*
X88080913Y-123076780D01*
X88177204Y-123322124D01*
X88308984Y-123550375D01*
X88316394Y-123559667D01*
X88473314Y-123756438D01*
X88473316Y-123756440D01*
X88473317Y-123756441D01*
X88666513Y-123935701D01*
X88666515Y-123935702D01*
X88666519Y-123935706D01*
X88884285Y-124084176D01*
X89121746Y-124198532D01*
X89373600Y-124276218D01*
X89587964Y-124308528D01*
X89634218Y-124315500D01*
X89634219Y-124315500D01*
X89897781Y-124315500D01*
X89897782Y-124315500D01*
X89937063Y-124309579D01*
X90158400Y-124276218D01*
X90410254Y-124198532D01*
X90647716Y-124084176D01*
X90865481Y-123935706D01*
X91058686Y-123756438D01*
X91223015Y-123550376D01*
X91354796Y-123322124D01*
X91451087Y-123076780D01*
X91509735Y-122819826D01*
X91529431Y-122557000D01*
X91529431Y-122556999D01*
X91962568Y-122556999D01*
X91982264Y-122819824D01*
X92040913Y-123076780D01*
X92137204Y-123322124D01*
X92268984Y-123550375D01*
X92276394Y-123559667D01*
X92433314Y-123756438D01*
X92433316Y-123756440D01*
X92433317Y-123756441D01*
X92626513Y-123935701D01*
X92626515Y-123935702D01*
X92626519Y-123935706D01*
X92844285Y-124084176D01*
X93081746Y-124198532D01*
X93333600Y-124276218D01*
X93547964Y-124308528D01*
X93594218Y-124315500D01*
X93594219Y-124315500D01*
X93857781Y-124315500D01*
X93857782Y-124315500D01*
X93897063Y-124309579D01*
X94118400Y-124276218D01*
X94370254Y-124198532D01*
X94607716Y-124084176D01*
X94825481Y-123935706D01*
X95018686Y-123756438D01*
X95183015Y-123550376D01*
X95314796Y-123322124D01*
X95411087Y-123076780D01*
X95469735Y-122819826D01*
X95489431Y-122557000D01*
X95489431Y-122556999D01*
X95922568Y-122556999D01*
X95942264Y-122819824D01*
X96000913Y-123076780D01*
X96097204Y-123322124D01*
X96228984Y-123550375D01*
X96236394Y-123559667D01*
X96393314Y-123756438D01*
X96393316Y-123756440D01*
X96393317Y-123756441D01*
X96586513Y-123935701D01*
X96586515Y-123935702D01*
X96586519Y-123935706D01*
X96804285Y-124084176D01*
X97041746Y-124198532D01*
X97293600Y-124276218D01*
X97507964Y-124308528D01*
X97554218Y-124315500D01*
X97554219Y-124315500D01*
X97817781Y-124315500D01*
X97817782Y-124315500D01*
X97857063Y-124309579D01*
X98078400Y-124276218D01*
X98330254Y-124198532D01*
X98567716Y-124084176D01*
X98785481Y-123935706D01*
X98978686Y-123756438D01*
X99143015Y-123550376D01*
X99274796Y-123322124D01*
X99371087Y-123076780D01*
X99429735Y-122819826D01*
X99449431Y-122557000D01*
X99449281Y-122555000D01*
X105528568Y-122555000D01*
X105548264Y-122817824D01*
X105606913Y-123074780D01*
X105703204Y-123320124D01*
X105832262Y-123543661D01*
X105834985Y-123548376D01*
X105999314Y-123754438D01*
X105999316Y-123754440D01*
X105999317Y-123754441D01*
X106192513Y-123933701D01*
X106192515Y-123933702D01*
X106192519Y-123933706D01*
X106410285Y-124082176D01*
X106647746Y-124196532D01*
X106899600Y-124274218D01*
X107113964Y-124306528D01*
X107160218Y-124313500D01*
X107160219Y-124313500D01*
X107423781Y-124313500D01*
X107423782Y-124313500D01*
X107463063Y-124307579D01*
X107684400Y-124274218D01*
X107936254Y-124196532D01*
X108173716Y-124082176D01*
X108391481Y-123933706D01*
X108584686Y-123754438D01*
X108749015Y-123548376D01*
X108880796Y-123320124D01*
X108977087Y-123074780D01*
X109035735Y-122817826D01*
X109055431Y-122555000D01*
X109488568Y-122555000D01*
X109508264Y-122817824D01*
X109566913Y-123074780D01*
X109663204Y-123320124D01*
X109792262Y-123543661D01*
X109794985Y-123548376D01*
X109959314Y-123754438D01*
X109959316Y-123754440D01*
X109959317Y-123754441D01*
X110152513Y-123933701D01*
X110152515Y-123933702D01*
X110152519Y-123933706D01*
X110370285Y-124082176D01*
X110607746Y-124196532D01*
X110859600Y-124274218D01*
X111073964Y-124306528D01*
X111120218Y-124313500D01*
X111120219Y-124313500D01*
X111383781Y-124313500D01*
X111383782Y-124313500D01*
X111423063Y-124307579D01*
X111644400Y-124274218D01*
X111896254Y-124196532D01*
X112133716Y-124082176D01*
X112351481Y-123933706D01*
X112544686Y-123754438D01*
X112709015Y-123548376D01*
X112840796Y-123320124D01*
X112937087Y-123074780D01*
X112995735Y-122817826D01*
X113015431Y-122555000D01*
X113448568Y-122555000D01*
X113468264Y-122817824D01*
X113526913Y-123074780D01*
X113623204Y-123320124D01*
X113752262Y-123543661D01*
X113754985Y-123548376D01*
X113919314Y-123754438D01*
X113919316Y-123754440D01*
X113919317Y-123754441D01*
X114112513Y-123933701D01*
X114112515Y-123933702D01*
X114112519Y-123933706D01*
X114330285Y-124082176D01*
X114567746Y-124196532D01*
X114819600Y-124274218D01*
X115033964Y-124306528D01*
X115080218Y-124313500D01*
X115080219Y-124313500D01*
X115343781Y-124313500D01*
X115343782Y-124313500D01*
X115383063Y-124307579D01*
X115604400Y-124274218D01*
X115856254Y-124196532D01*
X116093716Y-124082176D01*
X116311481Y-123933706D01*
X116504686Y-123754438D01*
X116669015Y-123548376D01*
X116800796Y-123320124D01*
X116897087Y-123074780D01*
X116955735Y-122817826D01*
X116975431Y-122555000D01*
X116973288Y-122526400D01*
X141913020Y-122526400D01*
X141932898Y-122740926D01*
X141991856Y-122948142D01*
X142087885Y-123140996D01*
X142217722Y-123312927D01*
X142376933Y-123458067D01*
X142376935Y-123458068D01*
X142376936Y-123458069D01*
X142560109Y-123571485D01*
X142761004Y-123649312D01*
X142972779Y-123688900D01*
X143188219Y-123688900D01*
X143188221Y-123688900D01*
X143399996Y-123649312D01*
X143600891Y-123571485D01*
X143784064Y-123458069D01*
X143943278Y-123312926D01*
X143981546Y-123262250D01*
X144025228Y-123225978D01*
X144080500Y-123212978D01*
X144135772Y-123225978D01*
X144179454Y-123262251D01*
X144217722Y-123312927D01*
X144376933Y-123458067D01*
X144376935Y-123458068D01*
X144376936Y-123458069D01*
X144560109Y-123571485D01*
X144761004Y-123649312D01*
X144972779Y-123688900D01*
X145188219Y-123688900D01*
X145188221Y-123688900D01*
X145399996Y-123649312D01*
X145600891Y-123571485D01*
X145784064Y-123458069D01*
X145943278Y-123312926D01*
X145981546Y-123262250D01*
X146025228Y-123225978D01*
X146080500Y-123212978D01*
X146135772Y-123225978D01*
X146179454Y-123262251D01*
X146217722Y-123312927D01*
X146376933Y-123458067D01*
X146376935Y-123458068D01*
X146376936Y-123458069D01*
X146560109Y-123571485D01*
X146761004Y-123649312D01*
X146972779Y-123688900D01*
X147188219Y-123688900D01*
X147188221Y-123688900D01*
X147399996Y-123649312D01*
X147600891Y-123571485D01*
X147784064Y-123458069D01*
X147943278Y-123312926D01*
X147981546Y-123262250D01*
X148025228Y-123225978D01*
X148080500Y-123212978D01*
X148135772Y-123225978D01*
X148179454Y-123262251D01*
X148217722Y-123312927D01*
X148376933Y-123458067D01*
X148376935Y-123458068D01*
X148376936Y-123458069D01*
X148560109Y-123571485D01*
X148761004Y-123649312D01*
X148972779Y-123688900D01*
X149188219Y-123688900D01*
X149188221Y-123688900D01*
X149399996Y-123649312D01*
X149600891Y-123571485D01*
X149784064Y-123458069D01*
X149943278Y-123312926D01*
X149981546Y-123262250D01*
X150025228Y-123225978D01*
X150080500Y-123212978D01*
X150135772Y-123225978D01*
X150179454Y-123262251D01*
X150217722Y-123312927D01*
X150376933Y-123458067D01*
X150376935Y-123458068D01*
X150376936Y-123458069D01*
X150560109Y-123571485D01*
X150761004Y-123649312D01*
X150972779Y-123688900D01*
X151188219Y-123688900D01*
X151188221Y-123688900D01*
X151399996Y-123649312D01*
X151600891Y-123571485D01*
X151784064Y-123458069D01*
X151810968Y-123433542D01*
X151871891Y-123403258D01*
X151939624Y-123409677D01*
X151993774Y-123450867D01*
X152056862Y-123535143D01*
X152063240Y-123543662D01*
X152180296Y-123631289D01*
X152317294Y-123682388D01*
X152317297Y-123682388D01*
X152317299Y-123682389D01*
X152377862Y-123688900D01*
X153783134Y-123688900D01*
X153783138Y-123688900D01*
X153843701Y-123682389D01*
X153843703Y-123682388D01*
X153843705Y-123682388D01*
X153932383Y-123649312D01*
X153980704Y-123631289D01*
X154097761Y-123543661D01*
X154185389Y-123426604D01*
X154221183Y-123330638D01*
X154236488Y-123289605D01*
X154236488Y-123289603D01*
X154236489Y-123289601D01*
X154243000Y-123229038D01*
X154243000Y-122627999D01*
X158931020Y-122627999D01*
X158950898Y-122842526D01*
X159009856Y-123049742D01*
X159105885Y-123242596D01*
X159235722Y-123414527D01*
X159394933Y-123559667D01*
X159394935Y-123559668D01*
X159394936Y-123559669D01*
X159578109Y-123673085D01*
X159779004Y-123750912D01*
X159990779Y-123790500D01*
X160206219Y-123790500D01*
X160206221Y-123790500D01*
X160417996Y-123750912D01*
X160618891Y-123673085D01*
X160802064Y-123559669D01*
X160961278Y-123414526D01*
X160999546Y-123363850D01*
X161043228Y-123327578D01*
X161098500Y-123314578D01*
X161153772Y-123327578D01*
X161197454Y-123363851D01*
X161235722Y-123414527D01*
X161394933Y-123559667D01*
X161394935Y-123559668D01*
X161394936Y-123559669D01*
X161578109Y-123673085D01*
X161779004Y-123750912D01*
X161990779Y-123790500D01*
X162206219Y-123790500D01*
X162206221Y-123790500D01*
X162417996Y-123750912D01*
X162618891Y-123673085D01*
X162802064Y-123559669D01*
X162961278Y-123414526D01*
X162999546Y-123363850D01*
X163043228Y-123327578D01*
X163098500Y-123314578D01*
X163153772Y-123327578D01*
X163197454Y-123363851D01*
X163235722Y-123414527D01*
X163394933Y-123559667D01*
X163394935Y-123559668D01*
X163394936Y-123559669D01*
X163578109Y-123673085D01*
X163779004Y-123750912D01*
X163990779Y-123790500D01*
X164206219Y-123790500D01*
X164206221Y-123790500D01*
X164417996Y-123750912D01*
X164618891Y-123673085D01*
X164802064Y-123559669D01*
X164961278Y-123414526D01*
X164999546Y-123363850D01*
X165043228Y-123327578D01*
X165098500Y-123314578D01*
X165153772Y-123327578D01*
X165197454Y-123363851D01*
X165235722Y-123414527D01*
X165394933Y-123559667D01*
X165394935Y-123559668D01*
X165394936Y-123559669D01*
X165578109Y-123673085D01*
X165779004Y-123750912D01*
X165990779Y-123790500D01*
X166206219Y-123790500D01*
X166206221Y-123790500D01*
X166417996Y-123750912D01*
X166618891Y-123673085D01*
X166802064Y-123559669D01*
X166961278Y-123414526D01*
X166999546Y-123363850D01*
X167043228Y-123327578D01*
X167098500Y-123314578D01*
X167153772Y-123327578D01*
X167197454Y-123363851D01*
X167235722Y-123414527D01*
X167394933Y-123559667D01*
X167394935Y-123559668D01*
X167394936Y-123559669D01*
X167578109Y-123673085D01*
X167779004Y-123750912D01*
X167990779Y-123790500D01*
X168206219Y-123790500D01*
X168206221Y-123790500D01*
X168417996Y-123750912D01*
X168618891Y-123673085D01*
X168802064Y-123559669D01*
X168828968Y-123535142D01*
X168889891Y-123504858D01*
X168957624Y-123511277D01*
X169011774Y-123552467D01*
X169062639Y-123620415D01*
X169081240Y-123645262D01*
X169198296Y-123732889D01*
X169335294Y-123783988D01*
X169335297Y-123783988D01*
X169335299Y-123783989D01*
X169395862Y-123790500D01*
X170801134Y-123790500D01*
X170801138Y-123790500D01*
X170861701Y-123783989D01*
X170861703Y-123783988D01*
X170861705Y-123783988D01*
X170950383Y-123750912D01*
X170998704Y-123732889D01*
X171115761Y-123645261D01*
X171203389Y-123528204D01*
X171254489Y-123391201D01*
X171261000Y-123330638D01*
X171261000Y-122858903D01*
X183879394Y-122858903D01*
X183889272Y-123166972D01*
X183938467Y-123471261D01*
X184026170Y-123766760D01*
X184150934Y-124048604D01*
X184150936Y-124048608D01*
X184150937Y-124048609D01*
X184310723Y-124312193D01*
X184502904Y-124553181D01*
X184724324Y-124767614D01*
X184971347Y-124951972D01*
X185239918Y-125103228D01*
X185525625Y-125218899D01*
X185823779Y-125297084D01*
X186129483Y-125336500D01*
X186360574Y-125336500D01*
X186360578Y-125336500D01*
X186410239Y-125333311D01*
X186591201Y-125321693D01*
X186893751Y-125262772D01*
X187186283Y-125165644D01*
X187463993Y-125031907D01*
X187722320Y-124863754D01*
X187957024Y-124663948D01*
X188163166Y-124436963D01*
X188164246Y-124435774D01*
X188164247Y-124435771D01*
X188164250Y-124435769D01*
X188340596Y-124182963D01*
X188483167Y-123909683D01*
X188527027Y-123790500D01*
X188589620Y-123620416D01*
X188657703Y-123322124D01*
X188658209Y-123319908D01*
X188687806Y-123013098D01*
X188677927Y-122705022D01*
X188628733Y-122400739D01*
X188541031Y-122105244D01*
X188528703Y-122077395D01*
X188416265Y-121823395D01*
X188410453Y-121813807D01*
X188256477Y-121559807D01*
X188064296Y-121318819D01*
X187842876Y-121104386D01*
X187829084Y-121094093D01*
X187595856Y-120920030D01*
X187595854Y-120920029D01*
X187595853Y-120920028D01*
X187327282Y-120768772D01*
X187041575Y-120653101D01*
X186807016Y-120591592D01*
X186743418Y-120574915D01*
X186490827Y-120542347D01*
X186437717Y-120535500D01*
X186206626Y-120535500D01*
X186206622Y-120535500D01*
X185975997Y-120550307D01*
X185673454Y-120609226D01*
X185604490Y-120632124D01*
X185380917Y-120706356D01*
X185380914Y-120706357D01*
X185380912Y-120706358D01*
X185103212Y-120840089D01*
X184844874Y-121008249D01*
X184610175Y-121208052D01*
X184402953Y-121436225D01*
X184226602Y-121689039D01*
X184084032Y-121962316D01*
X183977579Y-122251583D01*
X183908990Y-122552092D01*
X183879394Y-122858903D01*
X171261000Y-122858903D01*
X171261000Y-121925362D01*
X171254489Y-121864799D01*
X171254488Y-121864797D01*
X171254488Y-121864794D01*
X171203389Y-121727796D01*
X171115761Y-121610738D01*
X170998703Y-121523110D01*
X170861705Y-121472011D01*
X170831419Y-121468755D01*
X170801138Y-121465500D01*
X169395862Y-121465500D01*
X169368945Y-121468393D01*
X169335294Y-121472011D01*
X169198296Y-121523110D01*
X169081239Y-121610737D01*
X169011774Y-121703532D01*
X168957624Y-121744722D01*
X168889892Y-121751141D01*
X168828969Y-121720858D01*
X168802064Y-121696331D01*
X168802063Y-121696330D01*
X168618891Y-121582915D01*
X168592830Y-121572819D01*
X168417996Y-121505088D01*
X168206221Y-121465500D01*
X167990779Y-121465500D01*
X167779004Y-121505087D01*
X167779004Y-121505088D01*
X167578108Y-121582915D01*
X167394933Y-121696332D01*
X167235722Y-121841473D01*
X167197454Y-121892148D01*
X167153771Y-121928421D01*
X167098500Y-121941421D01*
X167043229Y-121928421D01*
X166999546Y-121892148D01*
X166961277Y-121841473D01*
X166802066Y-121696332D01*
X166618891Y-121582915D01*
X166592830Y-121572819D01*
X166417996Y-121505088D01*
X166206221Y-121465500D01*
X165990779Y-121465500D01*
X165779004Y-121505087D01*
X165779004Y-121505088D01*
X165578108Y-121582915D01*
X165394933Y-121696332D01*
X165235722Y-121841473D01*
X165197454Y-121892148D01*
X165153771Y-121928421D01*
X165098500Y-121941421D01*
X165043229Y-121928421D01*
X164999546Y-121892148D01*
X164961277Y-121841473D01*
X164802066Y-121696332D01*
X164618891Y-121582915D01*
X164592830Y-121572819D01*
X164417996Y-121505088D01*
X164206221Y-121465500D01*
X163990779Y-121465500D01*
X163779004Y-121505087D01*
X163779004Y-121505088D01*
X163578108Y-121582915D01*
X163394933Y-121696332D01*
X163235722Y-121841473D01*
X163197454Y-121892148D01*
X163153771Y-121928421D01*
X163098500Y-121941421D01*
X163043229Y-121928421D01*
X162999546Y-121892148D01*
X162961277Y-121841473D01*
X162802066Y-121696332D01*
X162618891Y-121582915D01*
X162592830Y-121572819D01*
X162417996Y-121505088D01*
X162206221Y-121465500D01*
X161990779Y-121465500D01*
X161779004Y-121505087D01*
X161779004Y-121505088D01*
X161578108Y-121582915D01*
X161394933Y-121696332D01*
X161235722Y-121841473D01*
X161197454Y-121892148D01*
X161153771Y-121928421D01*
X161098500Y-121941421D01*
X161043229Y-121928421D01*
X160999546Y-121892148D01*
X160961277Y-121841473D01*
X160802066Y-121696332D01*
X160618891Y-121582915D01*
X160592830Y-121572819D01*
X160417996Y-121505088D01*
X160206221Y-121465500D01*
X159990779Y-121465500D01*
X159779004Y-121505087D01*
X159779004Y-121505088D01*
X159578108Y-121582915D01*
X159394933Y-121696332D01*
X159235722Y-121841472D01*
X159105885Y-122013403D01*
X159009856Y-122206257D01*
X158950898Y-122413473D01*
X158931020Y-122627999D01*
X154243000Y-122627999D01*
X154243000Y-121823762D01*
X154236489Y-121763199D01*
X154236488Y-121763197D01*
X154236488Y-121763194D01*
X154185389Y-121626196D01*
X154097761Y-121509138D01*
X153980703Y-121421510D01*
X153843705Y-121370411D01*
X153813419Y-121367155D01*
X153783138Y-121363900D01*
X152377862Y-121363900D01*
X152350945Y-121366793D01*
X152317294Y-121370411D01*
X152180296Y-121421510D01*
X152063239Y-121509137D01*
X151993774Y-121601932D01*
X151939624Y-121643122D01*
X151871892Y-121649541D01*
X151810969Y-121619258D01*
X151784064Y-121594731D01*
X151784063Y-121594730D01*
X151600891Y-121481315D01*
X151600890Y-121481314D01*
X151399996Y-121403488D01*
X151188221Y-121363900D01*
X150972779Y-121363900D01*
X150761003Y-121403488D01*
X150761004Y-121403488D01*
X150560108Y-121481315D01*
X150376933Y-121594732D01*
X150217722Y-121739873D01*
X150179454Y-121790548D01*
X150135771Y-121826821D01*
X150080500Y-121839821D01*
X150025229Y-121826821D01*
X149981546Y-121790548D01*
X149943277Y-121739873D01*
X149784066Y-121594732D01*
X149600891Y-121481315D01*
X149600890Y-121481314D01*
X149399996Y-121403488D01*
X149188221Y-121363900D01*
X148972779Y-121363900D01*
X148761003Y-121403488D01*
X148761004Y-121403488D01*
X148560108Y-121481315D01*
X148376933Y-121594732D01*
X148217722Y-121739873D01*
X148179454Y-121790548D01*
X148135771Y-121826821D01*
X148080500Y-121839821D01*
X148025229Y-121826821D01*
X147981546Y-121790548D01*
X147943277Y-121739873D01*
X147784066Y-121594732D01*
X147600891Y-121481315D01*
X147600890Y-121481314D01*
X147399996Y-121403488D01*
X147188221Y-121363900D01*
X146972779Y-121363900D01*
X146761003Y-121403488D01*
X146761004Y-121403488D01*
X146560108Y-121481315D01*
X146376933Y-121594732D01*
X146217722Y-121739873D01*
X146179454Y-121790548D01*
X146135771Y-121826821D01*
X146080500Y-121839821D01*
X146025229Y-121826821D01*
X145981546Y-121790548D01*
X145943277Y-121739873D01*
X145784066Y-121594732D01*
X145600891Y-121481315D01*
X145600890Y-121481314D01*
X145399996Y-121403488D01*
X145188221Y-121363900D01*
X144972779Y-121363900D01*
X144761003Y-121403488D01*
X144761004Y-121403488D01*
X144560108Y-121481315D01*
X144376933Y-121594732D01*
X144217722Y-121739873D01*
X144179454Y-121790548D01*
X144135771Y-121826821D01*
X144080500Y-121839821D01*
X144025229Y-121826821D01*
X143981546Y-121790548D01*
X143943277Y-121739873D01*
X143784066Y-121594732D01*
X143600891Y-121481315D01*
X143600890Y-121481314D01*
X143399996Y-121403488D01*
X143188221Y-121363900D01*
X142972779Y-121363900D01*
X142761003Y-121403488D01*
X142761004Y-121403488D01*
X142560108Y-121481315D01*
X142376933Y-121594732D01*
X142217722Y-121739872D01*
X142087885Y-121911803D01*
X141991856Y-122104657D01*
X141932898Y-122311873D01*
X141913020Y-122526400D01*
X116973288Y-122526400D01*
X116955735Y-122292174D01*
X116897087Y-122035220D01*
X116800796Y-121789876D01*
X116669015Y-121561624D01*
X116504686Y-121355562D01*
X116497902Y-121349267D01*
X116311483Y-121176295D01*
X116100133Y-121032199D01*
X116093716Y-121027824D01*
X116093715Y-121027823D01*
X116093713Y-121027822D01*
X115856252Y-120913467D01*
X115604401Y-120835782D01*
X115343782Y-120796500D01*
X115343781Y-120796500D01*
X115080219Y-120796500D01*
X115080218Y-120796500D01*
X114819598Y-120835782D01*
X114567748Y-120913467D01*
X114330287Y-121027822D01*
X114112513Y-121176298D01*
X113919317Y-121355558D01*
X113754984Y-121561624D01*
X113623204Y-121789875D01*
X113526913Y-122035219D01*
X113468264Y-122292175D01*
X113448568Y-122555000D01*
X113015431Y-122555000D01*
X112995735Y-122292174D01*
X112937087Y-122035220D01*
X112840796Y-121789876D01*
X112709015Y-121561624D01*
X112544686Y-121355562D01*
X112537902Y-121349267D01*
X112351483Y-121176295D01*
X112140133Y-121032199D01*
X112133716Y-121027824D01*
X112133715Y-121027823D01*
X112133713Y-121027822D01*
X111896252Y-120913467D01*
X111644401Y-120835782D01*
X111383782Y-120796500D01*
X111383781Y-120796500D01*
X111120219Y-120796500D01*
X111120218Y-120796500D01*
X110859598Y-120835782D01*
X110607748Y-120913467D01*
X110370287Y-121027822D01*
X110152513Y-121176298D01*
X109959317Y-121355558D01*
X109794984Y-121561624D01*
X109663204Y-121789875D01*
X109566913Y-122035219D01*
X109508264Y-122292175D01*
X109488568Y-122555000D01*
X109055431Y-122555000D01*
X109035735Y-122292174D01*
X108977087Y-122035220D01*
X108880796Y-121789876D01*
X108749015Y-121561624D01*
X108584686Y-121355562D01*
X108577902Y-121349267D01*
X108391483Y-121176295D01*
X108180133Y-121032199D01*
X108173716Y-121027824D01*
X108173715Y-121027823D01*
X108173713Y-121027822D01*
X107936252Y-120913467D01*
X107684401Y-120835782D01*
X107423782Y-120796500D01*
X107423781Y-120796500D01*
X107160219Y-120796500D01*
X107160218Y-120796500D01*
X106899598Y-120835782D01*
X106647748Y-120913467D01*
X106410287Y-121027822D01*
X106192513Y-121176298D01*
X105999317Y-121355558D01*
X105834984Y-121561624D01*
X105703204Y-121789875D01*
X105606913Y-122035219D01*
X105548264Y-122292175D01*
X105528568Y-122555000D01*
X99449281Y-122555000D01*
X99429735Y-122294174D01*
X99371087Y-122037220D01*
X99274796Y-121791876D01*
X99143015Y-121563624D01*
X98978686Y-121357562D01*
X98976531Y-121355562D01*
X98785483Y-121178295D01*
X98567713Y-121029822D01*
X98330252Y-120915467D01*
X98078401Y-120837782D01*
X97817782Y-120798500D01*
X97817781Y-120798500D01*
X97554219Y-120798500D01*
X97554218Y-120798500D01*
X97293598Y-120837782D01*
X97041748Y-120915467D01*
X96804287Y-121029822D01*
X96586513Y-121178298D01*
X96393317Y-121357558D01*
X96228984Y-121563624D01*
X96097204Y-121791875D01*
X96000913Y-122037219D01*
X95942264Y-122294175D01*
X95922568Y-122556999D01*
X95489431Y-122556999D01*
X95469735Y-122294174D01*
X95411087Y-122037220D01*
X95314796Y-121791876D01*
X95183015Y-121563624D01*
X95018686Y-121357562D01*
X95016531Y-121355562D01*
X94825483Y-121178295D01*
X94607713Y-121029822D01*
X94370252Y-120915467D01*
X94118401Y-120837782D01*
X93857782Y-120798500D01*
X93857781Y-120798500D01*
X93594219Y-120798500D01*
X93594218Y-120798500D01*
X93333598Y-120837782D01*
X93081748Y-120915467D01*
X92844287Y-121029822D01*
X92626513Y-121178298D01*
X92433317Y-121357558D01*
X92268984Y-121563624D01*
X92137204Y-121791875D01*
X92040913Y-122037219D01*
X91982264Y-122294175D01*
X91962568Y-122556999D01*
X91529431Y-122556999D01*
X91509735Y-122294174D01*
X91451087Y-122037220D01*
X91354796Y-121791876D01*
X91223015Y-121563624D01*
X91058686Y-121357562D01*
X91056531Y-121355562D01*
X90865483Y-121178295D01*
X90647713Y-121029822D01*
X90410252Y-120915467D01*
X90158401Y-120837782D01*
X89897782Y-120798500D01*
X89897781Y-120798500D01*
X89634219Y-120798500D01*
X89634218Y-120798500D01*
X89373598Y-120837782D01*
X89121748Y-120915467D01*
X88884287Y-121029822D01*
X88666513Y-121178298D01*
X88473317Y-121357558D01*
X88308984Y-121563624D01*
X88177204Y-121791875D01*
X88080913Y-122037219D01*
X88022264Y-122294175D01*
X88002568Y-122556999D01*
X81669281Y-122556999D01*
X81669431Y-122555000D01*
X81649735Y-122292174D01*
X81591087Y-122035220D01*
X81494796Y-121789876D01*
X81363015Y-121561624D01*
X81198686Y-121355562D01*
X81191902Y-121349267D01*
X81005483Y-121176295D01*
X80794133Y-121032199D01*
X80787716Y-121027824D01*
X80787715Y-121027823D01*
X80787713Y-121027822D01*
X80550252Y-120913467D01*
X80298401Y-120835782D01*
X80037782Y-120796500D01*
X80037781Y-120796500D01*
X79774219Y-120796500D01*
X79774218Y-120796500D01*
X79513598Y-120835782D01*
X79261748Y-120913467D01*
X79024287Y-121027822D01*
X78806513Y-121176298D01*
X78613317Y-121355558D01*
X78448984Y-121561624D01*
X78317204Y-121789875D01*
X78220913Y-122035219D01*
X78162264Y-122292175D01*
X78142568Y-122555000D01*
X77709431Y-122555000D01*
X77689735Y-122292174D01*
X77631087Y-122035220D01*
X77534796Y-121789876D01*
X77403015Y-121561624D01*
X77238686Y-121355562D01*
X77231902Y-121349267D01*
X77045483Y-121176295D01*
X76834133Y-121032199D01*
X76827716Y-121027824D01*
X76827715Y-121027823D01*
X76827713Y-121027822D01*
X76590252Y-120913467D01*
X76338401Y-120835782D01*
X76077782Y-120796500D01*
X76077781Y-120796500D01*
X75814219Y-120796500D01*
X75814218Y-120796500D01*
X75553598Y-120835782D01*
X75301748Y-120913467D01*
X75064287Y-121027822D01*
X74846513Y-121176298D01*
X74653317Y-121355558D01*
X74488984Y-121561624D01*
X74357204Y-121789875D01*
X74260913Y-122035219D01*
X74202264Y-122292175D01*
X74182568Y-122555000D01*
X73749431Y-122555000D01*
X73729735Y-122292174D01*
X73671087Y-122035220D01*
X73574796Y-121789876D01*
X73443015Y-121561624D01*
X73278686Y-121355562D01*
X73271902Y-121349267D01*
X73085483Y-121176295D01*
X72874133Y-121032199D01*
X72867716Y-121027824D01*
X72867715Y-121027823D01*
X72867713Y-121027822D01*
X72630252Y-120913467D01*
X72378401Y-120835782D01*
X72117782Y-120796500D01*
X72117781Y-120796500D01*
X71854219Y-120796500D01*
X71854218Y-120796500D01*
X71593598Y-120835782D01*
X71341748Y-120913467D01*
X71104287Y-121027822D01*
X70886513Y-121176298D01*
X70693317Y-121355558D01*
X70528984Y-121561624D01*
X70397204Y-121789875D01*
X70300913Y-122035219D01*
X70242264Y-122292175D01*
X70222568Y-122555000D01*
X63529531Y-122555000D01*
X63471431Y-122359244D01*
X63442627Y-122294175D01*
X63346665Y-122077395D01*
X63322311Y-122037220D01*
X63186877Y-121813807D01*
X62994696Y-121572819D01*
X62900210Y-121481315D01*
X62773275Y-121358385D01*
X62526256Y-121174030D01*
X62526254Y-121174029D01*
X62526253Y-121174028D01*
X62257682Y-121022772D01*
X61971975Y-120907101D01*
X61707631Y-120837782D01*
X61673818Y-120828915D01*
X61421227Y-120796347D01*
X61368117Y-120789500D01*
X61137026Y-120789500D01*
X61137022Y-120789500D01*
X60906397Y-120804307D01*
X60603854Y-120863226D01*
X60471711Y-120907101D01*
X60311317Y-120960356D01*
X60311314Y-120960357D01*
X60311312Y-120960358D01*
X60033612Y-121094089D01*
X59775274Y-121262249D01*
X59540575Y-121462052D01*
X59333353Y-121690225D01*
X59157002Y-121943039D01*
X59014432Y-122216316D01*
X58907979Y-122505583D01*
X58839390Y-122806092D01*
X58809794Y-123112903D01*
X56960000Y-123112903D01*
X56960000Y-120417599D01*
X176734120Y-120417599D01*
X176753998Y-120632126D01*
X176812956Y-120839342D01*
X176908985Y-121032196D01*
X177038822Y-121204127D01*
X177198033Y-121349267D01*
X177198035Y-121349268D01*
X177198036Y-121349269D01*
X177381209Y-121462685D01*
X177582104Y-121540512D01*
X177793879Y-121580100D01*
X178009319Y-121580100D01*
X178009321Y-121580100D01*
X178221096Y-121540512D01*
X178421991Y-121462685D01*
X178605164Y-121349269D01*
X178764378Y-121204126D01*
X178894212Y-121032199D01*
X178894212Y-121032197D01*
X178894214Y-121032196D01*
X178990243Y-120839342D01*
X179049201Y-120632126D01*
X179054502Y-120574915D01*
X179069080Y-120417600D01*
X179049201Y-120203076D01*
X179049201Y-120203073D01*
X178990243Y-119995857D01*
X178894214Y-119803003D01*
X178764377Y-119631073D01*
X178630729Y-119509237D01*
X178595001Y-119451534D01*
X178595001Y-119383666D01*
X178630729Y-119325963D01*
X178764378Y-119204126D01*
X178894212Y-119032199D01*
X178894212Y-119032197D01*
X178894214Y-119032196D01*
X178990243Y-118839342D01*
X179049201Y-118632126D01*
X179062278Y-118491000D01*
X179069080Y-118417600D01*
X179049201Y-118203076D01*
X179049201Y-118203073D01*
X178990243Y-117995857D01*
X178894214Y-117803003D01*
X178807655Y-117688382D01*
X178764378Y-117631074D01*
X178630728Y-117509236D01*
X178595001Y-117451534D01*
X178595001Y-117383666D01*
X178630729Y-117325963D01*
X178764378Y-117204126D01*
X178894212Y-117032199D01*
X178894212Y-117032197D01*
X178894214Y-117032196D01*
X178990243Y-116839342D01*
X179049201Y-116632126D01*
X179060749Y-116507500D01*
X185874920Y-116507500D01*
X185894798Y-116722026D01*
X185953756Y-116929242D01*
X186049785Y-117122096D01*
X186179622Y-117294027D01*
X186338833Y-117439167D01*
X186338835Y-117439168D01*
X186338836Y-117439169D01*
X186522009Y-117552585D01*
X186722904Y-117630412D01*
X186934679Y-117670000D01*
X187150119Y-117670000D01*
X187150121Y-117670000D01*
X187361896Y-117630412D01*
X187562791Y-117552585D01*
X187745964Y-117439169D01*
X187905178Y-117294026D01*
X188035012Y-117122099D01*
X188035012Y-117122097D01*
X188035014Y-117122096D01*
X188131043Y-116929242D01*
X188190001Y-116722026D01*
X188198331Y-116632126D01*
X188209880Y-116507500D01*
X188190001Y-116292976D01*
X188190001Y-116292973D01*
X188131043Y-116085757D01*
X188035014Y-115892903D01*
X187905177Y-115720972D01*
X187771529Y-115599136D01*
X187735801Y-115541433D01*
X187735801Y-115473564D01*
X187771525Y-115415866D01*
X187905178Y-115294026D01*
X188035012Y-115122099D01*
X188035012Y-115122097D01*
X188035014Y-115122096D01*
X188131043Y-114929242D01*
X188190001Y-114722026D01*
X188196059Y-114656644D01*
X188209880Y-114507500D01*
X188191692Y-114311220D01*
X188190001Y-114292973D01*
X188131043Y-114085757D01*
X188035014Y-113892903D01*
X187905177Y-113720972D01*
X187771529Y-113599136D01*
X187735801Y-113541433D01*
X187735801Y-113473564D01*
X187771525Y-113415866D01*
X187905178Y-113294026D01*
X188035012Y-113122099D01*
X188035012Y-113122097D01*
X188035014Y-113122096D01*
X188131043Y-112929242D01*
X188190001Y-112722026D01*
X188194317Y-112675444D01*
X188209880Y-112507500D01*
X188193975Y-112335864D01*
X188190001Y-112292973D01*
X188131043Y-112085757D01*
X188035014Y-111892903D01*
X187905177Y-111720973D01*
X187851835Y-111672345D01*
X187771528Y-111599136D01*
X187735801Y-111541434D01*
X187735801Y-111473566D01*
X187771529Y-111415863D01*
X187777185Y-111410707D01*
X187905178Y-111294026D01*
X188035012Y-111122099D01*
X188035012Y-111122097D01*
X188035014Y-111122096D01*
X188131043Y-110929242D01*
X188190001Y-110722026D01*
X188192883Y-110690915D01*
X188209880Y-110507500D01*
X188190001Y-110292976D01*
X188190001Y-110292973D01*
X188131043Y-110085757D01*
X188035014Y-109892903D01*
X187905177Y-109720972D01*
X187771529Y-109599136D01*
X187735801Y-109541433D01*
X187735801Y-109473564D01*
X187771525Y-109415866D01*
X187905178Y-109294026D01*
X188035012Y-109122099D01*
X188035012Y-109122097D01*
X188035014Y-109122096D01*
X188131043Y-108929242D01*
X188190001Y-108722026D01*
X188198508Y-108630217D01*
X188209880Y-108507500D01*
X188190001Y-108292976D01*
X188190001Y-108292973D01*
X188131043Y-108085757D01*
X188035014Y-107892903D01*
X187941350Y-107768873D01*
X187917223Y-107709212D01*
X187926248Y-107645493D01*
X187965993Y-107594880D01*
X188059661Y-107524761D01*
X188147289Y-107407704D01*
X188198389Y-107270701D01*
X188204900Y-107210138D01*
X188204900Y-105804862D01*
X188198389Y-105744299D01*
X188198388Y-105744297D01*
X188198388Y-105744294D01*
X188147289Y-105607296D01*
X188059661Y-105490238D01*
X187942603Y-105402610D01*
X187805605Y-105351511D01*
X187775319Y-105348255D01*
X187745038Y-105345000D01*
X186339762Y-105345000D01*
X186312845Y-105347893D01*
X186279194Y-105351511D01*
X186142196Y-105402610D01*
X186025138Y-105490238D01*
X185937510Y-105607296D01*
X185886411Y-105744294D01*
X185879900Y-105804866D01*
X185879900Y-107210134D01*
X185886411Y-107270705D01*
X185937510Y-107407703D01*
X186025138Y-107524761D01*
X186118805Y-107594879D01*
X186158551Y-107645493D01*
X186167576Y-107709212D01*
X186143449Y-107768872D01*
X186049787Y-107892900D01*
X185953756Y-108085757D01*
X185894798Y-108292973D01*
X185874920Y-108507499D01*
X185894798Y-108722026D01*
X185953756Y-108929242D01*
X186049785Y-109122096D01*
X186130869Y-109229467D01*
X186179622Y-109294026D01*
X186313270Y-109415863D01*
X186348998Y-109473564D01*
X186348999Y-109541433D01*
X186313271Y-109599136D01*
X186179620Y-109720975D01*
X186049785Y-109892903D01*
X185953756Y-110085757D01*
X185894798Y-110292973D01*
X185874920Y-110507499D01*
X185894798Y-110722026D01*
X185953756Y-110929242D01*
X186049785Y-111122096D01*
X186179622Y-111294027D01*
X186313270Y-111415863D01*
X186348998Y-111473566D01*
X186348998Y-111541434D01*
X186313270Y-111599137D01*
X186179622Y-111720972D01*
X186049785Y-111892903D01*
X185953756Y-112085757D01*
X185894798Y-112292973D01*
X185874920Y-112507500D01*
X185894798Y-112722026D01*
X185953756Y-112929242D01*
X186049785Y-113122096D01*
X186179622Y-113294027D01*
X186313270Y-113415863D01*
X186348998Y-113473566D01*
X186348998Y-113541434D01*
X186313270Y-113599137D01*
X186179622Y-113720972D01*
X186049785Y-113892903D01*
X185953756Y-114085757D01*
X185894798Y-114292973D01*
X185874920Y-114507500D01*
X185894798Y-114722026D01*
X185953756Y-114929242D01*
X186049785Y-115122096D01*
X186103355Y-115193033D01*
X186179622Y-115294026D01*
X186313270Y-115415863D01*
X186348998Y-115473564D01*
X186348999Y-115541433D01*
X186313271Y-115599136D01*
X186179620Y-115720975D01*
X186049785Y-115892903D01*
X185953756Y-116085757D01*
X185894798Y-116292973D01*
X185874920Y-116507500D01*
X179060749Y-116507500D01*
X179062793Y-116485442D01*
X179069080Y-116417600D01*
X179051359Y-116226363D01*
X179049201Y-116203073D01*
X178990243Y-115995857D01*
X178894214Y-115803003D01*
X178775531Y-115645843D01*
X178764378Y-115631074D01*
X178630728Y-115509236D01*
X178595001Y-115451534D01*
X178595001Y-115383666D01*
X178630729Y-115325963D01*
X178764378Y-115204126D01*
X178894212Y-115032199D01*
X178894212Y-115032197D01*
X178894214Y-115032196D01*
X178990243Y-114839342D01*
X179049201Y-114632126D01*
X179056080Y-114557886D01*
X179069080Y-114417600D01*
X179053863Y-114253385D01*
X179049201Y-114203073D01*
X178990243Y-113995857D01*
X178894214Y-113803003D01*
X178789394Y-113664200D01*
X178764378Y-113631074D01*
X178630728Y-113509236D01*
X178595001Y-113451534D01*
X178595001Y-113383666D01*
X178630729Y-113325963D01*
X178764378Y-113204126D01*
X178894212Y-113032199D01*
X178894212Y-113032197D01*
X178894214Y-113032196D01*
X178990243Y-112839342D01*
X179049201Y-112632126D01*
X179054355Y-112576500D01*
X179069080Y-112417600D01*
X179052004Y-112233320D01*
X179049201Y-112203073D01*
X178990243Y-111995857D01*
X178894214Y-111803003D01*
X178800550Y-111678973D01*
X178776423Y-111619312D01*
X178785448Y-111555593D01*
X178825193Y-111504980D01*
X178918861Y-111434861D01*
X179006489Y-111317804D01*
X179041949Y-111222733D01*
X179057588Y-111180805D01*
X179057588Y-111180803D01*
X179057589Y-111180801D01*
X179064100Y-111120238D01*
X179064100Y-109714962D01*
X179057589Y-109654399D01*
X179057588Y-109654397D01*
X179057588Y-109654394D01*
X179006489Y-109517396D01*
X178918861Y-109400338D01*
X178801803Y-109312710D01*
X178664805Y-109261611D01*
X178634519Y-109258355D01*
X178604238Y-109255100D01*
X177198962Y-109255100D01*
X177172045Y-109257993D01*
X177138394Y-109261611D01*
X177001396Y-109312710D01*
X176884338Y-109400338D01*
X176796710Y-109517396D01*
X176745611Y-109654394D01*
X176739100Y-109714966D01*
X176739100Y-111120234D01*
X176745611Y-111180805D01*
X176796710Y-111317803D01*
X176884338Y-111434861D01*
X176978005Y-111504979D01*
X177017751Y-111555593D01*
X177026776Y-111619312D01*
X177002649Y-111678972D01*
X176908987Y-111803000D01*
X176812956Y-111995857D01*
X176753998Y-112203073D01*
X176734120Y-112417600D01*
X176753998Y-112632126D01*
X176812956Y-112839342D01*
X176908985Y-113032196D01*
X177038822Y-113204127D01*
X177172470Y-113325963D01*
X177208198Y-113383666D01*
X177208198Y-113451534D01*
X177172470Y-113509237D01*
X177038822Y-113631072D01*
X176908985Y-113803003D01*
X176812956Y-113995857D01*
X176753998Y-114203073D01*
X176734120Y-114417599D01*
X176753998Y-114632126D01*
X176812956Y-114839342D01*
X176908985Y-115032196D01*
X177038822Y-115204127D01*
X177172470Y-115325963D01*
X177208198Y-115383666D01*
X177208198Y-115451534D01*
X177172470Y-115509237D01*
X177038822Y-115631072D01*
X176908985Y-115803003D01*
X176812956Y-115995857D01*
X176753998Y-116203073D01*
X176734120Y-116417599D01*
X176753998Y-116632126D01*
X176812956Y-116839342D01*
X176908985Y-117032196D01*
X176993751Y-117144443D01*
X177038822Y-117204126D01*
X177172470Y-117325963D01*
X177208198Y-117383664D01*
X177208199Y-117451533D01*
X177172471Y-117509236D01*
X177038820Y-117631075D01*
X176908985Y-117803003D01*
X176812956Y-117995857D01*
X176753998Y-118203073D01*
X176734120Y-118417599D01*
X176753998Y-118632126D01*
X176812956Y-118839342D01*
X176908985Y-119032196D01*
X177038822Y-119204127D01*
X177172470Y-119325963D01*
X177208198Y-119383666D01*
X177208198Y-119451534D01*
X177172470Y-119509237D01*
X177038822Y-119631072D01*
X176908985Y-119803003D01*
X176812956Y-119995857D01*
X176753998Y-120203073D01*
X176734120Y-120417599D01*
X56960000Y-120417599D01*
X56960000Y-118414800D01*
X93974582Y-118414800D01*
X93994208Y-118614070D01*
X94052332Y-118805680D01*
X94140626Y-118970865D01*
X94146722Y-118982269D01*
X94161682Y-119000498D01*
X94273747Y-119137052D01*
X94351139Y-119200564D01*
X94428531Y-119264078D01*
X94511017Y-119308168D01*
X94605119Y-119358467D01*
X94688189Y-119383666D01*
X94796731Y-119416592D01*
X94996000Y-119436218D01*
X95195269Y-119416592D01*
X95386880Y-119358467D01*
X95563469Y-119264078D01*
X95718252Y-119137052D01*
X95845278Y-118982269D01*
X95939667Y-118805680D01*
X95997792Y-118614069D01*
X96009913Y-118491000D01*
X154884831Y-118491000D01*
X154905319Y-118672833D01*
X154905319Y-118672835D01*
X154905320Y-118672837D01*
X154965757Y-118845556D01*
X154965758Y-118845557D01*
X155063113Y-119000498D01*
X155192501Y-119129886D01*
X155192503Y-119129887D01*
X155192504Y-119129888D01*
X155347444Y-119227243D01*
X155520163Y-119287680D01*
X155656540Y-119303046D01*
X155701999Y-119308168D01*
X155701999Y-119308167D01*
X155702000Y-119308168D01*
X155883837Y-119287680D01*
X156056556Y-119227243D01*
X156211496Y-119129888D01*
X156340888Y-119000496D01*
X156438243Y-118845556D01*
X156498680Y-118672837D01*
X156519168Y-118491000D01*
X156498680Y-118309163D01*
X156438243Y-118136444D01*
X156340888Y-117981504D01*
X156340887Y-117981503D01*
X156340886Y-117981501D01*
X156211498Y-117852113D01*
X156133336Y-117803001D01*
X156056556Y-117754757D01*
X155883837Y-117694320D01*
X155883835Y-117694319D01*
X155883833Y-117694319D01*
X155702000Y-117673831D01*
X155520166Y-117694319D01*
X155520163Y-117694319D01*
X155520163Y-117694320D01*
X155347444Y-117754757D01*
X155347442Y-117754757D01*
X155347442Y-117754758D01*
X155192501Y-117852113D01*
X155063113Y-117981501D01*
X155036460Y-118023920D01*
X154965757Y-118136444D01*
X154938084Y-118215529D01*
X154905319Y-118309166D01*
X154884831Y-118491000D01*
X96009913Y-118491000D01*
X96017418Y-118414800D01*
X95997792Y-118215531D01*
X95939667Y-118023920D01*
X95939667Y-118023919D01*
X95847834Y-117852113D01*
X95845278Y-117847331D01*
X95769305Y-117754757D01*
X95718252Y-117692547D01*
X95623948Y-117615155D01*
X95563469Y-117565522D01*
X95539264Y-117552584D01*
X95386880Y-117471132D01*
X95195270Y-117413008D01*
X94996000Y-117393382D01*
X94796729Y-117413008D01*
X94605119Y-117471132D01*
X94428532Y-117565521D01*
X94273747Y-117692547D01*
X94146721Y-117847332D01*
X94052332Y-118023919D01*
X93994208Y-118215529D01*
X93974582Y-118414800D01*
X56960000Y-118414800D01*
X56960000Y-114831000D01*
X60210568Y-114831000D01*
X60230264Y-115093824D01*
X60288913Y-115350780D01*
X60385204Y-115596124D01*
X60516984Y-115824375D01*
X60558067Y-115875891D01*
X60681314Y-116030438D01*
X60681316Y-116030440D01*
X60681317Y-116030441D01*
X60874513Y-116209701D01*
X60874515Y-116209702D01*
X60874519Y-116209706D01*
X61092285Y-116358176D01*
X61329746Y-116472532D01*
X61581600Y-116550218D01*
X61795964Y-116582528D01*
X61842218Y-116589500D01*
X61842219Y-116589500D01*
X62105781Y-116589500D01*
X62105782Y-116589500D01*
X62145063Y-116583579D01*
X62366400Y-116550218D01*
X62618254Y-116472532D01*
X62751842Y-116408199D01*
X77795831Y-116408199D01*
X77816319Y-116590033D01*
X77816319Y-116590035D01*
X77816320Y-116590037D01*
X77876757Y-116762756D01*
X77934342Y-116854403D01*
X77974113Y-116917698D01*
X78103501Y-117047086D01*
X78103503Y-117047087D01*
X78103504Y-117047088D01*
X78258444Y-117144443D01*
X78431163Y-117204880D01*
X78613000Y-117225368D01*
X78794837Y-117204880D01*
X78967556Y-117144443D01*
X79122496Y-117047088D01*
X79251888Y-116917696D01*
X79300708Y-116840000D01*
X152090831Y-116840000D01*
X152111319Y-117021833D01*
X152111319Y-117021835D01*
X152111320Y-117021837D01*
X152171757Y-117194556D01*
X152229342Y-117286203D01*
X152269113Y-117349498D01*
X152398501Y-117478886D01*
X152398503Y-117478887D01*
X152398504Y-117478888D01*
X152553444Y-117576243D01*
X152726163Y-117636680D01*
X152862540Y-117652046D01*
X152907999Y-117657168D01*
X152907999Y-117657167D01*
X152908000Y-117657168D01*
X153089837Y-117636680D01*
X153262556Y-117576243D01*
X153417496Y-117478888D01*
X153546888Y-117349496D01*
X153644243Y-117194556D01*
X153704680Y-117021837D01*
X153725168Y-116840000D01*
X155900831Y-116840000D01*
X155921319Y-117021833D01*
X155921319Y-117021835D01*
X155921320Y-117021837D01*
X155981757Y-117194556D01*
X156039342Y-117286203D01*
X156079113Y-117349498D01*
X156208501Y-117478886D01*
X156208503Y-117478887D01*
X156208504Y-117478888D01*
X156363444Y-117576243D01*
X156536163Y-117636680D01*
X156672540Y-117652046D01*
X156717999Y-117657168D01*
X156717999Y-117657167D01*
X156718000Y-117657168D01*
X156899837Y-117636680D01*
X157072556Y-117576243D01*
X157227496Y-117478888D01*
X157356888Y-117349496D01*
X157454243Y-117194556D01*
X157514680Y-117021837D01*
X157535168Y-116840000D01*
X157514680Y-116658163D01*
X157454243Y-116485444D01*
X157356888Y-116330504D01*
X157356887Y-116330503D01*
X157356886Y-116330501D01*
X157227498Y-116201113D01*
X157164203Y-116161342D01*
X157072556Y-116103757D01*
X156899837Y-116043320D01*
X156899835Y-116043319D01*
X156899833Y-116043319D01*
X156718000Y-116022831D01*
X156536166Y-116043319D01*
X156536163Y-116043319D01*
X156536163Y-116043320D01*
X156363444Y-116103757D01*
X156363442Y-116103757D01*
X156363442Y-116103758D01*
X156208501Y-116201113D01*
X156079113Y-116330501D01*
X156024386Y-116417600D01*
X155981757Y-116485444D01*
X155930431Y-116632126D01*
X155921319Y-116658166D01*
X155900831Y-116840000D01*
X153725168Y-116840000D01*
X153704680Y-116658163D01*
X153644243Y-116485444D01*
X153546888Y-116330504D01*
X153546887Y-116330503D01*
X153546886Y-116330501D01*
X153417498Y-116201113D01*
X153354203Y-116161342D01*
X153262556Y-116103757D01*
X153089837Y-116043320D01*
X153089835Y-116043319D01*
X153089833Y-116043319D01*
X152908000Y-116022831D01*
X152726166Y-116043319D01*
X152726163Y-116043319D01*
X152726163Y-116043320D01*
X152553444Y-116103757D01*
X152553442Y-116103757D01*
X152553442Y-116103758D01*
X152398501Y-116201113D01*
X152269113Y-116330501D01*
X152214386Y-116417600D01*
X152171757Y-116485444D01*
X152120431Y-116632126D01*
X152111319Y-116658166D01*
X152090831Y-116840000D01*
X79300708Y-116840000D01*
X79349243Y-116762756D01*
X79409680Y-116590037D01*
X79430168Y-116408200D01*
X79409680Y-116226363D01*
X79349243Y-116053644D01*
X79251888Y-115898704D01*
X79251887Y-115898703D01*
X79251886Y-115898701D01*
X79122498Y-115769313D01*
X79009796Y-115698498D01*
X78967556Y-115671957D01*
X78794837Y-115611520D01*
X78794835Y-115611519D01*
X78794833Y-115611519D01*
X78612999Y-115591031D01*
X78431166Y-115611519D01*
X78431163Y-115611519D01*
X78431163Y-115611520D01*
X78258444Y-115671957D01*
X78258442Y-115671957D01*
X78258442Y-115671958D01*
X78103501Y-115769313D01*
X77974113Y-115898701D01*
X77883244Y-116043320D01*
X77876757Y-116053644D01*
X77822150Y-116209701D01*
X77816319Y-116226366D01*
X77795831Y-116408199D01*
X62751842Y-116408199D01*
X62855716Y-116358176D01*
X63073481Y-116209706D01*
X63266686Y-116030438D01*
X63431015Y-115824376D01*
X63562796Y-115596124D01*
X63659087Y-115350780D01*
X63701810Y-115163600D01*
X68931231Y-115163600D01*
X68951719Y-115345433D01*
X68951719Y-115345435D01*
X68951720Y-115345437D01*
X69012157Y-115518156D01*
X69031215Y-115548486D01*
X69109513Y-115673098D01*
X69238901Y-115802486D01*
X69238903Y-115802487D01*
X69238904Y-115802488D01*
X69393844Y-115899843D01*
X69566563Y-115960280D01*
X69748400Y-115980768D01*
X69930237Y-115960280D01*
X70102956Y-115899843D01*
X70257896Y-115802488D01*
X70387288Y-115673096D01*
X70484643Y-115518156D01*
X70545080Y-115345437D01*
X70565568Y-115163600D01*
X70548397Y-115011200D01*
X91588031Y-115011200D01*
X91608519Y-115193033D01*
X91608519Y-115193035D01*
X91608520Y-115193037D01*
X91668957Y-115365756D01*
X91668958Y-115365757D01*
X91766313Y-115520698D01*
X91895701Y-115650086D01*
X91895703Y-115650087D01*
X91895704Y-115650088D01*
X92050644Y-115747443D01*
X92223363Y-115807880D01*
X92405200Y-115828368D01*
X92587037Y-115807880D01*
X92759756Y-115747443D01*
X92914696Y-115650088D01*
X93044088Y-115520696D01*
X93141443Y-115365756D01*
X93201880Y-115193037D01*
X93222368Y-115011200D01*
X93210920Y-114909600D01*
X99462031Y-114909600D01*
X99482519Y-115091433D01*
X99482519Y-115091435D01*
X99482520Y-115091437D01*
X99542957Y-115264156D01*
X99597386Y-115350780D01*
X99640313Y-115419098D01*
X99769701Y-115548486D01*
X99769703Y-115548487D01*
X99769704Y-115548488D01*
X99924644Y-115645843D01*
X100097363Y-115706280D01*
X100279200Y-115726768D01*
X100461037Y-115706280D01*
X100633756Y-115645843D01*
X100788696Y-115548488D01*
X100918088Y-115419096D01*
X101015443Y-115264156D01*
X101041741Y-115189000D01*
X153614831Y-115189000D01*
X153635319Y-115370833D01*
X153635319Y-115370835D01*
X153635320Y-115370837D01*
X153695757Y-115543556D01*
X153750747Y-115631072D01*
X153793113Y-115698498D01*
X153922501Y-115827886D01*
X153922503Y-115827887D01*
X153922504Y-115827888D01*
X154077444Y-115925243D01*
X154250163Y-115985680D01*
X154432000Y-116006168D01*
X154613837Y-115985680D01*
X154786556Y-115925243D01*
X154941496Y-115827888D01*
X155070888Y-115698496D01*
X155168243Y-115543556D01*
X155228680Y-115370837D01*
X155249168Y-115189000D01*
X155228680Y-115007163D01*
X155168243Y-114834444D01*
X155070888Y-114679504D01*
X155070887Y-114679503D01*
X155070886Y-114679501D01*
X154941498Y-114550113D01*
X154833363Y-114482168D01*
X154786556Y-114452757D01*
X154613837Y-114392320D01*
X154613835Y-114392319D01*
X154613833Y-114392319D01*
X154431999Y-114371831D01*
X154250166Y-114392319D01*
X154250163Y-114392319D01*
X154250163Y-114392320D01*
X154077444Y-114452757D01*
X154077442Y-114452757D01*
X154077442Y-114452758D01*
X153922501Y-114550113D01*
X153793113Y-114679501D01*
X153697921Y-114831000D01*
X153695757Y-114834444D01*
X153644208Y-114981763D01*
X153635319Y-115007166D01*
X153614831Y-115189000D01*
X101041741Y-115189000D01*
X101075880Y-115091437D01*
X101096368Y-114909600D01*
X101075880Y-114727763D01*
X101015443Y-114555044D01*
X100918088Y-114400104D01*
X100918087Y-114400103D01*
X100918086Y-114400101D01*
X100817984Y-114299999D01*
X151582831Y-114299999D01*
X151603319Y-114481833D01*
X151603319Y-114481835D01*
X151603320Y-114481837D01*
X151663757Y-114654556D01*
X151664189Y-114655243D01*
X151761113Y-114809498D01*
X151890501Y-114938886D01*
X151890503Y-114938887D01*
X151890504Y-114938888D01*
X152045444Y-115036243D01*
X152218163Y-115096680D01*
X152400000Y-115117168D01*
X152581837Y-115096680D01*
X152754556Y-115036243D01*
X152909496Y-114938888D01*
X153038888Y-114809496D01*
X153136243Y-114654556D01*
X153196680Y-114481837D01*
X153217168Y-114300000D01*
X153214346Y-114274958D01*
X153196680Y-114118166D01*
X153196680Y-114118163D01*
X153136243Y-113945444D01*
X153038888Y-113790504D01*
X153038887Y-113790503D01*
X153038886Y-113790501D01*
X152909498Y-113661113D01*
X152811183Y-113599338D01*
X152754556Y-113563757D01*
X152581837Y-113503320D01*
X152581835Y-113503319D01*
X152581833Y-113503319D01*
X152399999Y-113482831D01*
X152218166Y-113503319D01*
X152218163Y-113503319D01*
X152218163Y-113503320D01*
X152045444Y-113563757D01*
X152045442Y-113563757D01*
X152045442Y-113563758D01*
X151890501Y-113661113D01*
X151761113Y-113790501D01*
X151663758Y-113945442D01*
X151663757Y-113945444D01*
X151628571Y-114046000D01*
X151603319Y-114118166D01*
X151582831Y-114299999D01*
X100817984Y-114299999D01*
X100788698Y-114270713D01*
X100699265Y-114214519D01*
X100633756Y-114173357D01*
X100461037Y-114112920D01*
X100461035Y-114112919D01*
X100461033Y-114112919D01*
X100279199Y-114092431D01*
X100097366Y-114112919D01*
X100097363Y-114112919D01*
X100097363Y-114112920D01*
X99924644Y-114173357D01*
X99924642Y-114173357D01*
X99924642Y-114173358D01*
X99769701Y-114270713D01*
X99640313Y-114400101D01*
X99562015Y-114524713D01*
X99542957Y-114555044D01*
X99482520Y-114727763D01*
X99482519Y-114727766D01*
X99462031Y-114909600D01*
X93210920Y-114909600D01*
X93201880Y-114829363D01*
X93141443Y-114656644D01*
X93044088Y-114501704D01*
X93044087Y-114501703D01*
X93044086Y-114501701D01*
X92914698Y-114372313D01*
X92817467Y-114311219D01*
X92759756Y-114274957D01*
X92587037Y-114214520D01*
X92587035Y-114214519D01*
X92587033Y-114214519D01*
X92405200Y-114194031D01*
X92223366Y-114214519D01*
X92223363Y-114214519D01*
X92223363Y-114214520D01*
X92050644Y-114274957D01*
X92050642Y-114274957D01*
X92050642Y-114274958D01*
X91895701Y-114372313D01*
X91766313Y-114501701D01*
X91669837Y-114655243D01*
X91668957Y-114656644D01*
X91625009Y-114782241D01*
X91608519Y-114829366D01*
X91588031Y-115011200D01*
X70548397Y-115011200D01*
X70545080Y-114981763D01*
X70484643Y-114809044D01*
X70387288Y-114654104D01*
X70387287Y-114654103D01*
X70387286Y-114654101D01*
X70257898Y-114524713D01*
X70157581Y-114461680D01*
X70102956Y-114427357D01*
X69930237Y-114366920D01*
X69930235Y-114366919D01*
X69930233Y-114366919D01*
X69748400Y-114346431D01*
X69566566Y-114366919D01*
X69566563Y-114366919D01*
X69566563Y-114366920D01*
X69393844Y-114427357D01*
X69393842Y-114427357D01*
X69393842Y-114427358D01*
X69238901Y-114524713D01*
X69109513Y-114654101D01*
X69028998Y-114782241D01*
X69012157Y-114809044D01*
X68993218Y-114863168D01*
X68951719Y-114981766D01*
X68931231Y-115163600D01*
X63701810Y-115163600D01*
X63717735Y-115093826D01*
X63737431Y-114831000D01*
X63735785Y-114809042D01*
X63724174Y-114654101D01*
X63717735Y-114568174D01*
X63659087Y-114311220D01*
X63562796Y-114065876D01*
X63431015Y-113837624D01*
X63281497Y-113650134D01*
X121030800Y-113650134D01*
X121037311Y-113710705D01*
X121088410Y-113847703D01*
X121176038Y-113964761D01*
X121293096Y-114052389D01*
X121430094Y-114103488D01*
X121430097Y-114103488D01*
X121430099Y-114103489D01*
X121490662Y-114110000D01*
X123637934Y-114110000D01*
X123637938Y-114110000D01*
X123698501Y-114103489D01*
X123698503Y-114103488D01*
X123698505Y-114103488D01*
X123799347Y-114065875D01*
X123835504Y-114052389D01*
X123952561Y-113964761D01*
X124040189Y-113847704D01*
X124070573Y-113766243D01*
X124091288Y-113710705D01*
X124091288Y-113710703D01*
X124091289Y-113710701D01*
X124097800Y-113650138D01*
X124097800Y-112576499D01*
X124986058Y-112576499D01*
X125004996Y-112817135D01*
X125061344Y-113051843D01*
X125118351Y-113189467D01*
X125153716Y-113274847D01*
X125279836Y-113480656D01*
X125436599Y-113664201D01*
X125620144Y-113820964D01*
X125825953Y-113947084D01*
X125990706Y-114015326D01*
X126048956Y-114039455D01*
X126104076Y-114052688D01*
X126283666Y-114095804D01*
X126524300Y-114114742D01*
X126764934Y-114095804D01*
X126999643Y-114039455D01*
X127222647Y-113947084D01*
X127428456Y-113820964D01*
X127612001Y-113664201D01*
X127667403Y-113599334D01*
X131394000Y-113599334D01*
X131400511Y-113659905D01*
X131451610Y-113796903D01*
X131539238Y-113913961D01*
X131656296Y-114001589D01*
X131793294Y-114052688D01*
X131793297Y-114052688D01*
X131793299Y-114052689D01*
X131853862Y-114059200D01*
X134001134Y-114059200D01*
X134001138Y-114059200D01*
X134061701Y-114052689D01*
X134061703Y-114052688D01*
X134061705Y-114052688D01*
X134150533Y-114019556D01*
X134198704Y-114001589D01*
X134315761Y-113913961D01*
X134403389Y-113796904D01*
X134431710Y-113720974D01*
X134454488Y-113659905D01*
X134454488Y-113659903D01*
X134454489Y-113659901D01*
X134461000Y-113599338D01*
X134461000Y-112525700D01*
X135349258Y-112525700D01*
X135368196Y-112766335D01*
X135424544Y-113001043D01*
X135466293Y-113101832D01*
X135516916Y-113224047D01*
X135643036Y-113429856D01*
X135799799Y-113613401D01*
X135983344Y-113770164D01*
X136189153Y-113896284D01*
X136327720Y-113953680D01*
X136412156Y-113988655D01*
X136473524Y-114003388D01*
X136646866Y-114045004D01*
X136887500Y-114063942D01*
X137128134Y-114045004D01*
X137362843Y-113988655D01*
X137585847Y-113896284D01*
X137791656Y-113770164D01*
X137975201Y-113613401D01*
X138131964Y-113429856D01*
X138258084Y-113224047D01*
X138338461Y-113029999D01*
X158186831Y-113029999D01*
X158207319Y-113211833D01*
X158207319Y-113211835D01*
X158207320Y-113211837D01*
X158267757Y-113384556D01*
X158310320Y-113452295D01*
X158365113Y-113539498D01*
X158494501Y-113668886D01*
X158494503Y-113668887D01*
X158494504Y-113668888D01*
X158649444Y-113766243D01*
X158822163Y-113826680D01*
X159004000Y-113847168D01*
X159185837Y-113826680D01*
X159358556Y-113766243D01*
X159513496Y-113668888D01*
X159642888Y-113539496D01*
X159740243Y-113384556D01*
X159800680Y-113211837D01*
X159821168Y-113030000D01*
X159800680Y-112848163D01*
X159740243Y-112675444D01*
X159642888Y-112520504D01*
X159642887Y-112520503D01*
X159642886Y-112520501D01*
X159513498Y-112391113D01*
X159431884Y-112339832D01*
X159358556Y-112293757D01*
X159185837Y-112233320D01*
X159185835Y-112233319D01*
X159185833Y-112233319D01*
X159004000Y-112212831D01*
X158822166Y-112233319D01*
X158822163Y-112233319D01*
X158822163Y-112233320D01*
X158649444Y-112293757D01*
X158649442Y-112293757D01*
X158649442Y-112293758D01*
X158494501Y-112391113D01*
X158365113Y-112520501D01*
X158267758Y-112675442D01*
X158267757Y-112675444D01*
X158223318Y-112802444D01*
X158207319Y-112848166D01*
X158186831Y-113029999D01*
X138338461Y-113029999D01*
X138350455Y-113001043D01*
X138406804Y-112766334D01*
X138425742Y-112525700D01*
X138406804Y-112285066D01*
X138350455Y-112050357D01*
X138339219Y-112023232D01*
X138315981Y-111967129D01*
X138258084Y-111827353D01*
X138131964Y-111621544D01*
X137975201Y-111437999D01*
X137791656Y-111281236D01*
X137585847Y-111155116D01*
X137501634Y-111120234D01*
X137362843Y-111062744D01*
X137128135Y-111006396D01*
X136887500Y-110987458D01*
X136646864Y-111006396D01*
X136412156Y-111062744D01*
X136189151Y-111155117D01*
X135983345Y-111281235D01*
X135799799Y-111437999D01*
X135643035Y-111621545D01*
X135516917Y-111827351D01*
X135424544Y-112050356D01*
X135368196Y-112285064D01*
X135349258Y-112525700D01*
X134461000Y-112525700D01*
X134461000Y-111452062D01*
X134454489Y-111391499D01*
X134454488Y-111391497D01*
X134454488Y-111391494D01*
X134403389Y-111254496D01*
X134315761Y-111137438D01*
X134198703Y-111049810D01*
X134061705Y-110998711D01*
X134031419Y-110995455D01*
X134001138Y-110992200D01*
X131853862Y-110992200D01*
X131826945Y-110995093D01*
X131793294Y-110998711D01*
X131656296Y-111049810D01*
X131539238Y-111137438D01*
X131451610Y-111254496D01*
X131400511Y-111391494D01*
X131394000Y-111452066D01*
X131394000Y-113599334D01*
X127667403Y-113599334D01*
X127768764Y-113480656D01*
X127894884Y-113274847D01*
X127987255Y-113051843D01*
X128043604Y-112817134D01*
X128062542Y-112576500D01*
X128043604Y-112335866D01*
X127987255Y-112101157D01*
X127976252Y-112074594D01*
X127956597Y-112027141D01*
X127894884Y-111878153D01*
X127768764Y-111672344D01*
X127612001Y-111488799D01*
X127428456Y-111332036D01*
X127222647Y-111205916D01*
X127140270Y-111171794D01*
X126999643Y-111113544D01*
X126764935Y-111057196D01*
X126524300Y-111038258D01*
X126283664Y-111057196D01*
X126048956Y-111113544D01*
X125825951Y-111205917D01*
X125620145Y-111332035D01*
X125436599Y-111488799D01*
X125279835Y-111672345D01*
X125153717Y-111878151D01*
X125061344Y-112101156D01*
X125004996Y-112335864D01*
X124986058Y-112576499D01*
X124097800Y-112576499D01*
X124097800Y-111502862D01*
X124091289Y-111442299D01*
X124091288Y-111442297D01*
X124091288Y-111442294D01*
X124040189Y-111305296D01*
X123952561Y-111188238D01*
X123835503Y-111100610D01*
X123698505Y-111049511D01*
X123668219Y-111046255D01*
X123637938Y-111043000D01*
X121490662Y-111043000D01*
X121463745Y-111045893D01*
X121430094Y-111049511D01*
X121293096Y-111100610D01*
X121176038Y-111188238D01*
X121088410Y-111305296D01*
X121037311Y-111442294D01*
X121030800Y-111502866D01*
X121030800Y-113650134D01*
X63281497Y-113650134D01*
X63266686Y-113631562D01*
X63231957Y-113599338D01*
X63073483Y-113452295D01*
X62855713Y-113303822D01*
X62618252Y-113189467D01*
X62366401Y-113111782D01*
X62105782Y-113072500D01*
X62105781Y-113072500D01*
X61842219Y-113072500D01*
X61842218Y-113072500D01*
X61581598Y-113111782D01*
X61329748Y-113189467D01*
X61092287Y-113303822D01*
X60874513Y-113452298D01*
X60681317Y-113631558D01*
X60516984Y-113837624D01*
X60385204Y-114065875D01*
X60288913Y-114311219D01*
X60230264Y-114568175D01*
X60210568Y-114831000D01*
X56960000Y-114831000D01*
X56960000Y-110870999D01*
X60210568Y-110870999D01*
X60230264Y-111133824D01*
X60288913Y-111390780D01*
X60385204Y-111636124D01*
X60516984Y-111864375D01*
X60558067Y-111915891D01*
X60681314Y-112070438D01*
X60681316Y-112070440D01*
X60681317Y-112070441D01*
X60874513Y-112249701D01*
X60874515Y-112249702D01*
X60874519Y-112249706D01*
X61092285Y-112398176D01*
X61329746Y-112512532D01*
X61581600Y-112590218D01*
X61795964Y-112622528D01*
X61842218Y-112629500D01*
X61842219Y-112629500D01*
X62105781Y-112629500D01*
X62105782Y-112629500D01*
X62145064Y-112623579D01*
X62366400Y-112590218D01*
X62618254Y-112512532D01*
X62855716Y-112398176D01*
X63073481Y-112249706D01*
X63163264Y-112166400D01*
X93466582Y-112166400D01*
X93486208Y-112365670D01*
X93544332Y-112557280D01*
X93607492Y-112675442D01*
X93638722Y-112733869D01*
X93665365Y-112766334D01*
X93765747Y-112888652D01*
X93815207Y-112929242D01*
X93920531Y-113015678D01*
X93951440Y-113032199D01*
X94097119Y-113110067D01*
X94137509Y-113122319D01*
X94288731Y-113168192D01*
X94488000Y-113187818D01*
X94687269Y-113168192D01*
X94878880Y-113110067D01*
X95055469Y-113015678D01*
X95210252Y-112888652D01*
X95337278Y-112733869D01*
X95431667Y-112557280D01*
X95489792Y-112365669D01*
X95509418Y-112166400D01*
X108909782Y-112166400D01*
X108929408Y-112365670D01*
X108987532Y-112557280D01*
X109050692Y-112675442D01*
X109081922Y-112733869D01*
X109108565Y-112766334D01*
X109208947Y-112888652D01*
X109258407Y-112929242D01*
X109363731Y-113015678D01*
X109394640Y-113032199D01*
X109540319Y-113110067D01*
X109580709Y-113122319D01*
X109731931Y-113168192D01*
X109931200Y-113187818D01*
X110130469Y-113168192D01*
X110322080Y-113110067D01*
X110498669Y-113015678D01*
X110653452Y-112888652D01*
X110780478Y-112733869D01*
X110874867Y-112557280D01*
X110932992Y-112365669D01*
X110952618Y-112166400D01*
X110932992Y-111967131D01*
X110891442Y-111830159D01*
X110874867Y-111775519D01*
X110813011Y-111659796D01*
X110780478Y-111598931D01*
X110689406Y-111487958D01*
X110653452Y-111444147D01*
X110533856Y-111345999D01*
X110498669Y-111317122D01*
X110476544Y-111305296D01*
X110322080Y-111222732D01*
X110130470Y-111164608D01*
X109931200Y-111144982D01*
X109731929Y-111164608D01*
X109540319Y-111222732D01*
X109363732Y-111317121D01*
X109208947Y-111444147D01*
X109081921Y-111598932D01*
X108987532Y-111775519D01*
X108929408Y-111967129D01*
X108909782Y-112166400D01*
X95509418Y-112166400D01*
X95489792Y-111967131D01*
X95448242Y-111830159D01*
X95431667Y-111775519D01*
X95369811Y-111659796D01*
X95337278Y-111598931D01*
X95246206Y-111487958D01*
X95210252Y-111444147D01*
X95090656Y-111345999D01*
X95055469Y-111317122D01*
X95033344Y-111305296D01*
X94878880Y-111222732D01*
X94687270Y-111164608D01*
X94488000Y-111144982D01*
X94288729Y-111164608D01*
X94097119Y-111222732D01*
X93920532Y-111317121D01*
X93765747Y-111444147D01*
X93638721Y-111598932D01*
X93544332Y-111775519D01*
X93486208Y-111967129D01*
X93466582Y-112166400D01*
X63163264Y-112166400D01*
X63266686Y-112070438D01*
X63431015Y-111864376D01*
X63562796Y-111636124D01*
X63659087Y-111390780D01*
X63717735Y-111133826D01*
X63737431Y-110871000D01*
X63717735Y-110608174D01*
X63659087Y-110351220D01*
X63562796Y-110105876D01*
X63431015Y-109877624D01*
X63266686Y-109671562D01*
X63266682Y-109671558D01*
X63073483Y-109492295D01*
X62855713Y-109343822D01*
X62618252Y-109229467D01*
X62366401Y-109151782D01*
X62105782Y-109112500D01*
X62105781Y-109112500D01*
X61842219Y-109112500D01*
X61842218Y-109112500D01*
X61581598Y-109151782D01*
X61329748Y-109229467D01*
X61092287Y-109343822D01*
X60874513Y-109492298D01*
X60681317Y-109671558D01*
X60516984Y-109877624D01*
X60385204Y-110105875D01*
X60288913Y-110351219D01*
X60230264Y-110608175D01*
X60210568Y-110870999D01*
X56960000Y-110870999D01*
X56960000Y-106911000D01*
X60210568Y-106911000D01*
X60230264Y-107173824D01*
X60288913Y-107430780D01*
X60385204Y-107676124D01*
X60501853Y-107878168D01*
X60516985Y-107904376D01*
X60681314Y-108110438D01*
X60681316Y-108110440D01*
X60681317Y-108110441D01*
X60874513Y-108289701D01*
X60874515Y-108289702D01*
X60874519Y-108289706D01*
X61092285Y-108438176D01*
X61329746Y-108552532D01*
X61581600Y-108630218D01*
X61795964Y-108662528D01*
X61842218Y-108669500D01*
X61842219Y-108669500D01*
X62105781Y-108669500D01*
X62105782Y-108669500D01*
X62145064Y-108663579D01*
X62366400Y-108630218D01*
X62595343Y-108559599D01*
X83154182Y-108559599D01*
X83173808Y-108758870D01*
X83231932Y-108950480D01*
X83318535Y-109112500D01*
X83326322Y-109127069D01*
X83375955Y-109187548D01*
X83453347Y-109281852D01*
X83490950Y-109312711D01*
X83608131Y-109408878D01*
X83696425Y-109456072D01*
X83784719Y-109503267D01*
X83868153Y-109528576D01*
X83976331Y-109561392D01*
X84175600Y-109581018D01*
X84374869Y-109561392D01*
X84566480Y-109503267D01*
X84743069Y-109408878D01*
X84897852Y-109281852D01*
X85024878Y-109127069D01*
X85119267Y-108950480D01*
X85177392Y-108758869D01*
X85197018Y-108559600D01*
X85177392Y-108360331D01*
X85119267Y-108168720D01*
X85119267Y-108168719D01*
X85031846Y-108005168D01*
X85024878Y-107992131D01*
X84952859Y-107904375D01*
X84897852Y-107837347D01*
X84803548Y-107759955D01*
X84743069Y-107710322D01*
X84719073Y-107697496D01*
X84566480Y-107615932D01*
X84374870Y-107557808D01*
X84175600Y-107538182D01*
X83976329Y-107557808D01*
X83784719Y-107615932D01*
X83608132Y-107710321D01*
X83453347Y-107837347D01*
X83326321Y-107992132D01*
X83231932Y-108168719D01*
X83173808Y-108360329D01*
X83154182Y-108559599D01*
X62595343Y-108559599D01*
X62618254Y-108552532D01*
X62855716Y-108438176D01*
X63073481Y-108289706D01*
X63266686Y-108110438D01*
X63431015Y-107904376D01*
X63562796Y-107676124D01*
X63659087Y-107430780D01*
X63717735Y-107173826D01*
X63737431Y-106911000D01*
X63717735Y-106648174D01*
X63659087Y-106391220D01*
X63592986Y-106222799D01*
X76043231Y-106222799D01*
X76063719Y-106404633D01*
X76063719Y-106404635D01*
X76063720Y-106404637D01*
X76124157Y-106577356D01*
X76125038Y-106578758D01*
X76221513Y-106732298D01*
X76350901Y-106861686D01*
X76350903Y-106861687D01*
X76350904Y-106861688D01*
X76505844Y-106959043D01*
X76678563Y-107019480D01*
X76860400Y-107039968D01*
X77042237Y-107019480D01*
X77104967Y-106997529D01*
X77166690Y-106992323D01*
X77223232Y-107017623D01*
X77260481Y-107067117D01*
X77269140Y-107128454D01*
X77262431Y-107187999D01*
X77282919Y-107369833D01*
X77282919Y-107369835D01*
X77282920Y-107369837D01*
X77343357Y-107542556D01*
X77360913Y-107570496D01*
X77440713Y-107697498D01*
X77570101Y-107826886D01*
X77570103Y-107826887D01*
X77570104Y-107826888D01*
X77725044Y-107924243D01*
X77897763Y-107984680D01*
X78079600Y-108005168D01*
X78261437Y-107984680D01*
X78434156Y-107924243D01*
X78589096Y-107826888D01*
X78718488Y-107697496D01*
X78815843Y-107542556D01*
X78876280Y-107369837D01*
X78896768Y-107188000D01*
X78882459Y-107061000D01*
X86939831Y-107061000D01*
X86960319Y-107242833D01*
X86960319Y-107242835D01*
X86960320Y-107242837D01*
X87020757Y-107415556D01*
X87020758Y-107415557D01*
X87118113Y-107570498D01*
X87247501Y-107699886D01*
X87247503Y-107699887D01*
X87247504Y-107699888D01*
X87402444Y-107797243D01*
X87575163Y-107857680D01*
X87757000Y-107878168D01*
X87938837Y-107857680D01*
X88111556Y-107797243D01*
X88266496Y-107699888D01*
X88395888Y-107570496D01*
X88493243Y-107415556D01*
X88553680Y-107242837D01*
X88559859Y-107187999D01*
X99665231Y-107187999D01*
X99685719Y-107369833D01*
X99685719Y-107369835D01*
X99685720Y-107369837D01*
X99746157Y-107542556D01*
X99763713Y-107570496D01*
X99843513Y-107697498D01*
X99972901Y-107826886D01*
X99972903Y-107826887D01*
X99972904Y-107826888D01*
X100127844Y-107924243D01*
X100300563Y-107984680D01*
X100482400Y-108005168D01*
X100664237Y-107984680D01*
X100836956Y-107924243D01*
X100991896Y-107826888D01*
X101121288Y-107697496D01*
X101218643Y-107542556D01*
X101279080Y-107369837D01*
X101299568Y-107188000D01*
X101279080Y-107006163D01*
X101218643Y-106833444D01*
X101121288Y-106678504D01*
X101121287Y-106678503D01*
X101121286Y-106678501D01*
X100991898Y-106549113D01*
X100910284Y-106497832D01*
X100836956Y-106451757D01*
X100664237Y-106391320D01*
X100664235Y-106391319D01*
X100664233Y-106391319D01*
X100482400Y-106370831D01*
X100300566Y-106391319D01*
X100300563Y-106391319D01*
X100300563Y-106391320D01*
X100127844Y-106451757D01*
X100127842Y-106451757D01*
X100127842Y-106451758D01*
X99972901Y-106549113D01*
X99843513Y-106678501D01*
X99746158Y-106833442D01*
X99746157Y-106833444D01*
X99701718Y-106960444D01*
X99685719Y-107006166D01*
X99665231Y-107187999D01*
X88559859Y-107187999D01*
X88574168Y-107061000D01*
X88553680Y-106879163D01*
X88493243Y-106706444D01*
X88395888Y-106551504D01*
X88395887Y-106551503D01*
X88395886Y-106551501D01*
X88266498Y-106422113D01*
X88184884Y-106370832D01*
X88111556Y-106324757D01*
X87938837Y-106264320D01*
X87938835Y-106264319D01*
X87938833Y-106264319D01*
X87757000Y-106243831D01*
X87575166Y-106264319D01*
X87575163Y-106264319D01*
X87575163Y-106264320D01*
X87402444Y-106324757D01*
X87402442Y-106324757D01*
X87402442Y-106324758D01*
X87247501Y-106422113D01*
X87118113Y-106551501D01*
X87020758Y-106706442D01*
X87020757Y-106706444D01*
X86966435Y-106861688D01*
X86960319Y-106879166D01*
X86939831Y-107061000D01*
X78882459Y-107061000D01*
X78876280Y-107006163D01*
X78815843Y-106833444D01*
X78718488Y-106678504D01*
X78718487Y-106678503D01*
X78718486Y-106678501D01*
X78589098Y-106549113D01*
X78507484Y-106497832D01*
X78434156Y-106451757D01*
X78261437Y-106391320D01*
X78261435Y-106391319D01*
X78261433Y-106391319D01*
X78079600Y-106370831D01*
X77897765Y-106391319D01*
X77835033Y-106413270D01*
X77773307Y-106418476D01*
X77716766Y-106393175D01*
X77679518Y-106343680D01*
X77670859Y-106282343D01*
X77677568Y-106222799D01*
X77657080Y-106040966D01*
X77657080Y-106040963D01*
X77596643Y-105868244D01*
X77499288Y-105713304D01*
X77499287Y-105713303D01*
X77499286Y-105713301D01*
X77369898Y-105583913D01*
X77306603Y-105544143D01*
X77214956Y-105486557D01*
X77042237Y-105426120D01*
X77042235Y-105426119D01*
X77042233Y-105426119D01*
X76860400Y-105405631D01*
X76678566Y-105426119D01*
X76678563Y-105426119D01*
X76678563Y-105426120D01*
X76505844Y-105486557D01*
X76505842Y-105486557D01*
X76505842Y-105486558D01*
X76350901Y-105583913D01*
X76221513Y-105713301D01*
X76124158Y-105868242D01*
X76063719Y-106040966D01*
X76043231Y-106222799D01*
X63592986Y-106222799D01*
X63562796Y-106145876D01*
X63431015Y-105917624D01*
X63266686Y-105711562D01*
X63266682Y-105711558D01*
X63073483Y-105532295D01*
X62855713Y-105383822D01*
X62618252Y-105269467D01*
X62366401Y-105191782D01*
X62105782Y-105152500D01*
X62105781Y-105152500D01*
X61842219Y-105152500D01*
X61842218Y-105152500D01*
X61581598Y-105191782D01*
X61329748Y-105269467D01*
X61092287Y-105383822D01*
X60874513Y-105532298D01*
X60681317Y-105711558D01*
X60516984Y-105917624D01*
X60385204Y-106145875D01*
X60288913Y-106391219D01*
X60230264Y-106648175D01*
X60210568Y-106911000D01*
X56960000Y-106911000D01*
X56960000Y-104329600D01*
X115602831Y-104329600D01*
X115623319Y-104511433D01*
X115623319Y-104511435D01*
X115623320Y-104511437D01*
X115683757Y-104684156D01*
X115683758Y-104684157D01*
X115781113Y-104839098D01*
X115910501Y-104968486D01*
X115910503Y-104968487D01*
X115910504Y-104968488D01*
X116065444Y-105065843D01*
X116238163Y-105126280D01*
X116420000Y-105146768D01*
X116601837Y-105126280D01*
X116774556Y-105065843D01*
X116929496Y-104968488D01*
X117058888Y-104839096D01*
X117156243Y-104684156D01*
X117216680Y-104511437D01*
X117237168Y-104329600D01*
X117216680Y-104147763D01*
X117156243Y-103975044D01*
X117058888Y-103820104D01*
X117058887Y-103820103D01*
X117058886Y-103820101D01*
X116929498Y-103690713D01*
X116866203Y-103650943D01*
X116774556Y-103593357D01*
X116601837Y-103532920D01*
X116601835Y-103532919D01*
X116601833Y-103532919D01*
X116458766Y-103516799D01*
X140725231Y-103516799D01*
X140745719Y-103698633D01*
X140745719Y-103698635D01*
X140745720Y-103698637D01*
X140806157Y-103871356D01*
X140806158Y-103871357D01*
X140903513Y-104026298D01*
X141032901Y-104155686D01*
X141032903Y-104155687D01*
X141032904Y-104155688D01*
X141187844Y-104253043D01*
X141360563Y-104313480D01*
X141542400Y-104333968D01*
X141724237Y-104313480D01*
X141896956Y-104253043D01*
X142051896Y-104155688D01*
X142181288Y-104026296D01*
X142278643Y-103871356D01*
X142339080Y-103698637D01*
X142359568Y-103516800D01*
X142339080Y-103334963D01*
X142278643Y-103162244D01*
X142181288Y-103007304D01*
X142181287Y-103007303D01*
X142181286Y-103007301D01*
X142051898Y-102877913D01*
X141982909Y-102834565D01*
X141896956Y-102780557D01*
X141724237Y-102720120D01*
X141724235Y-102720119D01*
X141724233Y-102720119D01*
X141542400Y-102699631D01*
X141360566Y-102720119D01*
X141360563Y-102720119D01*
X141360563Y-102720120D01*
X141187844Y-102780557D01*
X141187842Y-102780557D01*
X141187842Y-102780558D01*
X141032901Y-102877913D01*
X140903513Y-103007301D01*
X140806158Y-103162242D01*
X140745719Y-103334966D01*
X140725231Y-103516799D01*
X116458766Y-103516799D01*
X116420000Y-103512431D01*
X116238166Y-103532919D01*
X116238163Y-103532919D01*
X116238163Y-103532920D01*
X116065444Y-103593357D01*
X116065442Y-103593357D01*
X116065442Y-103593358D01*
X115910501Y-103690713D01*
X115781113Y-103820101D01*
X115711710Y-103930557D01*
X115683757Y-103975044D01*
X115623320Y-104147763D01*
X115623319Y-104147766D01*
X115602831Y-104329600D01*
X56960000Y-104329600D01*
X56960000Y-100431600D01*
X126690831Y-100431600D01*
X126711319Y-100613433D01*
X126711319Y-100613435D01*
X126711320Y-100613437D01*
X126771757Y-100786156D01*
X126829342Y-100877803D01*
X126869113Y-100941098D01*
X126998501Y-101070486D01*
X126998503Y-101070487D01*
X126998504Y-101070488D01*
X127153444Y-101167843D01*
X127326163Y-101228280D01*
X127508000Y-101248768D01*
X127689837Y-101228280D01*
X127862556Y-101167843D01*
X128017496Y-101070488D01*
X128146888Y-100941096D01*
X128244243Y-100786156D01*
X128304680Y-100613437D01*
X128325168Y-100431600D01*
X128304680Y-100249763D01*
X128244243Y-100077044D01*
X128146888Y-99922104D01*
X128146887Y-99922103D01*
X128146886Y-99922101D01*
X128017498Y-99792713D01*
X127940495Y-99744329D01*
X127862556Y-99695357D01*
X127689837Y-99634920D01*
X127689835Y-99634919D01*
X127689833Y-99634919D01*
X127508000Y-99614431D01*
X127326166Y-99634919D01*
X127326163Y-99634919D01*
X127326163Y-99634920D01*
X127153444Y-99695357D01*
X127153442Y-99695357D01*
X127153442Y-99695358D01*
X126998501Y-99792713D01*
X126869113Y-99922101D01*
X126771758Y-100077042D01*
X126711319Y-100249766D01*
X126690831Y-100431600D01*
X56960000Y-100431600D01*
X56960000Y-97432000D01*
X60337568Y-97432000D01*
X60357264Y-97694824D01*
X60401939Y-97890556D01*
X60415913Y-97951780D01*
X60512204Y-98197124D01*
X60643985Y-98425376D01*
X60808314Y-98631438D01*
X60808316Y-98631440D01*
X60808317Y-98631441D01*
X61001513Y-98810701D01*
X61001515Y-98810702D01*
X61001519Y-98810706D01*
X61219285Y-98959176D01*
X61456746Y-99073532D01*
X61708600Y-99151218D01*
X61922964Y-99183528D01*
X61969218Y-99190500D01*
X61969219Y-99190500D01*
X62232781Y-99190500D01*
X62232782Y-99190500D01*
X62272063Y-99184579D01*
X62493400Y-99151218D01*
X62745254Y-99073532D01*
X62982716Y-98959176D01*
X63200481Y-98810706D01*
X63393686Y-98631438D01*
X63558015Y-98425376D01*
X63689796Y-98197124D01*
X63690080Y-98196400D01*
X125014431Y-98196400D01*
X125034919Y-98378233D01*
X125034919Y-98378235D01*
X125034920Y-98378237D01*
X125095357Y-98550956D01*
X125095358Y-98550957D01*
X125192713Y-98705898D01*
X125322101Y-98835286D01*
X125322103Y-98835287D01*
X125322104Y-98835288D01*
X125477044Y-98932643D01*
X125649763Y-98993080D01*
X125831600Y-99013568D01*
X126013437Y-98993080D01*
X126186156Y-98932643D01*
X126341096Y-98835288D01*
X126470488Y-98705896D01*
X126567843Y-98550956D01*
X126628280Y-98378237D01*
X126648768Y-98196400D01*
X126628280Y-98014563D01*
X126567843Y-97841844D01*
X126470488Y-97686904D01*
X126470487Y-97686903D01*
X126470486Y-97686901D01*
X126465171Y-97681586D01*
X126435810Y-97634859D01*
X126429632Y-97580021D01*
X126447859Y-97527932D01*
X126486876Y-97488914D01*
X126573496Y-97434488D01*
X126702888Y-97305096D01*
X126800243Y-97150156D01*
X126860680Y-96977437D01*
X126881168Y-96795600D01*
X126860680Y-96613763D01*
X126800243Y-96441044D01*
X126702888Y-96286104D01*
X126702887Y-96286103D01*
X126702886Y-96286101D01*
X126581185Y-96164400D01*
X128519631Y-96164400D01*
X128540119Y-96346233D01*
X128540119Y-96346235D01*
X128540120Y-96346237D01*
X128600557Y-96518956D01*
X128609514Y-96533211D01*
X128697913Y-96673898D01*
X128827301Y-96803286D01*
X128827303Y-96803287D01*
X128827304Y-96803288D01*
X128982244Y-96900643D01*
X129146132Y-96957989D01*
X129192855Y-96987348D01*
X129222215Y-97034075D01*
X129228394Y-97088913D01*
X129210168Y-97141001D01*
X129184759Y-97181439D01*
X129184758Y-97181442D01*
X129184757Y-97181444D01*
X129141489Y-97305096D01*
X129124319Y-97354166D01*
X129103831Y-97535999D01*
X129124319Y-97717833D01*
X129124319Y-97717835D01*
X129124320Y-97717837D01*
X129184757Y-97890556D01*
X129242342Y-97982203D01*
X129282113Y-98045498D01*
X129411501Y-98174886D01*
X129411503Y-98174887D01*
X129411504Y-98174888D01*
X129566444Y-98272243D01*
X129739163Y-98332680D01*
X129921000Y-98353168D01*
X130102837Y-98332680D01*
X130275556Y-98272243D01*
X130430496Y-98174888D01*
X130559888Y-98045496D01*
X130657243Y-97890556D01*
X130717680Y-97717837D01*
X130738168Y-97536000D01*
X130717680Y-97354163D01*
X130657243Y-97181444D01*
X130559888Y-97026504D01*
X130559887Y-97026503D01*
X130559886Y-97026501D01*
X130430498Y-96897113D01*
X130275553Y-96799755D01*
X130111670Y-96742410D01*
X130064943Y-96713050D01*
X130035583Y-96666323D01*
X130029405Y-96611484D01*
X130047630Y-96559399D01*
X130073043Y-96518956D01*
X130133480Y-96346237D01*
X130153968Y-96164400D01*
X130133480Y-95982563D01*
X130073043Y-95809844D01*
X129975688Y-95654904D01*
X129975687Y-95654903D01*
X129975686Y-95654901D01*
X129846298Y-95525513D01*
X129783003Y-95485743D01*
X129691356Y-95428157D01*
X129518637Y-95367720D01*
X129518635Y-95367719D01*
X129518633Y-95367719D01*
X129336800Y-95347231D01*
X129154966Y-95367719D01*
X129154963Y-95367719D01*
X129154963Y-95367720D01*
X128982244Y-95428157D01*
X128982242Y-95428157D01*
X128982242Y-95428158D01*
X128827301Y-95525513D01*
X128697913Y-95654901D01*
X128600558Y-95809842D01*
X128600557Y-95809844D01*
X128540120Y-95982563D01*
X128540119Y-95982566D01*
X128519631Y-96164400D01*
X126581185Y-96164400D01*
X126573498Y-96156713D01*
X126475625Y-96095216D01*
X126418556Y-96059357D01*
X126245837Y-95998920D01*
X126245835Y-95998919D01*
X126245833Y-95998919D01*
X126064000Y-95978431D01*
X125882166Y-95998919D01*
X125882163Y-95998919D01*
X125882163Y-95998920D01*
X125709444Y-96059357D01*
X125709442Y-96059357D01*
X125709442Y-96059358D01*
X125554501Y-96156713D01*
X125425113Y-96286101D01*
X125327758Y-96441042D01*
X125327757Y-96441044D01*
X125267320Y-96613763D01*
X125267319Y-96613766D01*
X125246831Y-96795599D01*
X125267319Y-96977433D01*
X125267319Y-96977435D01*
X125267320Y-96977437D01*
X125327757Y-97150156D01*
X125365257Y-97209837D01*
X125425113Y-97305098D01*
X125430428Y-97310413D01*
X125459789Y-97357139D01*
X125465967Y-97411978D01*
X125447741Y-97464066D01*
X125408719Y-97503088D01*
X125322102Y-97557512D01*
X125192713Y-97686901D01*
X125095358Y-97841842D01*
X125034919Y-98014566D01*
X125014431Y-98196400D01*
X63690080Y-98196400D01*
X63786087Y-97951780D01*
X63844735Y-97694826D01*
X63864431Y-97432000D01*
X63844735Y-97169174D01*
X63812513Y-97028000D01*
X89962431Y-97028000D01*
X89982919Y-97209833D01*
X89982919Y-97209835D01*
X89982920Y-97209837D01*
X90043357Y-97382556D01*
X90075986Y-97434485D01*
X90140713Y-97537498D01*
X90270101Y-97666886D01*
X90270103Y-97666887D01*
X90270104Y-97666888D01*
X90425044Y-97764243D01*
X90597763Y-97824680D01*
X90779600Y-97845168D01*
X90961437Y-97824680D01*
X91134156Y-97764243D01*
X91289096Y-97666888D01*
X91418488Y-97537496D01*
X91515843Y-97382556D01*
X91576280Y-97209837D01*
X91596768Y-97028000D01*
X91576280Y-96846163D01*
X91515843Y-96673444D01*
X91418488Y-96518504D01*
X91418487Y-96518503D01*
X91418486Y-96518501D01*
X91289098Y-96389113D01*
X91135246Y-96292442D01*
X91134156Y-96291757D01*
X90961437Y-96231320D01*
X90961435Y-96231319D01*
X90961433Y-96231319D01*
X90779600Y-96210831D01*
X90597766Y-96231319D01*
X90597763Y-96231319D01*
X90597763Y-96231320D01*
X90425044Y-96291757D01*
X90425042Y-96291757D01*
X90425042Y-96291758D01*
X90270101Y-96389113D01*
X90140713Y-96518501D01*
X90047484Y-96666876D01*
X90043357Y-96673444D01*
X89996036Y-96808680D01*
X89982919Y-96846166D01*
X89962431Y-97028000D01*
X63812513Y-97028000D01*
X63786087Y-96912220D01*
X63689796Y-96666876D01*
X63558015Y-96438624D01*
X63393686Y-96232562D01*
X63393682Y-96232558D01*
X63200483Y-96053295D01*
X62982713Y-95904822D01*
X62745252Y-95790467D01*
X62493401Y-95712782D01*
X62232782Y-95673500D01*
X62232781Y-95673500D01*
X61969219Y-95673500D01*
X61969218Y-95673500D01*
X61708598Y-95712782D01*
X61456748Y-95790467D01*
X61219287Y-95904822D01*
X61001513Y-96053298D01*
X60808317Y-96232558D01*
X60643984Y-96438624D01*
X60512204Y-96666875D01*
X60415913Y-96912219D01*
X60357264Y-97169175D01*
X60337568Y-97432000D01*
X56960000Y-97432000D01*
X56960000Y-95402399D01*
X120747231Y-95402399D01*
X120767719Y-95584233D01*
X120767719Y-95584235D01*
X120767720Y-95584237D01*
X120828157Y-95756956D01*
X120861389Y-95809844D01*
X120925513Y-95911898D01*
X121054901Y-96041286D01*
X121054903Y-96041287D01*
X121054904Y-96041288D01*
X121209844Y-96138643D01*
X121382563Y-96199080D01*
X121564400Y-96219568D01*
X121746237Y-96199080D01*
X121918956Y-96138643D01*
X122073896Y-96041288D01*
X122203288Y-95911896D01*
X122300643Y-95756956D01*
X122361080Y-95584237D01*
X122381568Y-95402400D01*
X122361080Y-95220563D01*
X122300643Y-95047844D01*
X122203288Y-94892904D01*
X122203287Y-94892903D01*
X122203286Y-94892901D01*
X122073898Y-94763513D01*
X121927365Y-94671441D01*
X121918956Y-94666157D01*
X121746237Y-94605720D01*
X121746235Y-94605719D01*
X121746233Y-94605719D01*
X121564400Y-94585231D01*
X121382566Y-94605719D01*
X121382563Y-94605719D01*
X121382563Y-94605720D01*
X121209844Y-94666157D01*
X121209842Y-94666157D01*
X121209842Y-94666158D01*
X121054901Y-94763513D01*
X120925513Y-94892901D01*
X120828158Y-95047842D01*
X120767719Y-95220566D01*
X120747231Y-95402399D01*
X56960000Y-95402399D01*
X56960000Y-93472000D01*
X60337568Y-93472000D01*
X60357264Y-93734824D01*
X60415913Y-93991780D01*
X60512204Y-94237124D01*
X60643984Y-94465375D01*
X60661190Y-94486950D01*
X60808314Y-94671438D01*
X60808316Y-94671440D01*
X60808317Y-94671441D01*
X61001513Y-94850701D01*
X61001515Y-94850702D01*
X61001519Y-94850706D01*
X61219285Y-94999176D01*
X61456746Y-95113532D01*
X61708600Y-95191218D01*
X61922964Y-95223528D01*
X61969218Y-95230500D01*
X61969219Y-95230500D01*
X62232781Y-95230500D01*
X62232782Y-95230500D01*
X62272064Y-95224579D01*
X62493400Y-95191218D01*
X62745254Y-95113532D01*
X62982716Y-94999176D01*
X63200481Y-94850706D01*
X63393686Y-94671438D01*
X63558015Y-94465376D01*
X63689796Y-94237124D01*
X63786087Y-93991780D01*
X63835155Y-93776800D01*
X82291631Y-93776800D01*
X82312119Y-93958633D01*
X82312119Y-93958635D01*
X82312120Y-93958637D01*
X82372557Y-94131356D01*
X82372558Y-94131357D01*
X82469913Y-94286298D01*
X82599301Y-94415686D01*
X82599303Y-94415687D01*
X82599304Y-94415688D01*
X82754244Y-94513043D01*
X82926963Y-94573480D01*
X83108800Y-94593968D01*
X83290637Y-94573480D01*
X83463356Y-94513043D01*
X83618296Y-94415688D01*
X83747688Y-94286296D01*
X83845043Y-94131356D01*
X83853566Y-94106999D01*
X98623831Y-94106999D01*
X98644319Y-94288833D01*
X98644319Y-94288835D01*
X98644320Y-94288837D01*
X98704757Y-94461556D01*
X98742944Y-94522331D01*
X98802113Y-94616498D01*
X98931501Y-94745886D01*
X98931503Y-94745887D01*
X98931504Y-94745888D01*
X99086444Y-94843243D01*
X99259163Y-94903680D01*
X99441000Y-94924168D01*
X99622837Y-94903680D01*
X99795556Y-94843243D01*
X99950496Y-94745888D01*
X100079888Y-94616496D01*
X100177243Y-94461556D01*
X100237680Y-94288837D01*
X100258168Y-94107000D01*
X100237680Y-93925163D01*
X100177243Y-93752444D01*
X100079888Y-93597504D01*
X100079887Y-93597503D01*
X100079886Y-93597501D01*
X99950498Y-93468113D01*
X99849573Y-93404698D01*
X99795556Y-93370757D01*
X99622837Y-93310320D01*
X99622835Y-93310319D01*
X99622833Y-93310319D01*
X99441000Y-93289831D01*
X99259166Y-93310319D01*
X99259163Y-93310319D01*
X99259163Y-93310320D01*
X99086444Y-93370757D01*
X99086442Y-93370757D01*
X99086442Y-93370758D01*
X98931501Y-93468113D01*
X98802113Y-93597501D01*
X98715828Y-93734824D01*
X98704757Y-93752444D01*
X98644320Y-93925163D01*
X98644319Y-93925166D01*
X98623831Y-94106999D01*
X83853566Y-94106999D01*
X83905480Y-93958637D01*
X83925968Y-93776800D01*
X83915088Y-93680245D01*
X83923748Y-93618909D01*
X83960996Y-93569414D01*
X84017538Y-93544113D01*
X84079261Y-93549318D01*
X84247763Y-93608280D01*
X84429600Y-93628768D01*
X84611437Y-93608280D01*
X84784156Y-93547843D01*
X84939096Y-93450488D01*
X85068488Y-93321096D01*
X85165843Y-93166156D01*
X85226280Y-92993437D01*
X85229597Y-92963999D01*
X121407631Y-92963999D01*
X121428119Y-93145833D01*
X121428119Y-93145835D01*
X121428120Y-93145837D01*
X121488557Y-93318556D01*
X121521357Y-93370757D01*
X121585913Y-93473498D01*
X121715301Y-93602886D01*
X121715303Y-93602887D01*
X121715304Y-93602888D01*
X121870244Y-93700243D01*
X122042963Y-93760680D01*
X122224800Y-93781168D01*
X122406637Y-93760680D01*
X122579356Y-93700243D01*
X122734296Y-93602888D01*
X122863688Y-93473496D01*
X122961043Y-93318556D01*
X123021480Y-93145837D01*
X123041968Y-92964000D01*
X123021480Y-92782163D01*
X122961043Y-92609444D01*
X122863688Y-92454504D01*
X122863687Y-92454503D01*
X122863686Y-92454501D01*
X122734298Y-92325113D01*
X122650661Y-92272561D01*
X122579356Y-92227757D01*
X122406637Y-92167320D01*
X122406635Y-92167319D01*
X122406633Y-92167319D01*
X122224800Y-92146831D01*
X122042966Y-92167319D01*
X122042963Y-92167319D01*
X122042963Y-92167320D01*
X121870244Y-92227757D01*
X121870242Y-92227757D01*
X121870242Y-92227758D01*
X121715301Y-92325113D01*
X121585913Y-92454501D01*
X121496975Y-92596047D01*
X121488557Y-92609444D01*
X121439897Y-92748506D01*
X121428119Y-92782166D01*
X121407631Y-92963999D01*
X85229597Y-92963999D01*
X85246768Y-92811600D01*
X85226280Y-92629763D01*
X85165843Y-92457044D01*
X85068488Y-92302104D01*
X85068487Y-92302103D01*
X85068486Y-92302101D01*
X84939098Y-92172713D01*
X84812704Y-92093295D01*
X84784156Y-92075357D01*
X84611437Y-92014920D01*
X84611435Y-92014919D01*
X84611433Y-92014919D01*
X84429600Y-91994431D01*
X84247766Y-92014919D01*
X84247763Y-92014919D01*
X84247763Y-92014920D01*
X84075044Y-92075357D01*
X84075042Y-92075357D01*
X84075042Y-92075358D01*
X83920101Y-92172713D01*
X83790713Y-92302101D01*
X83702941Y-92441791D01*
X83693357Y-92457044D01*
X83672597Y-92516373D01*
X83632919Y-92629766D01*
X83612431Y-92811600D01*
X83623310Y-92908155D01*
X83614651Y-92969491D01*
X83577403Y-93018985D01*
X83520861Y-93044286D01*
X83459136Y-93039080D01*
X83290634Y-92980119D01*
X83108800Y-92959631D01*
X82926966Y-92980119D01*
X82926963Y-92980119D01*
X82926963Y-92980120D01*
X82754244Y-93040557D01*
X82754242Y-93040557D01*
X82754242Y-93040558D01*
X82599301Y-93137913D01*
X82469913Y-93267301D01*
X82372558Y-93422242D01*
X82372557Y-93422244D01*
X82329913Y-93544113D01*
X82312119Y-93594966D01*
X82291631Y-93776800D01*
X63835155Y-93776800D01*
X63844735Y-93734826D01*
X63864431Y-93472000D01*
X63844735Y-93209174D01*
X63786087Y-92952220D01*
X63689796Y-92706876D01*
X63558015Y-92478624D01*
X63393686Y-92272562D01*
X63393682Y-92272558D01*
X63200483Y-92093295D01*
X62982713Y-91944822D01*
X62745252Y-91830467D01*
X62493401Y-91752782D01*
X62232782Y-91713500D01*
X62232781Y-91713500D01*
X61969219Y-91713500D01*
X61969218Y-91713500D01*
X61708598Y-91752782D01*
X61456748Y-91830467D01*
X61219287Y-91944822D01*
X61001513Y-92093298D01*
X60808317Y-92272558D01*
X60643984Y-92478624D01*
X60512204Y-92706875D01*
X60415913Y-92952219D01*
X60357264Y-93209175D01*
X60337568Y-93472000D01*
X56960000Y-93472000D01*
X56960000Y-91439999D01*
X71673382Y-91439999D01*
X71693008Y-91639270D01*
X71751132Y-91830880D01*
X71812036Y-91944822D01*
X71845522Y-92007469D01*
X71851637Y-92014920D01*
X71972547Y-92162252D01*
X72025719Y-92205888D01*
X72127331Y-92289278D01*
X72204444Y-92330496D01*
X72303919Y-92383667D01*
X72387353Y-92408976D01*
X72495531Y-92441792D01*
X72694800Y-92461418D01*
X72894069Y-92441792D01*
X73085680Y-92383667D01*
X73262269Y-92289278D01*
X73417052Y-92162252D01*
X73544078Y-92007469D01*
X73638467Y-91830880D01*
X73696592Y-91639269D01*
X73716218Y-91440000D01*
X73696592Y-91240731D01*
X73649278Y-91084758D01*
X73638467Y-91049119D01*
X73577942Y-90935886D01*
X73544078Y-90872531D01*
X73466956Y-90778557D01*
X73417052Y-90717747D01*
X73322748Y-90640355D01*
X73262269Y-90590722D01*
X73236144Y-90576758D01*
X73085680Y-90496332D01*
X72894070Y-90438208D01*
X72694800Y-90418582D01*
X72495529Y-90438208D01*
X72303919Y-90496332D01*
X72127332Y-90590721D01*
X71972547Y-90717747D01*
X71845521Y-90872532D01*
X71751132Y-91049119D01*
X71693008Y-91240729D01*
X71673382Y-91439999D01*
X56960000Y-91439999D01*
X56960000Y-89512000D01*
X60337568Y-89512000D01*
X60357264Y-89774824D01*
X60415913Y-90031780D01*
X60512204Y-90277124D01*
X60643984Y-90505375D01*
X60659281Y-90524557D01*
X60808314Y-90711438D01*
X60808316Y-90711440D01*
X60808317Y-90711441D01*
X61001513Y-90890701D01*
X61001515Y-90890702D01*
X61001519Y-90890706D01*
X61219285Y-91039176D01*
X61456746Y-91153532D01*
X61708600Y-91231218D01*
X61917038Y-91262635D01*
X61969218Y-91270500D01*
X61969219Y-91270500D01*
X62232781Y-91270500D01*
X62232782Y-91270500D01*
X62284962Y-91262635D01*
X62493400Y-91231218D01*
X62745254Y-91153532D01*
X62982716Y-91039176D01*
X63200481Y-90890706D01*
X63393686Y-90711438D01*
X63558015Y-90505376D01*
X63689796Y-90277124D01*
X63786087Y-90031780D01*
X63844735Y-89774826D01*
X63864431Y-89512000D01*
X63856637Y-89407999D01*
X124100031Y-89407999D01*
X124120519Y-89589833D01*
X124120519Y-89589835D01*
X124120520Y-89589837D01*
X124180957Y-89762556D01*
X124214189Y-89815444D01*
X124278313Y-89917498D01*
X124407701Y-90046886D01*
X124407703Y-90046887D01*
X124407704Y-90046888D01*
X124562644Y-90144243D01*
X124735363Y-90204680D01*
X124917200Y-90225168D01*
X125099037Y-90204680D01*
X125271756Y-90144243D01*
X125426696Y-90046888D01*
X125556088Y-89917496D01*
X125557028Y-89916000D01*
X133040831Y-89916000D01*
X133061319Y-90097833D01*
X133061319Y-90097835D01*
X133061320Y-90097837D01*
X133121757Y-90270556D01*
X133170290Y-90347796D01*
X133219113Y-90425498D01*
X133348501Y-90554886D01*
X133348503Y-90554887D01*
X133348504Y-90554888D01*
X133503444Y-90652243D01*
X133676163Y-90712680D01*
X133712788Y-90716806D01*
X133722961Y-90717953D01*
X133762879Y-90729453D01*
X133796759Y-90753492D01*
X139010341Y-95967074D01*
X139023429Y-95983409D01*
X139075280Y-96032100D01*
X139078077Y-96034810D01*
X139097906Y-96054639D01*
X139101202Y-96057195D01*
X139110075Y-96064773D01*
X139142494Y-96095217D01*
X139160461Y-96105094D01*
X139176724Y-96115776D01*
X139192933Y-96128350D01*
X139233746Y-96146011D01*
X139244232Y-96151148D01*
X139283193Y-96172567D01*
X139283197Y-96172569D01*
X139303067Y-96177670D01*
X139321462Y-96183968D01*
X139340292Y-96192117D01*
X139384219Y-96199073D01*
X139395642Y-96201439D01*
X139438718Y-96212500D01*
X139459226Y-96212500D01*
X139478624Y-96214026D01*
X139498879Y-96217235D01*
X139543150Y-96213050D01*
X139554820Y-96212500D01*
X146997427Y-96212500D01*
X147060430Y-96229698D01*
X147105956Y-96276522D01*
X147121378Y-96339983D01*
X147102417Y-96402478D01*
X147094793Y-96414610D01*
X147055772Y-96453628D01*
X147003687Y-96471852D01*
X146884167Y-96485319D01*
X146884164Y-96485319D01*
X146884163Y-96485320D01*
X146711444Y-96545757D01*
X146711442Y-96545757D01*
X146711442Y-96545758D01*
X146556501Y-96643113D01*
X146427113Y-96772501D01*
X146348815Y-96897113D01*
X146329757Y-96927444D01*
X146294571Y-97028000D01*
X146269319Y-97100166D01*
X146248831Y-97282000D01*
X146269319Y-97463833D01*
X146269319Y-97463835D01*
X146269320Y-97463837D01*
X146329757Y-97636556D01*
X146380827Y-97717833D01*
X146427113Y-97791498D01*
X146556501Y-97920886D01*
X146556503Y-97920887D01*
X146556504Y-97920888D01*
X146711444Y-98018243D01*
X146884163Y-98078680D01*
X147066000Y-98099168D01*
X147247837Y-98078680D01*
X147420556Y-98018243D01*
X147575496Y-97920888D01*
X147704888Y-97791496D01*
X147799203Y-97641393D01*
X147838224Y-97602373D01*
X147890313Y-97584147D01*
X148009837Y-97570680D01*
X148182556Y-97510243D01*
X148337496Y-97412888D01*
X148466888Y-97283496D01*
X148564243Y-97128556D01*
X148624680Y-96955837D01*
X148645168Y-96774000D01*
X148624680Y-96592163D01*
X148564243Y-96419444D01*
X148553577Y-96402470D01*
X148534622Y-96339977D01*
X148550046Y-96276518D01*
X148595572Y-96229697D01*
X148658573Y-96212500D01*
X152783648Y-96212500D01*
X152831101Y-96221939D01*
X152871329Y-96248819D01*
X157316181Y-100693672D01*
X157343061Y-100733900D01*
X157352500Y-100781353D01*
X157352500Y-109517150D01*
X157350204Y-109537940D01*
X157352439Y-109609032D01*
X157352500Y-109612927D01*
X157352500Y-109640980D01*
X157353022Y-109645115D01*
X157353937Y-109656749D01*
X157355334Y-109701207D01*
X157361056Y-109720902D01*
X157365001Y-109739948D01*
X157367572Y-109760300D01*
X157383940Y-109801642D01*
X157387722Y-109812689D01*
X157400129Y-109855389D01*
X157410570Y-109873045D01*
X157419127Y-109890513D01*
X157426679Y-109909586D01*
X157452825Y-109945573D01*
X157459225Y-109955315D01*
X157481866Y-109993598D01*
X157481868Y-109993600D01*
X157496364Y-110008096D01*
X157509001Y-110022892D01*
X157521057Y-110039486D01*
X157555324Y-110067834D01*
X157563965Y-110075697D01*
X161214507Y-113726239D01*
X161238546Y-113760118D01*
X161250046Y-113800035D01*
X161255319Y-113846833D01*
X161255319Y-113846835D01*
X161255320Y-113846837D01*
X161315757Y-114019556D01*
X161344861Y-114065875D01*
X161413113Y-114174498D01*
X161542501Y-114303886D01*
X161542503Y-114303887D01*
X161542504Y-114303888D01*
X161697444Y-114401243D01*
X161870163Y-114461680D01*
X162052000Y-114482168D01*
X162233837Y-114461680D01*
X162406556Y-114401243D01*
X162561496Y-114303888D01*
X162690888Y-114174496D01*
X162788243Y-114019556D01*
X162823429Y-113919000D01*
X164028831Y-113919000D01*
X164049319Y-114100833D01*
X164049319Y-114100835D01*
X164049320Y-114100837D01*
X164109757Y-114273556D01*
X164126372Y-114299999D01*
X164207113Y-114428498D01*
X164336501Y-114557886D01*
X164336503Y-114557887D01*
X164336504Y-114557888D01*
X164491444Y-114655243D01*
X164664163Y-114715680D01*
X164846000Y-114736168D01*
X165027837Y-114715680D01*
X165200556Y-114655243D01*
X165355496Y-114557888D01*
X165484888Y-114428496D01*
X165582243Y-114273556D01*
X165642680Y-114100837D01*
X165648859Y-114046000D01*
X166441831Y-114046000D01*
X166462319Y-114227833D01*
X166462319Y-114227835D01*
X166462320Y-114227837D01*
X166522757Y-114400556D01*
X166539597Y-114427357D01*
X166620113Y-114555498D01*
X166749501Y-114684886D01*
X166749503Y-114684887D01*
X166749504Y-114684888D01*
X166904444Y-114782243D01*
X167077163Y-114842680D01*
X167213540Y-114858045D01*
X167258999Y-114863168D01*
X167258999Y-114863167D01*
X167259000Y-114863168D01*
X167440837Y-114842680D01*
X167613556Y-114782243D01*
X167768496Y-114684888D01*
X167897888Y-114555496D01*
X167995243Y-114400556D01*
X168055680Y-114227837D01*
X168076168Y-114046000D01*
X168055680Y-113864163D01*
X167995243Y-113691444D01*
X167897888Y-113536504D01*
X167897887Y-113536503D01*
X167897886Y-113536501D01*
X167768498Y-113407113D01*
X167676439Y-113349269D01*
X167613556Y-113309757D01*
X167440837Y-113249320D01*
X167440835Y-113249319D01*
X167440833Y-113249319D01*
X167259000Y-113228831D01*
X167077166Y-113249319D01*
X167077163Y-113249319D01*
X167077163Y-113249320D01*
X166904444Y-113309757D01*
X166904442Y-113309757D01*
X166904442Y-113309758D01*
X166749501Y-113407113D01*
X166620113Y-113536501D01*
X166522758Y-113691442D01*
X166522757Y-113691444D01*
X166483722Y-113803001D01*
X166462319Y-113864166D01*
X166441831Y-114046000D01*
X165648859Y-114046000D01*
X165663168Y-113919000D01*
X165642680Y-113737163D01*
X165582243Y-113564444D01*
X165484888Y-113409504D01*
X165484887Y-113409503D01*
X165484886Y-113409501D01*
X165355498Y-113280113D01*
X165273884Y-113228832D01*
X165200556Y-113182757D01*
X165126947Y-113157000D01*
X171394831Y-113157000D01*
X171415319Y-113338833D01*
X171415319Y-113338835D01*
X171415320Y-113338837D01*
X171475757Y-113511556D01*
X171508989Y-113564444D01*
X171573113Y-113666498D01*
X171702501Y-113795886D01*
X171702503Y-113795887D01*
X171702504Y-113795888D01*
X171857444Y-113893243D01*
X172030163Y-113953680D01*
X172212000Y-113974168D01*
X172393837Y-113953680D01*
X172566556Y-113893243D01*
X172721496Y-113795888D01*
X172850888Y-113666496D01*
X172948243Y-113511556D01*
X173008680Y-113338837D01*
X173029168Y-113157000D01*
X173008680Y-112975163D01*
X172948243Y-112802444D01*
X172850888Y-112647504D01*
X172850887Y-112647503D01*
X172850886Y-112647501D01*
X172721498Y-112518113D01*
X172658203Y-112478343D01*
X172566556Y-112420757D01*
X172393837Y-112360320D01*
X172393835Y-112360319D01*
X172393833Y-112360319D01*
X172212000Y-112339831D01*
X172030166Y-112360319D01*
X172030163Y-112360319D01*
X172030163Y-112360320D01*
X171857444Y-112420757D01*
X171857442Y-112420757D01*
X171857442Y-112420758D01*
X171702501Y-112518113D01*
X171573113Y-112647501D01*
X171475758Y-112802442D01*
X171475757Y-112802444D01*
X171415320Y-112975163D01*
X171415319Y-112975166D01*
X171394831Y-113157000D01*
X165126947Y-113157000D01*
X165027837Y-113122320D01*
X165027835Y-113122319D01*
X165027833Y-113122319D01*
X164846000Y-113101831D01*
X164664166Y-113122319D01*
X164664163Y-113122319D01*
X164664163Y-113122320D01*
X164491444Y-113182757D01*
X164491442Y-113182757D01*
X164491442Y-113182758D01*
X164336501Y-113280113D01*
X164207113Y-113409501D01*
X164110188Y-113563758D01*
X164109757Y-113564444D01*
X164049320Y-113737163D01*
X164049319Y-113737166D01*
X164028831Y-113919000D01*
X162823429Y-113919000D01*
X162848680Y-113846837D01*
X162869168Y-113665000D01*
X162868593Y-113659901D01*
X162857761Y-113563757D01*
X162848680Y-113483163D01*
X162788243Y-113310444D01*
X162690888Y-113155504D01*
X162690887Y-113155503D01*
X162690886Y-113155501D01*
X162561498Y-113026113D01*
X162406553Y-112928755D01*
X162233838Y-112868319D01*
X162187036Y-112863046D01*
X162147119Y-112851546D01*
X162113240Y-112827507D01*
X158659819Y-109374086D01*
X158632939Y-109333858D01*
X158623500Y-109286405D01*
X158623500Y-103146704D01*
X158640697Y-103083703D01*
X158687519Y-103038176D01*
X158750977Y-103022753D01*
X158813472Y-103041710D01*
X158903444Y-103098243D01*
X159076163Y-103158680D01*
X159258000Y-103179168D01*
X159439837Y-103158680D01*
X159612556Y-103098243D01*
X159767496Y-103000888D01*
X159896888Y-102871496D01*
X159906450Y-102856277D01*
X159945472Y-102817253D01*
X159997561Y-102799026D01*
X160052400Y-102805204D01*
X160099127Y-102834565D01*
X167001636Y-109737074D01*
X167014724Y-109753409D01*
X167066575Y-109802100D01*
X167069373Y-109804811D01*
X167089201Y-109824639D01*
X167092497Y-109827195D01*
X167101370Y-109834773D01*
X167133789Y-109865217D01*
X167148029Y-109873045D01*
X167151756Y-109875094D01*
X167168019Y-109885776D01*
X167184228Y-109898350D01*
X167225041Y-109916011D01*
X167235527Y-109921148D01*
X167274492Y-109942569D01*
X167294362Y-109947670D01*
X167312757Y-109953968D01*
X167331587Y-109962117D01*
X167375514Y-109969073D01*
X167386937Y-109971439D01*
X167430013Y-109982500D01*
X167450521Y-109982500D01*
X167469919Y-109984026D01*
X167490174Y-109987235D01*
X167534445Y-109983050D01*
X167546115Y-109982500D01*
X169874753Y-109982500D01*
X169931048Y-109996015D01*
X169975071Y-110033615D01*
X169997226Y-110087102D01*
X169992684Y-110144818D01*
X169962434Y-110194181D01*
X169922113Y-110234501D01*
X169824758Y-110389442D01*
X169824757Y-110389444D01*
X169764320Y-110562163D01*
X169764319Y-110562166D01*
X169743831Y-110743999D01*
X169764319Y-110925833D01*
X169764319Y-110925835D01*
X169764320Y-110925837D01*
X169824757Y-111098556D01*
X169846919Y-111133826D01*
X169922113Y-111253498D01*
X170051501Y-111382886D01*
X170051503Y-111382887D01*
X170051504Y-111382888D01*
X170206444Y-111480243D01*
X170379163Y-111540680D01*
X170496663Y-111553919D01*
X170560999Y-111561168D01*
X170560999Y-111561167D01*
X170561000Y-111561168D01*
X170742837Y-111540680D01*
X170915556Y-111480243D01*
X171070496Y-111382888D01*
X171199888Y-111253496D01*
X171297243Y-111098556D01*
X171357680Y-110925837D01*
X171378168Y-110744000D01*
X171357680Y-110562163D01*
X171297243Y-110389444D01*
X171199888Y-110234504D01*
X171199887Y-110234503D01*
X171199886Y-110234501D01*
X171159566Y-110194181D01*
X171129316Y-110144818D01*
X171124774Y-110087102D01*
X171146929Y-110033615D01*
X171190952Y-109996015D01*
X171247247Y-109982500D01*
X171643406Y-109982500D01*
X171690859Y-109991939D01*
X171731087Y-110018819D01*
X173699181Y-111986913D01*
X173726061Y-112027141D01*
X173735500Y-112074594D01*
X173735500Y-114003388D01*
X173716494Y-114069360D01*
X173638158Y-114194032D01*
X173634757Y-114199444D01*
X173595645Y-114311219D01*
X173574319Y-114372166D01*
X173553831Y-114554000D01*
X173574319Y-114735833D01*
X173574319Y-114735835D01*
X173574320Y-114735837D01*
X173634757Y-114908556D01*
X173634758Y-114908557D01*
X173732113Y-115063498D01*
X173861501Y-115192886D01*
X173861503Y-115192887D01*
X173861504Y-115192888D01*
X174016444Y-115290243D01*
X174189163Y-115350680D01*
X174371000Y-115371168D01*
X174552837Y-115350680D01*
X174725556Y-115290243D01*
X174880496Y-115192888D01*
X175009888Y-115063496D01*
X175107243Y-114908556D01*
X175167680Y-114735837D01*
X175188168Y-114554000D01*
X175167680Y-114372163D01*
X175107243Y-114199444D01*
X175025505Y-114069359D01*
X175006500Y-114003388D01*
X175006500Y-111843850D01*
X175008795Y-111823059D01*
X175006561Y-111751970D01*
X175006500Y-111748075D01*
X175006500Y-111720021D01*
X175006500Y-111720017D01*
X175005976Y-111715871D01*
X175005060Y-111704230D01*
X175004266Y-111678973D01*
X175003664Y-111659795D01*
X174997942Y-111640101D01*
X174993997Y-111621055D01*
X174991427Y-111600701D01*
X174975056Y-111559354D01*
X174971271Y-111548299D01*
X174963773Y-111522489D01*
X174958869Y-111505607D01*
X174948429Y-111487955D01*
X174939871Y-111470485D01*
X174932319Y-111451411D01*
X174906180Y-111415434D01*
X174899766Y-111405670D01*
X174891385Y-111391499D01*
X174877134Y-111367401D01*
X174862633Y-111352900D01*
X174849995Y-111338103D01*
X174845587Y-111332036D01*
X174837942Y-111321513D01*
X174803673Y-111293163D01*
X174795034Y-111285301D01*
X172466658Y-108956925D01*
X172453575Y-108940596D01*
X172401718Y-108891898D01*
X172398921Y-108889187D01*
X172379095Y-108869361D01*
X172375796Y-108866802D01*
X172366917Y-108859218D01*
X172334509Y-108828784D01*
X172326793Y-108824543D01*
X172316531Y-108818901D01*
X172300274Y-108808222D01*
X172284067Y-108795650D01*
X172243254Y-108777988D01*
X172232769Y-108772852D01*
X172207333Y-108758869D01*
X172193800Y-108751429D01*
X172173942Y-108746331D01*
X172155534Y-108740029D01*
X172136708Y-108731882D01*
X172092788Y-108724926D01*
X172081350Y-108722558D01*
X172079270Y-108722024D01*
X172038282Y-108711500D01*
X172038281Y-108711500D01*
X172017774Y-108711500D01*
X171998375Y-108709973D01*
X171978122Y-108706765D01*
X171978121Y-108706765D01*
X171944185Y-108709973D01*
X171933849Y-108710950D01*
X171922180Y-108711500D01*
X167824889Y-108711500D01*
X167777436Y-108702061D01*
X167737208Y-108675181D01*
X166377026Y-107314999D01*
X174950831Y-107314999D01*
X174971319Y-107496833D01*
X174971319Y-107496835D01*
X174971320Y-107496837D01*
X175031757Y-107669556D01*
X175057371Y-107710321D01*
X175129113Y-107824498D01*
X175258501Y-107953886D01*
X175258503Y-107953887D01*
X175258504Y-107953888D01*
X175413444Y-108051243D01*
X175586163Y-108111680D01*
X175768000Y-108132168D01*
X175949837Y-108111680D01*
X176122556Y-108051243D01*
X176277496Y-107953888D01*
X176406888Y-107824496D01*
X176504243Y-107669556D01*
X176564680Y-107496837D01*
X176585168Y-107315000D01*
X176570859Y-107187999D01*
X179776831Y-107187999D01*
X179797319Y-107369833D01*
X179797319Y-107369835D01*
X179797320Y-107369837D01*
X179857757Y-107542556D01*
X179875313Y-107570496D01*
X179955113Y-107697498D01*
X180084501Y-107826886D01*
X180084503Y-107826887D01*
X180084504Y-107826888D01*
X180239444Y-107924243D01*
X180412163Y-107984680D01*
X180548540Y-108000046D01*
X180593999Y-108005168D01*
X180593999Y-108005167D01*
X180594000Y-108005168D01*
X180775837Y-107984680D01*
X180948556Y-107924243D01*
X181103496Y-107826888D01*
X181232888Y-107697496D01*
X181330243Y-107542556D01*
X181390680Y-107369837D01*
X181411168Y-107188000D01*
X181390680Y-107006163D01*
X181330243Y-106833444D01*
X181232888Y-106678504D01*
X181232887Y-106678503D01*
X181232886Y-106678501D01*
X181103498Y-106549113D01*
X181021884Y-106497832D01*
X180948556Y-106451757D01*
X180775837Y-106391320D01*
X180775835Y-106391319D01*
X180775833Y-106391319D01*
X180594000Y-106370831D01*
X180412166Y-106391319D01*
X180412163Y-106391319D01*
X180412163Y-106391320D01*
X180239444Y-106451757D01*
X180239442Y-106451757D01*
X180239442Y-106451758D01*
X180084501Y-106549113D01*
X179955113Y-106678501D01*
X179857758Y-106833442D01*
X179857757Y-106833444D01*
X179813318Y-106960444D01*
X179797319Y-107006166D01*
X179776831Y-107187999D01*
X176570859Y-107187999D01*
X176564680Y-107133163D01*
X176504243Y-106960444D01*
X176406888Y-106805504D01*
X176406887Y-106805503D01*
X176406886Y-106805501D01*
X176277498Y-106676113D01*
X176214203Y-106636342D01*
X176122556Y-106578757D01*
X175949837Y-106518320D01*
X175949835Y-106518319D01*
X175949833Y-106518319D01*
X175767999Y-106497831D01*
X175586166Y-106518319D01*
X175586163Y-106518319D01*
X175586163Y-106518320D01*
X175413444Y-106578757D01*
X175413442Y-106578757D01*
X175413442Y-106578758D01*
X175258501Y-106676113D01*
X175129113Y-106805501D01*
X175032637Y-106959043D01*
X175031757Y-106960444D01*
X174972968Y-107128454D01*
X174971319Y-107133166D01*
X174950831Y-107314999D01*
X166377026Y-107314999D01*
X162638026Y-103575999D01*
X178052231Y-103575999D01*
X178072719Y-103757833D01*
X178072719Y-103757835D01*
X178072720Y-103757837D01*
X178133157Y-103930556D01*
X178161111Y-103975044D01*
X178230513Y-104085498D01*
X178359901Y-104214886D01*
X178359903Y-104214887D01*
X178359904Y-104214888D01*
X178514844Y-104312243D01*
X178687563Y-104372680D01*
X178869400Y-104393168D01*
X179051237Y-104372680D01*
X179223956Y-104312243D01*
X179378896Y-104214888D01*
X179508288Y-104085496D01*
X179605643Y-103930556D01*
X179666080Y-103757837D01*
X179686568Y-103576000D01*
X179666080Y-103394163D01*
X179605643Y-103221444D01*
X179508288Y-103066504D01*
X179508287Y-103066503D01*
X179508286Y-103066501D01*
X179378898Y-102937113D01*
X179250247Y-102856277D01*
X179223956Y-102839757D01*
X179051237Y-102779320D01*
X179051235Y-102779319D01*
X179051233Y-102779319D01*
X178869400Y-102758831D01*
X178687566Y-102779319D01*
X178687563Y-102779319D01*
X178687563Y-102779320D01*
X178514844Y-102839757D01*
X178514842Y-102839757D01*
X178514842Y-102839758D01*
X178359901Y-102937113D01*
X178230513Y-103066501D01*
X178133158Y-103221442D01*
X178072719Y-103394166D01*
X178052231Y-103575999D01*
X162638026Y-103575999D01*
X161292165Y-102230138D01*
X161261085Y-102178119D01*
X161258366Y-102117584D01*
X161284658Y-102062988D01*
X161333682Y-102027371D01*
X161393730Y-102019237D01*
X161544000Y-102036168D01*
X161725837Y-102015680D01*
X161898556Y-101955243D01*
X162053496Y-101857888D01*
X162182888Y-101728496D01*
X162280243Y-101573556D01*
X162340680Y-101400837D01*
X162361168Y-101219000D01*
X162340680Y-101037163D01*
X162280243Y-100864444D01*
X162182888Y-100709504D01*
X162182887Y-100709503D01*
X162182886Y-100709501D01*
X162053498Y-100580113D01*
X161990203Y-100540343D01*
X161898556Y-100482757D01*
X161725837Y-100422320D01*
X161725835Y-100422319D01*
X161725833Y-100422319D01*
X161544000Y-100401831D01*
X161362166Y-100422319D01*
X161362163Y-100422319D01*
X161362163Y-100422320D01*
X161189444Y-100482757D01*
X161189442Y-100482757D01*
X161189442Y-100482758D01*
X161034501Y-100580113D01*
X160905113Y-100709501D01*
X160807758Y-100864442D01*
X160747319Y-101037166D01*
X160726831Y-101219000D01*
X160743762Y-101369270D01*
X160735628Y-101429318D01*
X160700010Y-101478341D01*
X160645415Y-101504633D01*
X160584880Y-101501914D01*
X160532862Y-101470834D01*
X157665027Y-98602999D01*
X178101878Y-98602999D01*
X178122338Y-98902109D01*
X178183335Y-99195641D01*
X178283732Y-99478132D01*
X178421665Y-99744332D01*
X178594551Y-99989255D01*
X178594554Y-99989258D01*
X178594556Y-99989261D01*
X178799189Y-100208370D01*
X179031752Y-100397573D01*
X179287911Y-100553347D01*
X179562896Y-100672790D01*
X179851584Y-100753677D01*
X180148597Y-100794500D01*
X180448403Y-100794500D01*
X180745416Y-100753677D01*
X181034104Y-100672790D01*
X181309089Y-100553347D01*
X181565248Y-100397573D01*
X181797811Y-100208370D01*
X182002444Y-99989261D01*
X182175336Y-99744329D01*
X182313266Y-99478136D01*
X182413664Y-99195641D01*
X182474662Y-98902107D01*
X182495121Y-98603000D01*
X182474662Y-98303893D01*
X182432119Y-98099168D01*
X182413664Y-98010358D01*
X182313267Y-97727867D01*
X182313266Y-97727864D01*
X182175336Y-97461671D01*
X182175334Y-97461667D01*
X182002448Y-97216744D01*
X182002446Y-97216741D01*
X182002444Y-97216739D01*
X181797811Y-96997630D01*
X181565248Y-96808427D01*
X181309089Y-96652653D01*
X181034104Y-96533210D01*
X180791253Y-96465166D01*
X180745413Y-96452322D01*
X180448403Y-96411500D01*
X180148597Y-96411500D01*
X179851586Y-96452322D01*
X179639726Y-96511682D01*
X179562896Y-96533210D01*
X179562894Y-96533210D01*
X179562893Y-96533211D01*
X179287910Y-96652653D01*
X179031753Y-96808426D01*
X178799192Y-96997627D01*
X178799189Y-96997629D01*
X178799189Y-96997630D01*
X178765152Y-97034075D01*
X178594551Y-97216744D01*
X178421665Y-97461667D01*
X178283732Y-97727867D01*
X178183335Y-98010358D01*
X178122338Y-98303890D01*
X178101878Y-98602999D01*
X157665027Y-98602999D01*
X155074028Y-96012000D01*
X163139831Y-96012000D01*
X163160319Y-96193833D01*
X163160319Y-96193835D01*
X163160320Y-96193837D01*
X163220757Y-96366556D01*
X163243324Y-96402471D01*
X163318113Y-96521498D01*
X163447501Y-96650886D01*
X163447503Y-96650887D01*
X163447504Y-96650888D01*
X163602444Y-96748243D01*
X163775163Y-96808680D01*
X163957000Y-96829168D01*
X164138837Y-96808680D01*
X164311556Y-96748243D01*
X164466496Y-96650888D01*
X164470384Y-96647000D01*
X168219831Y-96647000D01*
X168240319Y-96828833D01*
X168240319Y-96828835D01*
X168240320Y-96828837D01*
X168300757Y-97001556D01*
X168300758Y-97001557D01*
X168398113Y-97156498D01*
X168527501Y-97285886D01*
X168527503Y-97285887D01*
X168527504Y-97285888D01*
X168682444Y-97383243D01*
X168855163Y-97443680D01*
X169037000Y-97464168D01*
X169218837Y-97443680D01*
X169391556Y-97383243D01*
X169546496Y-97285888D01*
X169675888Y-97156496D01*
X169773243Y-97001556D01*
X169833680Y-96828837D01*
X169854168Y-96647000D01*
X169833680Y-96465163D01*
X169773243Y-96292444D01*
X169675888Y-96137504D01*
X169675887Y-96137503D01*
X169675886Y-96137501D01*
X169546498Y-96008113D01*
X169481184Y-95967074D01*
X169391556Y-95910757D01*
X169218837Y-95850320D01*
X169218835Y-95850319D01*
X169218833Y-95850319D01*
X169037000Y-95829831D01*
X168855166Y-95850319D01*
X168855163Y-95850319D01*
X168855163Y-95850320D01*
X168682444Y-95910757D01*
X168682442Y-95910757D01*
X168682442Y-95910758D01*
X168527501Y-96008113D01*
X168398113Y-96137501D01*
X168301188Y-96291758D01*
X168300757Y-96292444D01*
X168258009Y-96414610D01*
X168240319Y-96465166D01*
X168219831Y-96647000D01*
X164470384Y-96647000D01*
X164595888Y-96521496D01*
X164693243Y-96366556D01*
X164753680Y-96193837D01*
X164774168Y-96012000D01*
X164753680Y-95830163D01*
X164693243Y-95657444D01*
X164595888Y-95502504D01*
X164595887Y-95502503D01*
X164595886Y-95502501D01*
X164466498Y-95373113D01*
X164403203Y-95333342D01*
X164311556Y-95275757D01*
X164138837Y-95215320D01*
X164138835Y-95215319D01*
X164138833Y-95215319D01*
X163957000Y-95194831D01*
X163775166Y-95215319D01*
X163775163Y-95215319D01*
X163775163Y-95215320D01*
X163602444Y-95275757D01*
X163602442Y-95275757D01*
X163602442Y-95275758D01*
X163447501Y-95373113D01*
X163318113Y-95502501D01*
X163222355Y-95654901D01*
X163220757Y-95657444D01*
X163185936Y-95756956D01*
X163160319Y-95830166D01*
X163139831Y-96012000D01*
X155074028Y-96012000D01*
X154064125Y-95002097D01*
X154054772Y-94990039D01*
X154034633Y-94969900D01*
X154021995Y-94955103D01*
X154012112Y-94941500D01*
X154009942Y-94938513D01*
X153975673Y-94910163D01*
X153967034Y-94902301D01*
X153797658Y-94732925D01*
X153784575Y-94716596D01*
X153732718Y-94667898D01*
X153729921Y-94665187D01*
X153710095Y-94645361D01*
X153706796Y-94642802D01*
X153697917Y-94635218D01*
X153665509Y-94604784D01*
X153657793Y-94600543D01*
X153647531Y-94594901D01*
X153631274Y-94584222D01*
X153615067Y-94571650D01*
X153574254Y-94553988D01*
X153563769Y-94548852D01*
X153541910Y-94536835D01*
X153524800Y-94527429D01*
X153504942Y-94522331D01*
X153486534Y-94516029D01*
X153467708Y-94507882D01*
X153423788Y-94500926D01*
X153412350Y-94498558D01*
X153369282Y-94487500D01*
X153369281Y-94487500D01*
X153348774Y-94487500D01*
X153329375Y-94485973D01*
X153309122Y-94482765D01*
X153309121Y-94482765D01*
X153275185Y-94485973D01*
X153264849Y-94486950D01*
X153253180Y-94487500D01*
X143062595Y-94487500D01*
X143015142Y-94478061D01*
X142974914Y-94451181D01*
X142356733Y-93833000D01*
X174336234Y-93833000D01*
X174355259Y-94050451D01*
X174411756Y-94261301D01*
X174461473Y-94367919D01*
X174504007Y-94459133D01*
X174629209Y-94637940D01*
X174783560Y-94792291D01*
X174962367Y-94917493D01*
X175160200Y-95009744D01*
X175371046Y-95066240D01*
X175588500Y-95085265D01*
X175805954Y-95066240D01*
X176016800Y-95009744D01*
X176214633Y-94917493D01*
X176393440Y-94792291D01*
X176500818Y-94684912D01*
X176556406Y-94652818D01*
X176620594Y-94652818D01*
X176676181Y-94684912D01*
X176783560Y-94792291D01*
X176962367Y-94917493D01*
X177160200Y-95009744D01*
X177371046Y-95066240D01*
X177588500Y-95085265D01*
X177805954Y-95066240D01*
X178016800Y-95009744D01*
X178214633Y-94917493D01*
X178393440Y-94792291D01*
X178547791Y-94637940D01*
X178672993Y-94459133D01*
X178765244Y-94261300D01*
X178821740Y-94050454D01*
X178840765Y-93833000D01*
X178821740Y-93615546D01*
X178765244Y-93404700D01*
X178672993Y-93206868D01*
X178547791Y-93028060D01*
X178393440Y-92873709D01*
X178214633Y-92748507D01*
X178165485Y-92725589D01*
X178100705Y-92695381D01*
X178048529Y-92649624D01*
X178029110Y-92582998D01*
X178048530Y-92516373D01*
X178100701Y-92470620D01*
X178214633Y-92417493D01*
X178393440Y-92292291D01*
X178547791Y-92137940D01*
X178672993Y-91959133D01*
X178765244Y-91761300D01*
X178821740Y-91550454D01*
X178840765Y-91333000D01*
X178821740Y-91115546D01*
X178765244Y-90904700D01*
X178672993Y-90706868D01*
X178547791Y-90528060D01*
X178393440Y-90373709D01*
X178214633Y-90248507D01*
X178120646Y-90204680D01*
X178016801Y-90156256D01*
X177805951Y-90099759D01*
X177588499Y-90080734D01*
X177371048Y-90099759D01*
X177160198Y-90156256D01*
X176962367Y-90248507D01*
X176891294Y-90298272D01*
X176832284Y-90320103D01*
X176770156Y-90310161D01*
X176720905Y-90271006D01*
X176690761Y-90230738D01*
X176573703Y-90143110D01*
X176436705Y-90092011D01*
X176406419Y-90088755D01*
X176376138Y-90085500D01*
X174800862Y-90085500D01*
X174773945Y-90088393D01*
X174740294Y-90092011D01*
X174603296Y-90143110D01*
X174486238Y-90230738D01*
X174398610Y-90347796D01*
X174347511Y-90484794D01*
X174346325Y-90495831D01*
X174341000Y-90545362D01*
X174341000Y-92120638D01*
X174343816Y-92146831D01*
X174347511Y-92181205D01*
X174398610Y-92318203D01*
X174486238Y-92435261D01*
X174603296Y-92522889D01*
X174740294Y-92573988D01*
X174740297Y-92573988D01*
X174740299Y-92573989D01*
X174800862Y-92580500D01*
X174800866Y-92580500D01*
X174809029Y-92580500D01*
X174869145Y-92596047D01*
X174914187Y-92638790D01*
X174932859Y-92698010D01*
X174920479Y-92758858D01*
X174880152Y-92806075D01*
X174783559Y-92873709D01*
X174629209Y-93028059D01*
X174504007Y-93206867D01*
X174411756Y-93404698D01*
X174355259Y-93615548D01*
X174336234Y-93833000D01*
X142356733Y-93833000D01*
X139775491Y-91251758D01*
X139751451Y-91217878D01*
X139739952Y-91177964D01*
X139734680Y-91131163D01*
X139674243Y-90958444D01*
X139576888Y-90803504D01*
X139576887Y-90803503D01*
X139576886Y-90803501D01*
X139447498Y-90674113D01*
X139384203Y-90634342D01*
X139292556Y-90576757D01*
X139119837Y-90516320D01*
X139119835Y-90516319D01*
X139119833Y-90516319D01*
X138938000Y-90495831D01*
X138756166Y-90516319D01*
X138756163Y-90516319D01*
X138756163Y-90516320D01*
X138583444Y-90576757D01*
X138583442Y-90576757D01*
X138583442Y-90576758D01*
X138428501Y-90674113D01*
X138384848Y-90717766D01*
X138338122Y-90747126D01*
X138283284Y-90753304D01*
X138231196Y-90735078D01*
X138192175Y-90696057D01*
X138179888Y-90676503D01*
X138050498Y-90547113D01*
X137968884Y-90495832D01*
X137895556Y-90449757D01*
X137722837Y-90389320D01*
X137722835Y-90389319D01*
X137722833Y-90389319D01*
X137541000Y-90368831D01*
X137359166Y-90389319D01*
X137359163Y-90389319D01*
X137359163Y-90389320D01*
X137186444Y-90449757D01*
X137186442Y-90449757D01*
X137186442Y-90449758D01*
X137031501Y-90547113D01*
X136902113Y-90676501D01*
X136804758Y-90831442D01*
X136804757Y-90831444D01*
X136760318Y-90958444D01*
X136744319Y-91004166D01*
X136723831Y-91185999D01*
X136744319Y-91367833D01*
X136744319Y-91367835D01*
X136744320Y-91367837D01*
X136804757Y-91540556D01*
X136820431Y-91565501D01*
X136902113Y-91695498D01*
X137031501Y-91824886D01*
X137031503Y-91824887D01*
X137031504Y-91824888D01*
X137186444Y-91922243D01*
X137359163Y-91982680D01*
X137541000Y-92003168D01*
X137722837Y-91982680D01*
X137895556Y-91922243D01*
X138050496Y-91824888D01*
X138094153Y-91781230D01*
X138140875Y-91751873D01*
X138195713Y-91745694D01*
X138247802Y-91763920D01*
X138286825Y-91802942D01*
X138299112Y-91822497D01*
X138428501Y-91951886D01*
X138428503Y-91951887D01*
X138428504Y-91951888D01*
X138583444Y-92049243D01*
X138756163Y-92109680D01*
X138792788Y-92113806D01*
X138802961Y-92114953D01*
X138842879Y-92126453D01*
X138876759Y-92150492D01*
X139223759Y-92497492D01*
X139255853Y-92553079D01*
X139255853Y-92617265D01*
X139223761Y-92672852D01*
X139188113Y-92708500D01*
X139090758Y-92863442D01*
X139090757Y-92863444D01*
X139038361Y-93013182D01*
X139030319Y-93036166D01*
X139009831Y-93218000D01*
X139030319Y-93399833D01*
X139030319Y-93399835D01*
X139030320Y-93399837D01*
X139090757Y-93572556D01*
X139126077Y-93628768D01*
X139188113Y-93727498D01*
X139317501Y-93856886D01*
X139317503Y-93856887D01*
X139317504Y-93856888D01*
X139472444Y-93954243D01*
X139645163Y-94014680D01*
X139827000Y-94035168D01*
X140008837Y-94014680D01*
X140181556Y-93954243D01*
X140336496Y-93856888D01*
X140372144Y-93821239D01*
X140427731Y-93789145D01*
X140491918Y-93789145D01*
X140547506Y-93821239D01*
X141456086Y-94729819D01*
X141486336Y-94779182D01*
X141490878Y-94836898D01*
X141468723Y-94890385D01*
X141424700Y-94927985D01*
X141368405Y-94941500D01*
X139833594Y-94941500D01*
X139786141Y-94932061D01*
X139745913Y-94905181D01*
X135137732Y-90297000D01*
X140660831Y-90297000D01*
X140681319Y-90478833D01*
X140681319Y-90478835D01*
X140681320Y-90478837D01*
X140741757Y-90651556D01*
X140783348Y-90717748D01*
X140839113Y-90806498D01*
X140968501Y-90935886D01*
X140968503Y-90935887D01*
X140968504Y-90935888D01*
X141123444Y-91033243D01*
X141296163Y-91093680D01*
X141478000Y-91114168D01*
X141659837Y-91093680D01*
X141832556Y-91033243D01*
X141987496Y-90935888D01*
X142116888Y-90806496D01*
X142214243Y-90651556D01*
X142274680Y-90478837D01*
X142280859Y-90424000D01*
X144724831Y-90424000D01*
X144745319Y-90605833D01*
X144745319Y-90605835D01*
X144745320Y-90605837D01*
X144805757Y-90778556D01*
X144838989Y-90831444D01*
X144903113Y-90933498D01*
X145032502Y-91062887D01*
X145118124Y-91116687D01*
X145157146Y-91155709D01*
X145175372Y-91207797D01*
X145169194Y-91262635D01*
X145126319Y-91385165D01*
X145105831Y-91567000D01*
X145126319Y-91748833D01*
X145126319Y-91748835D01*
X145126320Y-91748837D01*
X145186757Y-91921556D01*
X145187189Y-91922243D01*
X145284113Y-92076498D01*
X145413501Y-92205886D01*
X145413503Y-92205887D01*
X145413504Y-92205888D01*
X145568444Y-92303243D01*
X145741163Y-92363680D01*
X145923000Y-92384168D01*
X146104837Y-92363680D01*
X146277556Y-92303243D01*
X146358560Y-92252344D01*
X146419894Y-92233426D01*
X146482472Y-92247708D01*
X146529524Y-92291367D01*
X146554110Y-92330495D01*
X146683501Y-92459886D01*
X146683503Y-92459887D01*
X146683504Y-92459888D01*
X146838444Y-92557243D01*
X147011163Y-92617680D01*
X147193000Y-92638168D01*
X147374837Y-92617680D01*
X147547556Y-92557243D01*
X147547558Y-92557241D01*
X147560743Y-92552628D01*
X147561491Y-92554768D01*
X147590999Y-92544435D01*
X147645849Y-92550608D01*
X147692587Y-92579972D01*
X147826501Y-92713886D01*
X147826503Y-92713887D01*
X147826504Y-92713888D01*
X147981444Y-92811243D01*
X148154163Y-92871680D01*
X148336000Y-92892168D01*
X148517837Y-92871680D01*
X148690556Y-92811243D01*
X148845496Y-92713888D01*
X148974888Y-92584496D01*
X149072243Y-92429556D01*
X149132680Y-92256837D01*
X149153168Y-92075000D01*
X149132680Y-91893163D01*
X149072243Y-91720444D01*
X148974888Y-91565504D01*
X148974887Y-91565503D01*
X148974886Y-91565501D01*
X148845498Y-91436113D01*
X148764411Y-91385163D01*
X148690556Y-91338757D01*
X148517837Y-91278320D01*
X148517835Y-91278319D01*
X148517833Y-91278319D01*
X148336000Y-91257831D01*
X148154166Y-91278319D01*
X148154163Y-91278319D01*
X148154163Y-91278320D01*
X147981444Y-91338757D01*
X147981441Y-91338758D01*
X147968257Y-91343372D01*
X147967508Y-91341233D01*
X147937970Y-91351567D01*
X147883135Y-91345386D01*
X147836412Y-91316027D01*
X147702498Y-91182113D01*
X147598372Y-91116687D01*
X147547556Y-91084757D01*
X147374837Y-91024320D01*
X147374835Y-91024319D01*
X147374833Y-91024319D01*
X147193000Y-91003831D01*
X147011166Y-91024319D01*
X147011163Y-91024319D01*
X147011163Y-91024320D01*
X146838444Y-91084757D01*
X146838442Y-91084757D01*
X146838442Y-91084758D01*
X146757440Y-91135655D01*
X146696104Y-91154574D01*
X146633526Y-91140291D01*
X146586474Y-91096632D01*
X146561888Y-91057503D01*
X146432498Y-90928113D01*
X146346875Y-90874313D01*
X146307853Y-90835291D01*
X146289627Y-90783203D01*
X146295806Y-90728364D01*
X146338680Y-90605837D01*
X146359168Y-90424000D01*
X146358558Y-90418582D01*
X146338680Y-90242163D01*
X146313429Y-90169999D01*
X155519831Y-90169999D01*
X155540319Y-90351833D01*
X155540319Y-90351835D01*
X155540320Y-90351837D01*
X155600757Y-90524556D01*
X155619815Y-90554886D01*
X155698113Y-90679498D01*
X155827501Y-90808886D01*
X155827503Y-90808887D01*
X155827504Y-90808888D01*
X155982444Y-90906243D01*
X156155163Y-90966680D01*
X156337000Y-90987168D01*
X156518837Y-90966680D01*
X156691556Y-90906243D01*
X156846496Y-90808888D01*
X156975888Y-90679496D01*
X157073243Y-90524556D01*
X157133680Y-90351837D01*
X157139859Y-90297000D01*
X166441831Y-90297000D01*
X166462319Y-90478833D01*
X166462319Y-90478835D01*
X166462320Y-90478837D01*
X166522757Y-90651556D01*
X166564348Y-90717748D01*
X166620113Y-90806498D01*
X166749501Y-90935886D01*
X166749503Y-90935887D01*
X166749504Y-90935888D01*
X166904444Y-91033243D01*
X167077163Y-91093680D01*
X167259000Y-91114168D01*
X167440837Y-91093680D01*
X167613556Y-91033243D01*
X167768496Y-90935888D01*
X167897888Y-90806496D01*
X167995243Y-90651556D01*
X168055680Y-90478837D01*
X168076168Y-90297000D01*
X168055680Y-90115163D01*
X167995243Y-89942444D01*
X167897888Y-89787504D01*
X167897887Y-89787503D01*
X167897886Y-89787501D01*
X167768498Y-89658113D01*
X167686884Y-89606832D01*
X167613556Y-89560757D01*
X167440837Y-89500320D01*
X167440835Y-89500319D01*
X167440833Y-89500319D01*
X167259000Y-89479831D01*
X167077166Y-89500319D01*
X167077163Y-89500319D01*
X167077163Y-89500320D01*
X166904444Y-89560757D01*
X166904442Y-89560757D01*
X166904442Y-89560758D01*
X166749501Y-89658113D01*
X166620113Y-89787501D01*
X166522758Y-89942442D01*
X166522757Y-89942444D01*
X166478318Y-90069444D01*
X166462319Y-90115166D01*
X166441831Y-90297000D01*
X157139859Y-90297000D01*
X157154168Y-90170000D01*
X157152619Y-90156256D01*
X157142838Y-90069442D01*
X157133680Y-89988163D01*
X157073243Y-89815444D01*
X156975888Y-89660504D01*
X156975887Y-89660503D01*
X156975886Y-89660501D01*
X156846498Y-89531113D01*
X156764884Y-89479832D01*
X156691556Y-89433757D01*
X156518837Y-89373320D01*
X156518835Y-89373319D01*
X156518833Y-89373319D01*
X156337000Y-89352831D01*
X156155166Y-89373319D01*
X156155163Y-89373319D01*
X156155163Y-89373320D01*
X155982444Y-89433757D01*
X155982442Y-89433757D01*
X155982442Y-89433758D01*
X155827501Y-89531113D01*
X155698113Y-89660501D01*
X155600758Y-89815442D01*
X155600757Y-89815444D01*
X155556318Y-89942444D01*
X155540319Y-89988166D01*
X155519831Y-90169999D01*
X146313429Y-90169999D01*
X146278243Y-90069444D01*
X146180888Y-89914504D01*
X146180887Y-89914503D01*
X146180886Y-89914501D01*
X146051498Y-89785113D01*
X145970409Y-89734162D01*
X145896556Y-89687757D01*
X145723837Y-89627320D01*
X145723835Y-89627319D01*
X145723833Y-89627319D01*
X145542000Y-89606831D01*
X145360166Y-89627319D01*
X145360163Y-89627319D01*
X145360163Y-89627320D01*
X145187444Y-89687757D01*
X145187442Y-89687757D01*
X145187442Y-89687758D01*
X145032501Y-89785113D01*
X144903113Y-89914501D01*
X144805758Y-90069442D01*
X144805757Y-90069444D01*
X144779584Y-90144243D01*
X144745319Y-90242166D01*
X144724831Y-90424000D01*
X142280859Y-90424000D01*
X142295168Y-90297000D01*
X142274680Y-90115163D01*
X142214243Y-89942444D01*
X142116888Y-89787504D01*
X142116887Y-89787503D01*
X142116886Y-89787501D01*
X141987498Y-89658113D01*
X141905884Y-89606832D01*
X141832556Y-89560757D01*
X141659837Y-89500320D01*
X141659835Y-89500319D01*
X141659833Y-89500319D01*
X141478000Y-89479831D01*
X141296166Y-89500319D01*
X141296163Y-89500319D01*
X141296163Y-89500320D01*
X141123444Y-89560757D01*
X141123442Y-89560757D01*
X141123442Y-89560758D01*
X140968501Y-89658113D01*
X140839113Y-89787501D01*
X140741758Y-89942442D01*
X140741757Y-89942444D01*
X140697318Y-90069444D01*
X140681319Y-90115166D01*
X140660831Y-90297000D01*
X135137732Y-90297000D01*
X134695491Y-89854759D01*
X134671451Y-89820878D01*
X134659952Y-89780965D01*
X134654680Y-89734163D01*
X134594243Y-89561444D01*
X134496888Y-89406504D01*
X134496887Y-89406503D01*
X134496886Y-89406501D01*
X134367498Y-89277113D01*
X134286411Y-89226163D01*
X134212556Y-89179757D01*
X134039837Y-89119320D01*
X134039835Y-89119319D01*
X134039833Y-89119319D01*
X133858000Y-89098831D01*
X133676166Y-89119319D01*
X133676163Y-89119319D01*
X133676163Y-89119320D01*
X133503444Y-89179757D01*
X133503442Y-89179757D01*
X133503442Y-89179758D01*
X133348501Y-89277113D01*
X133219113Y-89406501D01*
X133122188Y-89560758D01*
X133121757Y-89561444D01*
X133077558Y-89687757D01*
X133061319Y-89734166D01*
X133040831Y-89916000D01*
X125557028Y-89916000D01*
X125653443Y-89762556D01*
X125713880Y-89589837D01*
X125734368Y-89408000D01*
X125734199Y-89406504D01*
X125728152Y-89352831D01*
X125713880Y-89226163D01*
X125653443Y-89053444D01*
X125556088Y-88898504D01*
X125556087Y-88898503D01*
X125556086Y-88898501D01*
X125426698Y-88769113D01*
X125338471Y-88713677D01*
X125271756Y-88671757D01*
X125099037Y-88611320D01*
X125099035Y-88611319D01*
X125099033Y-88611319D01*
X124917200Y-88590831D01*
X124735366Y-88611319D01*
X124735363Y-88611319D01*
X124735363Y-88611320D01*
X124562644Y-88671757D01*
X124562642Y-88671757D01*
X124562642Y-88671758D01*
X124407701Y-88769113D01*
X124278313Y-88898501D01*
X124214188Y-89000557D01*
X124180957Y-89053444D01*
X124145247Y-89155497D01*
X124120519Y-89226166D01*
X124100031Y-89407999D01*
X63856637Y-89407999D01*
X63844735Y-89249174D01*
X63786087Y-88992220D01*
X63689796Y-88746876D01*
X63558015Y-88518624D01*
X63393686Y-88312562D01*
X63370924Y-88291442D01*
X63205554Y-88138000D01*
X136139631Y-88138000D01*
X136160119Y-88319833D01*
X136160119Y-88319835D01*
X136160120Y-88319837D01*
X136220557Y-88492556D01*
X136220558Y-88492557D01*
X136317913Y-88647498D01*
X136447301Y-88776886D01*
X136447303Y-88776887D01*
X136447304Y-88776888D01*
X136602244Y-88874243D01*
X136774963Y-88934680D01*
X136911340Y-88950046D01*
X136956799Y-88955168D01*
X136956799Y-88955167D01*
X136956800Y-88955168D01*
X137066560Y-88942801D01*
X137134245Y-88954301D01*
X137185438Y-89000049D01*
X137283112Y-89155497D01*
X137412501Y-89284886D01*
X137412503Y-89284887D01*
X137412504Y-89284888D01*
X137567444Y-89382243D01*
X137740163Y-89442680D01*
X137922000Y-89463168D01*
X138103837Y-89442680D01*
X138276556Y-89382243D01*
X138431496Y-89284888D01*
X138560888Y-89155496D01*
X138658243Y-89000556D01*
X138718680Y-88827837D01*
X138739168Y-88646000D01*
X138718680Y-88464163D01*
X138658243Y-88291444D01*
X138560888Y-88136504D01*
X138560887Y-88136503D01*
X138560886Y-88136501D01*
X138431498Y-88007113D01*
X138339417Y-87949255D01*
X138276556Y-87909757D01*
X138103837Y-87849320D01*
X138103835Y-87849319D01*
X138103833Y-87849319D01*
X137921999Y-87828831D01*
X137812238Y-87841198D01*
X137744553Y-87829698D01*
X137693361Y-87783950D01*
X137595686Y-87628501D01*
X137466298Y-87499113D01*
X137369253Y-87438136D01*
X137311356Y-87401757D01*
X137138637Y-87341320D01*
X137138635Y-87341319D01*
X137138633Y-87341319D01*
X136956800Y-87320831D01*
X136774966Y-87341319D01*
X136774963Y-87341319D01*
X136774963Y-87341320D01*
X136602244Y-87401757D01*
X136602242Y-87401757D01*
X136602242Y-87401758D01*
X136447301Y-87499113D01*
X136317913Y-87628501D01*
X136220558Y-87783442D01*
X136220557Y-87783444D01*
X136176609Y-87909041D01*
X136160119Y-87956166D01*
X136139631Y-88138000D01*
X63205554Y-88138000D01*
X63200483Y-88133295D01*
X62990261Y-87989968D01*
X62982716Y-87984824D01*
X62982715Y-87984823D01*
X62982713Y-87984822D01*
X62745252Y-87870467D01*
X62493401Y-87792782D01*
X62232782Y-87753500D01*
X62232781Y-87753500D01*
X61969219Y-87753500D01*
X61969218Y-87753500D01*
X61708598Y-87792782D01*
X61456748Y-87870467D01*
X61219287Y-87984822D01*
X61001513Y-88133298D01*
X60808317Y-88312558D01*
X60643984Y-88518624D01*
X60512204Y-88746875D01*
X60415913Y-88992219D01*
X60357264Y-89249175D01*
X60337568Y-89512000D01*
X56960000Y-89512000D01*
X56960000Y-87248999D01*
X85212631Y-87248999D01*
X85233119Y-87430833D01*
X85233119Y-87430835D01*
X85233120Y-87430837D01*
X85293557Y-87603556D01*
X85343034Y-87682298D01*
X85390913Y-87758498D01*
X85520301Y-87887886D01*
X85520303Y-87887887D01*
X85520304Y-87887888D01*
X85675244Y-87985243D01*
X85847963Y-88045680D01*
X86029800Y-88066168D01*
X86211637Y-88045680D01*
X86384356Y-87985243D01*
X86539296Y-87887888D01*
X86668688Y-87758496D01*
X86766043Y-87603556D01*
X86826480Y-87430837D01*
X86846968Y-87249000D01*
X86838382Y-87172800D01*
X121915631Y-87172800D01*
X121936119Y-87354633D01*
X121936119Y-87354635D01*
X121936120Y-87354637D01*
X121996557Y-87527356D01*
X121996558Y-87527357D01*
X122093913Y-87682298D01*
X122223301Y-87811686D01*
X122223303Y-87811687D01*
X122223304Y-87811688D01*
X122378244Y-87909043D01*
X122550963Y-87969480D01*
X122732800Y-87989968D01*
X122914637Y-87969480D01*
X123087356Y-87909043D01*
X123242296Y-87811688D01*
X123371688Y-87682296D01*
X123469043Y-87527356D01*
X123529480Y-87354637D01*
X123549968Y-87172800D01*
X123529480Y-86990963D01*
X123469043Y-86818244D01*
X123371688Y-86663304D01*
X123371687Y-86663303D01*
X123371686Y-86663301D01*
X123322384Y-86613999D01*
X130196031Y-86613999D01*
X130216519Y-86795833D01*
X130216519Y-86795835D01*
X130216520Y-86795837D01*
X130276957Y-86968556D01*
X130316723Y-87031843D01*
X130374313Y-87123498D01*
X130503701Y-87252886D01*
X130503703Y-87252887D01*
X130503704Y-87252888D01*
X130658644Y-87350243D01*
X130831363Y-87410680D01*
X131013200Y-87431168D01*
X131195037Y-87410680D01*
X131367756Y-87350243D01*
X131522696Y-87252888D01*
X131652088Y-87123496D01*
X131749443Y-86968556D01*
X131809880Y-86795837D01*
X131830368Y-86614000D01*
X131809880Y-86432163D01*
X131749443Y-86259444D01*
X131652088Y-86104504D01*
X131652087Y-86104503D01*
X131652086Y-86104501D01*
X131522698Y-85975113D01*
X131409996Y-85904298D01*
X131367756Y-85877757D01*
X131294147Y-85852000D01*
X134006031Y-85852000D01*
X134026519Y-86033833D01*
X134026519Y-86033835D01*
X134026520Y-86033837D01*
X134086957Y-86206556D01*
X134120189Y-86259444D01*
X134184313Y-86361498D01*
X134313701Y-86490886D01*
X134313703Y-86490887D01*
X134313704Y-86490888D01*
X134468644Y-86588243D01*
X134641363Y-86648680D01*
X134823200Y-86669168D01*
X135005037Y-86648680D01*
X135177756Y-86588243D01*
X135332696Y-86490888D01*
X135462088Y-86361496D01*
X135503494Y-86295599D01*
X140674431Y-86295599D01*
X140694919Y-86477433D01*
X140694919Y-86477435D01*
X140694920Y-86477437D01*
X140755357Y-86650156D01*
X140767303Y-86669168D01*
X140852713Y-86805098D01*
X140982101Y-86934486D01*
X140982103Y-86934487D01*
X140982104Y-86934488D01*
X141137044Y-87031843D01*
X141309763Y-87092280D01*
X141491600Y-87112768D01*
X141673437Y-87092280D01*
X141846156Y-87031843D01*
X142001096Y-86934488D01*
X142130488Y-86805096D01*
X142227843Y-86650156D01*
X142258340Y-86563000D01*
X178101878Y-86563000D01*
X178122338Y-86862109D01*
X178183335Y-87155641D01*
X178283732Y-87438132D01*
X178421665Y-87704332D01*
X178594551Y-87949255D01*
X178594554Y-87949258D01*
X178594556Y-87949261D01*
X178799189Y-88168370D01*
X179031752Y-88357573D01*
X179287911Y-88513347D01*
X179562896Y-88632790D01*
X179851584Y-88713677D01*
X180148597Y-88754500D01*
X180448403Y-88754500D01*
X180745416Y-88713677D01*
X181034104Y-88632790D01*
X181309089Y-88513347D01*
X181565248Y-88357573D01*
X181797811Y-88168370D01*
X182002444Y-87949261D01*
X182119133Y-87783950D01*
X182175334Y-87704332D01*
X182175336Y-87704329D01*
X182313266Y-87438136D01*
X182413664Y-87155641D01*
X182474662Y-86862107D01*
X182495121Y-86563000D01*
X182474662Y-86263893D01*
X182413664Y-85970359D01*
X182398553Y-85927841D01*
X182313267Y-85687867D01*
X182313266Y-85687864D01*
X182175336Y-85421671D01*
X182175334Y-85421667D01*
X182002448Y-85176744D01*
X182002446Y-85176741D01*
X182002444Y-85176739D01*
X181797811Y-84957630D01*
X181565248Y-84768427D01*
X181309089Y-84612653D01*
X181034104Y-84493210D01*
X180822246Y-84433850D01*
X180745413Y-84412322D01*
X180448403Y-84371500D01*
X180148597Y-84371500D01*
X179851586Y-84412322D01*
X179639726Y-84471682D01*
X179562896Y-84493210D01*
X179562894Y-84493210D01*
X179562893Y-84493211D01*
X179287910Y-84612653D01*
X179031753Y-84768426D01*
X178799192Y-84957627D01*
X178799189Y-84957629D01*
X178799189Y-84957630D01*
X178727088Y-85034831D01*
X178594551Y-85176744D01*
X178421665Y-85421667D01*
X178283732Y-85687867D01*
X178183335Y-85970358D01*
X178122338Y-86263890D01*
X178101878Y-86563000D01*
X142258340Y-86563000D01*
X142288280Y-86477437D01*
X142308768Y-86295600D01*
X142305195Y-86263893D01*
X142298735Y-86206556D01*
X142288280Y-86113763D01*
X142227843Y-85941044D01*
X142130488Y-85786104D01*
X142130487Y-85786103D01*
X142130486Y-85786101D01*
X142001098Y-85656713D01*
X141873657Y-85576637D01*
X141846156Y-85559357D01*
X141673437Y-85498920D01*
X141673435Y-85498919D01*
X141673433Y-85498919D01*
X141491600Y-85478431D01*
X141309766Y-85498919D01*
X141309763Y-85498919D01*
X141309763Y-85498920D01*
X141137044Y-85559357D01*
X141137042Y-85559357D01*
X141137042Y-85559358D01*
X140982101Y-85656713D01*
X140852713Y-85786101D01*
X140755358Y-85941042D01*
X140755357Y-85941044D01*
X140722889Y-86033833D01*
X140694919Y-86113766D01*
X140674431Y-86295599D01*
X135503494Y-86295599D01*
X135559443Y-86206556D01*
X135619880Y-86033837D01*
X135640368Y-85852000D01*
X135619880Y-85670163D01*
X135559443Y-85497444D01*
X135494947Y-85394799D01*
X147671231Y-85394799D01*
X147691719Y-85576633D01*
X147691719Y-85576635D01*
X147691720Y-85576637D01*
X147752157Y-85749356D01*
X147809742Y-85841003D01*
X147849513Y-85904298D01*
X147978901Y-86033686D01*
X147978903Y-86033687D01*
X147978904Y-86033688D01*
X148133844Y-86131043D01*
X148306563Y-86191480D01*
X148488400Y-86211968D01*
X148670237Y-86191480D01*
X148842956Y-86131043D01*
X148997896Y-86033688D01*
X149127288Y-85904296D01*
X149224643Y-85749356D01*
X149285080Y-85576637D01*
X149305568Y-85394800D01*
X149285080Y-85212963D01*
X149224643Y-85040244D01*
X149127288Y-84885304D01*
X149127287Y-84885303D01*
X149127286Y-84885301D01*
X148997898Y-84755913D01*
X148885196Y-84685098D01*
X148842956Y-84658557D01*
X148670237Y-84598120D01*
X148670235Y-84598119D01*
X148670233Y-84598119D01*
X148488400Y-84577631D01*
X148306566Y-84598119D01*
X148306563Y-84598119D01*
X148306563Y-84598120D01*
X148133844Y-84658557D01*
X148133842Y-84658557D01*
X148133842Y-84658558D01*
X147978901Y-84755913D01*
X147849513Y-84885301D01*
X147752158Y-85040242D01*
X147691719Y-85212966D01*
X147671231Y-85394799D01*
X135494947Y-85394799D01*
X135462088Y-85342504D01*
X135462087Y-85342503D01*
X135462086Y-85342501D01*
X135332698Y-85213113D01*
X135269403Y-85173342D01*
X135177756Y-85115757D01*
X135005037Y-85055320D01*
X135005035Y-85055319D01*
X135005033Y-85055319D01*
X134823200Y-85034831D01*
X134641366Y-85055319D01*
X134641363Y-85055319D01*
X134641363Y-85055320D01*
X134468644Y-85115757D01*
X134468642Y-85115757D01*
X134468642Y-85115758D01*
X134313701Y-85213113D01*
X134184313Y-85342501D01*
X134098903Y-85478432D01*
X134086957Y-85497444D01*
X134059248Y-85576633D01*
X134026519Y-85670166D01*
X134006031Y-85852000D01*
X131294147Y-85852000D01*
X131195037Y-85817320D01*
X131195035Y-85817319D01*
X131195033Y-85817319D01*
X131013200Y-85796831D01*
X130831366Y-85817319D01*
X130831363Y-85817319D01*
X130831363Y-85817320D01*
X130658644Y-85877757D01*
X130658642Y-85877757D01*
X130658642Y-85877758D01*
X130503701Y-85975113D01*
X130374313Y-86104501D01*
X130310188Y-86206557D01*
X130276957Y-86259444D01*
X130241247Y-86361498D01*
X130216519Y-86432166D01*
X130196031Y-86613999D01*
X123322384Y-86613999D01*
X123242298Y-86533913D01*
X123179003Y-86494142D01*
X123087356Y-86436557D01*
X122914637Y-86376120D01*
X122914635Y-86376119D01*
X122914633Y-86376119D01*
X122732800Y-86355631D01*
X122550966Y-86376119D01*
X122550963Y-86376119D01*
X122550963Y-86376120D01*
X122378244Y-86436557D01*
X122378242Y-86436557D01*
X122378242Y-86436558D01*
X122223301Y-86533913D01*
X122093913Y-86663301D01*
X122010636Y-86795837D01*
X121996557Y-86818244D01*
X121943961Y-86968556D01*
X121936119Y-86990966D01*
X121915631Y-87172800D01*
X86838382Y-87172800D01*
X86826480Y-87067163D01*
X86766043Y-86894444D01*
X86668688Y-86739504D01*
X86668687Y-86739503D01*
X86668686Y-86739501D01*
X86539298Y-86610113D01*
X86464317Y-86563000D01*
X86384356Y-86512757D01*
X86211637Y-86452320D01*
X86211635Y-86452319D01*
X86211633Y-86452319D01*
X86029800Y-86431831D01*
X85847966Y-86452319D01*
X85847963Y-86452319D01*
X85847963Y-86452320D01*
X85675244Y-86512757D01*
X85675242Y-86512757D01*
X85675242Y-86512758D01*
X85520301Y-86610113D01*
X85390913Y-86739501D01*
X85313874Y-86862109D01*
X85293557Y-86894444D01*
X85245480Y-87031841D01*
X85233119Y-87067166D01*
X85212631Y-87248999D01*
X56960000Y-87248999D01*
X56960000Y-85191599D01*
X114600431Y-85191599D01*
X114620919Y-85373433D01*
X114620919Y-85373435D01*
X114620920Y-85373437D01*
X114681357Y-85546156D01*
X114738943Y-85637803D01*
X114778713Y-85701098D01*
X114908101Y-85830486D01*
X114908103Y-85830487D01*
X114908104Y-85830488D01*
X115063044Y-85927843D01*
X115235763Y-85988280D01*
X115417600Y-86008768D01*
X115599437Y-85988280D01*
X115772156Y-85927843D01*
X115927096Y-85830488D01*
X116056488Y-85701096D01*
X116153843Y-85546156D01*
X116214280Y-85373437D01*
X116234768Y-85191600D01*
X116214280Y-85009763D01*
X116153843Y-84837044D01*
X116056488Y-84682104D01*
X116056487Y-84682103D01*
X116056486Y-84682101D01*
X115927098Y-84552713D01*
X115814396Y-84481898D01*
X115772156Y-84455357D01*
X115599437Y-84394920D01*
X115599435Y-84394919D01*
X115599433Y-84394919D01*
X115417600Y-84374431D01*
X115235766Y-84394919D01*
X115235763Y-84394919D01*
X115235763Y-84394920D01*
X115063044Y-84455357D01*
X115063042Y-84455357D01*
X115063042Y-84455358D01*
X114908101Y-84552713D01*
X114778713Y-84682101D01*
X114681358Y-84837042D01*
X114681357Y-84837044D01*
X114655184Y-84911843D01*
X114620919Y-85009766D01*
X114600431Y-85191599D01*
X56960000Y-85191599D01*
X56960000Y-84175600D01*
X122728431Y-84175600D01*
X122748919Y-84357433D01*
X122748919Y-84357435D01*
X122748920Y-84357437D01*
X122809357Y-84530156D01*
X122861193Y-84612653D01*
X122906713Y-84685098D01*
X123036101Y-84814486D01*
X123036103Y-84814487D01*
X123036104Y-84814488D01*
X123191044Y-84911843D01*
X123363763Y-84972280D01*
X123545600Y-84992768D01*
X123727437Y-84972280D01*
X123900156Y-84911843D01*
X124055096Y-84814488D01*
X124184488Y-84685096D01*
X124281843Y-84530156D01*
X124342280Y-84357437D01*
X124362768Y-84175600D01*
X124342280Y-83993763D01*
X124281843Y-83821044D01*
X124184488Y-83666104D01*
X124184487Y-83666103D01*
X124184486Y-83666101D01*
X124055098Y-83536713D01*
X123937626Y-83462901D01*
X123900156Y-83439357D01*
X123727437Y-83378920D01*
X123727435Y-83378919D01*
X123727433Y-83378919D01*
X123545600Y-83358431D01*
X123363766Y-83378919D01*
X123363763Y-83378919D01*
X123363763Y-83378920D01*
X123191044Y-83439357D01*
X123191042Y-83439357D01*
X123191042Y-83439358D01*
X123036101Y-83536713D01*
X122906713Y-83666101D01*
X122809358Y-83821042D01*
X122748919Y-83993766D01*
X122728431Y-84175600D01*
X56960000Y-84175600D01*
X56960000Y-82753199D01*
X84323631Y-82753199D01*
X84344119Y-82935033D01*
X84344119Y-82935035D01*
X84344120Y-82935037D01*
X84404557Y-83107756D01*
X84452196Y-83183573D01*
X84501913Y-83262698D01*
X84631301Y-83392086D01*
X84631303Y-83392087D01*
X84631304Y-83392088D01*
X84786244Y-83489443D01*
X84958963Y-83549880D01*
X85140800Y-83570368D01*
X85322637Y-83549880D01*
X85495356Y-83489443D01*
X85650296Y-83392088D01*
X85779688Y-83262696D01*
X85877043Y-83107756D01*
X85937480Y-82935037D01*
X85957968Y-82753200D01*
X85937480Y-82571363D01*
X85877043Y-82398644D01*
X85779688Y-82243704D01*
X85779687Y-82243703D01*
X85779686Y-82243701D01*
X85650298Y-82114313D01*
X85540782Y-82045500D01*
X85495356Y-82016957D01*
X85322637Y-81956520D01*
X85322635Y-81956519D01*
X85322633Y-81956519D01*
X85140800Y-81936031D01*
X84958966Y-81956519D01*
X84958963Y-81956519D01*
X84958963Y-81956520D01*
X84786244Y-82016957D01*
X84786242Y-82016957D01*
X84786242Y-82016958D01*
X84631301Y-82114313D01*
X84501913Y-82243701D01*
X84404558Y-82398642D01*
X84404557Y-82398644D01*
X84344120Y-82571363D01*
X84344119Y-82571366D01*
X84323631Y-82753199D01*
X56960000Y-82753199D01*
X56960000Y-80287000D01*
X60337568Y-80287000D01*
X60357264Y-80549824D01*
X60415913Y-80806780D01*
X60512204Y-81052124D01*
X60614565Y-81229420D01*
X60643985Y-81280376D01*
X60808314Y-81486438D01*
X60808316Y-81486440D01*
X60808317Y-81486441D01*
X61001513Y-81665701D01*
X61001515Y-81665702D01*
X61001519Y-81665706D01*
X61219285Y-81814176D01*
X61456746Y-81928532D01*
X61708600Y-82006218D01*
X61922964Y-82038528D01*
X61969218Y-82045500D01*
X61969219Y-82045500D01*
X62232781Y-82045500D01*
X62232782Y-82045500D01*
X62272063Y-82039579D01*
X62493400Y-82006218D01*
X62745254Y-81928532D01*
X62982716Y-81814176D01*
X63200481Y-81665706D01*
X63232928Y-81635600D01*
X120290031Y-81635600D01*
X120310519Y-81817433D01*
X120310519Y-81817435D01*
X120310520Y-81817437D01*
X120370957Y-81990156D01*
X120387797Y-82016957D01*
X120468313Y-82145098D01*
X120597701Y-82274486D01*
X120597703Y-82274487D01*
X120597704Y-82274488D01*
X120752644Y-82371843D01*
X120925363Y-82432280D01*
X121107200Y-82452768D01*
X121289037Y-82432280D01*
X121461756Y-82371843D01*
X121501612Y-82346800D01*
X124811231Y-82346800D01*
X124831719Y-82528633D01*
X124831719Y-82528635D01*
X124831720Y-82528637D01*
X124892157Y-82701356D01*
X124892158Y-82701357D01*
X124989513Y-82856298D01*
X125118901Y-82985686D01*
X125118903Y-82985687D01*
X125118904Y-82985688D01*
X125273844Y-83083043D01*
X125446563Y-83143480D01*
X125502765Y-83149812D01*
X125569216Y-83157300D01*
X125632645Y-83183573D01*
X125672373Y-83239565D01*
X125676223Y-83308112D01*
X125643014Y-83368201D01*
X125548311Y-83462904D01*
X125450958Y-83617842D01*
X125390519Y-83790566D01*
X125370031Y-83972399D01*
X125390519Y-84154233D01*
X125390519Y-84154235D01*
X125390520Y-84154237D01*
X125450957Y-84326956D01*
X125504596Y-84412322D01*
X125548313Y-84481898D01*
X125677701Y-84611286D01*
X125677703Y-84611287D01*
X125677704Y-84611288D01*
X125832644Y-84708643D01*
X126005363Y-84769080D01*
X126187200Y-84789568D01*
X126369037Y-84769080D01*
X126541756Y-84708643D01*
X126696696Y-84611288D01*
X126826088Y-84481896D01*
X126923443Y-84326956D01*
X126983880Y-84154237D01*
X127004368Y-83972400D01*
X126983880Y-83790563D01*
X126923443Y-83617844D01*
X126826088Y-83462904D01*
X126826087Y-83462903D01*
X126826086Y-83462901D01*
X126696698Y-83333513D01*
X126583996Y-83262698D01*
X126541756Y-83236157D01*
X126369037Y-83175720D01*
X126369033Y-83175719D01*
X126369032Y-83175719D01*
X126246383Y-83161899D01*
X126182954Y-83135626D01*
X126143225Y-83079633D01*
X126139376Y-83011086D01*
X126172584Y-82950999D01*
X126267288Y-82856296D01*
X126364643Y-82701356D01*
X126405043Y-82585899D01*
X129042531Y-82585899D01*
X129063019Y-82767733D01*
X129063019Y-82767735D01*
X129063020Y-82767737D01*
X129123457Y-82940456D01*
X129151877Y-82985686D01*
X129220813Y-83095398D01*
X129350201Y-83224786D01*
X129350203Y-83224787D01*
X129350204Y-83224788D01*
X129505144Y-83322143D01*
X129677863Y-83382580D01*
X129859700Y-83403068D01*
X130041537Y-83382580D01*
X130214256Y-83322143D01*
X130369196Y-83224788D01*
X130498588Y-83095396D01*
X130595943Y-82940456D01*
X130656380Y-82767737D01*
X130676868Y-82585900D01*
X130656380Y-82404063D01*
X130595943Y-82231344D01*
X130498588Y-82076404D01*
X130498587Y-82076403D01*
X130498586Y-82076401D01*
X130369198Y-81947013D01*
X130276706Y-81888897D01*
X130214256Y-81849657D01*
X130041537Y-81789220D01*
X130041535Y-81789219D01*
X130041533Y-81789219D01*
X129859700Y-81768731D01*
X129677866Y-81789219D01*
X129677863Y-81789219D01*
X129677863Y-81789220D01*
X129505144Y-81849657D01*
X129505142Y-81849657D01*
X129505142Y-81849658D01*
X129350201Y-81947013D01*
X129220813Y-82076401D01*
X129123458Y-82231342D01*
X129123457Y-82231344D01*
X129073502Y-82374107D01*
X129063019Y-82404066D01*
X129042531Y-82585899D01*
X126405043Y-82585899D01*
X126425080Y-82528637D01*
X126445568Y-82346800D01*
X126425080Y-82164963D01*
X126364643Y-81992244D01*
X126267288Y-81837304D01*
X126267287Y-81837303D01*
X126267286Y-81837301D01*
X126137898Y-81707913D01*
X126070717Y-81665701D01*
X125982956Y-81610557D01*
X125810237Y-81550120D01*
X125810235Y-81550119D01*
X125810233Y-81550119D01*
X125628400Y-81529631D01*
X125446566Y-81550119D01*
X125446563Y-81550119D01*
X125446563Y-81550120D01*
X125273844Y-81610557D01*
X125273842Y-81610557D01*
X125273842Y-81610558D01*
X125118901Y-81707913D01*
X124989513Y-81837301D01*
X124908998Y-81965441D01*
X124892157Y-81992244D01*
X124873522Y-82045500D01*
X124831719Y-82164966D01*
X124811231Y-82346800D01*
X121501612Y-82346800D01*
X121616696Y-82274488D01*
X121746088Y-82145096D01*
X121843443Y-81990156D01*
X121903880Y-81817437D01*
X121924368Y-81635600D01*
X121903880Y-81453763D01*
X121843443Y-81281044D01*
X121810867Y-81229200D01*
X136647631Y-81229200D01*
X136668119Y-81411033D01*
X136668119Y-81411035D01*
X136668120Y-81411037D01*
X136728557Y-81583756D01*
X136786143Y-81675403D01*
X136825913Y-81738698D01*
X136955301Y-81868086D01*
X136955303Y-81868087D01*
X136955304Y-81868088D01*
X137110244Y-81965443D01*
X137282963Y-82025880D01*
X137464800Y-82046368D01*
X137646637Y-82025880D01*
X137819356Y-81965443D01*
X137974296Y-81868088D01*
X138103688Y-81738696D01*
X138201043Y-81583756D01*
X138261480Y-81411037D01*
X138281968Y-81229200D01*
X138261480Y-81047363D01*
X138201043Y-80874644D01*
X138103688Y-80719704D01*
X138103687Y-80719703D01*
X138103686Y-80719701D01*
X138101485Y-80717500D01*
X151448893Y-80717500D01*
X151455920Y-80806780D01*
X151469289Y-80976651D01*
X151529972Y-81229419D01*
X151552534Y-81283888D01*
X151629452Y-81469584D01*
X151765277Y-81691229D01*
X151934102Y-81888898D01*
X152131771Y-82057723D01*
X152353416Y-82193548D01*
X152593580Y-82293027D01*
X152846350Y-82353711D01*
X153105500Y-82374107D01*
X153364650Y-82353711D01*
X153617420Y-82293027D01*
X153857584Y-82193548D01*
X154079229Y-82057723D01*
X154276898Y-81888898D01*
X154445723Y-81691229D01*
X154581548Y-81469584D01*
X154681027Y-81229420D01*
X154741711Y-80976650D01*
X154762107Y-80717500D01*
X155408893Y-80717500D01*
X155415920Y-80806780D01*
X155429289Y-80976651D01*
X155489972Y-81229419D01*
X155512534Y-81283888D01*
X155589452Y-81469584D01*
X155725277Y-81691229D01*
X155894102Y-81888898D01*
X156091771Y-82057723D01*
X156313416Y-82193548D01*
X156553580Y-82293027D01*
X156806350Y-82353711D01*
X157065500Y-82374107D01*
X157324650Y-82353711D01*
X157577420Y-82293027D01*
X157817584Y-82193548D01*
X158039229Y-82057723D01*
X158236898Y-81888898D01*
X158320396Y-81791134D01*
X159492000Y-81791134D01*
X159498511Y-81851705D01*
X159549610Y-81988703D01*
X159637238Y-82105761D01*
X159754296Y-82193389D01*
X159891294Y-82244488D01*
X159891297Y-82244488D01*
X159891299Y-82244489D01*
X159951862Y-82251000D01*
X162099134Y-82251000D01*
X162099138Y-82251000D01*
X162159701Y-82244489D01*
X162159703Y-82244488D01*
X162159705Y-82244488D01*
X162237624Y-82215424D01*
X162296704Y-82193389D01*
X162413761Y-82105761D01*
X162501389Y-81988704D01*
X162538615Y-81888898D01*
X162552488Y-81851705D01*
X162552488Y-81851703D01*
X162552489Y-81851701D01*
X162559000Y-81791138D01*
X162559000Y-80717500D01*
X165672893Y-80717500D01*
X165679920Y-80806780D01*
X165693289Y-80976651D01*
X165753972Y-81229419D01*
X165776534Y-81283888D01*
X165853452Y-81469584D01*
X165989277Y-81691229D01*
X166158102Y-81888898D01*
X166355771Y-82057723D01*
X166577416Y-82193548D01*
X166817580Y-82293027D01*
X167070350Y-82353711D01*
X167329500Y-82374107D01*
X167588650Y-82353711D01*
X167841420Y-82293027D01*
X168081584Y-82193548D01*
X168303229Y-82057723D01*
X168500898Y-81888898D01*
X168669723Y-81691229D01*
X168805548Y-81469584D01*
X168905027Y-81229420D01*
X168965711Y-80976650D01*
X168986107Y-80717500D01*
X169632893Y-80717500D01*
X169639920Y-80806780D01*
X169653289Y-80976651D01*
X169713972Y-81229419D01*
X169736534Y-81283888D01*
X169813452Y-81469584D01*
X169949277Y-81691229D01*
X170118102Y-81888898D01*
X170315771Y-82057723D01*
X170537416Y-82193548D01*
X170777580Y-82293027D01*
X171030350Y-82353711D01*
X171289500Y-82374107D01*
X171548650Y-82353711D01*
X171801420Y-82293027D01*
X172041584Y-82193548D01*
X172263229Y-82057723D01*
X172460898Y-81888898D01*
X172544396Y-81791134D01*
X173716000Y-81791134D01*
X173722511Y-81851705D01*
X173773610Y-81988703D01*
X173861238Y-82105761D01*
X173978296Y-82193389D01*
X174115294Y-82244488D01*
X174115297Y-82244488D01*
X174115299Y-82244489D01*
X174175862Y-82251000D01*
X176323134Y-82251000D01*
X176323138Y-82251000D01*
X176383701Y-82244489D01*
X176383703Y-82244488D01*
X176383705Y-82244488D01*
X176461624Y-82215424D01*
X176520704Y-82193389D01*
X176637761Y-82105761D01*
X176725389Y-81988704D01*
X176762615Y-81888898D01*
X176776488Y-81851705D01*
X176776488Y-81851703D01*
X176776489Y-81851701D01*
X176783000Y-81791138D01*
X176783000Y-80645000D01*
X184729831Y-80645000D01*
X184750319Y-80826833D01*
X184750319Y-80826835D01*
X184750320Y-80826837D01*
X184810757Y-80999556D01*
X184810758Y-80999557D01*
X184908113Y-81154498D01*
X185037501Y-81283886D01*
X185037503Y-81283887D01*
X185037504Y-81283888D01*
X185192444Y-81381243D01*
X185365163Y-81441680D01*
X185547000Y-81462168D01*
X185728837Y-81441680D01*
X185901556Y-81381243D01*
X186056496Y-81283888D01*
X186185888Y-81154496D01*
X186283243Y-80999556D01*
X186343680Y-80826837D01*
X186364168Y-80645000D01*
X186343680Y-80463163D01*
X186283243Y-80290444D01*
X186185888Y-80135504D01*
X186185887Y-80135503D01*
X186185886Y-80135501D01*
X186056498Y-80006113D01*
X185948363Y-79938168D01*
X185901556Y-79908757D01*
X185728837Y-79848320D01*
X185728835Y-79848319D01*
X185728833Y-79848319D01*
X185547000Y-79827831D01*
X185365166Y-79848319D01*
X185365163Y-79848319D01*
X185365163Y-79848320D01*
X185192444Y-79908757D01*
X185192442Y-79908757D01*
X185192442Y-79908758D01*
X185037501Y-80006113D01*
X184908113Y-80135501D01*
X184864080Y-80205580D01*
X184810757Y-80290444D01*
X184752005Y-80458348D01*
X184750319Y-80463166D01*
X184729831Y-80645000D01*
X176783000Y-80645000D01*
X176783000Y-79643862D01*
X176776489Y-79583299D01*
X176776488Y-79583297D01*
X176776488Y-79583294D01*
X176725389Y-79446296D01*
X176637761Y-79329238D01*
X176520703Y-79241610D01*
X176383705Y-79190511D01*
X176353419Y-79187255D01*
X176323138Y-79184000D01*
X174175862Y-79184000D01*
X174148945Y-79186893D01*
X174115294Y-79190511D01*
X173978296Y-79241610D01*
X173861238Y-79329238D01*
X173773610Y-79446296D01*
X173722511Y-79583294D01*
X173716000Y-79643866D01*
X173716000Y-81791134D01*
X172544396Y-81791134D01*
X172629723Y-81691229D01*
X172765548Y-81469584D01*
X172865027Y-81229420D01*
X172925711Y-80976650D01*
X172946107Y-80717500D01*
X172925711Y-80458350D01*
X172865027Y-80205580D01*
X172765548Y-79965416D01*
X172629723Y-79743771D01*
X172460898Y-79546102D01*
X172263229Y-79377277D01*
X172041584Y-79241452D01*
X171918601Y-79190511D01*
X171801419Y-79141972D01*
X171548651Y-79081289D01*
X171419075Y-79071091D01*
X171289500Y-79060893D01*
X171289499Y-79060893D01*
X171030348Y-79081289D01*
X170777580Y-79141972D01*
X170537414Y-79241453D01*
X170315772Y-79377276D01*
X170118102Y-79546102D01*
X169949276Y-79743772D01*
X169813453Y-79965414D01*
X169713972Y-80205580D01*
X169653289Y-80458348D01*
X169642903Y-80590312D01*
X169632893Y-80717500D01*
X168986107Y-80717500D01*
X168965711Y-80458350D01*
X168905027Y-80205580D01*
X168805548Y-79965416D01*
X168669723Y-79743771D01*
X168500898Y-79546102D01*
X168303229Y-79377277D01*
X168081584Y-79241452D01*
X167958601Y-79190511D01*
X167841419Y-79141972D01*
X167588651Y-79081289D01*
X167459075Y-79071091D01*
X167329500Y-79060893D01*
X167329499Y-79060893D01*
X167070348Y-79081289D01*
X166817580Y-79141972D01*
X166577414Y-79241453D01*
X166355772Y-79377276D01*
X166158102Y-79546102D01*
X165989276Y-79743772D01*
X165853453Y-79965414D01*
X165753972Y-80205580D01*
X165693289Y-80458348D01*
X165682903Y-80590312D01*
X165672893Y-80717500D01*
X162559000Y-80717500D01*
X162559000Y-79643862D01*
X162552489Y-79583299D01*
X162552488Y-79583297D01*
X162552488Y-79583294D01*
X162501389Y-79446296D01*
X162413761Y-79329238D01*
X162296703Y-79241610D01*
X162159705Y-79190511D01*
X162129419Y-79187255D01*
X162099138Y-79184000D01*
X159951862Y-79184000D01*
X159924945Y-79186893D01*
X159891294Y-79190511D01*
X159754296Y-79241610D01*
X159637238Y-79329238D01*
X159549610Y-79446296D01*
X159498511Y-79583294D01*
X159492000Y-79643866D01*
X159492000Y-81791134D01*
X158320396Y-81791134D01*
X158405723Y-81691229D01*
X158541548Y-81469584D01*
X158641027Y-81229420D01*
X158701711Y-80976650D01*
X158722107Y-80717500D01*
X158701711Y-80458350D01*
X158641027Y-80205580D01*
X158541548Y-79965416D01*
X158405723Y-79743771D01*
X158236898Y-79546102D01*
X158039229Y-79377277D01*
X157817584Y-79241452D01*
X157694601Y-79190511D01*
X157577419Y-79141972D01*
X157324651Y-79081289D01*
X157195075Y-79071091D01*
X157065500Y-79060893D01*
X157065499Y-79060893D01*
X156806348Y-79081289D01*
X156553580Y-79141972D01*
X156313414Y-79241453D01*
X156091772Y-79377276D01*
X155894102Y-79546102D01*
X155725276Y-79743772D01*
X155589453Y-79965414D01*
X155489972Y-80205580D01*
X155429289Y-80458348D01*
X155418903Y-80590312D01*
X155408893Y-80717500D01*
X154762107Y-80717500D01*
X154741711Y-80458350D01*
X154681027Y-80205580D01*
X154581548Y-79965416D01*
X154445723Y-79743771D01*
X154276898Y-79546102D01*
X154079229Y-79377277D01*
X153857584Y-79241452D01*
X153734601Y-79190511D01*
X153617419Y-79141972D01*
X153364651Y-79081289D01*
X153235075Y-79071091D01*
X153105500Y-79060893D01*
X153105499Y-79060893D01*
X152846348Y-79081289D01*
X152593580Y-79141972D01*
X152353414Y-79241453D01*
X152131772Y-79377276D01*
X151934102Y-79546102D01*
X151765276Y-79743772D01*
X151629453Y-79965414D01*
X151529972Y-80205580D01*
X151469289Y-80458348D01*
X151458903Y-80590312D01*
X151448893Y-80717500D01*
X138101485Y-80717500D01*
X137974298Y-80590313D01*
X137909860Y-80549824D01*
X137819356Y-80492957D01*
X137646637Y-80432520D01*
X137646635Y-80432519D01*
X137646633Y-80432519D01*
X137464800Y-80412031D01*
X137282966Y-80432519D01*
X137282963Y-80432519D01*
X137282963Y-80432520D01*
X137110244Y-80492957D01*
X137110242Y-80492957D01*
X137110242Y-80492958D01*
X136955301Y-80590313D01*
X136825913Y-80719701D01*
X136728558Y-80874642D01*
X136728557Y-80874644D01*
X136684848Y-80999557D01*
X136668119Y-81047366D01*
X136647631Y-81229200D01*
X121810867Y-81229200D01*
X121746088Y-81126104D01*
X121746087Y-81126103D01*
X121746086Y-81126101D01*
X121616698Y-80996713D01*
X121553403Y-80956942D01*
X121461756Y-80899357D01*
X121289037Y-80838920D01*
X121289035Y-80838919D01*
X121289033Y-80838919D01*
X121107200Y-80818431D01*
X120925366Y-80838919D01*
X120925363Y-80838919D01*
X120925363Y-80838920D01*
X120752644Y-80899357D01*
X120752642Y-80899357D01*
X120752642Y-80899358D01*
X120597701Y-80996713D01*
X120468313Y-81126101D01*
X120370958Y-81281042D01*
X120370957Y-81281044D01*
X120314748Y-81441680D01*
X120310519Y-81453766D01*
X120290031Y-81635600D01*
X63232928Y-81635600D01*
X63393686Y-81486438D01*
X63558015Y-81280376D01*
X63689796Y-81052124D01*
X63786087Y-80806780D01*
X63844735Y-80549826D01*
X63864431Y-80287000D01*
X63844735Y-80024174D01*
X63786087Y-79767220D01*
X63689796Y-79521876D01*
X63558015Y-79293624D01*
X63420351Y-79120999D01*
X135453831Y-79120999D01*
X135474319Y-79302833D01*
X135474319Y-79302835D01*
X135474320Y-79302837D01*
X135534757Y-79475556D01*
X135534758Y-79475557D01*
X135632113Y-79630498D01*
X135761501Y-79759886D01*
X135761503Y-79759887D01*
X135761504Y-79759888D01*
X135916444Y-79857243D01*
X136089163Y-79917680D01*
X136271000Y-79938168D01*
X136452837Y-79917680D01*
X136625556Y-79857243D01*
X136780496Y-79759888D01*
X136909888Y-79630496D01*
X137007243Y-79475556D01*
X137067680Y-79302837D01*
X137088168Y-79121000D01*
X137067680Y-78939163D01*
X137007243Y-78766444D01*
X136909888Y-78611504D01*
X136909887Y-78611503D01*
X136909886Y-78611501D01*
X136780498Y-78482113D01*
X136717203Y-78442343D01*
X136625556Y-78384757D01*
X136452837Y-78324320D01*
X136452835Y-78324319D01*
X136452833Y-78324319D01*
X136271000Y-78303831D01*
X136089166Y-78324319D01*
X136089163Y-78324319D01*
X136089163Y-78324320D01*
X135916444Y-78384757D01*
X135916442Y-78384757D01*
X135916442Y-78384758D01*
X135761501Y-78482113D01*
X135632113Y-78611501D01*
X135534758Y-78766442D01*
X135474319Y-78939166D01*
X135453831Y-79120999D01*
X63420351Y-79120999D01*
X63393686Y-79087562D01*
X63364944Y-79060893D01*
X63200483Y-78908295D01*
X62982713Y-78759822D01*
X62745252Y-78645467D01*
X62493401Y-78567782D01*
X62232782Y-78528500D01*
X62232781Y-78528500D01*
X61969219Y-78528500D01*
X61969218Y-78528500D01*
X61708598Y-78567782D01*
X61456748Y-78645467D01*
X61219287Y-78759822D01*
X61001513Y-78908298D01*
X60808317Y-79087558D01*
X60643984Y-79293624D01*
X60512204Y-79521875D01*
X60415913Y-79767219D01*
X60357264Y-80024175D01*
X60337568Y-80287000D01*
X56960000Y-80287000D01*
X56960000Y-76326999D01*
X60337568Y-76326999D01*
X60357264Y-76589824D01*
X60415913Y-76846780D01*
X60512204Y-77092124D01*
X60571291Y-77194467D01*
X60643985Y-77320376D01*
X60808314Y-77526438D01*
X60808316Y-77526440D01*
X60808317Y-77526441D01*
X61001513Y-77705701D01*
X61001515Y-77705702D01*
X61001519Y-77705706D01*
X61219285Y-77854176D01*
X61456746Y-77968532D01*
X61708600Y-78046218D01*
X61922964Y-78078528D01*
X61969218Y-78085500D01*
X61969219Y-78085500D01*
X62232781Y-78085500D01*
X62232782Y-78085500D01*
X62272064Y-78079579D01*
X62493400Y-78046218D01*
X62745254Y-77968532D01*
X62982716Y-77854176D01*
X63200481Y-77705706D01*
X63393686Y-77526438D01*
X63558015Y-77320376D01*
X63689796Y-77092124D01*
X63786087Y-76846780D01*
X63844735Y-76589826D01*
X63864431Y-76327000D01*
X63858721Y-76250800D01*
X73857782Y-76250800D01*
X73861151Y-76285006D01*
X73877408Y-76450070D01*
X73935532Y-76641680D01*
X74023826Y-76806865D01*
X74029922Y-76818269D01*
X74079555Y-76878748D01*
X74156947Y-76973052D01*
X74179350Y-76991437D01*
X74311731Y-77100078D01*
X74400025Y-77147272D01*
X74488319Y-77194467D01*
X74571753Y-77219776D01*
X74679931Y-77252592D01*
X74879200Y-77272218D01*
X75078469Y-77252592D01*
X75270080Y-77194467D01*
X75446669Y-77100078D01*
X75601452Y-76973052D01*
X75728478Y-76818269D01*
X75822867Y-76641680D01*
X75880992Y-76450069D01*
X75900618Y-76250800D01*
X94330182Y-76250800D01*
X94333551Y-76285006D01*
X94349808Y-76450070D01*
X94407932Y-76641680D01*
X94496226Y-76806865D01*
X94502322Y-76818269D01*
X94551955Y-76878748D01*
X94629347Y-76973052D01*
X94651750Y-76991437D01*
X94784131Y-77100078D01*
X94872425Y-77147272D01*
X94960719Y-77194467D01*
X95044153Y-77219776D01*
X95152331Y-77252592D01*
X95351600Y-77272218D01*
X95550869Y-77252592D01*
X95742480Y-77194467D01*
X95919069Y-77100078D01*
X96073852Y-76973052D01*
X96200878Y-76818269D01*
X96205512Y-76809599D01*
X96922031Y-76809599D01*
X96942519Y-76991433D01*
X96942519Y-76991435D01*
X96942520Y-76991437D01*
X97002957Y-77164156D01*
X97002958Y-77164157D01*
X97100313Y-77319098D01*
X97229701Y-77448486D01*
X97229703Y-77448487D01*
X97229704Y-77448488D01*
X97384644Y-77545843D01*
X97557363Y-77606280D01*
X97739200Y-77626768D01*
X97921037Y-77606280D01*
X98093756Y-77545843D01*
X98248696Y-77448488D01*
X98378088Y-77319096D01*
X98475443Y-77164156D01*
X98535880Y-76991437D01*
X98556368Y-76809600D01*
X98535880Y-76627763D01*
X98475443Y-76455044D01*
X98378088Y-76300104D01*
X98378087Y-76300103D01*
X98378086Y-76300101D01*
X98362991Y-76285006D01*
X107746995Y-76285006D01*
X107882819Y-76357605D01*
X108077619Y-76416697D01*
X108280200Y-76436649D01*
X108482780Y-76416697D01*
X108677580Y-76357605D01*
X108847731Y-76266658D01*
X108906184Y-76252016D01*
X108964637Y-76266658D01*
X108968551Y-76268750D01*
X109149553Y-76365497D01*
X109345952Y-76425074D01*
X109550200Y-76445191D01*
X109754448Y-76425074D01*
X109950847Y-76365497D01*
X110126747Y-76271476D01*
X110185200Y-76256835D01*
X110243652Y-76271476D01*
X110419553Y-76365497D01*
X110615952Y-76425074D01*
X110820200Y-76445191D01*
X111024448Y-76425074D01*
X111220847Y-76365497D01*
X111396747Y-76271476D01*
X111455200Y-76256835D01*
X111513652Y-76271476D01*
X111689553Y-76365497D01*
X111885952Y-76425074D01*
X112090200Y-76445191D01*
X112294448Y-76425074D01*
X112490847Y-76365497D01*
X112666747Y-76271476D01*
X112725200Y-76256835D01*
X112783652Y-76271476D01*
X112959553Y-76365497D01*
X113155952Y-76425074D01*
X113360200Y-76445191D01*
X113564448Y-76425074D01*
X113760847Y-76365497D01*
X113936747Y-76271476D01*
X113995200Y-76256835D01*
X114053652Y-76271476D01*
X114229553Y-76365497D01*
X114425952Y-76425074D01*
X114630200Y-76445191D01*
X114834448Y-76425074D01*
X115030847Y-76365497D01*
X115206747Y-76271476D01*
X115265200Y-76256835D01*
X115323652Y-76271476D01*
X115499553Y-76365497D01*
X115695952Y-76425074D01*
X115900200Y-76445191D01*
X116104448Y-76425074D01*
X116300847Y-76365497D01*
X116476747Y-76271476D01*
X116535200Y-76256835D01*
X116593652Y-76271476D01*
X116769553Y-76365497D01*
X116965952Y-76425074D01*
X117170200Y-76445191D01*
X117374448Y-76425074D01*
X117570847Y-76365497D01*
X117746747Y-76271476D01*
X117805200Y-76256835D01*
X117863652Y-76271476D01*
X118039553Y-76365497D01*
X118235952Y-76425074D01*
X118440200Y-76445191D01*
X118644448Y-76425074D01*
X118840847Y-76365497D01*
X119016747Y-76271476D01*
X119075200Y-76256835D01*
X119133652Y-76271476D01*
X119309553Y-76365497D01*
X119505952Y-76425074D01*
X119710200Y-76445191D01*
X119914448Y-76425074D01*
X120110847Y-76365497D01*
X120291849Y-76268750D01*
X120450499Y-76138549D01*
X120580700Y-75979899D01*
X120677447Y-75798897D01*
X120737024Y-75602498D01*
X120757141Y-75398250D01*
X120737024Y-75194002D01*
X120677447Y-74997603D01*
X120583426Y-74821702D01*
X120568785Y-74763250D01*
X120583427Y-74704797D01*
X120588839Y-74694671D01*
X120677447Y-74528897D01*
X120737024Y-74332498D01*
X120741998Y-74282000D01*
X126515227Y-74282000D01*
X126534677Y-74491912D01*
X126592367Y-74694671D01*
X126686334Y-74883381D01*
X126813376Y-75051613D01*
X126956514Y-75182099D01*
X126969166Y-75193633D01*
X127026903Y-75229382D01*
X127148402Y-75304611D01*
X127306434Y-75365833D01*
X127344975Y-75380764D01*
X127552195Y-75419500D01*
X127763003Y-75419500D01*
X127763005Y-75419500D01*
X127970225Y-75380764D01*
X128101274Y-75329994D01*
X128166797Y-75304611D01*
X128166799Y-75304610D01*
X128346034Y-75193633D01*
X128501824Y-75051612D01*
X128511049Y-75039396D01*
X128558646Y-74976368D01*
X128602328Y-74940094D01*
X128657600Y-74927094D01*
X128712872Y-74940094D01*
X128756554Y-74976368D01*
X128813374Y-75051611D01*
X128954060Y-75179863D01*
X128969166Y-75193633D01*
X129026903Y-75229382D01*
X129148402Y-75304611D01*
X129306434Y-75365833D01*
X129344975Y-75380764D01*
X129552195Y-75419500D01*
X129763003Y-75419500D01*
X129763005Y-75419500D01*
X129970225Y-75380764D01*
X130101274Y-75329994D01*
X130166797Y-75304611D01*
X130166799Y-75304610D01*
X130346034Y-75193633D01*
X130501824Y-75051612D01*
X130511049Y-75039396D01*
X130558646Y-74976368D01*
X130602328Y-74940094D01*
X130657600Y-74927094D01*
X130712872Y-74940094D01*
X130756554Y-74976368D01*
X130813374Y-75051611D01*
X130954060Y-75179863D01*
X130969166Y-75193633D01*
X131026903Y-75229382D01*
X131148402Y-75304611D01*
X131306434Y-75365833D01*
X131344975Y-75380764D01*
X131552195Y-75419500D01*
X131763003Y-75419500D01*
X131763005Y-75419500D01*
X131970225Y-75380764D01*
X132101274Y-75329994D01*
X132166797Y-75304611D01*
X132215815Y-75274261D01*
X132345433Y-75194005D01*
X132346031Y-75193635D01*
X132346031Y-75193634D01*
X132346034Y-75193633D01*
X132399002Y-75145345D01*
X132459924Y-75115064D01*
X132527657Y-75121483D01*
X132581806Y-75162674D01*
X132665338Y-75274261D01*
X132782396Y-75361889D01*
X132919394Y-75412988D01*
X132919397Y-75412988D01*
X132919399Y-75412989D01*
X132979962Y-75419500D01*
X134335234Y-75419500D01*
X134335238Y-75419500D01*
X134395801Y-75412989D01*
X134395803Y-75412988D01*
X134395805Y-75412988D01*
X134482204Y-75380762D01*
X134532804Y-75361889D01*
X134649861Y-75274261D01*
X134737489Y-75157204D01*
X134788589Y-75020201D01*
X134795100Y-74959638D01*
X134795100Y-73604362D01*
X134788589Y-73543799D01*
X134788588Y-73543797D01*
X134788588Y-73543794D01*
X134737489Y-73406796D01*
X134649861Y-73289738D01*
X134532803Y-73202110D01*
X134395805Y-73151011D01*
X134365519Y-73147755D01*
X134335238Y-73144500D01*
X132979962Y-73144500D01*
X132953045Y-73147393D01*
X132919394Y-73151011D01*
X132782396Y-73202110D01*
X132665338Y-73289738D01*
X132581806Y-73401325D01*
X132527657Y-73442516D01*
X132459925Y-73448935D01*
X132399001Y-73418652D01*
X132346034Y-73370367D01*
X132166797Y-73259388D01*
X131970229Y-73183237D01*
X131970226Y-73183236D01*
X131970225Y-73183236D01*
X131763005Y-73144500D01*
X131552195Y-73144500D01*
X131344975Y-73183236D01*
X131344970Y-73183237D01*
X131148402Y-73259388D01*
X130969165Y-73370367D01*
X130813374Y-73512388D01*
X130756554Y-73587632D01*
X130712872Y-73623906D01*
X130657600Y-73636906D01*
X130602328Y-73623906D01*
X130558646Y-73587632D01*
X130501825Y-73512388D01*
X130346034Y-73370367D01*
X130166797Y-73259388D01*
X129970229Y-73183237D01*
X129970226Y-73183236D01*
X129970225Y-73183236D01*
X129763005Y-73144500D01*
X129552195Y-73144500D01*
X129344975Y-73183236D01*
X129344970Y-73183237D01*
X129148402Y-73259388D01*
X128969165Y-73370367D01*
X128813374Y-73512388D01*
X128756554Y-73587632D01*
X128712872Y-73623906D01*
X128657600Y-73636906D01*
X128602328Y-73623906D01*
X128558646Y-73587632D01*
X128501825Y-73512388D01*
X128346034Y-73370367D01*
X128166797Y-73259388D01*
X127970229Y-73183237D01*
X127970226Y-73183236D01*
X127970225Y-73183236D01*
X127763005Y-73144500D01*
X127552195Y-73144500D01*
X127344975Y-73183236D01*
X127344970Y-73183237D01*
X127148402Y-73259388D01*
X126969165Y-73370367D01*
X126813376Y-73512386D01*
X126686334Y-73680618D01*
X126592367Y-73869328D01*
X126534677Y-74072087D01*
X126515227Y-74282000D01*
X120741998Y-74282000D01*
X120757141Y-74128250D01*
X120737024Y-73924002D01*
X120677447Y-73727603D01*
X120580700Y-73546601D01*
X120450499Y-73387951D01*
X120312238Y-73274483D01*
X120291848Y-73257749D01*
X120187753Y-73202110D01*
X120110847Y-73161003D01*
X119914448Y-73101426D01*
X119914446Y-73101425D01*
X119914444Y-73101425D01*
X119710200Y-73081309D01*
X119505955Y-73101425D01*
X119505951Y-73101426D01*
X119505952Y-73101426D01*
X119309553Y-73161003D01*
X119309549Y-73161004D01*
X119309549Y-73161005D01*
X119133653Y-73255023D01*
X119075200Y-73269665D01*
X119016747Y-73255023D01*
X118917753Y-73202110D01*
X118840847Y-73161003D01*
X118644448Y-73101426D01*
X118644446Y-73101425D01*
X118644444Y-73101425D01*
X118440200Y-73081309D01*
X118235955Y-73101425D01*
X118235951Y-73101426D01*
X118235952Y-73101426D01*
X118039553Y-73161003D01*
X118039549Y-73161004D01*
X118039549Y-73161005D01*
X117863653Y-73255023D01*
X117805200Y-73269665D01*
X117746747Y-73255023D01*
X117647753Y-73202110D01*
X117570847Y-73161003D01*
X117374448Y-73101426D01*
X117374446Y-73101425D01*
X117374444Y-73101425D01*
X117170200Y-73081309D01*
X116965955Y-73101425D01*
X116965951Y-73101426D01*
X116965952Y-73101426D01*
X116769553Y-73161003D01*
X116769549Y-73161004D01*
X116769549Y-73161005D01*
X116593653Y-73255023D01*
X116535200Y-73269665D01*
X116476747Y-73255023D01*
X116377753Y-73202110D01*
X116300847Y-73161003D01*
X116104448Y-73101426D01*
X116104446Y-73101425D01*
X116104444Y-73101425D01*
X115900200Y-73081309D01*
X115695955Y-73101425D01*
X115695951Y-73101426D01*
X115695952Y-73101426D01*
X115499553Y-73161003D01*
X115499549Y-73161004D01*
X115499549Y-73161005D01*
X115323653Y-73255023D01*
X115265200Y-73269665D01*
X115206747Y-73255023D01*
X115107753Y-73202110D01*
X115030847Y-73161003D01*
X114834448Y-73101426D01*
X114834446Y-73101425D01*
X114834444Y-73101425D01*
X114630200Y-73081309D01*
X114425955Y-73101425D01*
X114425951Y-73101426D01*
X114425952Y-73101426D01*
X114229553Y-73161003D01*
X114229549Y-73161004D01*
X114229549Y-73161005D01*
X114053653Y-73255023D01*
X113995200Y-73269665D01*
X113936747Y-73255023D01*
X113837753Y-73202110D01*
X113760847Y-73161003D01*
X113564448Y-73101426D01*
X113564446Y-73101425D01*
X113564444Y-73101425D01*
X113360200Y-73081309D01*
X113155955Y-73101425D01*
X113155951Y-73101426D01*
X113155952Y-73101426D01*
X112959553Y-73161003D01*
X112959549Y-73161004D01*
X112959549Y-73161005D01*
X112783653Y-73255023D01*
X112725200Y-73269665D01*
X112666747Y-73255023D01*
X112567753Y-73202110D01*
X112490847Y-73161003D01*
X112294448Y-73101426D01*
X112294446Y-73101425D01*
X112294444Y-73101425D01*
X112090200Y-73081309D01*
X111885955Y-73101425D01*
X111885951Y-73101426D01*
X111885952Y-73101426D01*
X111689553Y-73161003D01*
X111689549Y-73161004D01*
X111689549Y-73161005D01*
X111513653Y-73255023D01*
X111455200Y-73269665D01*
X111396747Y-73255023D01*
X111297753Y-73202110D01*
X111220847Y-73161003D01*
X111024448Y-73101426D01*
X111024446Y-73101425D01*
X111024444Y-73101425D01*
X110820200Y-73081309D01*
X110615955Y-73101425D01*
X110615951Y-73101426D01*
X110615952Y-73101426D01*
X110419553Y-73161003D01*
X110419549Y-73161004D01*
X110419549Y-73161005D01*
X110243653Y-73255023D01*
X110185200Y-73269665D01*
X110126747Y-73255023D01*
X110027753Y-73202110D01*
X109950847Y-73161003D01*
X109754448Y-73101426D01*
X109754446Y-73101425D01*
X109754444Y-73101425D01*
X109550200Y-73081309D01*
X109345955Y-73101425D01*
X109149550Y-73161004D01*
X108964636Y-73259842D01*
X108906184Y-73274483D01*
X108847731Y-73259841D01*
X108677580Y-73168894D01*
X108482780Y-73109802D01*
X108280200Y-73089850D01*
X108077619Y-73109802D01*
X107882819Y-73168893D01*
X107746996Y-73241492D01*
X107746996Y-73241493D01*
X108473488Y-73967985D01*
X108502558Y-74013891D01*
X108509210Y-74067819D01*
X108503258Y-74128248D01*
X108523375Y-74332496D01*
X108523376Y-74332498D01*
X108547484Y-74411973D01*
X108550575Y-74422160D01*
X108552488Y-74487102D01*
X108521300Y-74544098D01*
X108465573Y-74577499D01*
X108400605Y-74578137D01*
X108344233Y-74545836D01*
X108280200Y-74481803D01*
X107998753Y-74763250D01*
X108280199Y-75044696D01*
X108344232Y-74980663D01*
X108400605Y-74948362D01*
X108465572Y-74948999D01*
X108521300Y-74982401D01*
X108552488Y-75039396D01*
X108550575Y-75104339D01*
X108523375Y-75194003D01*
X108503259Y-75398250D01*
X108509210Y-75458679D01*
X108502558Y-75512607D01*
X108473489Y-75558513D01*
X108280201Y-75751803D01*
X108280200Y-75751803D01*
X107746995Y-76285006D01*
X98362991Y-76285006D01*
X98248698Y-76170713D01*
X98185403Y-76130942D01*
X98093756Y-76073357D01*
X97921037Y-76012920D01*
X97921035Y-76012919D01*
X97921033Y-76012919D01*
X97739200Y-75992431D01*
X97557366Y-76012919D01*
X97557363Y-76012919D01*
X97557363Y-76012920D01*
X97384644Y-76073357D01*
X97384642Y-76073357D01*
X97384642Y-76073358D01*
X97229701Y-76170713D01*
X97100313Y-76300101D01*
X97009148Y-76445191D01*
X97002957Y-76455044D01*
X96955795Y-76589826D01*
X96942519Y-76627766D01*
X96922031Y-76809599D01*
X96205512Y-76809599D01*
X96295267Y-76641680D01*
X96353392Y-76450069D01*
X96373018Y-76250800D01*
X96353392Y-76051531D01*
X96295267Y-75859920D01*
X96295267Y-75859919D01*
X96206311Y-75693496D01*
X96200878Y-75683331D01*
X96133172Y-75600830D01*
X96073852Y-75528547D01*
X95940975Y-75419500D01*
X95919069Y-75401522D01*
X95912948Y-75398250D01*
X107241800Y-75398250D01*
X107261752Y-75600830D01*
X107320844Y-75795630D01*
X107393443Y-75931452D01*
X107926647Y-75398251D01*
X107926647Y-75398250D01*
X107393442Y-74865045D01*
X107320842Y-75000873D01*
X107261752Y-75195669D01*
X107241800Y-75398250D01*
X95912948Y-75398250D01*
X95880230Y-75380762D01*
X95742480Y-75307132D01*
X95550870Y-75249008D01*
X95351600Y-75229382D01*
X95152329Y-75249008D01*
X94960719Y-75307132D01*
X94784132Y-75401521D01*
X94629347Y-75528547D01*
X94502321Y-75683332D01*
X94407932Y-75859919D01*
X94349808Y-76051529D01*
X94338070Y-76170712D01*
X94330182Y-76250800D01*
X75900618Y-76250800D01*
X75880992Y-76051531D01*
X75822867Y-75859920D01*
X75822867Y-75859919D01*
X75733911Y-75693496D01*
X75728478Y-75683331D01*
X75660772Y-75600830D01*
X75601452Y-75528547D01*
X75468575Y-75419500D01*
X75446669Y-75401522D01*
X75407830Y-75380762D01*
X75270080Y-75307132D01*
X75078470Y-75249008D01*
X74879200Y-75229382D01*
X74679929Y-75249008D01*
X74488319Y-75307132D01*
X74311732Y-75401521D01*
X74156947Y-75528547D01*
X74029921Y-75683332D01*
X73935532Y-75859919D01*
X73877408Y-76051529D01*
X73865670Y-76170712D01*
X73857782Y-76250800D01*
X63858721Y-76250800D01*
X63844735Y-76064174D01*
X63786087Y-75807220D01*
X63689796Y-75561876D01*
X63558015Y-75333624D01*
X63438693Y-75183999D01*
X84374431Y-75183999D01*
X84394919Y-75365833D01*
X84394919Y-75365835D01*
X84394920Y-75365837D01*
X84455357Y-75538556D01*
X84470010Y-75561876D01*
X84552713Y-75693498D01*
X84682101Y-75822886D01*
X84682103Y-75822887D01*
X84682104Y-75822888D01*
X84837044Y-75920243D01*
X85009763Y-75980680D01*
X85191600Y-76001168D01*
X85373437Y-75980680D01*
X85546156Y-75920243D01*
X85701096Y-75822888D01*
X85830488Y-75693496D01*
X85927843Y-75538556D01*
X85988280Y-75365837D01*
X86008768Y-75184000D01*
X85988280Y-75002163D01*
X85927843Y-74829444D01*
X85830488Y-74674504D01*
X85830487Y-74674503D01*
X85830486Y-74674501D01*
X85701098Y-74545113D01*
X85600340Y-74481803D01*
X85546156Y-74447757D01*
X85373437Y-74387320D01*
X85373435Y-74387319D01*
X85373433Y-74387319D01*
X85191600Y-74366831D01*
X85009766Y-74387319D01*
X85009763Y-74387319D01*
X85009763Y-74387320D01*
X84837044Y-74447757D01*
X84837042Y-74447757D01*
X84837042Y-74447758D01*
X84682101Y-74545113D01*
X84552713Y-74674501D01*
X84455358Y-74829442D01*
X84394919Y-75002166D01*
X84374431Y-75183999D01*
X63438693Y-75183999D01*
X63393686Y-75127562D01*
X63393682Y-75127558D01*
X63200483Y-74948295D01*
X62982713Y-74799822D01*
X62745252Y-74685467D01*
X62493401Y-74607782D01*
X62232782Y-74568500D01*
X62232781Y-74568500D01*
X61969219Y-74568500D01*
X61969218Y-74568500D01*
X61708598Y-74607782D01*
X61456748Y-74685467D01*
X61219287Y-74799822D01*
X61001513Y-74948298D01*
X60808317Y-75127558D01*
X60643984Y-75333624D01*
X60512204Y-75561875D01*
X60415913Y-75807219D01*
X60357264Y-76064175D01*
X60337568Y-76326999D01*
X56960000Y-76326999D01*
X56960000Y-74128250D01*
X107241800Y-74128250D01*
X107261752Y-74330830D01*
X107320844Y-74525630D01*
X107393442Y-74661452D01*
X107926647Y-74128251D01*
X107926647Y-74128250D01*
X107393443Y-73595046D01*
X107393442Y-73595046D01*
X107320843Y-73730869D01*
X107261752Y-73925669D01*
X107241800Y-74128250D01*
X56960000Y-74128250D01*
X56960000Y-72366999D01*
X60337568Y-72366999D01*
X60357264Y-72629824D01*
X60415913Y-72886780D01*
X60512204Y-73132124D01*
X60643984Y-73360375D01*
X60665975Y-73387951D01*
X60808314Y-73566438D01*
X60808316Y-73566440D01*
X60808317Y-73566441D01*
X61001513Y-73745701D01*
X61001515Y-73745702D01*
X61001519Y-73745706D01*
X61219285Y-73894176D01*
X61456746Y-74008532D01*
X61708600Y-74086218D01*
X61922964Y-74118528D01*
X61969218Y-74125500D01*
X61969219Y-74125500D01*
X62232781Y-74125500D01*
X62232782Y-74125500D01*
X62272063Y-74119579D01*
X62493400Y-74086218D01*
X62745254Y-74008532D01*
X62982716Y-73894176D01*
X63200481Y-73745706D01*
X63393686Y-73566438D01*
X63558015Y-73360376D01*
X63689796Y-73132124D01*
X63786087Y-72886780D01*
X63844735Y-72629826D01*
X63864431Y-72367000D01*
X63844735Y-72104174D01*
X63822807Y-72008103D01*
X183625394Y-72008103D01*
X183635272Y-72316172D01*
X183684467Y-72620461D01*
X183772170Y-72915960D01*
X183896934Y-73197804D01*
X183896936Y-73197808D01*
X183896937Y-73197809D01*
X184056723Y-73461393D01*
X184248904Y-73702381D01*
X184470324Y-73916814D01*
X184717347Y-74101172D01*
X184985918Y-74252428D01*
X185271625Y-74368099D01*
X185569779Y-74446284D01*
X185875483Y-74485700D01*
X186106574Y-74485700D01*
X186106578Y-74485700D01*
X186156239Y-74482511D01*
X186337201Y-74470893D01*
X186639751Y-74411972D01*
X186932283Y-74314844D01*
X187209993Y-74181107D01*
X187468320Y-74012954D01*
X187473515Y-74008532D01*
X187570850Y-73925669D01*
X187703024Y-73813148D01*
X187863082Y-73636906D01*
X187910246Y-73584974D01*
X187910247Y-73584971D01*
X187910250Y-73584969D01*
X188086596Y-73332163D01*
X188229167Y-73058883D01*
X188281765Y-72915956D01*
X188335620Y-72769616D01*
X188404209Y-72469107D01*
X188414059Y-72366999D01*
X188433806Y-72162298D01*
X188423927Y-71854222D01*
X188374733Y-71549939D01*
X188287031Y-71254444D01*
X188248571Y-71167562D01*
X188162265Y-70972595D01*
X188162263Y-70972591D01*
X188002477Y-70709007D01*
X187810296Y-70468019D01*
X187588876Y-70253586D01*
X187526586Y-70207098D01*
X187341856Y-70069230D01*
X187341854Y-70069229D01*
X187341853Y-70069228D01*
X187073282Y-69917972D01*
X186787575Y-69802301D01*
X186553016Y-69740792D01*
X186489418Y-69724115D01*
X186236827Y-69691547D01*
X186183717Y-69684700D01*
X185952626Y-69684700D01*
X185952622Y-69684700D01*
X185721997Y-69699507D01*
X185419454Y-69758426D01*
X185287311Y-69802301D01*
X185126917Y-69855556D01*
X185126914Y-69855557D01*
X185126912Y-69855558D01*
X184849212Y-69989289D01*
X184590874Y-70157449D01*
X184356175Y-70357252D01*
X184148953Y-70585425D01*
X183972602Y-70838239D01*
X183830032Y-71111516D01*
X183723579Y-71400783D01*
X183654990Y-71701292D01*
X183625394Y-72008103D01*
X63822807Y-72008103D01*
X63786087Y-71847220D01*
X63689796Y-71601876D01*
X63558015Y-71373624D01*
X63393686Y-71167562D01*
X63333283Y-71111516D01*
X63200483Y-70988295D01*
X62982713Y-70839822D01*
X62745252Y-70725467D01*
X62493401Y-70647782D01*
X62232782Y-70608500D01*
X62232781Y-70608500D01*
X61969219Y-70608500D01*
X61969218Y-70608500D01*
X61708598Y-70647782D01*
X61456748Y-70725467D01*
X61219287Y-70839822D01*
X61001513Y-70988298D01*
X60808317Y-71167558D01*
X60643984Y-71373624D01*
X60512204Y-71601875D01*
X60415913Y-71847219D01*
X60357264Y-72104175D01*
X60337568Y-72366999D01*
X56960000Y-72366999D01*
X56960000Y-69697600D01*
X76195631Y-69697600D01*
X76216119Y-69879433D01*
X76216119Y-69879435D01*
X76216120Y-69879437D01*
X76276557Y-70052156D01*
X76299381Y-70088480D01*
X76373913Y-70207098D01*
X76503301Y-70336486D01*
X76503303Y-70336487D01*
X76503304Y-70336488D01*
X76658244Y-70433843D01*
X76830963Y-70494280D01*
X77012800Y-70514768D01*
X77194637Y-70494280D01*
X77367356Y-70433843D01*
X77522296Y-70336488D01*
X77651688Y-70207096D01*
X77749043Y-70052156D01*
X77809480Y-69879437D01*
X77829968Y-69697600D01*
X95650982Y-69697600D01*
X95653594Y-69724116D01*
X95670608Y-69896870D01*
X95728732Y-70088480D01*
X95792136Y-70207098D01*
X95823122Y-70265069D01*
X95872755Y-70325548D01*
X95950147Y-70419852D01*
X96008839Y-70468018D01*
X96104931Y-70546878D01*
X96193225Y-70594072D01*
X96281519Y-70641267D01*
X96364953Y-70666576D01*
X96473131Y-70699392D01*
X96672400Y-70719018D01*
X96871669Y-70699392D01*
X97063280Y-70641267D01*
X97239869Y-70546878D01*
X97394652Y-70419852D01*
X97521678Y-70265069D01*
X97616067Y-70088480D01*
X97674192Y-69896869D01*
X97693818Y-69697600D01*
X97674192Y-69498331D01*
X97616067Y-69306720D01*
X97616067Y-69306719D01*
X97552665Y-69188104D01*
X97521678Y-69130131D01*
X97458164Y-69052739D01*
X97394652Y-68975347D01*
X97278994Y-68880431D01*
X97239869Y-68848322D01*
X97228465Y-68842226D01*
X97063280Y-68753932D01*
X96871670Y-68695808D01*
X96672400Y-68676182D01*
X96473129Y-68695808D01*
X96281519Y-68753932D01*
X96104932Y-68848321D01*
X95950147Y-68975347D01*
X95823121Y-69130132D01*
X95728732Y-69306719D01*
X95670608Y-69498329D01*
X95650982Y-69697599D01*
X95650982Y-69697600D01*
X77829968Y-69697600D01*
X77809480Y-69515763D01*
X77749043Y-69343044D01*
X77651688Y-69188104D01*
X77651687Y-69188103D01*
X77651686Y-69188101D01*
X77522298Y-69058713D01*
X77459003Y-69018942D01*
X77367356Y-68961357D01*
X77194637Y-68900920D01*
X77194635Y-68900919D01*
X77194633Y-68900919D01*
X77012800Y-68880431D01*
X76830966Y-68900919D01*
X76830963Y-68900919D01*
X76830963Y-68900920D01*
X76658244Y-68961357D01*
X76658242Y-68961357D01*
X76658242Y-68961358D01*
X76503301Y-69058713D01*
X76373913Y-69188101D01*
X76276558Y-69343042D01*
X76216119Y-69515766D01*
X76195631Y-69697600D01*
X56960000Y-69697600D01*
X56960000Y-67498000D01*
X56976613Y-67436000D01*
X57022000Y-67390613D01*
X57084000Y-67374000D01*
X190883600Y-67374000D01*
X190945676Y-67390657D01*
G37*
%TD.AperFunction*%
%TD*%
M02*
