%TF.GenerationSoftware,KiCad,Pcbnew,(6.0.2)*%
%TF.CreationDate,2022-03-05T21:41:31-07:00*%
%TF.ProjectId,L0005-Valve-Controller,4c303030-352d-4566-916c-76652d436f6e,1.0*%
%TF.SameCoordinates,Original*%
%TF.FileFunction,Paste,Top*%
%TF.FilePolarity,Positive*%
%FSLAX46Y46*%
G04 Gerber Fmt 4.6, Leading zero omitted, Abs format (unit mm)*
G04 Created by KiCad (PCBNEW (6.0.2)) date 2022-03-05 21:41:31*
%MOMM*%
%LPD*%
G01*
G04 APERTURE LIST*
%ADD10R,1.700000X0.990600*%
%ADD11R,1.000000X1.100000*%
%ADD12R,1.100000X1.000000*%
%ADD13R,1.600000X0.855600*%
%ADD14R,0.855600X1.600000*%
%ADD15R,0.965200X1.295400*%
%ADD16R,1.295400X0.965200*%
%ADD17R,0.800000X0.800000*%
%ADD18R,2.620000X3.200000*%
%ADD19R,1.900000X1.500000*%
%ADD20R,0.940000X1.020000*%
%ADD21R,1.020000X0.940000*%
%ADD22R,1.854200X3.048000*%
%ADD23R,3.048000X1.854200*%
%ADD24R,1.430605X0.270000*%
%ADD25R,0.270000X1.430605*%
%ADD26R,2.150000X0.950000*%
%ADD27R,2.150000X3.250000*%
%ADD28R,1.219200X0.457200*%
%ADD29R,1.270000X1.778000*%
%ADD30R,1.778000X1.270000*%
%ADD31R,0.876300X0.304800*%
%ADD32R,0.508000X0.254000*%
G04 APERTURE END LIST*
D10*
%TO.C,B1*%
X126347200Y-91089279D03*
X120947200Y-91089279D03*
X126347200Y-87889281D03*
X120947200Y-87889281D03*
%TD*%
D11*
%TO.C,C1*%
X132852160Y-108190400D03*
X132852160Y-106490400D03*
%TD*%
D12*
%TO.C,C2*%
X122167280Y-94701360D03*
X123867280Y-94701360D03*
%TD*%
D11*
%TO.C,C3*%
X134691120Y-108215800D03*
X134691120Y-106515800D03*
%TD*%
D12*
%TO.C,C4*%
X142856320Y-103657400D03*
X141156320Y-103657400D03*
%TD*%
%TO.C,C5*%
X122741320Y-96448880D03*
X124441320Y-96448880D03*
%TD*%
%TO.C,C6*%
X122710840Y-98298000D03*
X124410840Y-98298000D03*
%TD*%
D11*
%TO.C,C7*%
X133217920Y-88491960D03*
X133217920Y-90191960D03*
%TD*%
D12*
%TO.C,C8*%
X142886800Y-101909880D03*
X141186800Y-101909880D03*
%TD*%
%TO.C,C9*%
X140613500Y-105791000D03*
X138913500Y-105791000D03*
%TD*%
D11*
%TO.C,C10*%
X129082800Y-108200560D03*
X129082800Y-106500560D03*
%TD*%
%TO.C,C11*%
X130997960Y-108193840D03*
X130997960Y-106493840D03*
%TD*%
D12*
%TO.C,C12*%
X163284800Y-80213200D03*
X164984800Y-80213200D03*
%TD*%
D11*
%TO.C,C13*%
X131424680Y-88466560D03*
X131424680Y-90166560D03*
%TD*%
D13*
%TO.C,C16*%
X125811280Y-112439441D03*
X125811280Y-109383839D03*
%TD*%
D14*
%TO.C,C17*%
X113282721Y-92453460D03*
X110227119Y-92453460D03*
%TD*%
D13*
%TO.C,C18*%
X120446800Y-85401141D03*
X120446800Y-82345539D03*
%TD*%
D14*
%TO.C,C19*%
X95507801Y-113792000D03*
X92452199Y-113792000D03*
%TD*%
D13*
%TO.C,C20*%
X92456000Y-99063801D03*
X92456000Y-96008199D03*
%TD*%
%TO.C,C21*%
X92456000Y-85848199D03*
X92456000Y-88903801D03*
%TD*%
D15*
%TO.C,D1*%
X160375600Y-82499200D03*
X157327600Y-82499200D03*
%TD*%
D16*
%TO.C,D2*%
X157924500Y-108839000D03*
X157924500Y-105791000D03*
%TD*%
D15*
%TO.C,D3*%
X145669000Y-92583000D03*
X142621000Y-92583000D03*
%TD*%
D17*
%TO.C,D4*%
X143192000Y-87122000D03*
X141542000Y-87122000D03*
%TD*%
D18*
%TO.C,F1*%
X132097000Y-114046000D03*
X140191000Y-114046000D03*
%TD*%
D11*
%TO.C,J1*%
X118780560Y-94484560D03*
X118780560Y-92784560D03*
%TD*%
%TO.C,J2*%
X118805960Y-96467560D03*
X118805960Y-98167560D03*
%TD*%
D19*
%TO.C,K1*%
X120451520Y-115260120D03*
X120451520Y-112720120D03*
X120451520Y-110180120D03*
X120451520Y-107640120D03*
X112151520Y-107640120D03*
X112151520Y-110180120D03*
X112151520Y-115260120D03*
%TD*%
%TO.C,K2*%
X114416480Y-103687880D03*
X114416480Y-101147880D03*
X114416480Y-98607880D03*
X114416480Y-96067880D03*
X106116480Y-96067880D03*
X106116480Y-98607880D03*
X106116480Y-103687880D03*
%TD*%
%TO.C,K3*%
X114307260Y-88943180D03*
X114307260Y-86403180D03*
X114307260Y-83863180D03*
X114307260Y-81323180D03*
X106007260Y-81323180D03*
X106007260Y-83863180D03*
X106007260Y-88943180D03*
%TD*%
%TO.C,K4*%
X88478000Y-113538000D03*
X88478000Y-110998000D03*
X88478000Y-108458000D03*
X88478000Y-105918000D03*
X80178000Y-105918000D03*
X80178000Y-108458000D03*
X80178000Y-113538000D03*
%TD*%
%TO.C,K5*%
X88208760Y-100838000D03*
X88208760Y-98298000D03*
X88208760Y-95758000D03*
X88208760Y-93218000D03*
X79908760Y-93218000D03*
X79908760Y-95758000D03*
X79908760Y-100838000D03*
%TD*%
%TO.C,K6*%
X87860780Y-87122000D03*
X87860780Y-84582000D03*
X87860780Y-82042000D03*
X87860780Y-79502000D03*
X79560780Y-79502000D03*
X79560780Y-82042000D03*
X79560780Y-87122000D03*
%TD*%
D20*
%TO.C,R2*%
X123314400Y-107020360D03*
X124894400Y-107020360D03*
%TD*%
%TO.C,R3*%
X126088200Y-115082320D03*
X124508200Y-115082320D03*
%TD*%
%TO.C,R4*%
X118991320Y-101081840D03*
X120571320Y-101081840D03*
%TD*%
%TO.C,R5*%
X119270720Y-80233520D03*
X120850720Y-80233520D03*
%TD*%
%TO.C,R6*%
X107205840Y-92080080D03*
X105625840Y-92080080D03*
%TD*%
D21*
%TO.C,R7*%
X117589300Y-87017800D03*
X117589300Y-88597800D03*
%TD*%
D20*
%TO.C,R8*%
X91666000Y-106680000D03*
X93246000Y-106680000D03*
%TD*%
D21*
%TO.C,R9*%
X91948000Y-92174000D03*
X91948000Y-93754000D03*
%TD*%
D20*
%TO.C,R10*%
X93190000Y-78740000D03*
X94770000Y-78740000D03*
%TD*%
D21*
%TO.C,R11*%
X96012000Y-110518000D03*
X96012000Y-108938000D03*
%TD*%
%TO.C,R12*%
X92456000Y-102842000D03*
X92456000Y-104422000D03*
%TD*%
D20*
%TO.C,R13*%
X91158000Y-81788000D03*
X92738000Y-81788000D03*
%TD*%
%TO.C,R22*%
X140109000Y-109283500D03*
X138529000Y-109283500D03*
%TD*%
%TO.C,R23*%
X151056400Y-104140000D03*
X149476400Y-104140000D03*
%TD*%
%TO.C,R24*%
X147073500Y-89979500D03*
X148653500Y-89979500D03*
%TD*%
%TO.C,R25*%
X147038000Y-88074500D03*
X148618000Y-88074500D03*
%TD*%
D22*
%TO.C,RV1*%
X107953820Y-111241840D03*
X99096820Y-111241840D03*
%TD*%
D23*
%TO.C,RV2*%
X98628200Y-104420680D03*
X98628200Y-95563680D03*
%TD*%
%TO.C,RV3*%
X98402140Y-90920580D03*
X98402140Y-82063580D03*
%TD*%
%TO.C,RV4*%
X72224900Y-114156500D03*
X72224900Y-105299500D03*
%TD*%
%TO.C,RV5*%
X72382380Y-100948500D03*
X72382380Y-92091500D03*
%TD*%
%TO.C,RV6*%
X72438260Y-88248500D03*
X72438260Y-79391500D03*
%TD*%
D24*
%TO.C,U1*%
X126994618Y-94629280D03*
X126994618Y-95129279D03*
X126994618Y-95629280D03*
X126994618Y-96129279D03*
X126994618Y-96629281D03*
X126994618Y-97129280D03*
X126994618Y-97629279D03*
X126994618Y-98129280D03*
X126994618Y-98629280D03*
X126994618Y-99129281D03*
X126994618Y-99629280D03*
X126994618Y-100129279D03*
X126994618Y-100629281D03*
X126994618Y-101129280D03*
X126994618Y-101629281D03*
X126994618Y-102129280D03*
D25*
X128959920Y-104094582D03*
X129459919Y-104094582D03*
X129959920Y-104094582D03*
X130459919Y-104094582D03*
X130959921Y-104094582D03*
X131459920Y-104094582D03*
X131959919Y-104094582D03*
X132459920Y-104094582D03*
X132959920Y-104094582D03*
X133459921Y-104094582D03*
X133959920Y-104094582D03*
X134459919Y-104094582D03*
X134959921Y-104094582D03*
X135459920Y-104094582D03*
X135959921Y-104094582D03*
X136459920Y-104094582D03*
D24*
X138425222Y-102129280D03*
X138425222Y-101629281D03*
X138425222Y-101129280D03*
X138425222Y-100629281D03*
X138425222Y-100129279D03*
X138425222Y-99629280D03*
X138425222Y-99129281D03*
X138425222Y-98629280D03*
X138425222Y-98129280D03*
X138425222Y-97629279D03*
X138425222Y-97129280D03*
X138425222Y-96629281D03*
X138425222Y-96129279D03*
X138425222Y-95629280D03*
X138425222Y-95129279D03*
X138425222Y-94629280D03*
D25*
X136459920Y-92663978D03*
X135959921Y-92663978D03*
X135459920Y-92663978D03*
X134959921Y-92663978D03*
X134459919Y-92663978D03*
X133959920Y-92663978D03*
X133459921Y-92663978D03*
X132959920Y-92663978D03*
X132459920Y-92663978D03*
X131959919Y-92663978D03*
X131459920Y-92663978D03*
X130959921Y-92663978D03*
X130459919Y-92663978D03*
X129959920Y-92663978D03*
X129459919Y-92663978D03*
X128959920Y-92663978D03*
%TD*%
D26*
%TO.C,U2*%
X153119500Y-88378000D03*
D27*
X158919500Y-90678000D03*
D26*
X153119500Y-90678000D03*
X153119500Y-92978000D03*
%TD*%
D28*
%TO.C,U5*%
X154089100Y-108839000D03*
X154089100Y-106299000D03*
X144106900Y-106299000D03*
X144106900Y-108839000D03*
%TD*%
D29*
%TO.C,C14*%
X149999700Y-97218500D03*
X152641300Y-97218500D03*
%TD*%
D30*
%TO.C,C15*%
X163525200Y-88747600D03*
X163525200Y-91389200D03*
%TD*%
D20*
%TO.C,R1*%
X158772800Y-80111600D03*
X160352800Y-80111600D03*
%TD*%
D21*
%TO.C,R15*%
X180086000Y-95730000D03*
X180086000Y-97310000D03*
%TD*%
%TO.C,R21*%
X180213000Y-100556000D03*
X180213000Y-102136000D03*
%TD*%
D31*
%TO.C,U4*%
X157169358Y-98791001D03*
X157169358Y-99441000D03*
X157169358Y-100090999D03*
X159391858Y-100090999D03*
X159391858Y-98791001D03*
%TD*%
D12*
%TO.C,C22*%
X150788000Y-100965000D03*
X152488000Y-100965000D03*
%TD*%
D32*
%TO.C,Q2*%
X160755990Y-96266000D03*
X160755990Y-96774000D03*
X160755990Y-97282000D03*
X162559390Y-97282000D03*
X162559390Y-96774000D03*
X162559390Y-96266000D03*
%TD*%
%TO.C,Q1*%
X163334700Y-104851200D03*
X163334700Y-105359200D03*
X163334700Y-105867200D03*
X165138100Y-105867200D03*
X165138100Y-105359200D03*
X165138100Y-104851200D03*
%TD*%
D12*
%TO.C,C25*%
X163156000Y-99060000D03*
X161456000Y-99060000D03*
%TD*%
%TO.C,C24*%
X159473000Y-103378000D03*
X157773000Y-103378000D03*
%TD*%
D21*
%TO.C,R20*%
X178308000Y-95730000D03*
X178308000Y-97310000D03*
%TD*%
%TO.C,R14*%
X175666400Y-104112000D03*
X175666400Y-105692000D03*
%TD*%
D12*
%TO.C,C23*%
X159473000Y-101727000D03*
X157773000Y-101727000D03*
%TD*%
D21*
%TO.C,R18*%
X173634400Y-104112000D03*
X173634400Y-105692000D03*
%TD*%
%TO.C,R19*%
X171133800Y-99725600D03*
X171133800Y-98145600D03*
%TD*%
%TO.C,R17*%
X178308000Y-102136000D03*
X178308000Y-100556000D03*
%TD*%
D31*
%TO.C,U3*%
X153574750Y-102728001D03*
X153574750Y-103378000D03*
X153574750Y-104027999D03*
X155797250Y-104027999D03*
X155797250Y-102728001D03*
%TD*%
D21*
%TO.C,R16*%
X169279600Y-98145600D03*
X169279600Y-99725600D03*
%TD*%
M02*
