M48
; DRILL file {KiCad 7.0.1} date Fri Jun  9 22:35:28 2023
; FORMAT={-:-/ absolute / inch / decimal}
; #@! TF.CreationDate,2023-06-09T22:35:28-07:00
; #@! TF.GenerationSoftware,Kicad,Pcbnew,7.0.1
; #@! TF.FileFunction,Plated,1,4,PTH
FMAT,2
INCH
; #@! TA.AperFunction,Plated,PTH,ViaDrill
T1C0.0119
; #@! TA.AperFunction,Plated,PTH,ViaDrill
T2C0.0250
; #@! TA.AperFunction,Plated,PTH,ComponentDrill
T3C0.0290
; #@! TA.AperFunction,Plated,PTH,ComponentDrill
T4C0.0295
; #@! TA.AperFunction,Plated,PTH,ComponentDrill
T5C0.0315
; #@! TA.AperFunction,Plated,PTH,ComponentDrill
T6C0.0382
; #@! TA.AperFunction,Plated,PTH,ComponentDrill
T7C0.0669
; #@! TA.AperFunction,Plated,PTH,ComponentDrill
T8C0.0709
; #@! TA.AperFunction,Plated,PTH,ComponentDrill
T9C0.0925
%
G90
G05
T1
X2.746Y-4.534
X3.026Y-4.182
X3.032Y-2.744
X3.074Y-4.22
X3.095Y-4.583
X3.272Y-3.692
X3.324Y-3.654
X3.352Y-3.258
X3.354Y-2.96
X3.387Y-3.435
X3.455Y-4.215
X3.574Y-3.82
X3.638Y-4.528
X3.848Y-3.024
X3.915Y-3.705
X3.948Y-4.524
X3.956Y-4.22
X4.514Y-3.032
X4.544Y-3.354
X4.5835Y-4.1075
X4.768Y-3.214
X4.786Y-3.756
X4.812Y-3.66
X4.832Y-3.432
X4.864Y-3.314
X4.918Y-3.52
X4.946Y-3.242
X4.954Y-3.866
X4.958Y-3.756
X4.9631Y-3.8109
X4.968Y-3.306
X5.02Y-3.954
X5.042Y-3.296
X5.0914Y-3.5746
X5.092Y-3.786
X5.095Y-3.981
X5.1126Y-3.2514
X5.115Y-3.84
X5.158Y-3.41
X5.27Y-3.54
X5.308Y-3.38
X5.365Y-3.115
X5.392Y-3.47
X5.412Y-3.198
X5.415Y-3.59
X5.43Y-3.49
X5.47Y-3.595
X5.505Y-3.67
X5.57Y-3.555
X5.5705Y-3.3975
X5.5725Y-4.0755
X5.622Y-3.938
X5.658Y-3.316
X5.73Y-3.56
X5.745Y-3.605
X5.79Y-3.83
X5.795Y-3.615
X5.82Y-3.81
X5.84Y-3.625
X5.846Y-3.362
X5.965Y-3.885
X5.966Y-4.272
X6.0Y-4.5
X6.02Y-4.6
X6.08Y-4.535
X6.13Y-4.665
X6.155Y-3.445
X6.155Y-3.55
X6.17Y-4.6
X6.26Y-4.45
X6.27Y-4.03
X6.36Y-3.985
X6.38Y-4.475
X6.455Y-3.78
X6.49Y-4.485
X6.585Y-3.555
X6.585Y-4.49
X6.655Y-3.805
X6.715Y-4.36
X6.78Y-4.455
X6.865Y-4.51
X6.92Y-4.225
X7.0421Y-4.0778
X7.11Y-4.22
X7.305Y-3.175
T2
X2.862Y-3.6
X2.948Y-3.002
X3.314Y-4.274
X3.72Y-4.416
X3.74Y-4.662
X3.754Y-3.002
X3.806Y-2.744
X4.328Y-4.416
X5.65Y-2.855
T3
X4.263Y-2.9184
X4.263Y-2.9684
X4.313Y-2.9184
X4.313Y-2.9684
X4.363Y-2.9184
X4.363Y-2.9684
X4.413Y-2.9184
X4.413Y-2.9684
X4.463Y-2.9184
X4.463Y-2.9684
X4.513Y-2.9184
X4.513Y-2.9684
X4.563Y-2.9184
X4.563Y-2.9684
X4.613Y-2.9184
X4.613Y-2.9684
X4.663Y-2.9184
X4.663Y-2.9684
X4.713Y-2.9184
X4.713Y-2.9684
T4
X5.0259Y-2.9245
X5.1046Y-2.9245
X5.1834Y-2.9245
X5.2621Y-2.9245
T5
X5.6331Y-4.8239
X5.7118Y-4.8239
X5.7906Y-4.8239
X5.8693Y-4.8239
X5.9481Y-4.8239
X6.0268Y-4.8239
X6.3031Y-4.8279
X6.3818Y-4.8279
X6.4606Y-4.8279
X6.5393Y-4.8279
X6.6181Y-4.8279
X6.6968Y-4.8279
X7.004Y-4.3471
X7.004Y-4.4259
X7.004Y-4.5046
X7.004Y-4.5834
X7.004Y-4.6621
X7.004Y-4.7409
X7.3639Y-4.1932
X7.3639Y-4.2719
X7.3639Y-4.3507
X7.3639Y-4.4294
X7.3639Y-4.5082
X7.3639Y-4.5869
T6
X6.9129Y-3.5958
X6.9129Y-3.6942
X6.9917Y-3.5958
X6.9917Y-3.6942
T7
X4.8254Y-4.4321
X4.9813Y-4.4321
X5.2334Y-4.4301
X5.3893Y-4.4301
X6.0278Y-3.1779
X6.1837Y-3.1779
X6.3396Y-3.1779
X6.5878Y-3.1779
X6.7437Y-3.1779
X6.8996Y-3.1779
T8
X2.4399Y-4.2091
X2.4399Y-4.365
X2.4399Y-4.5209
X2.4449Y-2.8491
X2.4449Y-3.005
X2.4449Y-3.1609
X2.4449Y-3.5241
X2.4449Y-3.68
X2.4449Y-3.8359
X2.8341Y-4.825
X2.99Y-4.825
X3.1459Y-4.825
X3.5341Y-4.8251
X3.69Y-4.8251
X3.8459Y-4.8251
X4.2241Y-4.825
X4.38Y-4.825
X4.5359Y-4.825
T9
X7.0984Y-3.408
X7.0984Y-3.882
T0
M30
